# Blender 4.4.1
# www.blender.org
mtllib BarrierSphere.mtl
o 球
v 0.000000 1.337849 -0.893922
v 0.000000 0.893922 -1.337849
v 0.000000 0.313904 -1.578101
v 0.000000 0.000000 -1.609018
v 0.000000 -0.313904 -1.578101
v 0.000000 -0.893922 -1.337849
v 0.061240 1.578101 -0.307872
v 0.120126 1.486538 -0.603913
v 0.174396 1.337849 -0.876746
v 0.221963 1.137747 -1.115886
v 0.261001 0.893922 -1.312143
v 0.290009 0.615744 -1.457975
v 0.307872 0.313904 -1.547778
v 0.313904 0.000000 -1.578101
v 0.307872 -0.313904 -1.547778
v 0.290009 -0.615744 -1.457975
v 0.261001 -0.893922 -1.312143
v 0.221963 -1.137747 -1.115886
v 0.174396 -1.337849 -0.876746
v 0.120126 -1.486538 -0.603913
v 0.061240 -1.578101 -0.307872
v 0.120126 1.578101 -0.290009
v 0.235635 1.486538 -0.568874
v 0.342089 1.337849 -0.825876
v 0.435397 1.137747 -1.051141
v 0.511973 0.893922 -1.236011
v 0.568874 0.615744 -1.373382
v 0.603913 0.313904 -1.457975
v 0.615744 0.000000 -1.486538
v 0.603913 -0.313904 -1.457975
v 0.568874 -0.615744 -1.373382
v 0.511973 -0.893922 -1.236011
v 0.435397 -1.137747 -1.051141
v 0.342089 -1.337849 -0.825876
v 0.235635 -1.486538 -0.568874
v 0.120126 -1.578101 -0.290009
v 0.174396 1.578101 -0.261001
v 0.342089 1.486538 -0.511973
v 0.496637 1.337849 -0.743269
v 0.632098 1.137747 -0.946002
v 0.743269 0.893922 -1.112381
v 0.825876 0.615744 -1.236011
v 0.876746 0.313904 -1.312143
v 0.893922 0.000000 -1.337849
v 0.876746 -0.313904 -1.312143
v 0.825876 -0.615744 -1.236011
v 0.743269 -0.893922 -1.112381
v 0.632098 -1.137747 -0.946002
v 0.496637 -1.337849 -0.743269
v 0.342089 -1.486538 -0.511973
v 0.174396 -1.578101 -0.261001
v 0.221963 1.578101 -0.221963
v 0.435397 1.486538 -0.435397
v 0.632098 1.337849 -0.632098
v 0.804509 1.137747 -0.804509
v 0.946002 0.893922 -0.946002
v 1.051141 0.615744 -1.051141
v 1.115886 0.313904 -1.115886
v 1.137747 0.000000 -1.137747
v 1.115886 -0.313904 -1.115886
v 1.051141 -0.615744 -1.051141
v 0.946002 -0.893922 -0.946002
v 0.804509 -1.137747 -0.804509
v 0.632098 -1.337849 -0.632098
v 0.435397 -1.486538 -0.435397
v 0.221963 -1.578101 -0.221963
v 0.261001 1.578101 -0.174396
v 0.511973 1.486538 -0.342089
v 0.743269 1.337849 -0.496637
v 0.946002 1.137747 -0.632098
v 1.112381 0.893922 -0.743269
v 1.236011 0.615744 -0.825877
v 1.312143 0.313904 -0.876746
v 1.337849 0.000000 -0.893922
v 1.312143 -0.313904 -0.876746
v 1.236011 -0.615744 -0.825877
v 1.112381 -0.893922 -0.743269
v 0.946002 -1.137747 -0.632098
v 0.743269 -1.337849 -0.496637
v 0.511973 -1.486538 -0.342089
v 0.261001 -1.578101 -0.174396
v 0.000000 1.609018 0.000000
v 0.290009 1.578101 -0.120126
v 0.568874 1.486538 -0.235635
v 0.825876 1.337849 -0.342089
v 1.051141 1.137747 -0.435397
v 1.236011 0.893922 -0.511972
v 1.373382 0.615744 -0.568874
v 1.457975 0.313904 -0.603913
v 1.486538 0.000000 -0.615744
v 1.457975 -0.313904 -0.603913
v 1.373382 -0.615744 -0.568874
v 1.236011 -0.893922 -0.511972
v 1.051141 -1.137747 -0.435397
v 0.825876 -1.337849 -0.342089
v 0.568874 -1.486538 -0.235635
v 0.290009 -1.578101 -0.120126
v 0.307872 1.578101 -0.061240
v 0.603913 1.486538 -0.120126
v 0.876746 1.337849 -0.174395
v 1.115886 1.137747 -0.221964
v 1.312143 0.893922 -0.261001
v 1.457975 0.615744 -0.290009
v 1.547778 0.313904 -0.307872
v 1.578100 0.000000 -0.313903
v 1.547778 -0.313904 -0.307872
v 1.457975 -0.615744 -0.290009
v 1.312143 -0.893922 -0.261001
v 1.115886 -1.137747 -0.221964
v 0.876746 -1.337849 -0.174395
v 0.603913 -1.486538 -0.120126
v 0.307872 -1.578101 -0.061240
v 0.313904 1.578101 0.000000
v 0.615744 1.486538 0.000000
v 0.893922 1.337849 0.000000
v 1.137747 1.137747 -0.000000
v 1.337849 0.893922 0.000000
v 1.486538 0.615744 -0.000000
v 1.578101 0.313904 0.000000
v 1.609017 0.000000 0.000000
v 1.578101 -0.313904 0.000000
v 1.486538 -0.615744 -0.000000
v 1.337849 -0.893922 0.000000
v 1.137747 -1.137747 -0.000000
v 0.893922 -1.337849 0.000000
v 0.615744 -1.486538 0.000000
v 0.313904 -1.578101 0.000000
v 0.307872 1.578101 0.061240
v 0.603913 1.486538 0.120126
v 0.876746 1.337849 0.174396
v 1.115886 1.137747 0.221963
v 1.312142 0.893922 0.261002
v 1.457975 0.615744 0.290009
v 1.547778 0.313904 0.307872
v 1.578100 0.000000 0.313904
v 1.547778 -0.313904 0.307872
v 1.457975 -0.615744 0.290009
v 1.312142 -0.893922 0.261002
v 1.115886 -1.137747 0.221963
v 0.876746 -1.337849 0.174396
v 0.603913 -1.486538 0.120126
v 0.307872 -1.578101 0.061240
v 0.290009 1.578101 0.120126
v 0.568874 1.486538 0.235635
v 0.825876 1.337849 0.342089
v 1.051141 1.137747 0.435397
v 1.236011 0.893922 0.511973
v 1.373382 0.615744 0.568873
v 1.457975 0.313904 0.603913
v 1.486538 0.000000 0.615744
v 1.457975 -0.313904 0.603913
v 1.373382 -0.615744 0.568873
v 1.236011 -0.893922 0.511973
v 1.051141 -1.137747 0.435397
v 0.825876 -1.337849 0.342089
v 0.568874 -1.486538 0.235635
v 0.290009 -1.578101 0.120126
v 0.261001 1.578101 0.174396
v 0.511973 1.486538 0.342089
v 0.743269 1.337849 0.496637
v 0.946002 1.137747 0.632098
v 1.112381 0.893922 0.743269
v 1.236011 0.615744 0.825876
v 1.312142 0.313904 0.876746
v 1.337848 0.000000 0.893922
v 1.312142 -0.313904 0.876746
v 1.236011 -0.615744 0.825876
v 1.112381 -0.893922 0.743269
v 0.946002 -1.137747 0.632098
v 0.743269 -1.337849 0.496637
v 0.511973 -1.486538 0.342089
v 0.261001 -1.578101 0.174396
v 0.221963 1.578101 0.221963
v 0.435397 1.486538 0.435397
v 0.632098 1.337849 0.632098
v 0.804509 1.137747 0.804509
v 0.946002 0.893922 0.946002
v 1.051141 0.615744 1.051141
v 1.115885 0.313904 1.115886
v 1.137746 0.000000 1.137747
v 1.115885 -0.313904 1.115886
v 1.051141 -0.615744 1.051141
v 0.946002 -0.893922 0.946002
v 0.804509 -1.137747 0.804509
v 0.632098 -1.337849 0.632098
v 0.435397 -1.486538 0.435397
v 0.221963 -1.578101 0.221963
v 0.174395 1.578101 0.261001
v 0.342089 1.486538 0.511973
v 0.496636 1.337849 0.743269
v 0.632098 1.137747 0.946002
v 0.743269 0.893922 1.112381
v 0.825876 0.615744 1.236011
v 0.876745 0.313904 1.312143
v 0.893921 0.000000 1.337849
v 0.876745 -0.313904 1.312143
v 0.825876 -0.615744 1.236011
v 0.743269 -0.893922 1.112381
v 0.632098 -1.137747 0.946002
v 0.496636 -1.337849 0.743269
v 0.342089 -1.486538 0.511973
v 0.174395 -1.578101 0.261001
v 0.120126 1.578101 0.290009
v 0.235635 1.486538 0.568874
v 0.342089 1.337849 0.825876
v 0.435397 1.137747 1.051141
v 0.511972 0.893922 1.236011
v 0.568874 0.615744 1.373382
v 0.603913 0.313904 1.457975
v 0.615744 0.000000 1.486538
v 0.603913 -0.313904 1.457975
v 0.568874 -0.615744 1.373382
v 0.511972 -0.893922 1.236011
v 0.435397 -1.137747 1.051141
v 0.342089 -1.337849 0.825876
v 0.235635 -1.486538 0.568874
v 0.120126 -1.578101 0.290009
v 0.061240 1.578101 0.307872
v 0.120126 1.486538 0.603913
v 0.174395 1.337849 0.876745
v 0.221963 1.137747 1.115886
v 0.261001 0.893922 1.312142
v 0.290009 0.615744 1.457975
v 0.307872 0.313904 1.547778
v 0.313903 0.000000 1.578100
v 0.307872 -0.313904 1.547778
v 0.290009 -0.615744 1.457975
v 0.261001 -0.893922 1.312142
v 0.221963 -1.137747 1.115886
v 0.174395 -1.337849 0.876745
v 0.120126 -1.486538 0.603913
v 0.061240 -1.578101 0.307872
v -0.000000 1.578101 0.313904
v -0.000000 1.486538 0.615744
v -0.000000 1.337849 0.893922
v -0.000000 1.137747 1.137747
v -0.000000 0.893922 1.337849
v 0.000000 0.615744 1.486538
v -0.000000 0.313904 1.578100
v -0.000001 0.000000 1.609017
v -0.000000 -0.313904 1.578100
v 0.000000 -0.615744 1.486538
v -0.000000 -0.893922 1.337849
v -0.000000 -1.137747 1.137747
v -0.000000 -1.337849 0.893922
v -0.000000 -1.486538 0.615744
v -0.000000 -1.578101 0.313904
v -0.061240 1.578101 0.307872
v -0.120126 1.486538 0.603913
v -0.174396 1.337849 0.876745
v -0.221963 1.137747 1.115885
v -0.261001 0.893922 1.312142
v -0.290009 0.615744 1.457975
v -0.307872 0.313904 1.547777
v -0.313904 0.000000 1.578100
v -0.307872 -0.313904 1.547777
v -0.290009 -0.615744 1.457975
v -0.261001 -0.893922 1.312142
v -0.221963 -1.137747 1.115885
v -0.174396 -1.337849 0.876745
v -0.120126 -1.486538 0.603913
v -0.061240 -1.578101 0.307872
v -0.120126 1.578101 0.290009
v -0.235635 1.486538 0.568873
v -0.342089 1.337849 0.825876
v -0.435397 1.137747 1.051141
v -0.511973 0.893922 1.236011
v -0.568873 0.615744 1.373382
v -0.603913 0.313904 1.457974
v -0.615744 0.000000 1.486537
v -0.603913 -0.313904 1.457974
v -0.568873 -0.615744 1.373382
v -0.511973 -0.893922 1.236011
v -0.435397 -1.137747 1.051141
v -0.342089 -1.337849 0.825876
v -0.235635 -1.486538 0.568873
v -0.120126 -1.578101 0.290009
v -0.174395 1.578101 0.261001
v -0.342089 1.486538 0.511973
v -0.496636 1.337849 0.743269
v -0.632098 1.137747 0.946002
v -0.743269 0.893922 1.112380
v -0.825876 0.615744 1.236011
v -0.876746 0.313904 1.312142
v -0.893922 0.000000 1.337848
v -0.876746 -0.313904 1.312142
v -0.825876 -0.615744 1.236011
v -0.743269 -0.893922 1.112380
v -0.632098 -1.137747 0.946002
v -0.496636 -1.337849 0.743269
v -0.342089 -1.486538 0.511973
v -0.174395 -1.578101 0.261001
v -0.221963 1.578101 0.221963
v -0.435397 1.486538 0.435397
v -0.632098 1.337849 0.632098
v -0.804509 1.137747 0.804509
v -0.946002 0.893922 0.946002
v -1.051141 0.615744 1.051141
v -1.115885 0.313904 1.115885
v -1.137747 0.000000 1.137746
v -1.115885 -0.313904 1.115885
v -1.051141 -0.615744 1.051141
v -0.946002 -0.893922 0.946002
v -0.804509 -1.137747 0.804509
v -0.632098 -1.337849 0.632098
v -0.435397 -1.486538 0.435397
v -0.221963 -1.578101 0.221963
v 0.000000 -1.609018 0.000000
v -0.261001 1.578101 0.174395
v -0.511973 1.486538 0.342089
v -0.743269 1.337849 0.496636
v -0.946002 1.137747 0.632098
v -1.112381 0.893922 0.743269
v -1.236011 0.615744 0.825876
v -1.312142 0.313904 0.876745
v -1.337848 0.000000 0.893921
v -1.312142 -0.313904 0.876745
v -1.236011 -0.615744 0.825876
v -1.112381 -0.893922 0.743269
v -0.946002 -1.137747 0.632098
v -0.743269 -1.337849 0.496636
v -0.511973 -1.486538 0.342089
v -0.261001 -1.578101 0.174395
v -0.290009 1.578101 0.120126
v -0.568873 1.486538 0.235635
v -0.825876 1.337849 0.342089
v -1.051141 1.137747 0.435397
v -1.236011 0.893922 0.511972
v -1.373382 0.615744 0.568873
v -1.457975 0.313904 0.603912
v -1.486537 0.000000 0.615743
v -1.457975 -0.313904 0.603912
v -1.373382 -0.615744 0.568873
v -1.236011 -0.893922 0.511972
v -1.051141 -1.137747 0.435397
v -0.825876 -1.337849 0.342089
v -0.568873 -1.486538 0.235635
v -0.290009 -1.578101 0.120126
v -0.307872 1.578101 0.061239
v -0.603913 1.486538 0.120126
v -0.876745 1.337849 0.174395
v -1.115885 1.137747 0.221963
v -1.312142 0.893922 0.261001
v -1.457974 0.615744 0.290009
v -1.547777 0.313904 0.307872
v -1.578099 0.000000 0.313903
v -1.547777 -0.313904 0.307872
v -1.457974 -0.615744 0.290009
v -1.312142 -0.893922 0.261001
v -1.115885 -1.137747 0.221963
v -0.876745 -1.337849 0.174395
v -0.603913 -1.486538 0.120126
v -0.307872 -1.578101 0.061239
v -0.313903 1.578101 -0.000000
v -0.615744 1.486538 -0.000000
v -0.893922 1.337849 -0.000000
v -1.137747 1.137747 -0.000000
v -1.337849 0.893922 -0.000000
v -1.486538 0.615744 -0.000000
v -1.578100 0.313904 -0.000000
v -1.609016 0.000000 -0.000001
v -1.578100 -0.313904 -0.000000
v -1.486538 -0.615744 -0.000000
v -1.337849 -0.893922 -0.000000
v -1.137747 -1.137747 -0.000000
v -0.893922 -1.337849 -0.000000
v -0.615744 -1.486538 -0.000000
v -0.313903 -1.578101 -0.000000
v -0.307872 1.578101 -0.061240
v -0.603913 1.486538 -0.120126
v -0.876745 1.337849 -0.174396
v -1.115885 1.137747 -0.221963
v -1.312142 0.893922 -0.261002
v -1.457974 0.615744 -0.290009
v -1.547777 0.313904 -0.307872
v -1.578099 0.000000 -0.313904
v -1.547777 -0.313904 -0.307872
v -1.457974 -0.615744 -0.290009
v -1.312142 -0.893922 -0.261002
v -1.115885 -1.137747 -0.221963
v -0.876745 -1.337849 -0.174396
v -0.603913 -1.486538 -0.120126
v -0.307872 -1.578101 -0.061240
v -0.290009 1.578101 -0.120126
v -0.568873 1.486538 -0.235635
v -0.825876 1.337849 -0.342089
v -1.051141 1.137747 -0.435397
v -1.236011 0.893922 -0.511973
v -1.373382 0.615744 -0.568873
v -1.457974 0.313904 -0.603913
v -1.486537 0.000000 -0.615744
v -1.457974 -0.313904 -0.603913
v -1.373382 -0.615744 -0.568873
v -1.236011 -0.893922 -0.511973
v -1.051141 -1.137747 -0.435397
v -0.825876 -1.337849 -0.342089
v -0.568873 -1.486538 -0.235635
v -0.290009 -1.578101 -0.120126
v -0.261001 1.578101 -0.174395
v -0.511972 1.486538 -0.342089
v -0.743268 1.337849 -0.496636
v -0.946002 1.137747 -0.632098
v -1.112380 0.893922 -0.743269
v -1.236011 0.615744 -0.825876
v -1.312142 0.313904 -0.876746
v -1.337847 0.000000 -0.893922
v -1.312142 -0.313904 -0.876746
v -1.236011 -0.615744 -0.825876
v -1.112380 -0.893922 -0.743269
v -0.946002 -1.137747 -0.632098
v -0.743268 -1.337849 -0.496636
v -0.511972 -1.486538 -0.342089
v -0.261001 -1.578101 -0.174395
v -0.221963 1.578101 -0.221963
v -0.435397 1.486538 -0.435397
v -0.632098 1.337849 -0.632098
v -0.804509 1.137747 -0.804509
v -0.946001 0.893922 -0.946002
v -1.051141 0.615744 -1.051141
v -1.115885 0.313904 -1.115885
v -1.137745 0.000000 -1.137747
v -1.115885 -0.313904 -1.115885
v -1.051141 -0.615744 -1.051141
v -0.946001 -0.893922 -0.946002
v -0.804509 -1.137747 -0.804509
v -0.632098 -1.337849 -0.632098
v -0.435397 -1.486538 -0.435397
v -0.221963 -1.578101 -0.221963
v -0.174395 1.578101 -0.261001
v -0.342089 1.486538 -0.511972
v -0.496636 1.337849 -0.743269
v -0.632098 1.137747 -0.946002
v -0.743268 0.893922 -1.112380
v -0.825876 0.615744 -1.236011
v -0.876745 0.313904 -1.312142
v -0.893921 0.000000 -1.337848
v -0.876745 -0.313904 -1.312142
v -0.825876 -0.615744 -1.236011
v -0.743268 -0.893922 -1.112380
v -0.632098 -1.137747 -0.946002
v -0.496636 -1.337849 -0.743269
v -0.342089 -1.486538 -0.511972
v -0.174395 -1.578101 -0.261001
v -0.120126 1.578101 -0.290009
v -0.235635 1.486538 -0.568873
v -0.342089 1.337849 -0.825876
v -0.435397 1.137747 -1.051141
v -0.511972 0.893922 -1.236011
v -0.568873 0.615744 -1.373382
v -0.603912 0.313904 -1.457974
v -0.615743 0.000000 -1.486537
v -0.603912 -0.313904 -1.457974
v -0.568873 -0.615744 -1.373382
v -0.511972 -0.893922 -1.236011
v -0.435397 -1.137747 -1.051141
v -0.342089 -1.337849 -0.825876
v -0.235635 -1.486538 -0.568873
v -0.120126 -1.578101 -0.290009
v -0.061239 1.578101 -0.307872
v -0.120126 1.486538 -0.603913
v -0.174395 1.337849 -0.876745
v -0.221963 1.137747 -1.115885
v -0.261001 0.893922 -1.312142
v -0.290009 0.615744 -1.457974
v -0.307872 0.313904 -1.547777
v -0.313903 0.000000 -1.578099
v -0.307872 -0.313904 -1.547777
v -0.290009 -0.615744 -1.457974
v -0.261001 -0.893922 -1.312142
v -0.221963 -1.137747 -1.115885
v -0.174395 -1.337849 -0.876745
v -0.120126 -1.486538 -0.603913
v -0.061239 -1.578101 -0.307872
v 0.000000 1.578101 -0.313903
v 0.000000 1.486538 -0.615744
v 0.000000 1.137747 -1.137747
v 0.000000 0.615744 -1.486538
v 0.000000 -0.615744 -1.486538
v 0.000000 -1.137747 -1.137747
v 0.000000 -1.337849 -0.893921
v 0.000000 -1.486538 -0.615744
v 0.000000 -1.578101 -0.313903
vn -0.0865 0.4696 0.8786
vn -0.0624 -0.7715 0.6332
vn -0.0759 0.6326 0.7708
vn -0.0759 -0.6326 0.7708
vn -0.0624 0.7715 0.6332
vn -0.0865 -0.4696 0.8786
vn -0.0464 0.8810 0.4709
vn -0.0938 -0.2890 0.9527
vn -0.0286 0.9565 0.2902
vn -0.0975 -0.0975 0.9904
vn -0.0097 -0.9951 0.0980
vn -0.0097 0.9951 0.0980
vn -0.0975 0.0975 0.9904
vn -0.0286 -0.9565 0.2902
vn -0.0938 0.2890 0.9527
vn -0.0464 -0.8810 0.4709
vn -0.2779 0.2890 0.9161
vn -0.1374 -0.8810 0.4528
vn -0.2563 0.4696 0.8448
vn -0.1847 -0.7715 0.6088
vn -0.2248 0.6326 0.7412
vn -0.2248 -0.6326 0.7412
vn -0.1847 0.7715 0.6088
vn -0.2563 -0.4696 0.8448
vn -0.1374 0.8810 0.4528
vn -0.2779 -0.2890 0.9161
vn -0.0846 0.9565 0.2790
vn -0.2889 -0.0976 0.9524
vn -0.0286 -0.9951 0.0942
vn -0.0286 0.9951 0.0942
vn -0.2889 0.0976 0.9524
vn -0.0846 -0.9565 0.2790
vn -0.2230 0.8810 0.4173
vn -0.4513 -0.2890 0.8443
vn -0.1374 0.9565 0.2571
vn -0.4691 -0.0975 0.8777
vn -0.0464 -0.9951 0.0869
vn -0.0464 0.9951 0.0869
vn -0.4691 0.0975 0.8777
vn -0.1374 -0.9565 0.2571
vn -0.4513 0.2890 0.8443
vn -0.2230 -0.8810 0.4173
vn -0.4162 0.4696 0.7786
vn -0.2999 -0.7715 0.5611
vn -0.3651 0.6326 0.6831
vn -0.3651 -0.6326 0.6831
vn -0.2999 0.7715 0.5611
vn -0.4162 -0.4696 0.7786
vn -0.3002 -0.8810 0.3658
vn -0.5601 0.4696 0.6825
vn -0.4036 -0.7715 0.4918
vn -0.4913 0.6326 0.5987
vn -0.4913 -0.6326 0.5987
vn -0.4036 0.7715 0.4918
vn -0.5601 -0.4696 0.6825
vn -0.3002 0.8810 0.3658
vn -0.6073 -0.2890 0.7400
vn -0.1850 0.9565 0.2254
vn -0.6314 -0.0975 0.7693
vn -0.0625 -0.9951 0.0761
vn -0.0625 0.9951 0.0761
vn -0.6314 0.0975 0.7693
vn -0.1850 -0.9565 0.2254
vn -0.6073 0.2890 0.7400
vn -0.7400 -0.2890 0.6073
vn -0.2254 0.9565 0.1850
vn -0.7693 -0.0975 0.6314
vn -0.0761 -0.9951 0.0625
vn -0.0761 0.9951 0.0625
vn -0.7693 0.0975 0.6314
vn -0.2254 -0.9565 0.1850
vn -0.7400 0.2890 0.6073
vn -0.3658 -0.8810 0.3002
vn -0.6825 0.4696 0.5601
vn -0.4918 -0.7715 0.4036
vn -0.5987 0.6326 0.4913
vn -0.5987 -0.6326 0.4913
vn -0.4918 0.7715 0.4036
vn -0.6825 -0.4696 0.5601
vn -0.3658 0.8810 0.3002
vn -0.7786 0.4696 0.4162
vn -0.5611 -0.7715 0.2999
vn -0.6831 0.6326 0.3651
vn -0.6831 -0.6326 0.3651
vn -0.5611 0.7715 0.2999
vn -0.7786 -0.4696 0.4162
vn -0.4173 0.8810 0.2230
vn -0.8443 -0.2890 0.4513
vn -0.2571 0.9565 0.1374
vn -0.8777 -0.0975 0.4691
vn -0.0869 -0.9951 0.0464
vn -0.0869 0.9951 0.0464
vn -0.8777 0.0975 0.4691
vn -0.2571 -0.9565 0.1374
vn -0.8443 0.2890 0.4513
vn -0.4173 -0.8810 0.2230
vn -0.2790 0.9565 0.0846
vn -0.9524 -0.0975 0.2889
vn -0.0942 -0.9951 0.0286
vn -0.0942 0.9951 0.0286
vn -0.9524 0.0975 0.2889
vn -0.2790 -0.9565 0.0846
vn -0.9161 0.2890 0.2779
vn -0.4528 -0.8810 0.1374
vn -0.8448 0.4696 0.2563
vn -0.6088 -0.7715 0.1847
vn -0.7412 0.6326 0.2248
vn -0.7412 -0.6326 0.2248
vn -0.6088 0.7715 0.1847
vn -0.8448 -0.4696 0.2563
vn -0.4528 0.8810 0.1374
vn -0.9161 -0.2890 0.2779
vn -0.7708 0.6326 0.0759
vn -0.7708 -0.6326 0.0759
vn -0.6332 0.7715 0.0624
vn -0.8786 -0.4696 0.0865
vn -0.4709 0.8810 0.0464
vn -0.9527 -0.2890 0.0938
vn -0.2902 0.9565 0.0286
vn -0.9904 -0.0975 0.0975
vn -0.0980 -0.9951 0.0097
vn -0.0980 0.9951 0.0097
vn -0.9904 0.0975 0.0975
vn -0.2902 -0.9565 0.0286
vn -0.9527 0.2890 0.0938
vn -0.4709 -0.8810 0.0464
vn -0.8786 0.4696 0.0865
vn -0.6332 -0.7715 0.0624
vn -0.0980 -0.9951 -0.0097
vn -0.0980 0.9951 -0.0097
vn -0.9904 0.0975 -0.0976
vn -0.2902 -0.9565 -0.0286
vn -0.9527 0.2890 -0.0938
vn -0.4709 -0.8810 -0.0464
vn -0.8786 0.4696 -0.0865
vn -0.6332 -0.7715 -0.0624
vn -0.7708 0.6326 -0.0759
vn -0.7708 -0.6326 -0.0759
vn -0.6332 0.7715 -0.0624
vn -0.8786 -0.4696 -0.0865
vn -0.4709 0.8810 -0.0464
vn -0.9527 -0.2890 -0.0938
vn -0.2902 0.9565 -0.0286
vn -0.9904 -0.0975 -0.0976
vn -0.7412 -0.6326 -0.2248
vn -0.6088 0.7715 -0.1847
vn -0.8448 -0.4696 -0.2563
vn -0.4528 0.8810 -0.1374
vn -0.9161 -0.2890 -0.2779
vn -0.2790 0.9565 -0.0846
vn -0.9524 -0.0975 -0.2889
vn -0.0942 -0.9951 -0.0286
vn -0.0942 0.9951 -0.0286
vn -0.9524 0.0975 -0.2889
vn -0.2790 -0.9565 -0.0846
vn -0.9161 0.2890 -0.2779
vn -0.4528 -0.8810 -0.1374
vn -0.8448 0.4696 -0.2563
vn -0.6088 -0.7715 -0.1847
vn -0.7412 0.6326 -0.2248
vn -0.8777 0.0975 -0.4691
vn -0.2571 -0.9565 -0.1374
vn -0.8443 0.2890 -0.4513
vn -0.4173 -0.8810 -0.2230
vn -0.7786 0.4696 -0.4162
vn -0.5611 -0.7715 -0.2999
vn -0.6831 0.6326 -0.3651
vn -0.6831 -0.6326 -0.3651
vn -0.5611 0.7715 -0.2999
vn -0.7786 -0.4696 -0.4162
vn -0.4173 0.8810 -0.2230
vn -0.8443 -0.2890 -0.4513
vn -0.2571 0.9565 -0.1374
vn -0.8777 -0.0975 -0.4691
vn -0.0869 -0.9951 -0.0464
vn -0.0869 0.9951 -0.0464
vn -0.4918 0.7715 -0.4036
vn -0.6825 -0.4696 -0.5601
vn -0.3658 0.8810 -0.3002
vn -0.7400 -0.2890 -0.6073
vn -0.2254 0.9565 -0.1850
vn -0.7693 -0.0975 -0.6314
vn -0.0761 -0.9951 -0.0625
vn -0.0761 0.9951 -0.0625
vn -0.7693 0.0975 -0.6314
vn -0.2254 -0.9565 -0.1850
vn -0.7400 0.2890 -0.6073
vn -0.3658 -0.8810 -0.3002
vn -0.6825 0.4696 -0.5601
vn -0.4918 -0.7715 -0.4036
vn -0.5987 0.6326 -0.4913
vn -0.5987 -0.6326 -0.4913
vn -0.1850 -0.9565 -0.2254
vn -0.6073 0.2890 -0.7400
vn -0.3002 -0.8810 -0.3658
vn -0.5601 0.4696 -0.6825
vn -0.4036 -0.7715 -0.4918
vn -0.4913 0.6326 -0.5987
vn -0.4913 -0.6326 -0.5987
vn -0.4036 0.7715 -0.4918
vn -0.5601 -0.4696 -0.6825
vn -0.3002 0.8810 -0.3658
vn -0.6073 -0.2890 -0.7400
vn -0.1850 0.9565 -0.2254
vn -0.6314 -0.0975 -0.7693
vn -0.0625 -0.9951 -0.0761
vn -0.0625 0.9951 -0.0761
vn -0.6314 0.0975 -0.7693
vn -0.4162 -0.4696 -0.7786
vn -0.2230 0.8810 -0.4173
vn -0.4513 -0.2890 -0.8443
vn -0.1374 0.9565 -0.2571
vn -0.4691 -0.0975 -0.8777
vn -0.0464 -0.9951 -0.0869
vn -0.0464 0.9951 -0.0869
vn -0.4691 0.0975 -0.8777
vn -0.1374 -0.9565 -0.2571
vn -0.4513 0.2890 -0.8443
vn -0.2230 -0.8810 -0.4173
vn -0.4162 0.4696 -0.7786
vn -0.2999 -0.7715 -0.5611
vn -0.3651 0.6326 -0.6831
vn -0.3651 -0.6326 -0.6831
vn -0.2999 0.7715 -0.5611
vn -0.2779 0.2890 -0.9161
vn -0.1374 -0.8810 -0.4528
vn -0.2563 0.4696 -0.8448
vn -0.1847 -0.7715 -0.6088
vn -0.2248 0.6326 -0.7412
vn -0.2248 -0.6326 -0.7412
vn -0.1847 0.7715 -0.6088
vn -0.2563 -0.4696 -0.8448
vn -0.1374 0.8810 -0.4528
vn -0.2779 -0.2890 -0.9161
vn -0.0846 0.9565 -0.2790
vn -0.2889 -0.0975 -0.9524
vn -0.0286 -0.9951 -0.0942
vn -0.0286 0.9951 -0.0942
vn -0.2889 0.0975 -0.9524
vn -0.0846 -0.9565 -0.2790
vn -0.0464 0.8810 -0.4709
vn -0.0938 -0.2890 -0.9527
vn -0.0286 0.9565 -0.2902
vn -0.0975 -0.0975 -0.9904
vn -0.0097 -0.9951 -0.0980
vn -0.0097 0.9951 -0.0980
vn -0.0975 0.0975 -0.9904
vn -0.0286 -0.9565 -0.2902
vn -0.0938 0.2890 -0.9527
vn -0.0464 -0.8810 -0.4709
vn -0.0865 0.4696 -0.8786
vn -0.0624 -0.7715 -0.6332
vn -0.0759 0.6326 -0.7708
vn -0.0759 -0.6326 -0.7708
vn -0.0624 0.7715 -0.6332
vn -0.0865 -0.4696 -0.8786
vn 0.0865 0.4696 -0.8786
vn 0.0624 -0.7715 -0.6332
vn 0.0759 0.6326 -0.7708
vn 0.0759 -0.6326 -0.7708
vn 0.0624 0.7715 -0.6332
vn 0.0865 -0.4696 -0.8786
vn 0.0464 0.8810 -0.4709
vn 0.0938 -0.2890 -0.9527
vn 0.0286 0.9565 -0.2902
vn 0.0976 -0.0975 -0.9904
vn 0.0097 -0.9951 -0.0980
vn 0.0097 0.9951 -0.0980
vn 0.0976 0.0975 -0.9904
vn 0.0286 -0.9565 -0.2902
vn 0.0938 0.2890 -0.9527
vn 0.0464 -0.8810 -0.4709
vn 0.0846 0.9565 -0.2790
vn 0.2889 -0.0975 -0.9524
vn 0.0286 -0.9951 -0.0942
vn 0.0286 0.9951 -0.0942
vn 0.2889 0.0975 -0.9524
vn 0.0846 -0.9565 -0.2790
vn 0.2779 0.2890 -0.9161
vn 0.1374 -0.8810 -0.4528
vn 0.2563 0.4696 -0.8448
vn 0.1847 -0.7715 -0.6088
vn 0.2248 0.6326 -0.7412
vn 0.2248 -0.6326 -0.7412
vn 0.1847 0.7715 -0.6088
vn 0.2563 -0.4696 -0.8448
vn 0.1374 0.8810 -0.4528
vn 0.2779 -0.2890 -0.9161
vn 0.2999 -0.7715 -0.5611
vn 0.3651 0.6326 -0.6831
vn 0.3651 -0.6326 -0.6831
vn 0.2999 0.7715 -0.5611
vn 0.4162 -0.4696 -0.7786
vn 0.2230 0.8810 -0.4173
vn 0.4513 -0.2890 -0.8443
vn 0.1374 0.9565 -0.2571
vn 0.4691 -0.0975 -0.8777
vn 0.0464 -0.9951 -0.0869
vn 0.0464 0.9951 -0.0869
vn 0.4691 0.0975 -0.8777
vn 0.1374 -0.9565 -0.2571
vn 0.4513 0.2890 -0.8443
vn 0.2231 -0.8810 -0.4173
vn 0.4162 0.4696 -0.7786
vn 0.6314 -0.0975 -0.7693
vn 0.0625 -0.9951 -0.0761
vn 0.0625 0.9951 -0.0761
vn 0.6314 0.0975 -0.7693
vn 0.1850 -0.9565 -0.2254
vn 0.6073 0.2890 -0.7400
vn 0.3002 -0.8810 -0.3658
vn 0.5601 0.4696 -0.6825
vn 0.4036 -0.7715 -0.4918
vn 0.4913 0.6326 -0.5987
vn 0.4913 -0.6326 -0.5987
vn 0.4036 0.7715 -0.4918
vn 0.5601 -0.4696 -0.6825
vn 0.3002 0.8810 -0.3658
vn 0.6073 -0.2890 -0.7400
vn 0.1850 0.9565 -0.2254
vn 0.5987 0.6326 -0.4913
vn 0.5987 -0.6326 -0.4913
vn 0.4918 0.7715 -0.4036
vn 0.6825 -0.4696 -0.5601
vn 0.3658 0.8810 -0.3002
vn 0.7400 -0.2890 -0.6073
vn 0.2254 0.9565 -0.1850
vn 0.7693 -0.0975 -0.6314
vn 0.0761 -0.9951 -0.0625
vn 0.0761 0.9951 -0.0625
vn 0.7693 0.0975 -0.6314
vn 0.2254 -0.9565 -0.1850
vn 0.7400 0.2890 -0.6073
vn 0.3658 -0.8810 -0.3002
vn 0.6825 0.4696 -0.5601
vn 0.4918 -0.7715 -0.4036
vn 0.0869 -0.9951 -0.0464
vn 0.0869 0.9951 -0.0464
vn 0.8777 0.0975 -0.4691
vn 0.2571 -0.9565 -0.1374
vn 0.8443 0.2890 -0.4513
vn 0.4173 -0.8810 -0.2230
vn 0.7786 0.4696 -0.4162
vn 0.5611 -0.7715 -0.2999
vn 0.6831 0.6326 -0.3651
vn 0.6831 -0.6326 -0.3651
vn 0.5611 0.7715 -0.2999
vn 0.7786 -0.4696 -0.4162
vn 0.4173 0.8810 -0.2230
vn 0.8443 -0.2890 -0.4513
vn 0.2571 0.9565 -0.1374
vn 0.8777 -0.0975 -0.4691
vn 0.7412 -0.6326 -0.2248
vn 0.6088 0.7715 -0.1847
vn 0.8448 -0.4696 -0.2563
vn 0.4528 0.8810 -0.1374
vn 0.9161 -0.2890 -0.2779
vn 0.2790 0.9565 -0.0846
vn 0.9524 -0.0975 -0.2889
vn 0.0942 -0.9951 -0.0286
vn 0.0942 0.9951 -0.0286
vn 0.9524 0.0975 -0.2889
vn 0.2790 -0.9565 -0.0846
vn 0.9161 0.2890 -0.2779
vn 0.4528 -0.8810 -0.1374
vn 0.8448 0.4696 -0.2563
vn 0.6088 -0.7715 -0.1847
vn 0.7412 0.6326 -0.2248
vn 0.9904 0.0975 -0.0975
vn 0.2902 -0.9565 -0.0286
vn 0.9527 0.2890 -0.0938
vn 0.4709 -0.8810 -0.0464
vn 0.8786 0.4696 -0.0865
vn 0.6332 -0.7715 -0.0624
vn 0.7708 0.6326 -0.0759
vn 0.7708 -0.6326 -0.0759
vn 0.6332 0.7715 -0.0624
vn 0.8786 -0.4696 -0.0865
vn 0.4709 0.8810 -0.0464
vn 0.9527 -0.2890 -0.0938
vn 0.2902 0.9565 -0.0286
vn 0.9904 -0.0975 -0.0975
vn 0.0980 -0.9951 -0.0097
vn 0.0980 0.9951 -0.0097
vn 0.6332 0.7715 0.0624
vn 0.8786 -0.4696 0.0865
vn 0.4709 0.8810 0.0464
vn 0.9527 -0.2890 0.0938
vn 0.2902 0.9565 0.0286
vn 0.9904 -0.0975 0.0976
vn 0.0980 -0.9951 0.0097
vn 0.0980 0.9951 0.0097
vn 0.9904 0.0975 0.0976
vn 0.2902 -0.9565 0.0286
vn 0.9527 0.2890 0.0938
vn 0.4709 -0.8810 0.0464
vn 0.8786 0.4696 0.0865
vn 0.6332 -0.7715 0.0624
vn 0.7708 0.6326 0.0759
vn 0.7708 -0.6326 0.0759
vn 0.9161 0.2890 0.2779
vn 0.4528 -0.8810 0.1374
vn 0.8448 0.4696 0.2563
vn 0.6088 -0.7715 0.1847
vn 0.7412 0.6326 0.2248
vn 0.7412 -0.6326 0.2248
vn 0.6088 0.7715 0.1847
vn 0.8448 -0.4696 0.2563
vn 0.4528 0.8810 0.1374
vn 0.9161 -0.2890 0.2779
vn 0.2790 0.9565 0.0846
vn 0.9524 -0.0975 0.2889
vn 0.0942 -0.9951 0.0286
vn 0.0942 0.9951 0.0286
vn 0.9524 0.0975 0.2889
vn 0.2790 -0.9565 0.0846
vn 0.4173 0.8810 0.2231
vn 0.8443 -0.2890 0.4513
vn 0.2571 0.9565 0.1374
vn 0.8777 -0.0975 0.4691
vn 0.0869 -0.9951 0.0464
vn 0.0869 0.9951 0.0464
vn 0.8777 0.0975 0.4691
vn 0.2571 -0.9565 0.1374
vn 0.8443 0.2890 0.4513
vn 0.4173 -0.8810 0.2231
vn 0.7786 0.4696 0.4162
vn 0.5611 -0.7715 0.2999
vn 0.6831 0.6326 0.3651
vn 0.6831 -0.6326 0.3651
vn 0.5611 0.7715 0.2999
vn 0.7786 -0.4696 0.4162
vn 0.3658 -0.8810 0.3002
vn 0.6825 0.4696 0.5601
vn 0.4918 -0.7715 0.4036
vn 0.5987 0.6326 0.4913
vn 0.5987 -0.6326 0.4913
vn 0.4918 0.7715 0.4036
vn 0.6825 -0.4696 0.5601
vn 0.3658 0.8810 0.3002
vn 0.7400 -0.2890 0.6073
vn 0.2254 0.9565 0.1850
vn 0.7693 -0.0975 0.6314
vn 0.0761 -0.9951 0.0625
vn 0.0761 0.9951 0.0625
vn 0.7693 0.0975 0.6314
vn 0.2254 -0.9565 0.1850
vn 0.7400 0.2890 0.6073
vn 0.6073 -0.2890 0.7400
vn 0.1850 0.9565 0.2254
vn 0.6314 -0.0975 0.7693
vn 0.0625 -0.9951 0.0761
vn 0.0625 0.9951 0.0761
vn 0.6314 0.0975 0.7693
vn 0.1850 -0.9565 0.2254
vn 0.6073 0.2890 0.7400
vn 0.3002 -0.8810 0.3658
vn 0.5601 0.4696 0.6825
vn 0.4036 -0.7715 0.4918
vn 0.4913 0.6326 0.5987
vn 0.4913 -0.6326 0.5987
vn 0.4036 0.7715 0.4918
vn 0.5601 -0.4696 0.6825
vn 0.3002 0.8810 0.3658
vn 0.4162 0.4696 0.7786
vn 0.2999 -0.7715 0.5611
vn 0.3651 0.6326 0.6831
vn 0.3651 -0.6326 0.6831
vn 0.2999 0.7715 0.5611
vn 0.4162 -0.4696 0.7786
vn 0.2230 0.8810 0.4173
vn 0.4513 -0.2890 0.8443
vn 0.1374 0.9565 0.2571
vn 0.4691 -0.0975 0.8777
vn 0.0464 -0.9951 0.0869
vn 0.0464 0.9951 0.0869
vn 0.4691 0.0975 0.8777
vn 0.1374 -0.9565 0.2571
vn 0.4513 0.2890 0.8443
vn 0.2230 -0.8810 0.4173
vn 0.0846 0.9565 0.2790
vn 0.2889 -0.0975 0.9524
vn 0.0286 -0.9951 0.0942
vn 0.0286 0.9951 0.0942
vn 0.2889 0.0975 0.9524
vn 0.0846 -0.9565 0.2790
vn 0.2779 0.2890 0.9161
vn 0.1374 -0.8810 0.4528
vn 0.2563 0.4696 0.8448
vn 0.1847 -0.7715 0.6088
vn 0.2248 0.6326 0.7412
vn 0.2248 -0.6326 0.7412
vn 0.1847 0.7715 0.6088
vn 0.2563 -0.4696 0.8448
vn 0.1374 0.8810 0.4528
vn 0.2779 -0.2890 0.9161
vn 0.0624 -0.7715 0.6332
vn 0.0759 0.6326 0.7708
vn 0.0759 -0.6326 0.7708
vn 0.0624 0.7715 0.6332
vn 0.0865 -0.4696 0.8786
vn 0.0464 0.8810 0.4709
vn 0.0938 -0.2890 0.9527
vn 0.0286 0.9565 0.2902
vn 0.0976 -0.0975 0.9904
vn 0.0097 -0.9951 0.0980
vn 0.0097 0.9951 0.0980
vn 0.0976 0.0975 0.9904
vn 0.0286 -0.9565 0.2902
vn 0.0938 0.2890 0.9527
vn 0.0464 -0.8810 0.4709
vn 0.0865 0.4696 0.8786
vt 0.312538 0.250050
vt 0.312537 0.281294
vt 0.375025 0.281294
vt 0.375025 0.250050
vt 0.749950 0.250050
vt 0.749950 0.281294
vt 0.812438 0.281294
vt 0.812438 0.250050
vt 0.250050 0.250050
vt 0.250050 0.281294
vt 0.687463 0.250050
vt 0.687462 0.281294
vt 0.187562 0.250050
vt 0.187562 0.281294
vt 0.624975 0.250050
vt 0.624975 0.281294
vt 0.125075 0.250050
vt 0.125075 0.281294
vt 0.562488 0.250050
vt 0.562488 0.281294
vt 0.062587 0.250050
vt 0.062587 0.281294
vt 0.500000 0.250050
vt 0.500000 0.281294
vt 0.937413 0.250050
vt 0.937413 0.281294
vt 0.999900 0.265672
vt 0.000100 0.265672
vt 0.437512 0.250050
vt 0.437512 0.281294
vt 0.874925 0.250050
vt 0.874925 0.281294
vt 0.375025 0.312537
vt 0.437512 0.312537
vt 0.812438 0.312537
vt 0.874925 0.312537
vt 0.312537 0.312537
vt 0.749950 0.312537
vt 0.250050 0.312537
vt 0.687463 0.312537
vt 0.187562 0.312537
vt 0.624975 0.312537
vt 0.125075 0.312537
vt 0.562488 0.312537
vt 0.062587 0.312537
vt 0.500000 0.312537
vt 0.937413 0.312537
vt 0.999900 0.296916
vt 0.000100 0.296916
vt 0.125075 0.343781
vt 0.187562 0.343781
vt 0.562487 0.343781
vt 0.624975 0.343781
vt 0.062587 0.343781
vt 0.500000 0.343781
vt 0.937413 0.343781
vt 0.999900 0.328159
vt 0.000100 0.328159
vt 0.437512 0.343781
vt 0.874925 0.343781
vt 0.375025 0.343781
vt 0.812438 0.343781
vt 0.312537 0.343781
vt 0.749950 0.343781
vt 0.250050 0.343781
vt 0.687462 0.343781
vt 0.812438 0.375025
vt 0.874925 0.375025
vt 0.312537 0.375025
vt 0.375025 0.375025
vt 0.749950 0.375025
vt 0.250050 0.375025
vt 0.687463 0.375025
vt 0.187563 0.375025
vt 0.624975 0.375025
vt 0.125075 0.375025
vt 0.562488 0.375025
vt 0.062587 0.375025
vt 0.500000 0.375025
vt 0.937413 0.375025
vt 0.999900 0.359403
vt 0.000100 0.359403
vt 0.437512 0.375025
vt 0.562488 0.406269
vt 0.624975 0.406269
vt 0.062587 0.406269
vt 0.125075 0.406269
vt 0.500000 0.406269
vt 0.937413 0.406269
vt 0.999900 0.390647
vt 0.000100 0.390647
vt 0.437512 0.406269
vt 0.874925 0.406269
vt 0.375025 0.406269
vt 0.812438 0.406269
vt 0.312537 0.406269
vt 0.749950 0.406269
vt 0.250050 0.406269
vt 0.687463 0.406269
vt 0.187563 0.406269
vt 0.312537 0.437512
vt 0.375025 0.437512
vt 0.749950 0.437512
vt 0.812438 0.437512
vt 0.250050 0.437512
vt 0.687462 0.437512
vt 0.187563 0.437512
vt 0.624975 0.437512
vt 0.125075 0.437512
vt 0.562488 0.437512
vt 0.062587 0.437512
vt 0.500000 0.437512
vt 0.937413 0.437512
vt 0.999900 0.421891
vt 0.000100 0.421891
vt 0.437512 0.437512
vt 0.874925 0.437512
vt 0.062587 0.468756
vt 0.125075 0.468756
vt 0.500000 0.468756
vt 0.562488 0.468756
vt 0.937413 0.468756
vt 0.999900 0.453134
vt 0.000100 0.453134
vt 0.437512 0.468756
vt 0.874925 0.468756
vt 0.375025 0.468756
vt 0.812438 0.468756
vt 0.312537 0.468756
vt 0.749950 0.468756
vt 0.250050 0.468756
vt 0.687463 0.468756
vt 0.187563 0.468756
vt 0.624975 0.468756
vt 0.250050 0.500000
vt 0.312537 0.500000
vt 0.687463 0.500000
vt 0.749950 0.500000
vt 0.187563 0.500000
vt 0.624975 0.500000
vt 0.125075 0.500000
vt 0.562488 0.500000
vt 0.062587 0.500000
vt 0.500000 0.500000
vt 0.937413 0.500000
vt 0.999900 0.484378
vt 0.000100 0.484378
vt 0.437512 0.500000
vt 0.874925 0.500000
vt 0.375025 0.500000
vt 0.812438 0.500000
vt 0.937413 0.531244
vt 0.999900 0.515622
vt 0.000100 0.515622
vt 0.062587 0.531244
vt 0.437512 0.531244
vt 0.500000 0.531244
vt 0.874925 0.531244
vt 0.375025 0.531244
vt 0.812438 0.531244
vt 0.312537 0.531244
vt 0.749950 0.531244
vt 0.250050 0.531244
vt 0.687463 0.531244
vt 0.187563 0.531244
vt 0.624975 0.531244
vt 0.125075 0.531244
vt 0.562488 0.531244
vt 0.687463 0.562488
vt 0.749950 0.562488
vt 0.187563 0.562488
vt 0.250050 0.562488
vt 0.624975 0.562488
vt 0.125075 0.562488
vt 0.562488 0.562488
vt 0.062587 0.562488
vt 0.500000 0.562488
vt 0.937413 0.562487
vt 0.999900 0.546866
vt 0.000100 0.546866
vt 0.437512 0.562488
vt 0.874925 0.562488
vt 0.375025 0.562488
vt 0.812438 0.562487
vt 0.312537 0.562488
vt 0.437512 0.593731
vt 0.500000 0.593731
vt 0.874925 0.593731
vt 0.937413 0.593731
vt 0.375025 0.593731
vt 0.812438 0.593731
vt 0.312537 0.593731
vt 0.749950 0.593731
vt 0.250050 0.593731
vt 0.687463 0.593731
vt 0.187562 0.593731
vt 0.624975 0.593731
vt 0.125075 0.593731
vt 0.562488 0.593731
vt 0.062587 0.593731
vt 0.999900 0.578109
vt 0.000100 0.578109
vt 0.187563 0.624975
vt 0.250050 0.624975
vt 0.624975 0.624975
vt 0.687463 0.624975
vt 0.125075 0.624975
vt 0.562488 0.624975
vt 0.062587 0.624975
vt 0.500000 0.624975
vt 0.937413 0.624975
vt 0.999900 0.609353
vt 0.000100 0.609353
vt 0.437512 0.624975
vt 0.874925 0.624975
vt 0.375025 0.624975
vt 0.812438 0.624975
vt 0.312537 0.624975
vt 0.749950 0.624975
vt 0.874925 0.656219
vt 0.937413 0.656219
vt 0.375025 0.656219
vt 0.437512 0.656219
vt 0.812438 0.656219
vt 0.312537 0.656219
vt 0.749950 0.656219
vt 0.250050 0.656219
vt 0.687463 0.656219
vt 0.187563 0.656219
vt 0.624975 0.656219
vt 0.125075 0.656219
vt 0.562488 0.656219
vt 0.062587 0.656219
vt 0.500000 0.656219
vt 0.999900 0.640597
vt 0.000100 0.640597
vt 0.624975 0.687463
vt 0.687463 0.687463
vt 0.125075 0.687463
vt 0.187563 0.687463
vt 0.562488 0.687463
vt 0.062587 0.687463
vt 0.500000 0.687463
vt 0.937413 0.687462
vt 0.999900 0.671841
vt 0.000100 0.671841
vt 0.437512 0.687463
vt 0.874925 0.687462
vt 0.375025 0.687463
vt 0.812438 0.687463
vt 0.312537 0.687463
vt 0.749950 0.687463
vt 0.250050 0.687463
vt 0.375025 0.718706
vt 0.437512 0.718706
vt 0.812438 0.718706
vt 0.874925 0.718706
vt 0.312537 0.718706
vt 0.749950 0.718706
vt 0.250050 0.718706
vt 0.687463 0.718706
vt 0.187563 0.718706
vt 0.624975 0.718706
vt 0.125075 0.718706
vt 0.562488 0.718706
vt 0.062587 0.718706
vt 0.500000 0.718706
vt 0.937413 0.718706
vt 0.999900 0.703084
vt 0.000100 0.703084
vt 0.125075 0.749950
vt 0.187563 0.749950
vt 0.562488 0.749950
vt 0.624975 0.749950
vt 0.062587 0.749950
vt 0.500000 0.749950
vt 0.937413 0.749950
vt 0.999900 0.734328
vt 0.000100 0.734328
vt 0.437512 0.749950
vt 0.874925 0.749950
vt 0.375025 0.749950
vt 0.812438 0.749950
vt 0.312537 0.749950
vt 0.749950 0.749950
vt 0.250050 0.749950
vt 0.687463 0.749950
vt 0.312537 0.781194
vt 0.375025 0.781194
vt 0.749950 0.781194
vt 0.812438 0.781194
vt 0.250050 0.781194
vt 0.687463 0.781194
vt 0.187563 0.781194
vt 0.624975 0.781194
vt 0.125075 0.781194
vt 0.562488 0.781194
vt 0.062587 0.781194
vt 0.500000 0.781194
vt 0.937413 0.781194
vt 0.999900 0.765572
vt 0.000100 0.765572
vt 0.437512 0.781194
vt 0.874925 0.781194
vt 0.062587 0.812438
vt 0.125075 0.812438
vt 0.500000 0.812438
vt 0.562488 0.812438
vt 0.937413 0.812437
vt 0.999900 0.796816
vt 0.000100 0.796816
vt 0.437512 0.812438
vt 0.874925 0.812437
vt 0.375025 0.812437
vt 0.812438 0.812438
vt 0.312537 0.812437
vt 0.749950 0.812437
vt 0.250050 0.812438
vt 0.687463 0.812437
vt 0.187563 0.812438
vt 0.624975 0.812437
vt 0.749950 0.843681
vt 0.812438 0.843681
vt 0.250050 0.843681
vt 0.312537 0.843681
vt 0.687463 0.843681
vt 0.187562 0.843681
vt 0.624975 0.843681
vt 0.125075 0.843681
vt 0.562488 0.843681
vt 0.062587 0.843681
vt 0.500000 0.843681
vt 0.937413 0.843681
vt 0.999900 0.828059
vt 0.000100 0.828059
vt 0.437512 0.843681
vt 0.874925 0.843681
vt 0.375025 0.843681
vt 0.500000 0.874925
vt 0.562488 0.874925
vt 0.937413 0.874925
vt 0.999900 0.859303
vt 0.000100 0.859303
vt 0.062587 0.874925
vt 0.437513 0.874925
vt 0.874925 0.874925
vt 0.375025 0.874925
vt 0.812438 0.874925
vt 0.312537 0.874925
vt 0.749950 0.874925
vt 0.250050 0.874925
vt 0.687463 0.874925
vt 0.187562 0.874925
vt 0.624975 0.874925
vt 0.125075 0.874925
vt 0.250050 0.906169
vt 0.312537 0.906169
vt 0.687463 0.906169
vt 0.749950 0.906169
vt 0.187562 0.906169
vt 0.624975 0.906169
vt 0.125075 0.906169
vt 0.562488 0.906169
vt 0.062587 0.906169
vt 0.500000 0.906169
vt 0.937413 0.906169
vt 0.999900 0.890547
vt 0.000100 0.890547
vt 0.437513 0.906169
vt 0.874925 0.906169
vt 0.375025 0.906169
vt 0.812438 0.906169
vt 0.937413 0.937412
vt 0.999900 0.921791
vt 0.000100 0.921791
vt 0.062587 0.937412
vt 0.437513 0.937412
vt 0.500000 0.937413
vt 0.874925 0.937412
vt 0.375025 0.937412
vt 0.812438 0.937412
vt 0.312537 0.937412
vt 0.749950 0.937412
vt 0.250050 0.937412
vt 0.687463 0.937412
vt 0.187562 0.937412
vt 0.624975 0.937412
vt 0.125075 0.937412
vt 0.562488 0.937412
vt 0.687463 0.968656
vt 0.749950 0.968656
vt 0.187562 0.968656
vt 0.250050 0.968656
vt 0.624975 0.968656
vt 0.125075 0.968656
vt 0.562488 0.968656
vt 0.062587 0.968656
vt 0.500000 0.968656
vt 0.937413 0.968656
vt 0.999900 0.953034
vt 0.000100 0.953034
vt 0.437513 0.968656
vt 0.874925 0.968656
vt 0.375025 0.968656
vt 0.812438 0.968656
vt 0.312537 0.968656
vt 0.437513 0.999900
vt 0.500000 0.999900
vt 0.874925 0.999900
vt 0.937413 0.999900
vt 0.375025 0.999900
vt 0.812438 0.999900
vt 0.312537 0.999900
vt 0.749950 0.999900
vt 0.250050 0.999900
vt 0.687463 0.999900
vt 0.187562 0.999900
vt 0.624975 0.999900
vt 0.125075 0.999900
vt 0.562488 0.999900
vt 0.062587 0.999900
vt 0.999900 0.984278
vt 0.000100 0.984278
vt 0.187562 0.000100
vt 0.187562 0.031344
vt 0.250050 0.031344
vt 0.250050 0.000100
vt 0.624975 0.000100
vt 0.624975 0.031344
vt 0.687463 0.031344
vt 0.687463 0.000100
vt 0.125075 0.000100
vt 0.125075 0.031344
vt 0.562487 0.000100
vt 0.562488 0.031344
vt 0.062587 0.000100
vt 0.062587 0.031344
vt 0.500000 0.000100
vt 0.500000 0.031344
vt 0.937413 0.000100
vt 0.937413 0.031344
vt 0.999900 0.015722
vt 0.000100 0.015722
vt 0.437512 0.000100
vt 0.437512 0.031344
vt 0.874925 0.000100
vt 0.874925 0.031344
vt 0.375025 0.000100
vt 0.375025 0.031344
vt 0.812438 0.000100
vt 0.812438 0.031344
vt 0.312537 0.000100
vt 0.312537 0.031344
vt 0.749950 0.000100
vt 0.749950 0.031344
vt 0.375025 0.062587
vt 0.437512 0.062588
vt 0.812438 0.062588
vt 0.874925 0.062587
vt 0.312537 0.062588
vt 0.749950 0.062587
vt 0.250050 0.062587
vt 0.687463 0.062588
vt 0.187562 0.062588
vt 0.624975 0.062587
vt 0.125075 0.062587
vt 0.562488 0.062588
vt 0.062587 0.062587
vt 0.500000 0.062588
vt 0.937413 0.062587
vt 0.999900 0.046966
vt 0.000100 0.046966
vt 0.125075 0.093831
vt 0.187562 0.093831
vt 0.562488 0.093831
vt 0.624975 0.093831
vt 0.062587 0.093831
vt 0.500000 0.093831
vt 0.937413 0.093831
vt 0.999900 0.078209
vt 0.000100 0.078209
vt 0.437512 0.093831
vt 0.874925 0.093831
vt 0.375025 0.093831
vt 0.812438 0.093831
vt 0.312537 0.093831
vt 0.749950 0.093831
vt 0.250050 0.093831
vt 0.687463 0.093831
vt 0.812438 0.125075
vt 0.874925 0.125075
vt 0.312537 0.125075
vt 0.375025 0.125075
vt 0.749950 0.125075
vt 0.250050 0.125075
vt 0.687463 0.125075
vt 0.187562 0.125075
vt 0.624975 0.125075
vt 0.125075 0.125075
vt 0.562488 0.125075
vt 0.062587 0.125075
vt 0.500000 0.125075
vt 0.937413 0.125075
vt 0.999900 0.109453
vt 0.000100 0.109453
vt 0.437512 0.125075
vt 0.562488 0.156319
vt 0.624975 0.156319
vt 0.062587 0.156319
vt 0.125075 0.156319
vt 0.500000 0.156319
vt 0.937413 0.156319
vt 0.999900 0.140697
vt 0.000100 0.140697
vt 0.437512 0.156319
vt 0.874925 0.156319
vt 0.375025 0.156319
vt 0.812438 0.156319
vt 0.312537 0.156319
vt 0.749950 0.156319
vt 0.250050 0.156319
vt 0.687463 0.156319
vt 0.187562 0.156319
vt 0.312537 0.187563
vt 0.375025 0.187562
vt 0.749950 0.187562
vt 0.812438 0.187563
vt 0.250050 0.187562
vt 0.687463 0.187563
vt 0.187562 0.187563
vt 0.624975 0.187562
vt 0.125075 0.187562
vt 0.562488 0.187563
vt 0.062587 0.187562
vt 0.500000 0.187563
vt 0.937413 0.187562
vt 0.999900 0.171941
vt 0.000100 0.171941
vt 0.437512 0.187563
vt 0.874925 0.187562
vt 0.062587 0.218806
vt 0.125075 0.218806
vt 0.500000 0.218806
vt 0.562488 0.218806
vt 0.937413 0.218806
vt 0.999900 0.203184
vt 0.000100 0.203184
vt 0.437512 0.218806
vt 0.874925 0.218806
vt 0.375025 0.218806
vt 0.812438 0.218806
vt 0.312537 0.218806
vt 0.749950 0.218806
vt 0.250050 0.218806
vt 0.687463 0.218806
vt 0.187562 0.218806
vt 0.624975 0.218806
vt 0.999900 0.234428
vt 0.000100 0.234428
s 0
usemtl マテリアル
f 6/1/1 17/2/1 16/3/1 478/4/1
f 476/5/2 10/6/2 9/7/2 1/8/2
f 479/9/3 18/10/3 17/2/3 6/1/3
f 2/11/4 11/12/4 10/6/4 476/5/4
f 480/13/5 19/14/5 18/10/5 479/9/5
f 477/15/6 12/16/6 11/12/6 2/11/6
f 481/17/7 20/18/7 19/14/7 480/13/7
f 3/19/8 13/20/8 12/16/8 477/15/8
f 482/21/9 21/22/9 20/18/9 481/17/9
f 4/23/10 14/24/10 13/20/10 3/19/10
f 474/25/11 7/26/11 82/27/11
f 308/28/12 21/22/12 482/21/12
f 5/29/13 15/30/13 14/24/13 4/23/13
f 475/31/14 8/32/14 7/26/14 474/25/14
f 478/4/15 16/3/15 15/30/15 5/29/15
f 1/8/16 9/7/16 8/32/16 475/31/16
f 16/3/17 31/33/17 30/34/17 15/30/17
f 9/7/18 24/35/18 23/36/18 8/32/18
f 17/2/19 32/37/19 31/33/19 16/3/19
f 10/6/20 25/38/20 24/35/20 9/7/20
f 18/10/21 33/39/21 32/37/21 17/2/21
f 11/12/22 26/40/22 25/38/22 10/6/22
f 19/14/23 34/41/23 33/39/23 18/10/23
f 12/16/24 27/42/24 26/40/24 11/12/24
f 20/18/25 35/43/25 34/41/25 19/14/25
f 13/20/26 28/44/26 27/42/26 12/16/26
f 21/22/27 36/45/27 35/43/27 20/18/27
f 14/24/28 29/46/28 28/44/28 13/20/28
f 7/26/29 22/47/29 82/48/29
f 308/49/30 36/45/30 21/22/30
f 15/30/31 30/34/31 29/46/31 14/24/31
f 8/32/32 23/36/32 22/47/32 7/26/32
f 35/43/33 50/50/33 49/51/33 34/41/33
f 28/44/34 43/52/34 42/53/34 27/42/34
f 36/45/35 51/54/35 50/50/35 35/43/35
f 29/46/36 44/55/36 43/52/36 28/44/36
f 22/47/37 37/56/37 82/57/37
f 308/58/38 51/54/38 36/45/38
f 30/34/39 45/59/39 44/55/39 29/46/39
f 23/36/40 38/60/40 37/56/40 22/47/40
f 31/33/41 46/61/41 45/59/41 30/34/41
f 24/35/42 39/62/42 38/60/42 23/36/42
f 32/37/43 47/63/43 46/61/43 31/33/43
f 25/38/44 40/64/44 39/62/44 24/35/44
f 33/39/45 48/65/45 47/63/45 32/37/45
f 26/40/46 41/66/46 40/64/46 25/38/46
f 34/41/47 49/51/47 48/65/47 33/39/47
f 27/42/48 42/53/48 41/66/48 26/40/48
f 39/62/49 54/67/49 53/68/49 38/60/49
f 47/63/50 62/69/50 61/70/50 46/61/50
f 40/64/51 55/71/51 54/67/51 39/62/51
f 48/65/52 63/72/52 62/69/52 47/63/52
f 41/66/53 56/73/53 55/71/53 40/64/53
f 49/51/54 64/74/54 63/72/54 48/65/54
f 42/53/55 57/75/55 56/73/55 41/66/55
f 50/50/56 65/76/56 64/74/56 49/51/56
f 43/52/57 58/77/57 57/75/57 42/53/57
f 51/54/58 66/78/58 65/76/58 50/50/58
f 44/55/59 59/79/59 58/77/59 43/52/59
f 37/56/60 52/80/60 82/81/60
f 308/82/61 66/78/61 51/54/61
f 45/59/62 60/83/62 59/79/62 44/55/62
f 38/60/63 53/68/63 52/80/63 37/56/63
f 46/61/64 61/70/64 60/83/64 45/59/64
f 58/77/65 73/84/65 72/85/65 57/75/65
f 66/78/66 81/86/66 80/87/66 65/76/66
f 59/79/67 74/88/67 73/84/67 58/77/67
f 52/80/68 67/89/68 82/90/68
f 308/91/69 81/86/69 66/78/69
f 60/83/70 75/92/70 74/88/70 59/79/70
f 53/68/71 68/93/71 67/89/71 52/80/71
f 61/70/72 76/94/72 75/92/72 60/83/72
f 54/67/73 69/95/73 68/93/73 53/68/73
f 62/69/74 77/96/74 76/94/74 61/70/74
f 55/71/75 70/97/75 69/95/75 54/67/75
f 63/72/76 78/98/76 77/96/76 62/69/76
f 56/73/77 71/99/77 70/97/77 55/71/77
f 64/74/78 79/100/78 78/98/78 63/72/78
f 57/75/79 72/85/79 71/99/79 56/73/79
f 65/76/80 80/87/80 79/100/80 64/74/80
f 77/96/81 93/101/81 92/102/81 76/94/81
f 70/97/82 86/103/82 85/104/82 69/95/82
f 78/98/83 94/105/83 93/101/83 77/96/83
f 71/99/84 87/106/84 86/103/84 70/97/84
f 79/100/85 95/107/85 94/105/85 78/98/85
f 72/85/86 88/108/86 87/106/86 71/99/86
f 80/87/87 96/109/87 95/107/87 79/100/87
f 73/84/88 89/110/88 88/108/88 72/85/88
f 81/86/89 97/111/89 96/109/89 80/87/89
f 74/88/90 90/112/90 89/110/90 73/84/90
f 67/89/91 83/113/91 82/114/91
f 308/115/92 97/111/92 81/86/92
f 75/92/93 91/116/93 90/112/93 74/88/93
f 68/93/94 84/117/94 83/113/94 67/89/94
f 76/94/95 92/102/95 91/116/95 75/92/95
f 69/95/96 85/104/96 84/117/96 68/93/96
f 97/111/97 112/118/97 111/119/97 96/109/97
f 90/112/98 105/120/98 104/121/98 89/110/98
f 83/113/99 98/122/99 82/123/99
f 308/124/100 112/118/100 97/111/100
f 91/116/101 106/125/101 105/120/101 90/112/101
f 84/117/102 99/126/102 98/122/102 83/113/102
f 92/102/103 107/127/103 106/125/103 91/116/103
f 85/104/104 100/128/104 99/126/104 84/117/104
f 93/101/105 108/129/105 107/127/105 92/102/105
f 86/103/106 101/130/106 100/128/106 85/104/106
f 94/105/107 109/131/107 108/129/107 93/101/107
f 87/106/108 102/132/108 101/130/108 86/103/108
f 95/107/109 110/133/109 109/131/109 94/105/109
f 88/108/110 103/134/110 102/132/110 87/106/110
f 96/109/111 111/119/111 110/133/111 95/107/111
f 89/110/112 104/121/112 103/134/112 88/108/112
f 109/131/113 124/135/113 123/136/113 108/129/113
f 102/132/114 117/137/114 116/138/114 101/130/114
f 110/133/115 125/139/115 124/135/115 109/131/115
f 103/134/116 118/140/116 117/137/116 102/132/116
f 111/119/117 126/141/117 125/139/117 110/133/117
f 104/121/118 119/142/118 118/140/118 103/134/118
f 112/118/119 127/143/119 126/141/119 111/119/119
f 105/120/120 120/144/120 119/142/120 104/121/120
f 98/122/121 113/145/121 82/146/121
f 308/147/122 127/143/122 112/118/122
f 106/125/123 121/148/123 120/144/123 105/120/123
f 99/126/124 114/149/124 113/145/124 98/122/124
f 107/127/125 122/150/125 121/148/125 106/125/125
f 100/128/126 115/151/126 114/149/126 99/126/126
f 108/129/127 123/136/127 122/150/127 107/127/127
f 101/130/128 116/138/128 115/151/128 100/128/128
f 113/145/129 128/152/129 82/153/129
f 308/154/130 142/155/130 127/143/130
f 121/148/131 136/156/131 135/157/131 120/144/131
f 114/149/132 129/158/132 128/152/132 113/145/132
f 122/150/133 137/159/133 136/156/133 121/148/133
f 115/151/134 130/160/134 129/158/134 114/149/134
f 123/136/135 138/161/135 137/159/135 122/150/135
f 116/138/136 131/162/136 130/160/136 115/151/136
f 124/135/137 139/163/137 138/161/137 123/136/137
f 117/137/138 132/164/138 131/162/138 116/138/138
f 125/139/139 140/165/139 139/163/139 124/135/139
f 118/140/140 133/166/140 132/164/140 117/137/140
f 126/141/141 141/167/141 140/165/141 125/139/141
f 119/142/142 134/168/142 133/166/142 118/140/142
f 127/143/143 142/155/143 141/167/143 126/141/143
f 120/144/144 135/157/144 134/168/144 119/142/144
f 132/164/145 147/169/145 146/170/145 131/162/145
f 140/165/146 155/171/146 154/172/146 139/163/146
f 133/166/147 148/173/147 147/169/147 132/164/147
f 141/167/148 156/174/148 155/171/148 140/165/148
f 134/168/149 149/175/149 148/173/149 133/166/149
f 142/155/150 157/176/150 156/174/150 141/167/150
f 135/157/151 150/177/151 149/175/151 134/168/151
f 128/152/152 143/178/152 82/179/152
f 308/180/153 157/176/153 142/155/153
f 136/156/154 151/181/154 150/177/154 135/157/154
f 129/158/155 144/182/155 143/178/155 128/152/155
f 137/159/156 152/183/156 151/181/156 136/156/156
f 130/160/157 145/184/157 144/182/157 129/158/157
f 138/161/158 153/185/158 152/183/158 137/159/158
f 131/162/159 146/170/159 145/184/159 130/160/159
f 139/163/160 154/172/160 153/185/160 138/161/160
f 151/181/161 166/186/161 165/187/161 150/177/161
f 144/182/162 159/188/162 158/189/162 143/178/162
f 152/183/163 167/190/163 166/186/163 151/181/163
f 145/184/164 160/191/164 159/188/164 144/182/164
f 153/185/165 168/192/165 167/190/165 152/183/165
f 146/170/166 161/193/166 160/191/166 145/184/166
f 154/172/167 169/194/167 168/192/167 153/185/167
f 147/169/168 162/195/168 161/193/168 146/170/168
f 155/171/169 170/196/169 169/194/169 154/172/169
f 148/173/170 163/197/170 162/195/170 147/169/170
f 156/174/171 171/198/171 170/196/171 155/171/171
f 149/175/172 164/199/172 163/197/172 148/173/172
f 157/176/173 172/200/173 171/198/173 156/174/173
f 150/177/174 165/187/174 164/199/174 149/175/174
f 143/178/175 158/189/175 82/201/175
f 308/202/176 172/200/176 157/176/176
f 170/196/177 185/203/177 184/204/177 169/194/177
f 163/197/178 178/205/178 177/206/178 162/195/178
f 171/198/179 186/207/179 185/203/179 170/196/179
f 164/199/180 179/208/180 178/205/180 163/197/180
f 172/200/181 187/209/181 186/207/181 171/198/181
f 165/187/182 180/210/182 179/208/182 164/199/182
f 158/189/183 173/211/183 82/212/183
f 308/213/184 187/209/184 172/200/184
f 166/186/185 181/214/185 180/210/185 165/187/185
f 159/188/186 174/215/186 173/211/186 158/189/186
f 167/190/187 182/216/187 181/214/187 166/186/187
f 160/191/188 175/217/188 174/215/188 159/188/188
f 168/192/189 183/218/189 182/216/189 167/190/189
f 161/193/190 176/219/190 175/217/190 160/191/190
f 169/194/191 184/204/191 183/218/191 168/192/191
f 162/195/192 177/206/192 176/219/192 161/193/192
f 174/215/193 189/220/193 188/221/193 173/211/193
f 182/216/194 197/222/194 196/223/194 181/214/194
f 175/217/195 190/224/195 189/220/195 174/215/195
f 183/218/196 198/225/196 197/222/196 182/216/196
f 176/219/197 191/226/197 190/224/197 175/217/197
f 184/204/198 199/227/198 198/225/198 183/218/198
f 177/206/199 192/228/199 191/226/199 176/219/199
f 185/203/200 200/229/200 199/227/200 184/204/200
f 178/205/201 193/230/201 192/228/201 177/206/201
f 186/207/202 201/231/202 200/229/202 185/203/202
f 179/208/203 194/232/203 193/230/203 178/205/203
f 187/209/204 202/233/204 201/231/204 186/207/204
f 180/210/205 195/234/205 194/232/205 179/208/205
f 173/211/206 188/221/206 82/235/206
f 308/236/207 202/233/207 187/209/207
f 181/214/208 196/223/208 195/234/208 180/210/208
f 193/230/209 208/237/209 207/238/209 192/228/209
f 201/231/210 216/239/210 215/240/210 200/229/210
f 194/232/211 209/241/211 208/237/211 193/230/211
f 202/233/212 217/242/212 216/239/212 201/231/212
f 195/234/213 210/243/213 209/241/213 194/232/213
f 188/221/214 203/244/214 82/245/214
f 308/246/215 217/242/215 202/233/215
f 196/223/216 211/247/216 210/243/216 195/234/216
f 189/220/217 204/248/217 203/244/217 188/221/217
f 197/222/218 212/249/218 211/247/218 196/223/218
f 190/224/219 205/250/219 204/248/219 189/220/219
f 198/225/220 213/251/220 212/249/220 197/222/220
f 191/226/221 206/252/221 205/250/221 190/224/221
f 199/227/222 214/253/222 213/251/222 198/225/222
f 192/228/223 207/238/223 206/252/223 191/226/223
f 200/229/224 215/240/224 214/253/224 199/227/224
f 212/249/225 227/254/225 226/255/225 211/247/225
f 205/250/226 220/256/226 219/257/226 204/248/226
f 213/251/227 228/258/227 227/254/227 212/249/227
f 206/252/228 221/259/228 220/256/228 205/250/228
f 214/253/229 229/260/229 228/258/229 213/251/229
f 207/238/230 222/261/230 221/259/230 206/252/230
f 215/240/231 230/262/231 229/260/231 214/253/231
f 208/237/232 223/263/232 222/261/232 207/238/232
f 216/239/233 231/264/233 230/262/233 215/240/233
f 209/241/234 224/265/234 223/263/234 208/237/234
f 217/242/235 232/266/235 231/264/235 216/239/235
f 210/243/236 225/267/236 224/265/236 209/241/236
f 203/244/237 218/268/237 82/269/237
f 308/270/238 232/266/238 217/242/238
f 211/247/239 226/255/239 225/267/239 210/243/239
f 204/248/240 219/257/240 218/268/240 203/244/240
f 231/264/241 246/271/241 245/272/241 230/262/241
f 224/265/242 239/273/242 238/274/242 223/263/242
f 232/266/243 247/275/243 246/271/243 231/264/243
f 225/267/244 240/276/244 239/273/244 224/265/244
f 218/268/245 233/277/245 82/278/245
f 308/279/246 247/275/246 232/266/246
f 226/255/247 241/280/247 240/276/247 225/267/247
f 219/257/248 234/281/248 233/277/248 218/268/248
f 227/254/249 242/282/249 241/280/249 226/255/249
f 220/256/250 235/283/250 234/281/250 219/257/250
f 228/258/251 243/284/251 242/282/251 227/254/251
f 221/259/252 236/285/252 235/283/252 220/256/252
f 229/260/253 244/286/253 243/284/253 228/258/253
f 222/261/254 237/287/254 236/285/254 221/259/254
f 230/262/255 245/272/255 244/286/255 229/260/255
f 223/263/256 238/274/256 237/287/256 222/261/256
f 243/284/257 258/288/257 257/289/257 242/282/257
f 236/285/258 251/290/258 250/291/258 235/283/258
f 244/286/259 259/292/259 258/288/259 243/284/259
f 237/287/260 252/293/260 251/290/260 236/285/260
f 245/272/261 260/294/261 259/292/261 244/286/261
f 238/274/262 253/295/262 252/293/262 237/287/262
f 246/271/263 261/296/263 260/294/263 245/272/263
f 239/273/264 254/297/264 253/295/264 238/274/264
f 247/275/265 262/298/265 261/296/265 246/271/265
f 240/276/266 255/299/266 254/297/266 239/273/266
f 233/277/267 248/300/267 82/301/267
f 308/302/268 262/298/268 247/275/268
f 241/280/269 256/303/269 255/299/269 240/276/269
f 234/281/270 249/304/270 248/300/270 233/277/270
f 242/282/271 257/289/271 256/303/271 241/280/271
f 235/283/272 250/291/272 249/304/272 234/281/272
f 262/298/273 277/305/273 276/306/273 261/296/273
f 255/299/274 270/307/274 269/308/274 254/297/274
f 248/300/275 263/309/275 82/310/275
f 308/311/276 277/305/276 262/298/276
f 256/303/277 271/312/277 270/307/277 255/299/277
f 249/304/278 264/313/278 263/309/278 248/300/278
f 257/289/279 272/314/279 271/312/279 256/303/279
f 250/291/280 265/315/280 264/313/280 249/304/280
f 258/288/281 273/316/281 272/314/281 257/289/281
f 251/290/282 266/317/282 265/315/282 250/291/282
f 259/292/283 274/318/283 273/316/283 258/288/283
f 252/293/284 267/319/284 266/317/284 251/290/284
f 260/294/285 275/320/285 274/318/285 259/292/285
f 253/295/286 268/321/286 267/319/286 252/293/286
f 261/296/287 276/306/287 275/320/287 260/294/287
f 254/297/288 269/308/288 268/321/288 253/295/288
f 266/317/289 281/322/289 280/323/289 265/315/289
f 274/318/290 289/324/290 288/325/290 273/316/290
f 267/319/291 282/326/291 281/322/291 266/317/291
f 275/320/292 290/327/292 289/324/292 274/318/292
f 268/321/293 283/328/293 282/326/293 267/319/293
f 276/306/294 291/329/294 290/327/294 275/320/294
f 269/308/295 284/330/295 283/328/295 268/321/295
f 277/305/296 292/331/296 291/329/296 276/306/296
f 270/307/297 285/332/297 284/330/297 269/308/297
f 263/309/298 278/333/298 82/334/298
f 308/335/299 292/331/299 277/305/299
f 271/312/300 286/336/300 285/332/300 270/307/300
f 264/313/301 279/337/301 278/333/301 263/309/301
f 272/314/302 287/338/302 286/336/302 271/312/302
f 265/315/303 280/323/303 279/337/303 264/313/303
f 273/316/304 288/325/304 287/338/304 272/314/304
f 285/332/305 300/339/305 299/340/305 284/330/305
f 278/333/306 293/341/306 82/342/306
f 308/343/307 307/344/307 292/331/307
f 286/336/308 301/345/308 300/339/308 285/332/308
f 279/337/309 294/346/309 293/341/309 278/333/309
f 287/338/310 302/347/310 301/345/310 286/336/310
f 280/323/311 295/348/311 294/346/311 279/337/311
f 288/325/312 303/349/312 302/347/312 287/338/312
f 281/322/313 296/350/313 295/348/313 280/323/313
f 289/324/314 304/351/314 303/349/314 288/325/314
f 282/326/315 297/352/315 296/350/315 281/322/315
f 290/327/316 305/353/316 304/351/316 289/324/316
f 283/328/317 298/354/317 297/352/317 282/326/317
f 291/329/318 306/355/318 305/353/318 290/327/318
f 284/330/319 299/340/319 298/354/319 283/328/319
f 292/331/320 307/344/320 306/355/320 291/329/320
f 304/351/321 320/356/321 319/357/321 303/349/321
f 297/352/322 313/358/322 312/359/322 296/350/322
f 305/353/323 321/360/323 320/356/323 304/351/323
f 298/354/324 314/361/324 313/358/324 297/352/324
f 306/355/325 322/362/325 321/360/325 305/353/325
f 299/340/326 315/363/326 314/361/326 298/354/326
f 307/344/327 323/364/327 322/362/327 306/355/327
f 300/339/328 316/365/328 315/363/328 299/340/328
f 293/341/329 309/366/329 82/367/329
f 308/368/330 323/364/330 307/344/330
f 301/345/331 317/369/331 316/365/331 300/339/331
f 294/346/332 310/370/332 309/366/332 293/341/332
f 302/347/333 318/371/333 317/369/333 301/345/333
f 295/348/334 311/372/334 310/370/334 294/346/334
f 303/349/335 319/357/335 318/371/335 302/347/335
f 296/350/336 312/359/336 311/372/336 295/348/336
f 309/366/337 324/373/337 82/374/337
f 308/375/338 338/376/338 323/364/338
f 317/369/339 332/377/339 331/378/339 316/365/339
f 310/370/340 325/379/340 324/373/340 309/366/340
f 318/371/341 333/380/341 332/377/341 317/369/341
f 311/372/342 326/381/342 325/379/342 310/370/342
f 319/357/343 334/382/343 333/380/343 318/371/343
f 312/359/344 327/383/344 326/381/344 311/372/344
f 320/356/345 335/384/345 334/382/345 319/357/345
f 313/358/346 328/385/346 327/383/346 312/359/346
f 321/360/347 336/386/347 335/384/347 320/356/347
f 314/361/348 329/387/348 328/385/348 313/358/348
f 322/362/349 337/388/349 336/386/349 321/360/349
f 315/363/350 330/389/350 329/387/350 314/361/350
f 323/364/351 338/376/351 337/388/351 322/362/351
f 316/365/352 331/378/352 330/389/352 315/363/352
f 328/385/353 343/390/353 342/391/353 327/383/353
f 336/386/354 351/392/354 350/393/354 335/384/354
f 329/387/355 344/394/355 343/390/355 328/385/355
f 337/388/356 352/395/356 351/392/356 336/386/356
f 330/389/357 345/396/357 344/394/357 329/387/357
f 338/376/358 353/397/358 352/395/358 337/388/358
f 331/378/359 346/398/359 345/396/359 330/389/359
f 324/373/360 339/399/360 82/400/360
f 308/401/361 353/397/361 338/376/361
f 332/377/362 347/402/362 346/398/362 331/378/362
f 325/379/363 340/403/363 339/399/363 324/373/363
f 333/380/364 348/404/364 347/402/364 332/377/364
f 326/381/365 341/405/365 340/403/365 325/379/365
f 334/382/366 349/406/366 348/404/366 333/380/366
f 327/383/367 342/391/367 341/405/367 326/381/367
f 335/384/368 350/393/368 349/406/368 334/382/368
f 347/402/369 362/407/369 361/408/369 346/398/369
f 340/403/370 355/409/370 354/410/370 339/399/370
f 348/404/371 363/411/371 362/407/371 347/402/371
f 341/405/372 356/412/372 355/409/372 340/403/372
f 349/406/373 364/413/373 363/411/373 348/404/373
f 342/391/374 357/414/374 356/412/374 341/405/374
f 350/393/375 365/415/375 364/413/375 349/406/375
f 343/390/376 358/416/376 357/414/376 342/391/376
f 351/392/377 366/417/377 365/415/377 350/393/377
f 344/394/378 359/418/378 358/416/378 343/390/378
f 352/395/379 367/419/379 366/417/379 351/392/379
f 345/396/380 360/420/380 359/418/380 344/394/380
f 353/397/381 368/421/381 367/419/381 352/395/381
f 346/398/382 361/408/382 360/420/382 345/396/382
f 339/399/383 354/410/383 82/422/383
f 308/423/384 368/421/384 353/397/384
f 366/424/385 381/425/385 380/426/385 365/427/385
f 359/428/386 374/429/386 373/430/386 358/431/386
f 367/432/387 382/433/387 381/425/387 366/424/387
f 360/434/388 375/435/388 374/429/388 359/428/388
f 368/436/389 383/437/389 382/433/389 367/432/389
f 361/438/390 376/439/390 375/435/390 360/434/390
f 354/440/391 369/441/391 82/442/391
f 308/443/392 383/437/392 368/436/392
f 362/444/393 377/445/393 376/439/393 361/438/393
f 355/446/394 370/447/394 369/441/394 354/440/394
f 363/448/395 378/449/395 377/445/395 362/444/395
f 356/450/396 371/451/396 370/447/396 355/446/396
f 364/452/397 379/453/397 378/449/397 363/448/397
f 357/454/398 372/455/398 371/451/398 356/450/398
f 365/427/399 380/426/399 379/453/399 364/452/399
f 358/431/400 373/430/400 372/455/400 357/454/400
f 378/449/401 393/456/401 392/457/401 377/445/401
f 371/451/402 386/458/402 385/459/402 370/447/402
f 379/453/403 394/460/403 393/456/403 378/449/403
f 372/455/404 387/461/404 386/458/404 371/451/404
f 380/426/405 395/462/405 394/460/405 379/453/405
f 373/430/406 388/463/406 387/461/406 372/455/406
f 381/425/407 396/464/407 395/462/407 380/426/407
f 374/429/408 389/465/408 388/463/408 373/430/408
f 382/433/409 397/466/409 396/464/409 381/425/409
f 375/435/410 390/467/410 389/465/410 374/429/410
f 383/437/411 398/468/411 397/466/411 382/433/411
f 376/439/412 391/469/412 390/467/412 375/435/412
f 369/441/413 384/470/413 82/471/413
f 308/472/414 398/468/414 383/437/414
f 377/445/415 392/457/415 391/469/415 376/439/415
f 370/447/416 385/459/416 384/470/416 369/441/416
f 397/466/417 412/473/417 411/474/417 396/464/417
f 390/467/418 405/475/418 404/476/418 389/465/418
f 398/468/419 413/477/419 412/473/419 397/466/419
f 391/469/420 406/478/420 405/475/420 390/467/420
f 384/470/421 399/479/421 82/480/421
f 308/481/422 413/477/422 398/468/422
f 392/457/423 407/482/423 406/478/423 391/469/423
f 385/459/424 400/483/424 399/479/424 384/470/424
f 393/456/425 408/484/425 407/482/425 392/457/425
f 386/458/426 401/485/426 400/483/426 385/459/426
f 394/460/427 409/486/427 408/484/427 393/456/427
f 387/461/428 402/487/428 401/485/428 386/458/428
f 395/462/429 410/488/429 409/486/429 394/460/429
f 388/463/430 403/489/430 402/487/430 387/461/430
f 396/464/431 411/474/431 410/488/431 395/462/431
f 389/465/432 404/476/432 403/489/432 388/463/432
f 401/485/433 416/490/433 415/491/433 400/483/433
f 409/486/434 424/492/434 423/493/434 408/484/434
f 402/487/435 417/494/435 416/490/435 401/485/435
f 410/488/436 425/495/436 424/492/436 409/486/436
f 403/489/437 418/496/437 417/494/437 402/487/437
f 411/474/438 426/497/438 425/495/438 410/488/438
f 404/476/439 419/498/439 418/496/439 403/489/439
f 412/473/440 427/499/440 426/497/440 411/474/440
f 405/475/441 420/500/441 419/498/441 404/476/441
f 413/477/442 428/501/442 427/499/442 412/473/442
f 406/478/443 421/502/443 420/500/443 405/475/443
f 399/479/444 414/503/444 82/504/444
f 308/505/445 428/501/445 413/477/445
f 407/482/446 422/506/446 421/502/446 406/478/446
f 400/483/447 415/491/447 414/503/447 399/479/447
f 408/484/448 423/493/448 422/506/448 407/482/448
f 420/500/449 435/507/449 434/508/449 419/498/449
f 428/501/450 443/509/450 442/510/450 427/499/450
f 421/502/451 436/511/451 435/507/451 420/500/451
f 414/503/452 429/512/452 82/513/452
f 308/514/453 443/509/453 428/501/453
f 422/506/454 437/515/454 436/511/454 421/502/454
f 415/491/455 430/516/455 429/512/455 414/503/455
f 423/493/456 438/517/456 437/515/456 422/506/456
f 416/490/457 431/518/457 430/516/457 415/491/457
f 424/492/458 439/519/458 438/517/458 423/493/458
f 417/494/459 432/520/459 431/518/459 416/490/459
f 425/495/460 440/521/460 439/519/460 424/492/460
f 418/496/461 433/522/461 432/520/461 417/494/461
f 426/497/462 441/523/462 440/521/462 425/495/462
f 419/498/463 434/508/463 433/522/463 418/496/463
f 427/499/464 442/510/464 441/523/464 426/497/464
f 439/519/465 454/524/465 453/525/465 438/517/465
f 432/520/466 447/526/466 446/527/466 431/518/466
f 440/521/467 455/528/467 454/524/467 439/519/467
f 433/522/468 448/529/468 447/526/468 432/520/468
f 441/523/469 456/530/469 455/528/469 440/521/469
f 434/508/470 449/531/470 448/529/470 433/522/470
f 442/510/471 457/532/471 456/530/471 441/523/471
f 435/507/472 450/533/472 449/531/472 434/508/472
f 443/509/473 458/534/473 457/532/473 442/510/473
f 436/511/474 451/535/474 450/533/474 435/507/474
f 429/512/475 444/536/475 82/537/475
f 308/538/476 458/534/476 443/509/476
f 437/515/477 452/539/477 451/535/477 436/511/477
f 430/516/478 445/540/478 444/536/478 429/512/478
f 438/517/479 453/525/479 452/539/479 437/515/479
f 431/518/480 446/527/480 445/540/480 430/516/480
f 458/534/481 473/541/481 472/542/481 457/532/481
f 451/535/482 466/543/482 465/544/482 450/533/482
f 444/536/483 459/545/483 82/546/483
f 308/547/484 473/541/484 458/534/484
f 452/539/485 467/548/485 466/543/485 451/535/485
f 445/540/486 460/549/486 459/545/486 444/536/486
f 453/525/487 468/550/487 467/548/487 452/539/487
f 446/527/488 461/551/488 460/549/488 445/540/488
f 454/524/489 469/552/489 468/550/489 453/525/489
f 447/526/490 462/553/490 461/551/490 446/527/490
f 455/528/491 470/554/491 469/552/491 454/524/491
f 448/529/492 463/555/492 462/553/492 447/526/492
f 456/530/493 471/556/493 470/554/493 455/528/493
f 449/531/494 464/557/494 463/555/494 448/529/494
f 457/532/495 472/542/495 471/556/495 456/530/495
f 450/533/496 465/544/496 464/557/496 449/531/496
f 462/553/497 476/5/497 1/8/497 461/551/497
f 470/554/498 479/9/498 6/1/498 469/552/498
f 463/555/499 2/11/499 476/5/499 462/553/499
f 471/556/500 480/13/500 479/9/500 470/554/500
f 464/557/501 477/15/501 2/11/501 463/555/501
f 472/542/502 481/17/502 480/13/502 471/556/502
f 465/544/503 3/19/503 477/15/503 464/557/503
f 473/541/504 482/21/504 481/17/504 472/542/504
f 466/543/505 4/23/505 3/19/505 465/544/505
f 459/545/506 474/25/506 82/558/506
f 308/559/507 482/21/507 473/541/507
f 467/548/508 5/29/508 4/23/508 466/543/508
f 460/549/509 475/31/509 474/25/509 459/545/509
f 468/550/510 478/4/510 5/29/510 467/548/510
f 461/551/511 1/8/511 475/31/511 460/549/511
f 469/552/512 6/1/512 478/4/512 468/550/512
