# Blender 4.4.1
# www.blender.org
mtllib Player1.mtl
o Player_Drone
v -0.250000 0.023338 -0.400000
v 0.250000 0.023338 -0.400000
v 0.250000 0.723338 -0.400000
v -0.250000 0.723338 -0.400000
v -0.250000 0.023338 0.400000
v 0.250000 0.023338 0.400000
v 0.250000 0.723338 0.400000
v -0.250000 0.723338 0.400000
v -0.150000 0.673338 0.050000
v 0.150000 0.673338 0.050000
v 0.150000 0.903338 0.050000
v -0.150000 0.903338 0.050000
v -0.150000 0.673338 0.280000
v 0.150000 0.673338 0.280000
v 0.150000 0.903338 0.280000
v -0.150000 0.903338 0.280000
v -0.220000 0.073338 0.400000
v 0.220000 0.073338 0.400000
v 0.220000 0.673338 0.400000
v -0.220000 0.673338 0.400000
v 0.000000 0.373338 0.850000
v -0.750000 0.273338 -0.050000
v -0.250000 0.273338 -0.050000
v -0.250000 0.373338 -0.050000
v -0.750000 0.373338 -0.050000
v -0.750000 0.273338 0.250000
v -0.250000 0.273338 0.250000
v -0.250000 0.373338 0.250000
v -0.750000 0.373338 0.250000
v 0.250000 0.273338 -0.050000
v 0.750000 0.273338 -0.050000
v 0.750000 0.373338 -0.050000
v 0.250000 0.373338 -0.050000
v 0.250000 0.273338 0.250000
v 0.750000 0.273338 0.250000
v 0.750000 0.373338 0.250000
v 0.250000 0.373338 0.250000
v -0.050000 0.423338 -0.450000
v 0.050000 0.423338 -0.450000
v 0.050000 0.873338 -0.450000
v -0.050000 0.873338 -0.450000
v -0.050000 0.423338 -0.300000
v 0.050000 0.423338 -0.300000
v 0.050000 0.873338 -0.300000
v -0.050000 0.873338 -0.300000
v -0.120000 0.223338 -0.480000
v -0.133397 0.223338 -0.430000
v -0.170000 0.223338 -0.393397
v -0.220000 0.223338 -0.380000
v -0.270000 0.223338 -0.393397
v -0.306603 0.223338 -0.430000
v -0.320000 0.223338 -0.480000
v -0.306603 0.223338 -0.530000
v -0.270000 0.223338 -0.566603
v -0.220000 0.223338 -0.580000
v -0.170000 0.223338 -0.566603
v -0.133397 0.223338 -0.530000
v -0.120000 0.373338 -0.480000
v -0.133397 0.373338 -0.430000
v -0.170000 0.373338 -0.393397
v -0.220000 0.373338 -0.380000
v -0.270000 0.373338 -0.393397
v -0.306603 0.373338 -0.430000
v -0.320000 0.373338 -0.480000
v -0.306603 0.373338 -0.530000
v -0.270000 0.373338 -0.566603
v -0.220000 0.373338 -0.580000
v -0.170000 0.373338 -0.566603
v -0.133397 0.373338 -0.530000
v -0.220000 0.223338 -0.480000
v -0.220000 0.373338 -0.480000
v 0.320000 0.223338 -0.480000
v 0.306603 0.223338 -0.430000
v 0.270000 0.223338 -0.393397
v 0.220000 0.223338 -0.380000
v 0.170000 0.223338 -0.393397
v 0.133397 0.223338 -0.430000
v 0.120000 0.223338 -0.480000
v 0.133397 0.223338 -0.530000
v 0.170000 0.223338 -0.566603
v 0.220000 0.223338 -0.580000
v 0.270000 0.223338 -0.566603
v 0.306603 0.223338 -0.530000
v 0.320000 0.373338 -0.480000
v 0.306603 0.373338 -0.430000
v 0.270000 0.373338 -0.393397
v 0.220000 0.373338 -0.380000
v 0.170000 0.373338 -0.393397
v 0.133397 0.373338 -0.430000
v 0.120000 0.373338 -0.480000
v 0.133397 0.373338 -0.530000
v 0.170000 0.373338 -0.566603
v 0.220000 0.373338 -0.580000
v 0.270000 0.373338 -0.566603
v 0.306603 0.373338 -0.530000
v 0.220000 0.223338 -0.480000
v 0.220000 0.373338 -0.480000
v -0.010000 0.903338 0.120000
v 0.010000 0.903338 0.120000
v 0.010000 1.073338 0.120000
v -0.010000 1.073338 0.120000
v -0.010000 0.903338 0.140000
v 0.010000 0.903338 0.140000
v 0.010000 1.073338 0.140000
v -0.010000 1.073338 0.140000
vn -0.0000 -0.0000 1.0000
vn -1.0000 -0.0000 -0.0000
vn -0.0000 -1.0000 -0.0000
vn -0.0000 -0.0000 -1.0000
vn -0.0000 -0.8321 0.5547
vn 0.8984 -0.0000 0.4392
vn -0.0000 0.8321 0.5547
vn -0.8984 -0.0000 0.4392
vn -0.9659 -0.0000 -0.2588
vn -0.7071 -0.0000 -0.7071
vn -0.2588 -0.0000 -0.9659
vn 0.2588 -0.0000 -0.9659
vn 0.7071 -0.0000 -0.7071
vn 0.9659 -0.0000 -0.2588
vn 0.9659 -0.0000 0.2588
vn 0.7071 -0.0000 0.7071
vn 0.2588 -0.0000 0.9659
vn -0.2588 -0.0000 0.9659
vn -0.7071 -0.0000 0.7071
vn -0.9659 -0.0000 0.2588
vn -0.0000 1.0000 -0.0000
vt 0.000240 0.000240
vt 0.454131 0.000240
vt 0.000240 0.726465
vt 0.454131 0.726465
vt 0.000240 0.999280
vt 0.000240 0.726945
vt 0.209030 0.999280
vt 0.209030 0.726945
vt 0.454611 0.000240
vt 0.813447 0.175671
vt 0.454611 0.454947
vt 0.454611 0.909318
vt 0.454611 0.455427
vt 0.726945 0.909318
vt 0.726945 0.455427
vt 0.727425 0.909318
vt 0.727425 0.455427
vt 0.999760 0.909318
vt 0.999760 0.455427
vt 0.813927 0.176089
vt 0.904705 0.176089
vt 0.813927 0.312256
vt 0.904705 0.312256
vt 0.361384 0.750440
vt 0.384879 0.791135
vt 0.384879 0.838125
vt 0.361384 0.878820
vt 0.320689 0.902315
vt 0.273700 0.902315
vt 0.233005 0.878820
vt 0.209510 0.838125
vt 0.209510 0.791135
vt 0.233005 0.750440
vt 0.273700 0.726945
vt 0.320689 0.726945
vt 0.297194 0.814630
vt 0.965802 0.023735
vt 0.989297 0.064430
vt 0.989297 0.111419
vt 0.965802 0.152114
vt 0.925107 0.175609
vt 0.878117 0.175609
vt 0.837422 0.152114
vt 0.813927 0.111419
vt 0.813927 0.064430
vt 0.837422 0.023735
vt 0.878117 0.000240
vt 0.925107 0.000240
vt 0.901612 0.087925
vt 0.385359 0.745101
vt 0.385359 0.726945
vt 0.403515 0.745101
vt 0.403515 0.726945
s 1
usemtl Glass
f 1/1/1 2/2/1 3/2/1
f 1/1/1 3/2/1 4/1/1
f 5/3/1 6/4/1 7/4/1
f 5/3/1 7/4/1 8/3/1
f 1/1/2 5/3/2 8/3/2
f 1/1/2 8/3/2 4/1/2
f 2/2/2 6/4/2 7/4/2
f 2/2/2 7/4/2 3/2/2
f 4/1/3 3/2/3 7/4/3
f 4/1/3 7/4/3 8/3/3
f 1/1/3 2/2/3 6/4/3
f 1/1/3 6/4/3 5/3/3
f 9/5/1 10/6/1 11/6/1
f 9/5/1 11/6/1 12/5/1
f 13/7/1 14/8/1 15/8/1
f 13/7/1 15/8/1 16/7/1
f 9/5/2 13/7/2 16/7/2
f 9/5/2 16/7/2 12/5/2
f 10/6/2 14/8/2 15/8/2
f 10/6/2 15/8/2 11/6/2
f 12/5/3 11/6/3 15/8/3
f 12/5/3 15/8/3 16/7/3
f 9/5/3 10/6/3 14/8/3
f 9/5/3 14/8/3 13/7/3
f 17/9/4 19/10/4 18/10/4
f 17/9/4 20/9/4 19/10/4
f 17/9/5 18/10/5 21/11/5
f 18/10/6 19/10/6 21/11/6
f 19/10/7 20/9/7 21/11/7
f 20/9/8 17/9/8 21/11/8
f 22/12/1 23/13/1 24/13/1
f 22/12/1 24/13/1 25/12/1
f 26/14/1 27/15/1 28/15/1
f 26/14/1 28/15/1 29/14/1
f 22/12/2 26/14/2 29/14/2
f 22/12/2 29/14/2 25/12/2
f 23/13/2 27/15/2 28/15/2
f 23/13/2 28/15/2 24/13/2
f 25/12/3 24/13/3 28/15/3
f 25/12/3 28/15/3 29/14/3
f 22/12/3 23/13/3 27/15/3
f 22/12/3 27/15/3 26/14/3
f 30/16/1 31/17/1 32/17/1
f 30/16/1 32/17/1 33/16/1
f 34/18/1 35/19/1 36/19/1
f 34/18/1 36/19/1 37/18/1
f 30/16/2 34/18/2 37/18/2
f 30/16/2 37/18/2 33/16/2
f 31/17/2 35/19/2 36/19/2
f 31/17/2 36/19/2 32/17/2
f 33/16/3 32/17/3 36/19/3
f 33/16/3 36/19/3 37/18/3
f 30/16/3 31/17/3 35/19/3
f 30/16/3 35/19/3 34/18/3
f 38/20/1 39/21/1 40/21/1
f 38/20/1 40/21/1 41/20/1
f 42/22/1 43/23/1 44/23/1
f 42/22/1 44/23/1 45/22/1
f 38/20/2 42/22/2 45/22/2
f 38/20/2 45/22/2 41/20/2
f 39/21/2 43/23/2 44/23/2
f 39/21/2 44/23/2 40/21/2
f 41/20/3 40/21/3 44/23/3
f 41/20/3 44/23/3 45/22/3
f 38/20/3 39/21/3 43/23/3
f 38/20/3 43/23/3 42/22/3
f 46/24/9 47/25/9 59/25/9
f 46/24/9 59/25/9 58/24/9
f 47/25/10 48/26/10 60/26/10
f 47/25/10 60/26/10 59/25/10
f 48/26/11 49/27/11 61/27/11
f 48/26/11 61/27/11 60/26/11
f 49/27/12 50/28/12 62/28/12
f 49/27/12 62/28/12 61/27/12
f 50/28/13 51/29/13 63/29/13
f 50/28/13 63/29/13 62/28/13
f 51/29/14 52/30/14 64/30/14
f 51/29/14 64/30/14 63/29/14
f 52/30/15 53/31/15 65/31/15
f 52/30/15 65/31/15 64/30/15
f 53/31/16 54/32/16 66/32/16
f 53/31/16 66/32/16 65/31/16
f 54/32/17 55/33/17 67/33/17
f 54/32/17 67/33/17 66/32/17
f 55/33/18 56/34/18 68/34/18
f 55/33/18 68/34/18 67/33/18
f 56/34/19 57/35/19 69/35/19
f 56/34/19 69/35/19 68/34/19
f 57/35/20 46/24/20 58/24/20
f 57/35/20 58/24/20 69/35/20
f 70/36/21 47/25/21 46/24/21
f 71/36/3 58/24/3 59/25/3
f 70/36/21 48/26/21 47/25/21
f 71/36/3 59/25/3 60/26/3
f 70/36/21 49/27/21 48/26/21
f 71/36/3 60/26/3 61/27/3
f 70/36/21 50/28/21 49/27/21
f 71/36/3 61/27/3 62/28/3
f 70/36/21 51/29/21 50/28/21
f 71/36/3 62/28/3 63/29/3
f 70/36/21 52/30/21 51/29/21
f 71/36/3 63/29/3 64/30/3
f 70/36/21 53/31/21 52/30/21
f 71/36/3 64/30/3 65/31/3
f 70/36/21 54/32/21 53/31/21
f 71/36/3 65/31/3 66/32/3
f 70/36/21 55/33/21 54/32/21
f 71/36/3 66/32/3 67/33/3
f 70/36/21 56/34/21 55/33/21
f 71/36/3 67/33/3 68/34/3
f 70/36/21 57/35/21 56/34/21
f 71/36/3 68/34/3 69/35/3
f 70/36/21 46/24/21 57/35/21
f 71/36/3 69/35/3 58/24/3
f 72/37/9 73/38/9 85/38/9
f 72/37/9 85/38/9 84/37/9
f 73/38/10 74/39/10 86/39/10
f 73/38/10 86/39/10 85/38/10
f 74/39/11 75/40/11 87/40/11
f 74/39/11 87/40/11 86/39/11
f 75/40/12 76/41/12 88/41/12
f 75/40/12 88/41/12 87/40/12
f 76/41/13 77/42/13 89/42/13
f 76/41/13 89/42/13 88/41/13
f 77/42/14 78/43/14 90/43/14
f 77/42/14 90/43/14 89/42/14
f 78/43/15 79/44/15 91/44/15
f 78/43/15 91/44/15 90/43/15
f 79/44/16 80/45/16 92/45/16
f 79/44/16 92/45/16 91/44/16
f 80/45/17 81/46/17 93/46/17
f 80/45/17 93/46/17 92/45/17
f 81/46/18 82/47/18 94/47/18
f 81/46/18 94/47/18 93/46/18
f 82/47/19 83/48/19 95/48/19
f 82/47/19 95/48/19 94/47/19
f 83/48/20 72/37/20 84/37/20
f 83/48/20 84/37/20 95/48/20
f 96/49/21 73/38/21 72/37/21
f 97/49/3 84/37/3 85/38/3
f 96/49/21 74/39/21 73/38/21
f 97/49/3 85/38/3 86/39/3
f 96/49/21 75/40/21 74/39/21
f 97/49/3 86/39/3 87/40/3
f 96/49/21 76/41/21 75/40/21
f 97/49/3 87/40/3 88/41/3
f 96/49/21 77/42/21 76/41/21
f 97/49/3 88/41/3 89/42/3
f 96/49/21 78/43/21 77/42/21
f 97/49/3 89/42/3 90/43/3
f 96/49/21 79/44/21 78/43/21
f 97/49/3 90/43/3 91/44/3
f 96/49/21 80/45/21 79/44/21
f 97/49/3 91/44/3 92/45/3
f 96/49/21 81/46/21 80/45/21
f 97/49/3 92/45/3 93/46/3
f 96/49/21 82/47/21 81/46/21
f 97/49/3 93/46/3 94/47/3
f 96/49/21 83/48/21 82/47/21
f 97/49/3 94/47/3 95/48/3
f 96/49/21 72/37/21 83/48/21
f 97/49/3 95/48/3 84/37/3
f 98/50/1 99/51/1 100/51/1
f 98/50/1 100/51/1 101/50/1
f 102/52/1 103/53/1 104/53/1
f 102/52/1 104/53/1 105/52/1
f 98/50/2 102/52/2 105/52/2
f 98/50/2 105/52/2 101/50/2
f 99/51/2 103/53/2 104/53/2
f 99/51/2 104/53/2 100/51/2
f 101/50/3 100/51/3 104/53/3
f 101/50/3 104/53/3 105/52/3
f 98/50/3 99/51/3 103/53/3
f 98/50/3 103/53/3 102/52/3
