# Blender 4.4.1
# www.blender.org
mtllib titleFont.mtl
o テキスト.001
v -11.603601 -1.136984 -0.398011
v -11.854666 -1.431895 -0.423206
v -11.923771 -1.326655 -0.416954
v -11.989925 -1.214698 -0.410176
v -12.052969 -1.096433 -0.402899
v -12.112738 -0.972270 -0.395147
v -12.169067 -0.842619 -0.386948
v -12.221794 -0.707888 -0.378328
v -12.270756 -0.568488 -0.369312
v -12.315790 -0.424828 -0.359928
v -12.356728 -0.277318 -0.350200
v -12.393412 -0.126367 -0.340155
v -12.425674 0.027614 -0.329820
v -12.453360 0.184217 -0.319220
v -12.474613 0.344941 -0.308217
v -12.492905 0.529236 -0.295497
v -12.508450 0.732660 -0.281375
v -12.521463 0.950768 -0.266171
v -12.532162 1.179115 -0.250203
v -12.540760 1.413259 -0.233789
v -12.547476 1.648754 -0.217247
v -12.552521 1.881157 -0.200894
v -12.556112 2.106024 -0.185050
v -12.558472 2.318909 -0.170031
v -12.559807 2.515369 -0.156157
v -12.560339 2.690961 -0.143746
v -12.560659 2.735136 -0.140626
v -12.561455 2.778942 -0.137541
v -12.562647 2.822012 -0.134515
v -12.564150 2.863975 -0.131573
v -12.565886 2.904464 -0.128739
v -12.567770 2.943110 -0.126038
v -12.569721 2.979543 -0.123494
v -12.571659 3.013397 -0.121133
v -12.573498 3.044301 -0.118978
v -12.575161 3.071887 -0.117056
v -12.576561 3.095788 -0.115389
v -12.577621 3.115633 -0.114004
v -12.269205 3.115633 -0.108680
v -12.272446 3.084520 -0.110937
v -12.275520 3.053018 -0.113219
v -12.278414 3.020984 -0.115535
v -12.281094 2.988275 -0.117895
v -12.283541 2.954746 -0.120309
v -12.285730 2.920254 -0.122786
v -12.287638 2.884656 -0.125337
v -12.289242 2.847810 -0.127971
v -12.290520 2.809570 -0.130698
v -12.291445 2.769795 -0.133528
v -12.291996 2.728340 -0.136470
v -12.292145 2.685062 -0.139534
v -12.291811 2.511127 -0.151832
v -12.291002 2.319373 -0.165382
v -12.289406 2.113857 -0.179892
v -12.286718 1.898633 -0.195070
v -12.282623 1.677757 -0.210624
v -12.276817 1.455284 -0.226261
v -12.268988 1.235268 -0.241689
v -12.258829 1.021765 -0.256616
v -12.246029 0.818829 -0.270750
v -12.230276 0.630516 -0.283799
v -12.211264 0.460881 -0.295471
v -12.188681 0.313978 -0.305472
v -12.161282 0.172001 -0.315042
v -12.129763 0.032420 -0.324372
v -12.094198 -0.104334 -0.333432
v -12.054659 -0.237833 -0.342193
v -12.011208 -0.367645 -0.350625
v -11.963924 -0.493341 -0.358701
v -11.912874 -0.614490 -0.366389
v -11.858130 -0.730662 -0.373662
v -11.799759 -0.841428 -0.380490
v -11.737833 -0.946357 -0.386843
v -11.672422 -1.045019 -0.392694
v -13.138939 -1.166475 -0.426598
v -13.316298 -1.425996 -0.448017
v -13.322456 -1.416907 -0.447480
v -13.329187 -1.407346 -0.446920
v -13.336500 -1.397335 -0.446338
v -13.344406 -1.386893 -0.445736
v -13.352919 -1.376042 -0.445115
v -13.362047 -1.364802 -0.444478
v -13.371807 -1.353194 -0.443825
v -13.382206 -1.341237 -0.443159
v -13.393257 -1.328952 -0.442480
v -13.404972 -1.316360 -0.441792
v -13.417366 -1.303482 -0.441095
v -13.430443 -1.290337 -0.440391
v -13.529228 -1.200745 -0.435758
v -13.630354 -1.100502 -0.430413
v -13.732937 -0.990265 -0.424385
v -13.836092 -0.870690 -0.417707
v -13.938929 -0.742431 -0.410410
v -14.040565 -0.606144 -0.402523
v -14.140118 -0.462484 -0.394080
v -14.236696 -0.312107 -0.385109
v -14.329416 -0.155667 -0.375644
v -14.417397 0.006179 -0.365714
v -14.499746 0.172776 -0.355350
v -14.575588 0.343469 -0.344585
v -14.418516 0.744548 -0.313502
v -14.350719 0.580719 -0.323921
v -14.277401 0.422850 -0.333823
v -14.199459 0.271493 -0.343184
v -14.117788 0.127202 -0.351981
v -14.033287 -0.009471 -0.360191
v -13.946852 -0.137972 -0.367789
v -13.859381 -0.257749 -0.374752
v -13.771767 -0.368249 -0.381056
v -13.684912 -0.468918 -0.386678
v -13.599710 -0.559204 -0.391594
v -13.517059 -0.638553 -0.395780
v -13.437860 -0.706414 -0.399213
v -13.437981 -0.608137 -0.392264
v -13.438213 -0.416636 -0.378721
v -13.438540 -0.149769 -0.359850
v -13.438934 0.174606 -0.336911
v -13.439379 0.538630 -0.311168
v -13.439850 0.924444 -0.283885
v -13.440327 1.314191 -0.256324
v -13.440784 1.690011 -0.229747
v -13.441204 2.034046 -0.205418
v -13.441565 2.328439 -0.184600
v -13.441841 2.555329 -0.168555
v -13.442015 2.696859 -0.158546
v -13.442282 2.751629 -0.154677
v -13.442905 2.803737 -0.151002
v -13.443827 2.852978 -0.147534
v -13.444992 2.899146 -0.144289
v -13.446339 2.942038 -0.141278
v -13.447811 2.981448 -0.138515
v -13.449347 3.017172 -0.136015
v -13.450888 3.049005 -0.133790
v -13.452379 3.076741 -0.131853
v -13.453760 3.100177 -0.130219
v -13.454971 3.119107 -0.128901
v -13.455957 3.133327 -0.127912
v -13.147541 3.133327 -0.122589
v -13.148558 3.119107 -0.123613
v -13.149906 3.100177 -0.124975
v -13.151505 3.076741 -0.126660
v -13.153273 3.049005 -0.128653
v -13.155130 3.017172 -0.130937
v -13.156994 2.981448 -0.133496
v -13.158781 2.942038 -0.136314
v -13.160416 2.899146 -0.139377
v -13.161812 2.852978 -0.142667
v -13.162889 2.803737 -0.146168
v -13.163570 2.751629 -0.149866
v -13.163771 2.696859 -0.153744
v -13.163595 2.554466 -0.163813
v -13.163317 2.324971 -0.180042
v -13.162951 2.026213 -0.201169
v -13.162523 1.676030 -0.225933
v -13.162056 1.292260 -0.253072
v -13.161568 0.892741 -0.281324
v -13.161083 0.495311 -0.309429
v -13.160622 0.117808 -0.336125
v -13.160208 -0.221929 -0.360150
v -13.159861 -0.506064 -0.380243
v -13.159603 -0.716758 -0.395142
v -13.159458 -0.836174 -0.403587
v -13.159283 -0.865652 -0.405669
v -13.158829 -0.895047 -0.407741
v -13.158092 -0.924279 -0.409796
v -13.157080 -0.953265 -0.411829
v -13.155788 -0.981923 -0.413834
v -13.154217 -1.010172 -0.415805
v -13.152369 -1.037929 -0.417736
v -13.150238 -1.065113 -0.419622
v -13.147833 -1.091641 -0.421457
v -13.145149 -1.117432 -0.423235
v -13.142185 -1.142404 -0.424951
v -8.374870 1.263592 -0.172472
v -8.374165 0.685566 -0.213348
v -8.401649 0.689863 -0.213518
v -8.431973 0.693895 -0.213756
v -8.464903 0.697639 -0.214060
v -8.500208 0.701076 -0.214426
v -8.537653 0.704186 -0.214852
v -8.577007 0.706947 -0.215336
v -8.618038 0.709340 -0.215875
v -8.660513 0.711344 -0.216467
v -8.704195 0.712937 -0.217108
v -8.748857 0.714102 -0.217796
v -8.794262 0.714815 -0.218530
v -8.840178 0.715057 -0.219305
v -8.924404 0.715057 -0.220759
v -9.046347 0.715057 -0.222864
v -9.198460 0.715057 -0.225489
v -9.373199 0.715057 -0.228505
v -9.563026 0.715057 -0.231782
v -9.760395 0.715057 -0.235188
v -9.957766 0.715057 -0.238595
v -10.147591 0.715057 -0.241871
v -10.322332 0.715057 -0.244887
v -10.474445 0.715057 -0.247513
v -10.596386 0.715057 -0.249618
v -10.680614 0.715057 -0.251071
v -10.718082 0.714590 -0.251751
v -10.754906 0.713282 -0.252479
v -10.790871 0.711279 -0.253242
v -10.825748 0.708722 -0.254025
v -10.859325 0.705756 -0.254814
v -10.891376 0.702524 -0.255596
v -10.921680 0.699168 -0.256356
v -10.950020 0.695834 -0.257081
v -10.976168 0.692663 -0.257757
v -10.999908 0.689799 -0.258369
v -11.021021 0.687386 -0.258904
v -11.039278 0.685566 -0.259348
v -11.039984 1.263592 -0.218472
v -11.020565 1.260533 -0.218354
v -10.999189 1.257311 -0.218213
v -10.975859 1.254007 -0.218044
v -10.950573 1.250703 -0.217841
v -10.923332 1.247481 -0.217599
v -10.894135 1.244422 -0.217311
v -10.862982 1.241610 -0.216972
v -10.829876 1.239125 -0.216577
v -10.794811 1.237050 -0.216118
v -10.757795 1.235466 -0.215591
v -10.718824 1.234455 -0.214990
v -10.677895 1.234101 -0.214309
v -10.594374 1.234101 -0.212867
v -10.472906 1.234101 -0.210771
v -10.321079 1.234101 -0.208150
v -10.146486 1.234101 -0.205136
v -9.956713 1.234101 -0.201861
v -9.759352 1.234101 -0.198454
v -9.561991 1.234101 -0.195048
v -9.372219 1.234101 -0.191772
v -9.197624 1.234101 -0.188759
v -9.045799 1.234101 -0.186138
v -8.924330 1.234101 -0.184042
v -8.840811 1.234101 -0.182600
v -8.794127 1.234456 -0.181769
v -8.748095 1.235466 -0.180903
v -8.702948 1.237050 -0.180012
v -8.658920 1.239125 -0.179105
v -8.616241 1.241610 -0.178193
v -8.575148 1.244422 -0.177285
v -8.535870 1.247481 -0.176390
v -8.498640 1.250703 -0.175520
v -8.463692 1.254007 -0.174683
v -8.431259 1.257311 -0.173889
v -8.401573 1.260534 -0.173149
v -5.171843 2.749943 -0.012046
v -5.173338 2.713744 -0.014632
v -5.174576 2.676133 -0.017314
v -5.175583 2.637416 -0.020070
v -5.176376 2.597900 -0.022879
v -5.176983 2.557892 -0.025720
v -5.177425 2.517700 -0.028571
v -5.177729 2.477631 -0.031410
v -5.177919 2.437992 -0.034217
v -5.178015 2.399091 -0.036971
v -5.178043 2.361233 -0.039649
v -5.178024 2.324728 -0.042231
v -5.177984 2.289882 -0.044696
v -5.177862 2.190319 -0.051736
v -5.177649 2.013895 -0.064212
v -5.177357 1.775908 -0.081042
v -5.177010 1.491656 -0.101143
v -5.176626 1.176440 -0.123434
v -5.176222 0.845556 -0.146833
v -5.175817 0.514303 -0.170258
v -5.175430 0.197980 -0.192627
v -5.175081 -0.088114 -0.212859
v -5.174788 -0.328681 -0.229871
v -5.174568 -0.508423 -0.242581
v -5.174442 -0.612042 -0.249909
v -5.174240 -0.668103 -0.253871
v -5.173782 -0.731700 -0.258362
v -5.173111 -0.800785 -0.263237
v -5.172260 -0.873311 -0.268353
v -5.171270 -0.947230 -0.273565
v -5.170174 -1.020494 -0.278728
v -5.169010 -1.091054 -0.283699
v -5.167816 -1.156863 -0.288334
v -5.166636 -1.215872 -0.292488
v -5.165497 -1.266034 -0.296016
v -5.164440 -1.305301 -0.298776
v -5.163509 -1.331625 -0.300622
v -5.451811 -1.331625 -0.305598
v -5.445522 -0.989528 -0.281290
v -7.275904 -0.989528 -0.312883
v -7.272135 -1.331625 -0.337017
v -7.560436 -1.331625 -0.341993
v -7.559629 -1.307558 -0.340277
v -7.558851 -1.269339 -0.337560
v -7.558111 -1.219282 -0.334006
v -7.557419 -1.159703 -0.329780
v -7.556780 -1.092914 -0.325044
v -7.556206 -1.021231 -0.319964
v -7.555706 -0.946967 -0.314702
v -7.555286 -0.872438 -0.309423
v -7.554958 -0.799956 -0.304290
v -7.554728 -0.731836 -0.299467
v -7.554607 -0.670393 -0.295119
v -7.554602 -0.617940 -0.291408
v -7.554724 -0.518824 -0.284399
v -7.554937 -0.343564 -0.272005
v -7.555225 -0.107191 -0.255290
v -7.555571 0.175261 -0.235316
v -7.555954 0.488761 -0.213147
v -7.556355 0.818276 -0.189844
v -7.556759 1.148774 -0.166473
v -7.557144 1.465223 -0.144095
v -7.557495 1.752591 -0.123773
v -7.557793 1.995845 -0.106571
v -7.558018 2.179952 -0.093552
v -7.558151 2.289882 -0.085778
v -7.558199 2.327094 -0.083146
v -7.558271 2.364920 -0.080472
v -7.558393 2.403238 -0.077763
v -7.558582 2.441925 -0.075030
v -7.558867 2.480857 -0.072281
v -7.559269 2.519912 -0.069525
v -7.559809 2.558968 -0.066772
v -7.560511 2.597900 -0.064030
v -7.561401 2.636586 -0.061309
v -7.562502 2.674905 -0.058617
v -7.563831 2.712731 -0.055965
v -7.565418 2.749943 -0.053360
v -7.539892 2.747233 -0.053111
v -7.513760 2.744973 -0.052820
v -7.487257 2.743124 -0.052493
v -7.460615 2.741642 -0.052138
v -7.434067 2.740488 -0.051761
v -7.407845 2.739621 -0.051370
v -7.382183 2.739000 -0.050971
v -7.357309 2.738583 -0.050571
v -7.333462 2.738331 -0.050178
v -7.310873 2.738201 -0.049797
v -7.289772 2.738154 -0.049436
v -7.270395 2.738147 -0.049102
v -7.203926 2.738147 -0.047955
v -7.092583 2.738147 -0.046033
v -6.945272 2.738147 -0.043490
v -6.770897 2.738147 -0.040481
v -6.578365 2.738147 -0.037157
v -6.376579 2.738147 -0.033675
v -6.174442 2.738147 -0.030186
v -5.980862 2.738147 -0.026844
v -5.804741 2.738147 -0.023804
v -5.654985 2.738147 -0.021220
v -5.540499 2.738147 -0.019244
v -5.470188 2.738147 -0.018030
v -5.450617 2.738266 -0.017684
v -5.430393 2.738611 -0.017310
v -5.409428 2.739160 -0.016910
v -5.387623 2.739894 -0.016481
v -5.364887 2.740792 -0.016025
v -5.341125 2.741832 -0.015542
v -5.316248 2.742996 -0.015030
v -5.290159 2.744263 -0.014490
v -5.262770 2.745611 -0.013922
v -5.233982 2.747021 -0.013325
v -5.203705 2.748471 -0.012700
v -5.446085 -0.529467 -0.248756
v -5.449505 2.272187 -0.050634
v -7.283237 2.272187 -0.082284
v -7.279818 -0.529467 -0.280407
v -2.455497 -0.771294 -0.214244
v -2.455287 -0.827228 -0.218197
v -2.454782 -0.885517 -0.222312
v -2.453974 -0.945568 -0.226546
v -2.452849 -1.006786 -0.230857
v -2.451399 -1.068577 -0.235203
v -2.449610 -1.130348 -0.239541
v -2.447473 -1.191505 -0.243830
v -2.444977 -1.251453 -0.248028
v -2.442109 -1.309599 -0.252092
v -2.438862 -1.365348 -0.255979
v -2.435222 -1.418108 -0.259648
v -2.431182 -1.467284 -0.263057
v -2.756360 -1.467284 -0.268670
v -2.753209 -1.416193 -0.265001
v -2.750343 -1.360843 -0.261037
v -2.747761 -1.302134 -0.256839
v -2.745461 -1.240967 -0.252473
v -2.743441 -1.178244 -0.248001
v -2.741703 -1.114865 -0.243488
v -2.740243 -1.051733 -0.238997
v -2.739063 -0.989747 -0.234591
v -2.738157 -0.929809 -0.230336
v -2.737528 -0.872820 -0.226294
v -2.737174 -0.819681 -0.222529
v -2.737094 -0.771294 -0.219105
v -2.736118 1.175118 -0.081404
v -2.833164 1.119713 -0.086998
v -2.937395 1.057263 -0.093215
v -3.047345 0.988587 -0.099970
v -3.161550 0.914504 -0.107182
v -3.278540 0.835834 -0.114766
v -3.396855 0.753396 -0.122640
v -3.515025 0.668008 -0.130720
v -3.631586 0.580490 -0.138922
v -3.745074 0.491662 -0.147165
v -3.854021 0.402342 -0.155363
v -3.956963 0.313350 -0.163435
v -4.052431 0.225505 -0.171297
v -4.167023 0.726854 -0.137811
v -4.073463 0.807166 -0.130515
v -3.969698 0.891103 -0.122786
v -3.857395 0.977620 -0.114728
v -3.738212 1.065674 -0.106442
v -3.613816 1.154218 -0.098031
v -3.485868 1.242211 -0.089599
v -3.356034 1.328605 -0.081246
v -3.225975 1.412358 -0.073077
v -3.097355 1.492424 -0.065193
v -2.971836 1.567760 -0.057698
v -2.851084 1.637320 -0.050693
v -2.736759 1.700060 -0.044282
v -2.737933 2.661469 0.023706
v -2.738258 2.707218 0.026936
v -2.739088 2.755650 0.030348
v -2.740361 2.806253 0.033905
v -2.742023 2.858514 0.037573
v -2.744010 2.911922 0.041317
v -2.746267 2.965965 0.045101
v -2.748732 3.020131 0.048890
v -2.751349 3.073908 0.052649
v -2.754057 3.126784 0.056342
v -2.756799 3.178247 0.059935
v -2.759517 3.227784 0.063393
v -2.762148 3.274884 0.066679
v -2.433618 3.274884 0.072349
v -2.438312 3.227559 0.068921
v -2.442468 3.177427 0.065303
v -2.446109 3.125125 0.061540
v -2.449260 3.071286 0.057677
v -2.451944 3.016547 0.053759
v -2.454185 2.961541 0.049829
v -2.456008 2.906904 0.045933
v -2.457436 2.853270 0.042114
v -2.458493 2.801275 0.038418
v -2.459204 2.751553 0.034889
v -2.459593 2.704740 0.031571
v -2.459687 2.661469 0.028508
v -2.459485 2.496156 0.016818
v -2.459195 2.258097 -0.000017
v -2.458834 1.962531 -0.020918
v -2.458422 1.624694 -0.044809
v -2.457976 1.259823 -0.070611
v -2.457517 0.883156 -0.097248
v -2.457061 0.509930 -0.123641
v -2.456628 0.155382 -0.148713
v -2.456237 -0.165252 -0.171387
v -2.455906 -0.436734 -0.190585
v -2.455652 -0.643827 -0.205230
v 1.294244 0.485027 -0.060654
v 1.325170 0.358731 -0.069054
v 1.358872 0.228154 -0.077709
v 1.395185 0.094177 -0.086559
v 1.433947 -0.042318 -0.095546
v 1.474991 -0.180452 -0.104608
v 1.518155 -0.319343 -0.113688
v 1.563275 -0.458112 -0.122726
v 1.610186 -0.595877 -0.131661
v 1.658724 -0.731758 -0.140435
v 1.708724 -0.864874 -0.148988
v 1.760026 -0.994344 -0.157261
v 1.812463 -1.119289 -0.165194
v 1.527773 -1.331625 -0.185128
v 1.480861 -1.210950 -0.177402
v 1.434399 -1.085320 -0.169317
v 1.388557 -0.955429 -0.160920
v 1.343516 -0.821975 -0.152257
v 1.299449 -0.685654 -0.143375
v 1.256532 -0.547162 -0.134319
v 1.214940 -0.407195 -0.125136
v 1.174849 -0.266450 -0.115872
v 1.136432 -0.125623 -0.106574
v 1.099869 0.014589 -0.097286
v 1.065331 0.153491 -0.088057
v 1.032998 0.290385 -0.078932
v 0.998124 0.445992 -0.068526
v 0.964381 0.610200 -0.057493
v 0.931934 0.780306 -0.046020
v 0.900950 0.953607 -0.034296
v 0.871596 1.127400 -0.022509
v 0.844035 1.298981 -0.010848
v 0.818438 1.465647 0.000500
v 0.794967 1.624694 0.011346
v 0.773790 1.773419 0.021500
v 0.755075 1.909119 0.030777
v 0.738986 2.029091 0.038985
v 0.725688 2.130630 0.045938
v 0.722028 2.163882 0.048227
v 0.717876 2.198569 0.050609
v 0.713305 2.234401 0.053065
v 0.708383 2.271095 0.055576
v 0.703180 2.308361 0.058122
v 0.697768 2.345915 0.060685
v 0.692217 2.383468 0.063246
v 0.686595 2.420734 0.065785
v 0.680975 2.457428 0.068283
v 0.675425 2.493261 0.070722
v 0.670016 2.527947 0.073083
v 0.664821 2.561200 0.075345
v 0.963042 2.673266 0.088420
v 0.976123 2.498084 0.076254
v 0.992937 2.315796 0.063649
v 1.013156 2.128142 0.050724
v 1.036452 1.936862 0.037596
v 1.062498 1.743699 0.024381
v 1.090964 1.550393 0.011199
v 1.121526 1.358683 -0.001835
v 1.153852 1.170312 -0.014602
v 1.187613 0.987020 -0.026985
v 1.222486 0.810549 -0.038866
v 1.258139 0.642637 -0.050128
v -0.602683 2.820721 0.071826
v -0.604733 2.874341 0.075583
v -0.610586 2.925770 0.079120
v -0.619999 2.974536 0.082407
v -0.632725 3.020169 0.085415
v -0.648519 3.062196 0.088116
v -0.667136 3.100149 0.090479
v -0.688333 3.133556 0.092476
v -0.711864 3.161944 0.094078
v -0.737482 3.184844 0.095256
v -0.764944 3.201784 0.095980
v -0.794005 3.212294 0.096222
v -0.824419 3.215903 0.095952
v -0.854121 3.212295 0.095185
v -0.882695 3.201785 0.093948
v -0.909866 3.184845 0.092281
v -0.935352 3.161945 0.090221
v -0.958879 3.133556 0.087807
v -0.980162 3.100150 0.085076
v -0.998926 3.062197 0.082068
v -1.014892 3.020169 0.078819
v -1.027780 2.974537 0.075369
v -1.037311 2.925771 0.071755
v -1.043208 2.874342 0.068015
v -1.045193 2.820721 0.064188
v -1.043080 2.768457 0.060527
v -1.037058 2.718158 0.057073
v -1.027409 2.670317 0.053855
v -1.014410 2.625425 0.050904
v -0.998343 2.583974 0.048249
v -0.979487 2.546455 0.045921
v -0.958121 2.513359 0.043949
v -0.934527 2.485178 0.042362
v -0.908985 2.462405 0.041192
v -0.881773 2.445529 0.040468
v -0.853173 2.435044 0.040220
v -0.823462 2.431439 0.040478
v -0.793057 2.435044 0.041258
v -0.764022 2.445529 0.042501
v -0.736601 2.462405 0.044168
v -0.711038 2.485178 0.046220
v -0.687576 2.513359 0.048618
v -0.666462 2.546455 0.051324
v -0.647936 2.583974 0.054298
v -0.632243 2.625425 0.057501
v -0.619628 2.670317 0.060894
v -0.610333 2.718158 0.064438
v -0.604605 2.768457 0.068095
v -0.448475 2.820721 0.074487
v -0.451784 2.730903 0.068077
v -0.461638 2.644813 0.061817
v -0.477599 2.563228 0.055770
v -0.499222 2.486926 0.050000
v -0.526069 2.416687 0.044568
v -0.557693 2.353287 0.039537
v -0.593659 2.297507 0.034970
v -0.633523 2.250123 0.030931
v -0.676844 2.211915 0.027480
v -0.723179 2.183659 0.024682
v -0.772089 2.166135 0.022598
v -0.823131 2.160121 0.021291
v -0.873484 2.166135 0.020848
v -0.921976 2.183659 0.021250
v -0.968130 2.211915 0.022452
v -1.011468 2.250123 0.024407
v -1.051512 2.297507 0.027068
v -1.087782 2.353287 0.030388
v -1.119802 2.416687 0.034320
v -1.147092 2.486926 0.038817
v -1.169176 2.563228 0.043833
v -1.185573 2.644813 0.049321
v -1.195807 2.730903 0.055235
v -1.199401 2.820721 0.061526
v -1.196028 2.910656 0.067946
v -1.186004 2.997068 0.074232
v -1.169806 3.079138 0.080317
v -1.147910 3.156046 0.086135
v -1.120792 3.226975 0.091620
v -1.088928 3.291105 0.096707
v -1.052794 3.347615 0.101328
v -1.012868 3.395689 0.105417
v -0.969624 3.434505 0.108910
v -0.923539 3.463245 0.111738
v -0.875090 3.481090 0.113837
v -0.824751 3.487221 0.115139
v -0.773694 3.481090 0.115587
v -0.724741 3.463246 0.115169
v -0.678336 3.434505 0.113937
v -0.634922 3.395689 0.111941
v -0.594941 3.347616 0.109230
v -0.558839 3.291105 0.105856
v -0.527058 3.226976 0.101868
v -0.500039 3.156047 0.097317
v -0.478229 3.079138 0.092253
v -0.462069 2.997068 0.086727
v -0.452003 2.910656 0.080788
v -0.355384 0.709159 -0.073272
v -0.390618 0.548149 -0.085270
v -0.426113 0.381508 -0.097670
v -0.461579 0.210483 -0.110380
v -0.496728 0.036325 -0.123307
v -0.531268 -0.139717 -0.136355
v -0.564912 -0.316394 -0.149434
v -0.597367 -0.492457 -0.162448
v -0.628348 -0.666655 -0.175305
v -0.657564 -0.837741 -0.187912
v -0.684724 -1.004465 -0.200174
v -0.709540 -1.165577 -0.211999
v -0.731722 -1.319828 -0.223293
v -1.030291 -1.148780 -0.216347
v -1.006861 -1.008728 -0.206036
v -0.980130 -0.855589 -0.194742
v -0.950549 -0.691760 -0.182643
v -0.918568 -0.519637 -0.169915
v -0.884640 -0.341615 -0.156737
v -0.849214 -0.160091 -0.143285
v -0.812740 0.022539 -0.129736
v -0.775673 0.203878 -0.116269
v -0.738461 0.381531 -0.103060
v -0.701556 0.553102 -0.090287
v -0.665409 0.716194 -0.078126
v -0.630471 0.868411 -0.066755
v -0.594020 1.028311 -0.054815
v -0.555037 1.194069 -0.042417
v -0.514057 1.363677 -0.029712
v -0.471613 1.535128 -0.016852
v -0.428237 1.706415 -0.003987
v -0.384464 1.875532 0.008732
v -0.340825 2.040470 0.021152
v -0.297853 2.199224 0.033124
v -0.256083 2.349785 0.044495
v -0.216045 2.490148 0.055115
v -0.178274 2.618304 0.064833
v -0.143303 2.732249 0.073496
v 0.128430 2.572996 0.066921
v 0.090584 2.456237 0.058009
v 0.050821 2.325572 0.048080
v 0.009583 2.183069 0.037288
v -0.032689 2.030797 0.025787
v -0.075559 1.870825 0.013731
v -0.118584 1.705221 0.001274
v -0.161325 1.536053 -0.011431
v -0.203343 1.365391 -0.024228
v -0.244198 1.195302 -0.036965
v -0.283450 1.027854 -0.049487
v -0.320659 0.865117 -0.061641
v 3.699895 1.576197 0.058055
v 3.748443 1.570541 0.058493
v 3.794921 1.554052 0.058128
v 3.838921 1.527445 0.057006
v 3.880033 1.491438 0.055168
v 3.917850 1.446747 0.052660
v 3.951962 1.394090 0.049524
v 3.981965 1.334183 0.045804
v 4.007446 1.267742 0.041544
v 4.027999 1.195486 0.036787
v 4.043216 1.118129 0.031578
v 4.052688 1.036391 0.025960
v 4.056006 0.950986 0.019976
v 4.052896 0.865581 0.013881
v 4.043624 0.783842 0.007939
v 4.028596 0.706486 0.002207
v 4.008220 0.634230 -0.003256
v 3.982901 0.567789 -0.008393
v 3.953045 0.507882 -0.013146
v 3.919060 0.455225 -0.017457
v 3.881351 0.410534 -0.021269
v 3.840327 0.374527 -0.024524
v 3.796392 0.347920 -0.027165
v 3.749955 0.331430 -0.029133
v 3.701422 0.325775 -0.030370
v 3.652873 0.331431 -0.030808
v 3.606396 0.347921 -0.030444
v 3.562397 0.374527 -0.029321
v 3.521284 0.410535 -0.027484
v 3.483467 0.455225 -0.024975
v 3.449354 0.507882 -0.021839
v 3.419353 0.567790 -0.018120
v 3.393870 0.634230 -0.013860
v 3.373317 0.706487 -0.009103
v 3.358100 0.783843 -0.003894
v 3.348629 0.865582 0.001725
v 3.345309 0.950986 0.007709
v 3.348420 1.036391 0.013804
v 3.357692 1.118130 0.019746
v 3.372720 1.195486 0.025477
v 3.393097 1.267742 0.030940
v 3.418417 1.334183 0.036077
v 3.448272 1.394090 0.040830
v 3.482257 1.446747 0.045141
v 3.519965 1.491438 0.048954
v 3.560990 1.527445 0.052209
v 3.604924 1.554052 0.054849
v 3.651361 1.570542 0.056817
v 8.441011 0.838920 0.087735
v 8.307479 0.378859 0.052886
v 8.191103 0.444296 0.055507
v 8.075351 0.513562 0.058408
v 7.960572 0.586310 0.061573
v 7.847117 0.662192 0.064983
v 7.735334 0.740859 0.068618
v 7.625574 0.821962 0.072461
v 7.518185 0.905155 0.076492
v 7.413519 0.990089 0.080693
v 7.311924 1.076415 0.085046
v 7.213749 1.163786 0.089532
v 7.119345 1.251853 0.094132
v 7.029062 1.340268 0.098828
v 7.031726 -0.842073 -0.055499
v 7.032000 -0.899433 -0.059552
v 7.032660 -0.958863 -0.063744
v 7.033671 -1.019480 -0.068015
v 7.034997 -1.080404 -0.072301
v 7.036601 -1.140755 -0.076543
v 7.038448 -1.199652 -0.080677
v 7.040502 -1.256214 -0.084643
v 7.042726 -1.309561 -0.088378
v 7.045085 -1.358812 -0.091821
v 7.047543 -1.403086 -0.094911
v 7.050063 -1.441503 -0.097585
v 7.052610 -1.473182 -0.099782
v 6.724081 -1.473182 -0.105452
v 6.727253 -1.440264 -0.103069
v 6.730138 -1.401038 -0.100244
v 6.732738 -1.356324 -0.097036
v 6.735052 -1.306940 -0.093503
v 6.737082 -1.253706 -0.089702
v 6.738829 -1.197440 -0.085692
v 6.740295 -1.138963 -0.081530
v 6.741479 -1.079094 -0.077275
v 6.742383 -1.018651 -0.072984
v 6.743008 -0.958453 -0.068715
v 6.743355 -0.899321 -0.064526
v 6.743424 -0.842073 -0.060475
v 6.740386 1.646976 0.115541
v 6.655487 1.748212 0.121237
v 6.572053 1.851311 0.127090
v 6.490154 1.956172 0.133094
v 6.409859 2.062691 0.139243
v 6.331237 2.170767 0.145531
v 6.254361 2.280297 0.151952
v 6.179298 2.391179 0.158500
v 6.106120 2.503310 0.165168
v 6.034895 2.616588 0.171952
v 5.965695 2.730911 0.178845
v 5.898590 2.846174 0.185840
v 5.833647 2.962279 0.192932
v 6.057808 3.327968 0.222669
v 6.117899 3.205178 0.215020
v 6.182005 3.081937 0.207409
v 6.249814 2.958777 0.199867
v 6.321008 2.836232 0.192428
v 6.395275 2.714833 0.185122
v 6.472298 2.595114 0.177983
v 6.551763 2.477608 0.171042
v 6.633355 2.362845 0.164333
v 6.716758 2.251359 0.157886
v 6.801659 2.143682 0.151735
v 6.887741 2.040348 0.145911
v 6.974690 1.941887 0.140447
v 7.070734 1.838747 0.134809
v 7.172388 1.736077 0.129301
v 7.279396 1.634350 0.123952
v 7.391499 1.534036 0.118791
v 7.508443 1.435606 0.113846
v 7.629970 1.339531 0.109148
v 7.755824 1.246283 0.104724
v 7.885748 1.156332 0.100604
v 8.019485 1.070149 0.096816
v 8.156779 0.988205 0.093389
v 8.297373 0.910972 0.090352
v 11.351279 0.485027 0.112933
v 11.382206 0.358731 0.104533
v 11.415908 0.228154 0.095878
v 11.452222 0.094177 0.087028
v 11.490983 -0.042318 0.078042
v 11.532027 -0.180452 0.068979
v 11.575191 -0.319343 0.059899
v 11.620311 -0.458112 0.050862
v 11.667222 -0.595877 0.041926
v 11.715760 -0.731758 0.033152
v 11.765761 -0.864874 0.024599
v 11.817062 -0.994344 0.016326
v 11.869498 -1.119289 0.008393
v 11.584808 -1.331625 -0.011541
v 11.537897 -1.210950 -0.003815
v 11.491433 -1.085320 0.004270
v 11.445593 -0.955429 0.012667
v 11.400552 -0.821975 0.021330
v 11.356485 -0.685654 0.030212
v 11.313568 -0.547162 0.039268
v 11.271976 -0.407195 0.048451
v 11.231884 -0.266450 0.057715
v 11.193469 -0.125623 0.067014
v 11.156905 0.014589 0.076301
v 11.122368 0.153491 0.085530
v 11.090034 0.290385 0.094656
v 11.055160 0.445992 0.105061
v 11.021417 0.610200 0.116094
v 10.988970 0.780306 0.127567
v 10.957986 0.953607 0.139291
v 10.928631 1.127400 0.151078
v 10.901071 1.298981 0.162740
v 10.875473 1.465647 0.174087
v 10.852002 1.624694 0.184933
v 10.830826 1.773419 0.195088
v 10.812110 1.909119 0.204364
v 10.796021 2.029091 0.212572
v 10.782724 2.130630 0.219526
v 10.779063 2.163882 0.221815
v 10.774912 2.198569 0.224196
v 10.770340 2.234401 0.226652
v 10.765418 2.271095 0.229163
v 10.760216 2.308361 0.231709
v 10.754805 2.345915 0.234272
v 10.749252 2.383468 0.236833
v 10.743631 2.420734 0.239372
v 10.738011 2.457428 0.241871
v 10.732462 2.493261 0.244310
v 10.727054 2.527947 0.246670
v 10.721856 2.561200 0.248932
v 11.020078 2.673266 0.262007
v 11.033158 2.498084 0.249841
v 11.049972 2.315796 0.237236
v 11.070190 2.128142 0.224311
v 11.093487 1.936862 0.211183
v 11.119533 1.743699 0.197968
v 11.148000 1.550393 0.184786
v 11.178560 1.358683 0.171752
v 11.210886 1.170312 0.158985
v 11.244648 0.987020 0.146602
v 11.279520 0.810549 0.134721
v 11.315173 0.642637 0.123459
v 9.454352 2.820721 0.245413
v 9.452303 2.874341 0.249170
v 9.446449 2.925770 0.252707
v 9.437037 2.974536 0.255994
v 9.424311 3.020169 0.259003
v 9.408516 3.062196 0.261703
v 9.389898 3.100149 0.264066
v 9.368702 3.133556 0.266063
v 9.345171 3.161944 0.267665
v 9.319552 3.184844 0.268843
v 9.292090 3.201784 0.269567
v 9.263030 3.212294 0.269809
v 9.232615 3.215903 0.269540
v 9.202914 3.212295 0.268772
v 9.174339 3.201785 0.267535
v 9.147169 3.184845 0.265868
v 9.121681 3.161945 0.263808
v 9.098157 3.133556 0.261394
v 9.076873 3.100150 0.258663
v 9.058108 3.062197 0.255655
v 9.042143 3.020169 0.252406
v 9.029255 2.974537 0.248956
v 9.019724 2.925771 0.245342
v 9.013826 2.874342 0.241602
v 9.011843 2.820721 0.237775
v 9.013956 2.768457 0.234114
v 9.019978 2.718158 0.230660
v 9.029627 2.670317 0.227443
v 9.042625 2.625425 0.224491
v 9.058693 2.583974 0.221837
v 9.077549 2.546455 0.219508
v 9.098914 2.513359 0.217536
v 9.122508 2.485178 0.215950
v 9.148050 2.462405 0.214779
v 9.175262 2.445529 0.214055
v 9.203863 2.435044 0.213807
v 9.233573 2.431439 0.214065
v 9.263979 2.435044 0.214845
v 9.293014 2.445529 0.216088
v 9.320435 2.462405 0.217755
v 9.345997 2.485178 0.219807
v 9.369458 2.513359 0.222205
v 9.390574 2.546455 0.224911
v 9.409100 2.583974 0.227885
v 9.424792 2.625425 0.231088
v 9.437408 2.670317 0.234481
v 9.446703 2.718158 0.238026
v 9.452432 2.768457 0.241683
v 9.608561 2.820721 0.248074
v 9.605252 2.730903 0.241664
v 9.595397 2.644813 0.235404
v 9.579437 2.563228 0.229357
v 9.557814 2.486926 0.223587
v 9.530969 2.416687 0.218155
v 9.499342 2.353287 0.213124
v 9.463376 2.297507 0.208558
v 9.423512 2.250123 0.204518
v 9.380192 2.211915 0.201067
v 9.333857 2.183659 0.198269
v 9.284946 2.166135 0.196185
v 9.233904 2.160121 0.194879
v 9.183552 2.166135 0.194435
v 9.135059 2.183659 0.194838
v 9.088904 2.211915 0.196040
v 9.045567 2.250123 0.197994
v 9.005524 2.297507 0.200655
v 8.969253 2.353287 0.203975
v 8.937233 2.416687 0.207907
v 8.909943 2.486926 0.212404
v 8.887859 2.563228 0.217420
v 8.871462 2.644813 0.222909
v 8.861227 2.730903 0.228822
v 8.857635 2.820721 0.235113
v 8.861008 2.910656 0.241533
v 8.871032 2.997068 0.247819
v 8.887229 3.079138 0.253904
v 8.909125 3.156046 0.259722
v 8.936244 3.226975 0.265207
v 8.968107 3.291105 0.270294
v 9.004242 3.347615 0.274915
v 9.044168 3.395689 0.279005
v 9.087412 3.434505 0.282497
v 9.133497 3.463245 0.285325
v 9.181947 3.481090 0.287424
v 9.232285 3.487221 0.288726
v 9.283341 3.481090 0.289174
v 9.332294 3.463246 0.288756
v 9.378699 3.434505 0.287524
v 9.422114 3.395689 0.285528
v 9.462094 3.347616 0.282818
v 9.498198 3.291105 0.279443
v 9.529980 3.226976 0.275455
v 9.556997 3.156047 0.270904
v 9.578808 3.079138 0.265841
v 9.594967 2.997068 0.260314
v 9.605033 2.910656 0.254375
v 9.701652 0.709159 0.100315
v 9.666417 0.548149 0.088317
v 9.630922 0.381508 0.075917
v 9.595457 0.210483 0.063207
v 9.560308 0.036325 0.050281
v 9.525768 -0.139717 0.037232
v 9.492125 -0.316394 0.024153
v 9.459667 -0.492457 0.011139
v 9.428686 -0.666655 -0.001718
v 9.399471 -0.837741 -0.014325
v 9.372311 -1.004465 -0.026587
v 9.347495 -1.165577 -0.038412
v 9.325313 -1.319828 -0.049706
v 9.026745 -1.148780 -0.042760
v 9.050175 -1.008728 -0.032449
v 9.076905 -0.855589 -0.021155
v 9.106487 -0.691760 -0.009055
v 9.138467 -0.519637 0.003672
v 9.172396 -0.341615 0.016851
v 9.207823 -0.160091 0.030303
v 9.244295 0.022539 0.043851
v 9.281363 0.203878 0.057318
v 9.318574 0.381531 0.070527
v 9.355479 0.553102 0.083301
v 9.391626 0.716194 0.095461
v 9.426564 0.868411 0.106832
v 9.463017 1.028311 0.118772
v 9.501999 1.194069 0.131170
v 9.542978 1.363677 0.143875
v 9.585422 1.535128 0.156736
v 9.628798 1.706415 0.169601
v 9.672571 1.875532 0.182319
v 9.716210 2.040470 0.194740
v 9.759182 2.199224 0.206711
v 9.800953 2.349785 0.218082
v 9.840990 2.490148 0.228702
v 9.878761 2.618304 0.238420
v 9.913733 2.732249 0.247083
v 10.185467 2.572996 0.240509
v 10.147620 2.456237 0.231596
v 10.107858 2.325572 0.221667
v 10.066620 2.183069 0.210875
v 10.024346 2.030797 0.199374
v 9.981478 1.870825 0.187318
v 9.938452 1.705221 0.174861
v 9.895710 1.536053 0.162157
v 9.853693 1.365391 0.149359
v 9.812838 1.195302 0.136622
v 9.773586 1.027854 0.124100
v 9.736378 0.865117 0.111946
vn 0.0172 0.0706 -0.9974
vn -0.0172 -0.0706 0.9974
vt 0.802326 0.000000
vt 0.790698 0.000000
vt 0.796512 0.000000
vt 0.784884 0.000000
vt 0.808140 0.000000
vt 0.779070 0.000000
vt 0.813953 0.000000
vt 0.773256 0.000000
vt 0.819767 0.000000
vt 0.767442 0.000000
vt 0.825581 0.000000
vt 0.761628 0.000000
vt 0.831395 0.000000
vt 0.755814 0.000000
vt 0.837209 0.000000
vt 0.750000 0.000000
vt 0.843023 0.000000
vt 0.744186 0.000000
vt 0.848837 0.000000
vt 0.738372 0.000000
vt 0.854651 0.000000
vt 0.732558 0.000000
vt 0.860465 0.000000
vt 0.726744 0.000000
vt 0.866279 0.000000
vt 0.720930 0.000000
vt 0.872093 0.000000
vt 0.715116 0.000000
vt 0.709302 0.000000
vt 0.877907 0.000000
vt 0.703488 0.000000
vt 0.883721 0.000000
vt 0.697674 0.000000
vt 0.889535 0.000000
vt 0.691860 0.000000
vt 0.895349 0.000000
vt 0.686047 0.000000
vt 0.901163 0.000000
vt 0.680233 0.000000
vt 0.906977 0.000000
vt 0.587209 0.000000
vt 0.575581 0.000000
vt 0.581395 0.000000
vt 0.593023 0.000000
vt 0.674419 0.000000
vt 0.912791 0.000000
vt 0.598837 0.000000
vt 0.569767 0.000000
vt 0.604651 0.000000
vt 0.668605 0.000000
vt 0.563953 0.000000
vt 0.610465 0.000000
vt 0.918605 0.000000
vt 0.558140 0.000000
vt 0.616279 0.000000
vt 0.622093 0.000000
vt 0.662791 0.000000
vt 0.552326 0.000000
vt 0.924419 0.000000
vt 0.627907 0.000000
vt 0.546512 0.000000
vt 0.633721 0.000000
vt 0.656977 0.000000
vt 0.540698 0.000000
vt 0.639535 0.000000
vt 0.930233 0.000000
vt 0.645349 0.000000
vt 0.534884 0.000000
vt 0.651163 0.000000
vt 0.936047 0.000000
vt 0.529070 0.000000
vt 0.941860 0.000000
vt 0.947674 0.000000
vt 0.523256 0.000000
vt 0.953488 0.000000
vt 0.959302 0.000000
vt 0.965116 0.000000
vt 0.970930 0.000000
vt 0.517442 0.000000
vt 0.976744 0.000000
vt 0.982558 0.000000
vt 0.988372 0.000000
vt 0.994186 0.000000
vt 0.511628 0.000000
vt 1.000000 0.000000
vt 0.430233 0.000000
vt 0.436047 0.000000
vt 0.441860 0.000000
vt 0.447674 0.000000
vt 0.453488 0.000000
vt 0.459302 0.000000
vt 0.465116 0.000000
vt 0.470930 0.000000
vt 0.476744 0.000000
vt 0.482558 0.000000
vt 0.488372 0.000000
vt 0.494186 0.000000
vt 0.500000 0.000000
vt 0.505814 0.000000
vt 0.226744 0.000000
vt 0.215116 0.000000
vt 0.220930 0.000000
vt 0.209302 0.000000
vt 0.203488 0.000000
vt 0.232558 0.000000
vt 0.197674 0.000000
vt 0.238372 0.000000
vt 0.191860 0.000000
vt 0.244186 0.000000
vt 0.186047 0.000000
vt 0.250000 0.000000
vt 0.180233 0.000000
vt 0.255814 0.000000
vt 0.174419 0.000000
vt 0.261628 0.000000
vt 0.168605 0.000000
vt 0.267442 0.000000
vt 0.162791 0.000000
vt 0.273256 0.000000
vt 0.156977 0.000000
vt 0.279070 0.000000
vt 0.151163 0.000000
vt 0.284884 0.000000
vt 0.145349 0.000000
vt 0.290698 0.000000
vt 0.139535 0.000000
vt 0.296512 0.000000
vt 0.133721 0.000000
vt 0.302326 0.000000
vt 0.308140 0.000000
vt 0.127907 0.000000
vt 0.313953 0.000000
vt 0.122093 0.000000
vt 0.319767 0.000000
vt 0.116279 0.000000
vt 0.325581 0.000000
vt 0.110465 0.000000
vt 0.331395 0.000000
vt 0.104651 0.000000
vt 0.337209 0.000000
vt 0.098837 0.000000
vt 0.343023 0.000000
vt 0.093023 0.000000
vt 0.348837 0.000000
vt 0.087209 0.000000
vt 0.354651 0.000000
vt 0.081395 0.000000
vt 0.360465 0.000000
vt 0.075581 0.000000
vt 0.366279 0.000000
vt 0.069767 0.000000
vt 0.372093 0.000000
vt 0.377907 0.000000
vt 0.063953 0.000000
vt 0.383721 0.000000
vt 0.058140 0.000000
vt 0.389535 0.000000
vt 0.052326 0.000000
vt 0.395349 0.000000
vt 0.046512 0.000000
vt 0.401163 0.000000
vt 0.040698 0.000000
vt 0.406977 0.000000
vt 0.034884 0.000000
vt 0.412791 0.000000
vt 0.418605 0.000000
vt 0.029070 0.000000
vt 0.424419 0.000000
vt 0.023256 0.000000
vt 0.000000 0.000000
vt 0.017442 0.000000
vt 0.005814 0.000000
vt 0.011628 0.000000
vt 0.013699 0.000000
vt 0.534247 0.000000
vt 0.506849 0.000000
vt 0.520548 0.000000
vt 0.986301 0.000000
vt 0.547945 0.000000
vt 0.972603 0.000000
vt 0.561644 0.000000
vt 0.958904 0.000000
vt 0.575342 0.000000
vt 0.945205 0.000000
vt 0.589041 0.000000
vt 0.931507 0.000000
vt 0.602740 0.000000
vt 0.917808 0.000000
vt 0.616438 0.000000
vt 0.904110 0.000000
vt 0.630137 0.000000
vt 0.890411 0.000000
vt 0.643836 0.000000
vt 0.876712 0.000000
vt 0.657534 0.000000
vt 0.863014 0.000000
vt 0.671233 0.000000
vt 0.849315 0.000000
vt 0.684932 0.000000
vt 0.835616 0.000000
vt 0.821918 0.000000
vt 0.808219 0.000000
vt 0.794521 0.000000
vt 0.780822 0.000000
vt 0.767123 0.000000
vt 0.753425 0.000000
vt 0.739726 0.000000
vt 0.726027 0.000000
vt 0.712329 0.000000
vt 0.698630 0.000000
vt 0.027397 0.000000
vt 0.041096 0.000000
vt 0.054795 0.000000
vt 0.068493 0.000000
vt 0.082192 0.000000
vt 0.095890 0.000000
vt 0.109589 0.000000
vt 0.123288 0.000000
vt 0.136986 0.000000
vt 0.150685 0.000000
vt 0.164384 0.000000
vt 0.178082 0.000000
vt 0.191781 0.000000
vt 0.205479 0.000000
vt 0.219178 0.000000
vt 0.246575 0.000000
vt 0.287671 0.000000
vt 0.328767 0.000000
vt 0.342466 0.000000
vt 0.356164 0.000000
vt 0.369863 0.000000
vt 0.383562 0.000000
vt 0.397260 0.000000
vt 0.410959 0.000000
vt 0.424658 0.000000
vt 0.438356 0.000000
vt 0.232877 0.000000
vt 0.260274 0.000000
vt 0.273973 0.000000
vt 0.301370 0.000000
vt 0.315068 0.000000
vt 0.452055 0.000000
vt 0.465753 0.000000
vt 0.479452 0.000000
vt 0.493151 0.000000
vt 0.008621 0.000000
vt 0.965517 0.000000
vt 0.672414 0.000000
vt 0.655172 0.000000
vt 0.663793 0.000000
vt 0.956897 0.000000
vt 0.681035 0.000000
vt 0.948276 0.000000
vt 0.939655 0.000000
vt 0.689655 0.000000
vt 0.931035 0.000000
vt 0.698276 0.000000
vt 0.922414 0.000000
vt 0.913793 0.000000
vt 0.706897 0.000000
vt 0.905172 0.000000
vt 0.715517 0.000000
vt 0.896552 0.000000
vt 0.724138 0.000000
vt 0.887931 0.000000
vt 0.732759 0.000000
vt 0.879310 0.000000
vt 0.741379 0.000000
vt 0.870690 0.000000
vt 0.758621 0.000000
vt 0.767241 0.000000
vt 0.862069 0.000000
vt 0.853448 0.000000
vt 0.844828 0.000000
vt 0.836207 0.000000
vt 0.827586 0.000000
vt 0.818965 0.000000
vt 0.810345 0.000000
vt 0.801724 0.000000
vt 0.793103 0.000000
vt 0.784483 0.000000
vt 0.775862 0.000000
vt 0.017241 0.000000
vt 0.646552 0.000000
vt 0.025862 0.000000
vt 0.637931 0.000000
vt 0.034483 0.000000
vt 0.629310 0.000000
vt 0.620690 0.000000
vt 0.043103 0.000000
vt 0.612069 0.000000
vt 0.051724 0.000000
vt 0.603448 0.000000
vt 0.060345 0.000000
vt 0.594828 0.000000
vt 0.068966 0.000000
vt 0.586207 0.000000
vt 0.077586 0.000000
vt 0.577586 0.000000
vt 0.086207 0.000000
vt 0.568965 0.000000
vt 0.094828 0.000000
vt 0.560345 0.000000
vt 0.103448 0.000000
vt 0.112069 0.000000
vt 0.982759 0.000000
vt 0.991379 0.000000
vt 0.551724 0.000000
vt 0.974138 0.000000
vt 0.120690 0.000000
vt 0.543103 0.000000
vt 0.129310 0.000000
vt 0.534483 0.000000
vt 0.137931 0.000000
vt 0.525862 0.000000
vt 0.146552 0.000000
vt 0.517241 0.000000
vt 0.155172 0.000000
vt 0.508621 0.000000
vt 0.163793 0.000000
vt 0.172414 0.000000
vt 0.491379 0.000000
vt 0.181034 0.000000
vt 0.482759 0.000000
vt 0.189655 0.000000
vt 0.474138 0.000000
vt 0.198276 0.000000
vt 0.465517 0.000000
vt 0.206897 0.000000
vt 0.456897 0.000000
vt 0.215517 0.000000
vt 0.448276 0.000000
vt 0.224138 0.000000
vt 0.439655 0.000000
vt 0.232759 0.000000
vt 0.431034 0.000000
vt 0.422414 0.000000
vt 0.241379 0.000000
vt 0.413793 0.000000
vt 0.336207 0.000000
vt 0.405172 0.000000
vt 0.258621 0.000000
vt 0.327586 0.000000
vt 0.318966 0.000000
vt 0.344828 0.000000
vt 0.267241 0.000000
vt 0.396552 0.000000
vt 0.275862 0.000000
vt 0.387931 0.000000
vt 0.284483 0.000000
vt 0.379310 0.000000
vt 0.293103 0.000000
vt 0.370690 0.000000
vt 0.301724 0.000000
vt 0.362069 0.000000
vt 0.310345 0.000000
vt 0.353448 0.000000
vt 0.727273 0.000000
vt 0.738636 0.000000
vt 0.715909 0.000000
vt 0.704545 0.000000
vt 0.761364 0.000000
vt 0.693182 0.000000
vt 0.772727 0.000000
vt 0.681818 0.000000
vt 0.784091 0.000000
vt 0.670455 0.000000
vt 0.795455 0.000000
vt 0.659091 0.000000
vt 0.806818 0.000000
vt 0.647727 0.000000
vt 0.818182 0.000000
vt 0.636364 0.000000
vt 0.829545 0.000000
vt 0.625000 0.000000
vt 0.840909 0.000000
vt 0.613636 0.000000
vt 0.852273 0.000000
vt 0.602273 0.000000
vt 0.863636 0.000000
vt 0.590909 0.000000
vt 0.875000 0.000000
vt 0.886364 0.000000
vt 0.579545 0.000000
vt 0.897727 0.000000
vt 0.909091 0.000000
vt 0.920455 0.000000
vt 0.568182 0.000000
vt 0.556818 0.000000
vt 0.931818 0.000000
vt 0.545455 0.000000
vt 0.534091 0.000000
vt 0.522727 0.000000
vt 0.511364 0.000000
vt 0.943182 0.000000
vt 0.295455 0.000000
vt 0.284091 0.000000
vt 0.306818 0.000000
vt 0.488636 0.000000
vt 0.318182 0.000000
vt 0.477273 0.000000
vt 0.329545 0.000000
vt 0.340909 0.000000
vt 0.465909 0.000000
vt 0.352273 0.000000
vt 0.454545 0.000000
vt 0.954545 0.000000
vt 0.363636 0.000000
vt 0.443182 0.000000
vt 0.375000 0.000000
vt 0.386364 0.000000
vt 0.397727 0.000000
vt 0.409091 0.000000
vt 0.420455 0.000000
vt 0.431818 0.000000
vt 0.965909 0.000000
vt 0.977273 0.000000
vt 0.988636 0.000000
vt 0.011364 0.000000
vt 0.272727 0.000000
vt 0.261364 0.000000
vt 0.022727 0.000000
vt 0.034091 0.000000
vt 0.238636 0.000000
vt 0.045455 0.000000
vt 0.227273 0.000000
vt 0.056818 0.000000
vt 0.215909 0.000000
vt 0.068182 0.000000
vt 0.204545 0.000000
vt 0.079545 0.000000
vt 0.193182 0.000000
vt 0.090909 0.000000
vt 0.181818 0.000000
vt 0.102273 0.000000
vt 0.170455 0.000000
vt 0.113636 0.000000
vt 0.159091 0.000000
vt 0.125000 0.000000
vt 0.147727 0.000000
vt 0.136364 0.000000
vt 0.710145 0.000000
vt 0.700483 0.000000
vt 0.705314 0.000000
vt 0.714976 0.000000
vt 0.695652 0.000000
vt 0.719807 0.000000
vt 0.690821 0.000000
vt 0.724638 0.000000
vt 0.685990 0.000000
vt 0.729469 0.000000
vt 0.681159 0.000000
vt 0.734300 0.000000
vt 0.676328 0.000000
vt 0.739130 0.000000
vt 0.671498 0.000000
vt 0.743961 0.000000
vt 0.352657 0.000000
vt 0.357488 0.000000
vt 0.362319 0.000000
vt 0.666667 0.000000
vt 0.367150 0.000000
vt 0.347826 0.000000
vt 0.371981 0.000000
vt 0.342995 0.000000
vt 0.376812 0.000000
vt 0.338164 0.000000
vt 0.381643 0.000000
vt 0.333333 0.000000
vt 0.748792 0.000000
vt 0.661836 0.000000
vt 0.386473 0.000000
vt 0.328502 0.000000
vt 0.391304 0.000000
vt 0.323671 0.000000
vt 0.753623 0.000000
vt 0.657005 0.000000
vt 0.396135 0.000000
vt 0.318841 0.000000
vt 0.400966 0.000000
vt 0.314010 0.000000
vt 0.758454 0.000000
vt 0.652174 0.000000
vt 0.405797 0.000000
vt 0.309179 0.000000
vt 0.410628 0.000000
vt 0.304348 0.000000
vt 0.531401 0.000000
vt 0.647343 0.000000
vt 0.415459 0.000000
vt 0.299517 0.000000
vt 0.536232 0.000000
vt 0.526570 0.000000
vt 0.420290 0.000000
vt 0.642512 0.000000
vt 0.521739 0.000000
vt 0.425121 0.000000
vt 0.946860 0.000000
vt 0.937198 0.000000
vt 0.942029 0.000000
vt 0.541063 0.000000
vt 0.637681 0.000000
vt 0.516908 0.000000
vt 0.429952 0.000000
vt 0.512077 0.000000
vt 0.434783 0.000000
vt 0.545894 0.000000
vt 0.632850 0.000000
vt 0.507246 0.000000
vt 0.439614 0.000000
vt 0.932367 0.000000
vt 0.502415 0.000000
vt 0.444444 0.000000
vt 0.951691 0.000000
vt 0.550725 0.000000
vt 0.628019 0.000000
vt 0.497585 0.000000
vt 0.449275 0.000000
vt 0.492754 0.000000
vt 0.454106 0.000000
vt 0.927536 0.000000
vt 0.555556 0.000000
vt 0.623188 0.000000
vt 0.487923 0.000000
vt 0.458937 0.000000
vt 0.483092 0.000000
vt 0.463768 0.000000
vt 0.956522 0.000000
vt 0.478261 0.000000
vt 0.468599 0.000000
vt 0.473430 0.000000
vt 0.560386 0.000000
vt 0.618357 0.000000
vt 0.565217 0.000000
vt 0.613527 0.000000
vt 0.922705 0.000000
vt 0.961353 0.000000
vt 0.570048 0.000000
vt 0.608696 0.000000
vt 0.574879 0.000000
vt 0.603865 0.000000
vt 0.579710 0.000000
vt 0.599034 0.000000
vt 0.917874 0.000000
vt 0.584541 0.000000
vt 0.594203 0.000000
vt 0.966184 0.000000
vt 0.589372 0.000000
vt 0.913043 0.000000
vt 0.971014 0.000000
vt 0.908213 0.000000
vt 0.975845 0.000000
vt 0.903382 0.000000
vt 0.980676 0.000000
vt 0.985507 0.000000
vt 0.898551 0.000000
vt 0.990338 0.000000
vt 0.893720 0.000000
vt 0.995169 0.000000
vt 0.888889 0.000000
vt 0.884058 0.000000
vt 0.879227 0.000000
vt 0.763285 0.000000
vt 0.874396 0.000000
vt 0.768116 0.000000
vt 0.869565 0.000000
vt 0.772947 0.000000
vt 0.864734 0.000000
vt 0.777778 0.000000
vt 0.782609 0.000000
vt 0.859903 0.000000
vt 0.787440 0.000000
vt 0.855072 0.000000
vt 0.792271 0.000000
vt 0.850242 0.000000
vt 0.797101 0.000000
vt 0.845411 0.000000
vt 0.801932 0.000000
vt 0.840580 0.000000
vt 0.806763 0.000000
vt 0.835749 0.000000
vt 0.811594 0.000000
vt 0.830918 0.000000
vt 0.816425 0.000000
vt 0.826087 0.000000
vt 0.821256 0.000000
vt 0.246377 0.000000
vt 0.236715 0.000000
vt 0.241546 0.000000
vt 0.231884 0.000000
vt 0.227053 0.000000
vt 0.251208 0.000000
vt 0.222222 0.000000
vt 0.217391 0.000000
vt 0.212560 0.000000
vt 0.207729 0.000000
vt 0.202899 0.000000
vt 0.256039 0.000000
vt 0.198068 0.000000
vt 0.193237 0.000000
vt 0.188406 0.000000
vt 0.183575 0.000000
vt 0.178744 0.000000
vt 0.173913 0.000000
vt 0.260870 0.000000
vt 0.169082 0.000000
vt 0.265700 0.000000
vt 0.164251 0.000000
vt 0.159420 0.000000
vt 0.270531 0.000000
vt 0.154589 0.000000
vt 0.275362 0.000000
vt 0.149758 0.000000
vt 0.280193 0.000000
vt 0.144928 0.000000
vt 0.285024 0.000000
vt 0.140097 0.000000
vt 0.289855 0.000000
vt 0.135266 0.000000
vt 0.294686 0.000000
vt 0.130435 0.000000
vt 0.125604 0.000000
vt 0.004831 0.000000
vt 0.120773 0.000000
vt 0.009662 0.000000
vt 0.115942 0.000000
vt 0.014493 0.000000
vt 0.111111 0.000000
vt 0.019324 0.000000
vt 0.106280 0.000000
vt 0.024155 0.000000
vt 0.101449 0.000000
vt 0.028986 0.000000
vt 0.096618 0.000000
vt 0.033816 0.000000
vt 0.091787 0.000000
vt 0.038647 0.000000
vt 0.086957 0.000000
vt 0.043478 0.000000
vt 0.082126 0.000000
vt 0.048309 0.000000
vt 0.077295 0.000000
vt 0.053140 0.000000
vt 0.072464 0.000000
vt 0.057971 0.000000
vt 0.067633 0.000000
vt 0.062802 0.000000
vt 0.021277 0.000000
vt 0.978723 0.000000
vt 0.042553 0.000000
vt 0.957447 0.000000
vt 0.063830 0.000000
vt 0.936170 0.000000
vt 0.085106 0.000000
vt 0.914894 0.000000
vt 0.106383 0.000000
vt 0.893617 0.000000
vt 0.127660 0.000000
vt 0.872340 0.000000
vt 0.148936 0.000000
vt 0.851064 0.000000
vt 0.170213 0.000000
vt 0.829787 0.000000
vt 0.191489 0.000000
vt 0.808511 0.000000
vt 0.212766 0.000000
vt 0.787234 0.000000
vt 0.234043 0.000000
vt 0.765957 0.000000
vt 0.255319 0.000000
vt 0.276596 0.000000
vt 0.744681 0.000000
vt 0.723404 0.000000
vt 0.297872 0.000000
vt 0.702128 0.000000
vt 0.319149 0.000000
vt 0.680851 0.000000
vt 0.340426 0.000000
vt 0.659574 0.000000
vt 0.361702 0.000000
vt 0.638298 0.000000
vt 0.382979 0.000000
vt 0.617021 0.000000
vt 0.404255 0.000000
vt 0.595745 0.000000
vt 0.425532 0.000000
vt 0.574468 0.000000
vt 0.446809 0.000000
vt 0.553191 0.000000
vt 0.468085 0.000000
vt 0.531915 0.000000
vt 0.489362 0.000000
vt 0.510638 0.000000
vt 0.710526 0.000000
vt 0.684211 0.000000
vt 0.697368 0.000000
vt 0.723684 0.000000
vt 0.736842 0.000000
vt 0.671053 0.000000
vt 0.657895 0.000000
vt 0.763158 0.000000
vt 0.644737 0.000000
vt 0.776316 0.000000
vt 0.631579 0.000000
vt 0.789474 0.000000
vt 0.618421 0.000000
vt 0.802632 0.000000
vt 0.605263 0.000000
vt 0.815789 0.000000
vt 0.592105 0.000000
vt 0.828947 0.000000
vt 0.578947 0.000000
vt 0.842105 0.000000
vt 0.565789 0.000000
vt 0.855263 0.000000
vt 0.552632 0.000000
vt 0.868421 0.000000
vt 0.539474 0.000000
vt 0.881579 0.000000
vt 0.526316 0.000000
vt 0.894737 0.000000
vt 0.171053 0.000000
vt 0.513158 0.000000
vt 0.907895 0.000000
vt 0.921053 0.000000
vt 0.934211 0.000000
vt 0.157895 0.000000
vt 0.184211 0.000000
vt 0.947368 0.000000
vt 0.144737 0.000000
vt 0.960526 0.000000
vt 0.131579 0.000000
vt 0.973684 0.000000
vt 0.118421 0.000000
vt 0.986842 0.000000
vt 0.105263 0.000000
vt 0.092105 0.000000
vt 0.013158 0.000000
vt 0.078947 0.000000
vt 0.065789 0.000000
vt 0.052632 0.000000
vt 0.039474 0.000000
vt 0.026316 0.000000
vt 0.197368 0.000000
vt 0.486842 0.000000
vt 0.210526 0.000000
vt 0.473684 0.000000
vt 0.223684 0.000000
vt 0.460526 0.000000
vt 0.236842 0.000000
vt 0.447368 0.000000
vt 0.434211 0.000000
vt 0.263158 0.000000
vt 0.421053 0.000000
vt 0.276316 0.000000
vt 0.407895 0.000000
vt 0.289474 0.000000
vt 0.394737 0.000000
vt 0.302632 0.000000
vt 0.381579 0.000000
vt 0.315789 0.000000
vt 0.368421 0.000000
vt 0.328947 0.000000
vt 0.355263 0.000000
vt 0.342105 0.000000
s 0
f 139/1/1 137/2/1 138/3/1
f 139/1/1 136/4/1 137/2/1
f 140/5/1 136/4/1 139/1/1
f 140/5/1 135/6/1 136/4/1
f 141/7/1 135/6/1 140/5/1
f 141/7/1 134/8/1 135/6/1
f 142/9/1 134/8/1 141/7/1
f 142/9/1 133/10/1 134/8/1
f 143/11/1 133/10/1 142/9/1
f 143/11/1 132/12/1 133/10/1
f 144/13/1 132/12/1 143/11/1
f 144/13/1 131/14/1 132/12/1
f 145/15/1 131/14/1 144/13/1
f 145/15/1 130/16/1 131/14/1
f 146/17/1 130/16/1 145/15/1
f 146/17/1 129/18/1 130/16/1
f 147/19/1 129/18/1 146/17/1
f 147/19/1 128/20/1 129/18/1
f 148/21/1 128/20/1 147/19/1
f 148/21/1 127/22/1 128/20/1
f 149/23/1 127/22/1 148/21/1
f 149/23/1 126/24/1 127/22/1
f 150/25/1 126/24/1 149/23/1
f 150/25/1 125/26/1 126/24/1
f 151/27/1 125/26/1 150/25/1
f 151/27/1 124/28/1 125/26/1
f 151/27/1 123/29/1 124/28/1
f 152/30/1 123/29/1 151/27/1
f 152/30/1 122/31/1 123/29/1
f 153/32/1 122/31/1 152/30/1
f 153/32/1 121/33/1 122/31/1
f 154/34/1 121/33/1 153/32/1
f 154/34/1 120/35/1 121/33/1
f 155/36/1 120/35/1 154/34/1
f 155/36/1 119/37/1 120/35/1
f 156/38/1 119/37/1 155/36/1
f 156/38/1 118/39/1 119/37/1
f 157/40/1 118/39/1 156/38/1
f 102/41/1 100/42/1 101/43/1
f 103/44/1 100/42/1 102/41/1
f 157/40/1 117/45/1 118/39/1
f 158/46/1 117/45/1 157/40/1
f 104/47/1 100/42/1 103/44/1
f 104/47/1 99/48/1 100/42/1
f 105/49/1 99/48/1 104/47/1
f 158/46/1 116/50/1 117/45/1
f 105/49/1 98/51/1 99/48/1
f 106/52/1 98/51/1 105/49/1
f 159/53/1 116/50/1 158/46/1
f 106/52/1 97/54/1 98/51/1
f 107/55/1 97/54/1 106/52/1
f 108/56/1 97/54/1 107/55/1
f 159/53/1 115/57/1 116/50/1
f 108/56/1 96/58/1 97/54/1
f 160/59/1 115/57/1 159/53/1
f 109/60/1 96/58/1 108/56/1
f 109/60/1 95/61/1 96/58/1
f 110/62/1 95/61/1 109/60/1
f 160/59/1 114/63/1 115/57/1
f 110/62/1 94/64/1 95/61/1
f 111/65/1 94/64/1 110/62/1
f 161/66/1 114/63/1 160/59/1
f 112/67/1 94/64/1 111/65/1
f 112/67/1 93/68/1 94/64/1
f 161/66/1 113/69/1 114/63/1
f 113/69/1 93/68/1 112/67/1
f 161/66/1 93/68/1 113/69/1
f 162/70/1 93/68/1 161/66/1
f 162/70/1 92/71/1 93/68/1
f 163/72/1 92/71/1 162/70/1
f 164/73/1 92/71/1 163/72/1
f 164/73/1 91/74/1 92/71/1
f 165/75/1 91/74/1 164/73/1
f 166/76/1 91/74/1 165/75/1
f 167/77/1 91/74/1 166/76/1
f 168/78/1 91/74/1 167/77/1
f 168/78/1 90/79/1 91/74/1
f 169/80/1 90/79/1 168/78/1
f 170/81/1 90/79/1 169/80/1
f 171/82/1 90/79/1 170/81/1
f 172/83/1 90/79/1 171/82/1
f 172/83/1 89/84/1 90/79/1
f 173/85/1 89/84/1 172/83/1
f 75/86/1 89/84/1 173/85/1
f 76/87/1 77/88/1 75/86/1
f 77/88/1 78/89/1 75/86/1
f 78/89/1 79/90/1 75/86/1
f 79/90/1 80/91/1 75/86/1
f 80/91/1 81/92/1 75/86/1
f 81/92/1 82/93/1 75/86/1
f 82/93/1 83/94/1 75/86/1
f 83/94/1 84/95/1 75/86/1
f 84/95/1 85/96/1 75/86/1
f 85/96/1 86/97/1 75/86/1
f 86/97/1 87/98/1 75/86/1
f 87/98/1 88/99/1 75/86/1
f 88/99/1 89/84/1 75/86/1
f 40/100/1 38/101/1 39/102/1
f 40/100/1 37/103/1 38/101/1
f 40/100/1 36/104/1 37/103/1
f 41/105/1 36/104/1 40/100/1
f 41/105/1 35/106/1 36/104/1
f 42/107/1 35/106/1 41/105/1
f 42/107/1 34/108/1 35/106/1
f 43/109/1 34/108/1 42/107/1
f 43/109/1 33/110/1 34/108/1
f 44/111/1 33/110/1 43/109/1
f 44/111/1 32/112/1 33/110/1
f 45/113/1 32/112/1 44/111/1
f 45/113/1 31/114/1 32/112/1
f 46/115/1 31/114/1 45/113/1
f 46/115/1 30/116/1 31/114/1
f 47/117/1 30/116/1 46/115/1
f 47/117/1 29/118/1 30/116/1
f 48/119/1 29/118/1 47/117/1
f 48/119/1 28/120/1 29/118/1
f 49/121/1 28/120/1 48/119/1
f 49/121/1 27/122/1 28/120/1
f 50/123/1 27/122/1 49/121/1
f 50/123/1 26/124/1 27/122/1
f 51/125/1 26/124/1 50/123/1
f 51/125/1 25/126/1 26/124/1
f 52/127/1 25/126/1 51/125/1
f 52/127/1 24/128/1 25/126/1
f 53/129/1 24/128/1 52/127/1
f 54/130/1 24/128/1 53/129/1
f 54/130/1 23/131/1 24/128/1
f 55/132/1 23/131/1 54/130/1
f 55/132/1 22/133/1 23/131/1
f 56/134/1 22/133/1 55/132/1
f 56/134/1 21/135/1 22/133/1
f 57/136/1 21/135/1 56/134/1
f 57/136/1 20/137/1 21/135/1
f 58/138/1 20/137/1 57/136/1
f 58/138/1 19/139/1 20/137/1
f 59/140/1 19/139/1 58/138/1
f 59/140/1 18/141/1 19/139/1
f 60/142/1 18/141/1 59/140/1
f 60/142/1 17/143/1 18/141/1
f 61/144/1 17/143/1 60/142/1
f 61/144/1 16/145/1 17/143/1
f 62/146/1 16/145/1 61/144/1
f 62/146/1 15/147/1 16/145/1
f 63/148/1 15/147/1 62/146/1
f 63/148/1 14/149/1 15/147/1
f 64/150/1 14/149/1 63/148/1
f 64/150/1 13/151/1 14/149/1
f 65/152/1 13/151/1 64/150/1
f 66/153/1 13/151/1 65/152/1
f 66/153/1 12/154/1 13/151/1
f 67/155/1 12/154/1 66/153/1
f 67/155/1 11/156/1 12/154/1
f 68/157/1 11/156/1 67/155/1
f 68/157/1 10/158/1 11/156/1
f 69/159/1 10/158/1 68/157/1
f 69/159/1 9/160/1 10/158/1
f 70/161/1 9/160/1 69/159/1
f 70/161/1 8/162/1 9/160/1
f 71/163/1 8/162/1 70/161/1
f 71/163/1 7/164/1 8/162/1
f 72/165/1 7/164/1 71/163/1
f 73/166/1 7/164/1 72/165/1
f 73/166/1 6/167/1 7/164/1
f 74/168/1 6/167/1 73/166/1
f 74/168/1 5/169/1 6/167/1
f 1/170/1 5/169/1 74/168/1
f 1/170/1 4/171/1 5/169/1
f 2/172/1 4/171/1 1/170/1
f 2/172/1 3/173/1 4/171/1
f 175/174/1 247/85/1 174/170/1
f 213/175/1 211/176/1 212/177/1
f 175/174/1 246/178/1 247/85/1
f 214/179/1 211/176/1 213/175/1
f 175/174/1 245/180/1 246/178/1
f 215/181/1 211/176/1 214/179/1
f 175/174/1 244/182/1 245/180/1
f 216/183/1 211/176/1 215/181/1
f 175/174/1 243/184/1 244/182/1
f 217/185/1 211/176/1 216/183/1
f 175/174/1 242/186/1 243/184/1
f 218/187/1 211/176/1 217/185/1
f 175/174/1 241/188/1 242/186/1
f 219/189/1 211/176/1 218/187/1
f 175/174/1 240/190/1 241/188/1
f 220/191/1 211/176/1 219/189/1
f 175/174/1 239/192/1 240/190/1
f 221/193/1 211/176/1 220/191/1
f 175/174/1 238/194/1 239/192/1
f 222/195/1 211/176/1 221/193/1
f 175/174/1 237/196/1 238/194/1
f 223/197/1 211/176/1 222/195/1
f 175/174/1 236/198/1 237/196/1
f 224/199/1 211/176/1 223/197/1
f 175/174/1 235/200/1 236/198/1
f 175/174/1 234/201/1 235/200/1
f 175/174/1 233/202/1 234/201/1
f 175/174/1 232/203/1 233/202/1
f 175/174/1 231/204/1 232/203/1
f 175/174/1 230/205/1 231/204/1
f 175/174/1 229/206/1 230/205/1
f 175/174/1 228/207/1 229/206/1
f 175/174/1 227/208/1 228/207/1
f 175/174/1 226/209/1 227/208/1
f 175/174/1 225/210/1 226/209/1
f 175/174/1 224/199/1 225/210/1
f 175/174/1 176/211/1 224/199/1
f 176/211/1 177/212/1 224/199/1
f 177/212/1 178/213/1 224/199/1
f 178/213/1 179/214/1 224/199/1
f 179/214/1 180/215/1 224/199/1
f 180/215/1 181/216/1 224/199/1
f 181/216/1 182/217/1 224/199/1
f 182/217/1 183/218/1 224/199/1
f 183/218/1 184/219/1 224/199/1
f 184/219/1 185/220/1 224/199/1
f 185/220/1 186/221/1 224/199/1
f 186/221/1 187/222/1 224/199/1
f 187/222/1 188/223/1 224/199/1
f 188/223/1 189/224/1 224/199/1
f 189/224/1 190/225/1 224/199/1
f 190/225/1 192/226/1 224/199/1
f 192/226/1 195/227/1 224/199/1
f 195/227/1 198/228/1 224/199/1
f 198/228/1 199/229/1 224/199/1
f 199/229/1 200/230/1 224/199/1
f 200/230/1 201/231/1 224/199/1
f 201/231/1 202/232/1 224/199/1
f 202/232/1 203/233/1 224/199/1
f 203/233/1 204/234/1 224/199/1
f 204/234/1 205/235/1 224/199/1
f 205/235/1 206/236/1 224/199/1
f 206/236/1 211/176/1 224/199/1
f 191/237/1 192/226/1 190/225/1
f 193/238/1 195/227/1 192/226/1
f 194/239/1 195/227/1 193/238/1
f 196/240/2 198/228/2 195/227/2
f 197/241/1 198/228/1 196/240/1
f 207/242/1 211/176/1 206/236/1
f 208/243/1 211/176/1 207/242/1
f 209/244/1 211/176/1 208/243/1
f 210/245/1 211/176/1 209/244/1
f 249/246/1 360/247/1 248/170/1
f 326/248/1 324/249/1 325/250/1
f 249/246/1 359/251/1 360/247/1
f 327/252/1 324/249/1 326/248/1
f 249/246/1 358/253/1 359/251/1
f 249/246/1 357/254/1 358/253/1
f 328/255/1 324/249/1 327/252/1
f 249/246/1 356/256/1 357/254/1
f 329/257/1 324/249/1 328/255/1
f 249/246/1 355/258/1 356/256/1
f 249/246/1 354/259/1 355/258/1
f 330/260/1 324/249/1 329/257/1
f 249/246/1 353/261/1 354/259/1
f 331/262/1 324/249/1 330/260/1
f 249/246/1 352/263/1 353/261/1
f 332/264/1 324/249/1 331/262/1
f 249/246/1 351/265/1 352/263/1
f 333/266/1 324/249/1 332/264/1
f 249/246/1 350/267/1 351/265/1
f 334/268/1 324/249/1 333/266/1
f 335/16/1 324/249/1 334/268/1
f 249/246/1 349/269/1 350/267/1
f 336/270/1 324/249/1 335/16/1
f 337/271/1 324/249/1 336/270/1
f 249/246/1 348/272/1 349/269/1
f 249/246/1 347/273/1 348/272/1
f 249/246/1 346/274/1 347/273/1
f 249/246/1 345/275/1 346/274/1
f 249/246/1 344/276/1 345/275/1
f 249/246/1 343/277/1 344/276/1
f 249/246/1 342/278/1 343/277/1
f 249/246/1 341/279/1 342/278/1
f 249/246/1 340/280/1 341/279/1
f 249/246/1 339/281/1 340/280/1
f 249/246/1 338/282/1 339/281/1
f 249/246/1 337/271/1 338/282/1
f 249/246/1 324/249/1 337/271/1
f 250/283/1 324/249/1 249/246/1
f 250/283/1 323/284/1 324/249/1
f 251/285/1 323/284/1 250/283/1
f 251/285/1 322/286/1 323/284/1
f 252/287/1 322/286/1 251/285/1
f 252/287/1 321/288/1 322/286/1
f 252/287/1 320/289/1 321/288/1
f 253/290/1 320/289/1 252/287/1
f 253/290/1 319/291/1 320/289/1
f 254/292/1 319/291/1 253/290/1
f 254/292/1 318/293/1 319/291/1
f 255/294/1 318/293/1 254/292/1
f 255/294/1 317/295/1 318/293/1
f 256/296/1 317/295/1 255/294/1
f 256/296/1 316/297/1 317/295/1
f 257/298/1 316/297/1 256/296/1
f 257/298/1 315/299/1 316/297/1
f 258/300/1 315/299/1 257/298/1
f 258/300/1 314/301/1 315/299/1
f 259/302/1 314/301/1 258/300/1
f 259/302/1 313/303/1 314/301/1
f 260/304/1 313/303/1 259/302/1
f 261/305/1 362/306/1 260/304/1
f 362/306/1 313/303/1 260/304/1
f 362/306/1 363/307/1 313/303/1
f 363/307/1 312/308/1 313/303/1
f 261/305/1 361/309/1 362/306/1
f 364/85/1 312/308/1 363/307/1
f 262/310/1 361/309/1 261/305/1
f 364/85/1 311/311/1 312/308/1
f 263/312/1 361/309/1 262/310/1
f 364/85/1 310/313/1 311/311/1
f 264/314/1 361/309/1 263/312/1
f 364/85/1 309/315/1 310/313/1
f 265/316/1 361/309/1 264/314/1
f 364/85/1 308/317/1 309/315/1
f 266/318/1 361/309/1 265/316/1
f 364/85/1 307/319/1 308/317/1
f 267/320/1 361/309/1 266/318/1
f 364/85/1 306/98/1 307/319/1
f 268/321/1 361/309/1 267/320/1
f 364/85/1 305/322/1 306/98/1
f 269/323/1 361/309/1 268/321/1
f 364/85/1 304/324/1 305/322/1
f 270/325/1 361/309/1 269/323/1
f 364/85/1 303/326/1 304/324/1
f 271/327/1 361/309/1 270/325/1
f 364/85/1 302/328/1 303/326/1
f 272/329/1 361/309/1 271/327/1
f 364/85/1 301/330/1 302/328/1
f 272/329/1 364/85/1 361/309/1
f 272/329/1 301/330/1 364/85/1
f 273/331/1 301/330/1 272/329/1
f 273/331/1 300/332/1 301/330/1
f 274/333/1 300/332/1 273/331/1
f 274/333/1 299/334/1 300/332/1
f 275/335/1 299/334/1 274/333/1
f 275/335/1 298/336/1 299/334/1
f 275/335/1 297/337/1 298/336/1
f 276/338/1 297/337/1 275/335/1
f 276/338/1 296/339/1 297/337/1
f 277/111/1 296/339/1 276/338/1
f 277/111/1 287/340/1 296/339/1
f 287/340/1 295/341/1 296/339/1
f 278/342/1 286/343/1 277/111/1
f 286/343/1 287/340/1 277/111/1
f 278/342/1 285/344/1 286/343/1
f 288/345/1 295/341/1 287/340/1
f 279/346/1 285/344/1 278/342/1
f 288/345/1 294/347/1 295/341/1
f 280/348/1 285/344/1 279/346/1
f 288/345/1 293/349/1 294/347/1
f 281/350/1 285/344/1 280/348/1
f 288/345/1 292/351/1 293/349/1
f 282/352/1 285/344/1 281/350/1
f 288/345/1 291/353/1 292/351/1
f 283/354/1 285/344/1 282/352/1
f 288/345/1 290/355/1 291/353/1
f 284/356/1 285/344/1 283/354/1
f 288/345/1 289/357/1 290/355/1
f 431/16/1 429/358/1 430/359/1
f 431/16/1 428/360/1 429/358/1
f 431/16/1 427/361/1 428/360/1
f 432/362/1 427/361/1 431/16/1
f 432/362/1 426/363/1 427/361/1
f 433/364/1 426/363/1 432/362/1
f 433/364/1 425/365/1 426/363/1
f 434/366/1 425/365/1 433/364/1
f 434/366/1 424/367/1 425/365/1
f 435/368/1 424/367/1 434/366/1
f 435/368/1 423/369/1 424/367/1
f 436/370/1 423/369/1 435/368/1
f 436/370/1 422/371/1 423/369/1
f 437/372/1 422/371/1 436/370/1
f 437/372/1 421/373/1 422/371/1
f 438/374/1 421/373/1 437/372/1
f 438/374/1 420/375/1 421/373/1
f 439/376/1 420/375/1 438/374/1
f 439/376/1 419/377/1 420/375/1
f 440/378/1 419/377/1 439/376/1
f 440/378/1 418/379/1 419/377/1
f 441/380/1 418/379/1 440/378/1
f 441/380/1 417/381/1 418/379/1
f 442/382/1 417/381/1 441/380/1
f 443/383/1 417/381/1 442/382/1
f 443/383/1 416/384/1 417/381/1
f 444/385/1 416/384/1 443/383/1
f 445/386/1 416/384/1 444/385/1
f 446/387/1 416/384/1 445/386/1
f 446/387/1 415/388/1 416/384/1
f 446/387/1 414/389/1 415/388/1
f 447/390/1 414/389/1 446/387/1
f 447/390/1 413/391/1 414/389/1
f 447/390/1 412/392/1 413/391/1
f 447/390/1 411/393/1 412/392/1
f 447/390/1 410/394/1 411/393/1
f 448/395/1 391/396/1 447/390/1
f 391/396/1 410/394/1 447/390/1
f 391/396/1 409/98/1 410/394/1
f 448/395/1 390/397/1 391/396/1
f 392/398/1 409/98/1 391/396/1
f 392/398/1 408/399/1 409/98/1
f 393/400/1 408/399/1 392/398/1
f 393/400/1 407/401/1 408/399/1
f 394/402/1 407/401/1 393/400/1
f 395/403/1 407/401/1 394/402/1
f 395/403/1 406/404/1 407/401/1
f 396/405/1 406/404/1 395/403/1
f 396/405/1 405/406/1 406/404/1
f 449/407/1 390/397/1 448/395/1
f 397/408/1 405/406/1 396/405/1
f 397/408/1 404/409/1 405/406/1
f 398/410/1 404/409/1 397/408/1
f 398/410/1 399/411/1 404/409/1
f 399/411/1 400/412/1 404/409/1
f 400/412/1 401/413/1 404/409/1
f 401/413/1 402/414/1 404/409/1
f 402/414/1 403/415/1 404/409/1
f 450/416/1 390/397/1 449/407/1
f 451/417/1 390/397/1 450/416/1
f 452/418/1 390/397/1 451/417/1
f 453/85/1 390/397/1 452/418/1
f 365/170/1 390/397/1 453/85/1
f 366/419/1 390/397/1 365/170/1
f 366/419/1 389/420/1 390/397/1
f 366/419/1 388/421/1 389/420/1
f 367/422/1 388/421/1 366/419/1
f 367/422/1 387/111/1 388/421/1
f 368/423/1 387/111/1 367/422/1
f 368/423/1 386/424/1 387/111/1
f 369/425/1 386/424/1 368/423/1
f 369/425/1 385/426/1 386/424/1
f 370/427/1 385/426/1 369/425/1
f 370/427/1 384/428/1 385/426/1
f 371/429/1 384/428/1 370/427/1
f 371/429/1 383/430/1 384/428/1
f 372/431/1 383/430/1 371/429/1
f 372/431/1 382/432/1 383/430/1
f 373/433/1 382/432/1 372/431/1
f 373/433/1 381/434/1 382/432/1
f 374/435/1 381/434/1 373/433/1
f 374/435/1 380/436/1 381/434/1
f 375/437/1 380/436/1 374/435/1
f 375/437/1 379/438/1 380/436/1
f 376/439/1 379/438/1 375/437/1
f 376/439/1 378/440/1 379/438/1
f 377/441/1 378/440/1 376/439/1
f 601/442/1 599/443/1 600/444/1
f 602/445/1 599/443/1 601/442/1
f 602/445/1 598/446/1 599/443/1
f 603/447/1 598/446/1 602/445/1
f 603/447/1 597/448/1 598/446/1
f 604/449/1 597/448/1 603/447/1
f 604/449/1 596/450/1 597/448/1
f 605/451/1 596/450/1 604/449/1
f 605/451/1 595/452/1 596/450/1
f 606/453/1 595/452/1 605/451/1
f 606/453/1 594/454/1 595/452/1
f 607/455/1 594/454/1 606/453/1
f 607/455/1 593/456/1 594/454/1
f 608/457/1 527/458/1 607/455/1
f 527/458/1 528/459/1 607/455/1
f 528/459/1 593/456/1 607/455/1
f 528/459/1 529/460/1 593/456/1
f 529/460/1 592/461/1 593/456/1
f 530/462/1 592/461/1 529/460/1
f 608/457/1 526/463/1 527/458/1
f 531/464/1 592/461/1 530/462/1
f 608/457/1 525/465/1 526/463/1
f 532/466/1 592/461/1 531/464/1
f 608/457/1 524/467/1 525/465/1
f 533/468/1 592/461/1 532/466/1
f 608/457/1 523/469/1 524/467/1
f 609/470/1 523/469/1 608/457/1
f 533/468/1 591/471/1 592/461/1
f 534/472/1 591/471/1 533/468/1
f 609/470/1 522/473/1 523/469/1
f 535/474/1 591/471/1 534/472/1
f 609/470/1 521/475/1 522/473/1
f 610/476/1 521/475/1 609/470/1
f 535/474/1 590/477/1 591/471/1
f 536/478/1 590/477/1 535/474/1
f 610/476/1 520/479/1 521/475/1
f 537/480/1 590/477/1 536/478/1
f 610/476/1 519/481/1 520/479/1
f 611/482/1 519/481/1 610/476/1
f 537/480/1 589/483/1 590/477/1
f 538/484/1 589/483/1 537/480/1
f 611/482/1 518/485/1 519/481/1
f 539/486/1 589/483/1 538/484/1
f 611/482/1 517/487/1 518/485/1
f 564/488/1 517/487/1 611/482/1
f 539/486/1 588/489/1 589/483/1
f 540/490/1 588/489/1 539/486/1
f 564/488/1 516/491/1 517/487/1
f 565/492/1 516/491/1 564/488/1
f 565/492/1 563/493/1 516/491/1
f 541/494/1 588/489/1 540/490/1
f 541/494/1 587/495/1 588/489/1
f 565/492/1 562/496/1 563/493/1
f 542/497/1 587/495/1 541/494/1
f 650/498/1 648/499/1 649/500/1
f 566/501/1 562/496/1 565/492/1
f 542/497/1 586/502/1 587/495/1
f 566/501/1 561/503/1 562/496/1
f 543/504/1 586/502/1 542/497/1
f 566/501/1 560/505/1 561/503/1
f 544/506/1 586/502/1 543/504/1
f 567/507/1 560/505/1 566/501/1
f 544/506/1 585/508/1 586/502/1
f 567/507/1 559/509/1 560/505/1
f 545/510/1 585/508/1 544/506/1
f 650/498/1 647/511/1 648/499/1
f 567/507/1 558/512/1 559/509/1
f 546/513/1 585/508/1 545/510/1
f 651/514/1 647/511/1 650/498/1
f 568/515/1 558/512/1 567/507/1
f 546/513/1 584/516/1 585/508/1
f 568/515/1 557/517/1 558/512/1
f 547/518/1 584/516/1 546/513/1
f 568/515/1 556/519/1 557/517/1
f 548/520/1 584/516/1 547/518/1
f 651/514/1 646/521/1 647/511/1
f 569/522/1 556/519/1 568/515/1
f 548/520/1 583/523/1 584/516/1
f 569/522/1 555/524/1 556/519/1
f 549/525/1 583/523/1 548/520/1
f 569/522/1 554/526/1 555/524/1
f 550/527/1 583/523/1 549/525/1
f 652/528/1 646/521/1 651/514/1
f 569/522/1 553/529/1 554/526/1
f 551/530/1 583/523/1 550/527/1
f 569/522/1 552/531/1 553/529/1
f 552/531/1 583/523/1 551/530/1
f 569/522/1 583/523/1 552/531/1
f 570/532/1 583/523/1 569/522/1
f 570/532/1 582/533/1 583/523/1
f 571/534/1 582/533/1 570/532/1
f 571/534/1 581/535/1 582/533/1
f 652/528/1 645/536/1 646/521/1
f 653/537/1 645/536/1 652/528/1
f 572/538/1 581/535/1 571/534/1
f 572/538/1 580/539/1 581/535/1
f 573/540/1 580/539/1 572/538/1
f 573/540/1 579/541/1 580/539/1
f 574/542/1 579/541/1 573/540/1
f 574/542/1 578/543/1 579/541/1
f 653/537/1 644/544/1 645/536/1
f 575/545/1 578/543/1 574/542/1
f 575/545/1 577/546/1 578/543/1
f 654/547/1 644/544/1 653/537/1
f 576/548/1 577/546/1 575/545/1
f 654/547/1 643/549/1 644/544/1
f 655/550/1 643/549/1 654/547/1
f 655/550/1 642/551/1 643/549/1
f 656/552/1 642/551/1 655/550/1
f 656/552/1 641/553/1 642/551/1
f 657/554/1 641/553/1 656/552/1
f 658/555/1 641/553/1 657/554/1
f 658/555/1 640/556/1 641/553/1
f 659/557/1 640/556/1 658/555/1
f 659/557/1 639/558/1 640/556/1
f 660/559/1 639/558/1 659/557/1
f 660/559/1 638/560/1 639/558/1
f 660/559/1 637/561/1 638/560/1
f 661/85/1 637/561/1 660/559/1
f 661/85/1 636/562/1 637/561/1
f 612/563/1 636/562/1 661/85/1
f 612/563/1 635/564/1 636/562/1
f 613/565/1 635/564/1 612/563/1
f 613/565/1 634/566/1 635/564/1
f 614/567/1 634/566/1 613/565/1
f 614/567/1 633/568/1 634/566/1
f 615/569/1 633/568/1 614/567/1
f 616/570/1 633/568/1 615/569/1
f 616/570/1 632/571/1 633/568/1
f 617/572/1 632/571/1 616/570/1
f 617/572/1 631/573/1 632/571/1
f 618/574/1 631/573/1 617/572/1
f 618/574/1 630/575/1 631/573/1
f 619/576/1 630/575/1 618/574/1
f 619/576/1 629/577/1 630/575/1
f 620/578/1 629/577/1 619/576/1
f 620/578/1 628/579/1 629/577/1
f 621/580/1 628/579/1 620/578/1
f 621/580/1 627/581/1 628/579/1
f 622/582/1 627/581/1 621/580/1
f 622/582/1 626/583/1 627/581/1
f 623/584/1 626/583/1 622/582/1
f 623/584/1 625/585/1 626/583/1
f 623/584/1 624/586/1 625/585/1
f 505/587/1 503/588/1 504/589/1
f 505/587/1 502/590/1 503/588/1
f 505/587/1 501/591/1 502/590/1
f 506/592/1 501/591/1 505/587/1
f 506/592/1 500/593/1 501/591/1
f 506/592/1 499/594/1 500/593/1
f 506/592/1 498/595/1 499/594/1
f 506/592/1 497/596/1 498/595/1
f 506/592/1 496/597/1 497/596/1
f 507/598/1 496/597/1 506/592/1
f 507/598/1 495/599/1 496/597/1
f 507/598/1 494/600/1 495/599/1
f 507/598/1 493/601/1 494/600/1
f 507/598/1 492/602/1 493/601/1
f 507/598/1 491/603/1 492/602/1
f 507/598/1 490/604/1 491/603/1
f 508/605/1 490/604/1 507/598/1
f 508/605/1 489/606/1 490/604/1
f 509/607/1 489/606/1 508/605/1
f 509/607/1 488/608/1 489/606/1
f 509/607/1 487/609/1 488/608/1
f 510/610/1 487/609/1 509/607/1
f 510/610/1 486/611/1 487/609/1
f 511/612/1 486/611/1 510/610/1
f 511/612/1 485/613/1 486/611/1
f 512/614/1 485/613/1 511/612/1
f 512/614/1 484/615/1 485/613/1
f 513/616/1 484/615/1 512/614/1
f 513/616/1 483/617/1 484/615/1
f 514/618/1 483/617/1 513/616/1
f 514/618/1 482/619/1 483/617/1
f 515/620/1 482/619/1 514/618/1
f 515/620/1 481/621/1 482/619/1
f 454/170/1 481/621/1 515/620/1
f 454/170/1 480/622/1 481/621/1
f 455/623/1 480/622/1 454/170/1
f 455/623/1 479/624/1 480/622/1
f 456/625/1 479/624/1 455/623/1
f 456/625/1 478/626/1 479/624/1
f 457/627/1 478/626/1 456/625/1
f 457/627/1 477/628/1 478/626/1
f 458/629/1 477/628/1 457/627/1
f 458/629/1 476/630/1 477/628/1
f 459/631/1 476/630/1 458/629/1
f 459/631/1 475/632/1 476/630/1
f 460/633/1 475/632/1 459/631/1
f 460/633/1 474/634/1 475/632/1
f 461/635/1 474/634/1 460/633/1
f 461/635/1 473/636/1 474/634/1
f 462/637/1 473/636/1 461/635/1
f 462/637/1 472/638/1 473/636/1
f 463/639/1 472/638/1 462/637/1
f 463/639/1 471/640/1 472/638/1
f 464/641/1 471/640/1 463/639/1
f 464/641/1 470/642/1 471/640/1
f 465/643/1 470/642/1 464/641/1
f 465/643/1 469/644/1 470/642/1
f 466/645/1 469/644/1 465/643/1
f 466/645/1 468/646/1 469/644/1
f 467/647/1 468/646/1 466/645/1
f 663/648/1 709/85/1 662/170/1
f 663/648/1 708/649/1 709/85/1
f 664/650/1 708/649/1 663/648/1
f 664/650/1 707/651/1 708/649/1
f 665/652/1 707/651/1 664/650/1
f 665/652/1 706/653/1 707/651/1
f 666/654/1 706/653/1 665/652/1
f 666/654/1 705/655/1 706/653/1
f 667/656/1 705/655/1 666/654/1
f 667/656/1 704/657/1 705/655/1
f 668/658/1 704/657/1 667/656/1
f 668/658/1 703/659/1 704/657/1
f 669/660/1 703/659/1 668/658/1
f 669/660/1 702/661/1 703/659/1
f 670/662/1 702/661/1 669/660/1
f 670/662/1 701/663/1 702/661/1
f 671/664/1 701/663/1 670/662/1
f 671/664/1 700/665/1 701/663/1
f 672/666/1 700/665/1 671/664/1
f 672/666/1 699/667/1 700/665/1
f 673/668/1 699/667/1 672/666/1
f 673/668/1 698/669/1 699/667/1
f 674/670/1 698/669/1 673/668/1
f 675/671/1 698/669/1 674/670/1
f 675/671/1 697/672/1 698/669/1
f 675/671/1 696/673/1 697/672/1
f 676/674/1 696/673/1 675/671/1
f 676/674/1 695/675/1 696/673/1
f 677/676/1 695/675/1 676/674/1
f 677/676/1 694/677/1 695/675/1
f 678/678/1 694/677/1 677/676/1
f 678/678/1 693/679/1 694/677/1
f 679/680/1 693/679/1 678/678/1
f 679/680/1 692/681/1 693/679/1
f 680/682/1 692/681/1 679/680/1
f 680/682/1 691/683/1 692/681/1
f 681/684/1 691/683/1 680/682/1
f 681/684/1 690/685/1 691/683/1
f 682/686/1 690/685/1 681/684/1
f 682/686/1 689/687/1 690/685/1
f 683/688/1 689/687/1 682/686/1
f 683/688/1 688/689/1 689/687/1
f 684/690/1 688/689/1 683/688/1
f 684/690/1 687/691/1 688/689/1
f 685/692/1 687/691/1 684/690/1
f 685/692/1 686/693/1 687/691/1
f 764/694/1 762/695/1 763/696/1
f 765/697/1 762/695/1 764/694/1
f 766/698/1 762/695/1 765/697/1
f 766/698/1 761/699/1 762/695/1
f 767/16/1 761/699/1 766/698/1
f 767/16/1 760/700/1 761/699/1
f 768/701/1 760/700/1 767/16/1
f 768/701/1 759/702/1 760/700/1
f 769/703/1 759/702/1 768/701/1
f 769/703/1 758/704/1 759/702/1
f 770/705/1 758/704/1 769/703/1
f 770/705/1 757/706/1 758/704/1
f 771/707/1 757/706/1 770/705/1
f 771/707/1 756/708/1 757/706/1
f 772/709/1 756/708/1 771/707/1
f 772/709/1 755/710/1 756/708/1
f 773/711/1 755/710/1 772/709/1
f 773/711/1 754/712/1 755/710/1
f 774/713/1 754/712/1 773/711/1
f 774/713/1 753/714/1 754/712/1
f 775/715/1 753/714/1 774/713/1
f 775/715/1 752/716/1 753/714/1
f 776/717/1 752/716/1 775/715/1
f 776/717/1 751/718/1 752/716/1
f 777/719/1 751/718/1 776/717/1
f 777/719/1 750/720/1 751/718/1
f 778/721/1 750/720/1 777/719/1
f 778/721/1 723/722/1 750/720/1
f 723/722/1 749/723/1 750/720/1
f 779/724/1 723/722/1 778/721/1
f 780/725/1 723/722/1 779/724/1
f 781/726/1 723/722/1 780/725/1
f 781/726/1 722/727/1 723/722/1
f 724/728/1 749/723/1 723/722/1
f 782/729/1 722/727/1 781/726/1
f 782/729/1 721/730/1 722/727/1
f 783/731/1 721/730/1 782/729/1
f 783/731/1 720/732/1 721/730/1
f 784/733/1 720/732/1 783/731/1
f 784/733/1 719/734/1 720/732/1
f 785/735/1 719/734/1 784/733/1
f 785/735/1 718/736/1 719/734/1
f 786/85/1 718/736/1 785/735/1
f 710/170/1 718/736/1 786/85/1
f 710/170/1 717/737/1 718/736/1
f 711/738/1 717/737/1 710/170/1
f 711/738/1 716/739/1 717/737/1
f 711/738/1 715/740/1 716/739/1
f 711/738/1 714/741/1 715/740/1
f 711/738/1 713/742/1 714/741/1
f 711/738/1 712/743/1 713/742/1
f 725/744/1 749/723/1 724/728/1
f 725/744/1 748/98/1 749/723/1
f 725/744/1 747/745/1 748/98/1
f 726/746/1 747/745/1 725/744/1
f 726/746/1 746/747/1 747/745/1
f 727/748/1 746/747/1 726/746/1
f 727/748/1 745/749/1 746/747/1
f 728/750/1 745/749/1 727/748/1
f 728/750/1 744/751/1 745/749/1
f 729/111/1 744/751/1 728/750/1
f 729/111/1 743/752/1 744/751/1
f 730/753/1 743/752/1 729/111/1
f 730/753/1 742/754/1 743/752/1
f 731/755/1 742/754/1 730/753/1
f 731/755/1 741/756/1 742/754/1
f 732/757/1 741/756/1 731/755/1
f 732/757/1 740/758/1 741/756/1
f 733/759/1 740/758/1 732/757/1
f 733/759/1 739/760/1 740/758/1
f 734/761/1 739/760/1 733/759/1
f 734/761/1 738/762/1 739/760/1
f 735/763/1 738/762/1 734/761/1
f 735/763/1 737/764/1 738/762/1
f 736/765/1 737/764/1 735/763/1
f 934/442/1 932/443/1 933/444/1
f 935/445/1 932/443/1 934/442/1
f 935/445/1 931/446/1 932/443/1
f 936/447/1 931/446/1 935/445/1
f 936/447/1 930/448/1 931/446/1
f 937/449/1 930/448/1 936/447/1
f 937/449/1 929/450/1 930/448/1
f 938/451/1 929/450/1 937/449/1
f 938/451/1 928/452/1 929/450/1
f 939/453/1 928/452/1 938/451/1
f 939/453/1 927/454/1 928/452/1
f 940/455/1 927/454/1 939/453/1
f 940/455/1 926/456/1 927/454/1
f 941/457/1 860/458/1 940/455/1
f 860/458/1 861/459/1 940/455/1
f 861/459/1 926/456/1 940/455/1
f 861/459/1 862/460/1 926/456/1
f 862/460/1 925/461/1 926/456/1
f 863/462/1 925/461/1 862/460/1
f 941/457/1 859/463/1 860/458/1
f 864/464/1 925/461/1 863/462/1
f 941/457/1 858/465/1 859/463/1
f 865/466/1 925/461/1 864/464/1
f 941/457/1 857/467/1 858/465/1
f 866/468/1 925/461/1 865/466/1
f 941/457/1 856/469/1 857/467/1
f 942/470/1 856/469/1 941/457/1
f 866/468/1 924/471/1 925/461/1
f 867/472/1 924/471/1 866/468/1
f 942/470/1 855/473/1 856/469/1
f 868/474/1 924/471/1 867/472/1
f 942/470/1 854/475/1 855/473/1
f 943/476/1 854/475/1 942/470/1
f 868/474/1 923/477/1 924/471/1
f 869/478/1 923/477/1 868/474/1
f 943/476/1 853/479/1 854/475/1
f 870/480/1 923/477/1 869/478/1
f 943/476/1 852/481/1 853/479/1
f 944/482/1 852/481/1 943/476/1
f 870/480/1 922/483/1 923/477/1
f 871/484/1 922/483/1 870/480/1
f 944/482/1 851/485/1 852/481/1
f 872/486/1 922/483/1 871/484/1
f 944/482/1 850/487/1 851/485/1
f 897/488/1 850/487/1 944/482/1
f 872/486/1 921/489/1 922/483/1
f 873/490/1 921/489/1 872/486/1
f 897/488/1 849/491/1 850/487/1
f 898/492/1 849/491/1 897/488/1
f 898/492/1 896/493/1 849/491/1
f 874/494/1 921/489/1 873/490/1
f 874/494/1 920/495/1 921/489/1
f 898/492/1 895/496/1 896/493/1
f 875/497/1 920/495/1 874/494/1
f 983/498/1 981/499/1 982/500/1
f 899/501/1 895/496/1 898/492/1
f 875/497/1 919/502/1 920/495/1
f 899/501/1 894/503/1 895/496/1
f 876/504/1 919/502/1 875/497/1
f 899/501/1 893/505/1 894/503/1
f 877/506/1 919/502/1 876/504/1
f 900/507/1 893/505/1 899/501/1
f 877/506/1 918/508/1 919/502/1
f 900/507/1 892/509/1 893/505/1
f 878/510/1 918/508/1 877/506/1
f 983/498/1 980/511/1 981/499/1
f 900/507/1 891/512/1 892/509/1
f 879/513/1 918/508/1 878/510/1
f 984/514/1 980/511/1 983/498/1
f 901/515/1 891/512/1 900/507/1
f 879/513/1 917/516/1 918/508/1
f 901/515/1 890/517/1 891/512/1
f 880/518/1 917/516/1 879/513/1
f 901/515/1 889/519/1 890/517/1
f 881/520/1 917/516/1 880/518/1
f 984/514/1 979/521/1 980/511/1
f 902/522/1 889/519/1 901/515/1
f 881/520/1 916/523/1 917/516/1
f 902/522/1 888/524/1 889/519/1
f 882/525/1 916/523/1 881/520/1
f 902/522/1 887/526/1 888/524/1
f 883/527/1 916/523/1 882/525/1
f 985/528/1 979/521/1 984/514/1
f 902/522/1 886/529/1 887/526/1
f 884/530/1 916/523/1 883/527/1
f 902/522/1 885/531/1 886/529/1
f 885/531/1 916/523/1 884/530/1
f 902/522/1 916/523/1 885/531/1
f 903/532/1 916/523/1 902/522/1
f 903/532/1 915/533/1 916/523/1
f 904/534/1 915/533/1 903/532/1
f 904/534/1 914/535/1 915/533/1
f 985/528/1 978/536/1 979/521/1
f 986/537/1 978/536/1 985/528/1
f 905/538/1 914/535/1 904/534/1
f 905/538/1 913/539/1 914/535/1
f 906/540/1 913/539/1 905/538/1
f 906/540/1 912/541/1 913/539/1
f 907/542/1 912/541/1 906/540/1
f 907/542/1 911/543/1 912/541/1
f 986/537/1 977/544/1 978/536/1
f 908/545/1 911/543/1 907/542/1
f 908/545/1 910/546/1 911/543/1
f 987/547/1 977/544/1 986/537/1
f 909/548/1 910/546/1 908/545/1
f 987/547/1 976/549/1 977/544/1
f 988/550/1 976/549/1 987/547/1
f 988/550/1 975/551/1 976/549/1
f 989/552/1 975/551/1 988/550/1
f 989/552/1 974/553/1 975/551/1
f 990/554/1 974/553/1 989/552/1
f 991/555/1 974/553/1 990/554/1
f 991/555/1 973/556/1 974/553/1
f 992/557/1 973/556/1 991/555/1
f 992/557/1 972/558/1 973/556/1
f 993/559/1 972/558/1 992/557/1
f 993/559/1 971/560/1 972/558/1
f 993/559/1 970/561/1 971/560/1
f 994/85/1 970/561/1 993/559/1
f 994/85/1 969/562/1 970/561/1
f 945/563/1 969/562/1 994/85/1
f 945/563/1 968/564/1 969/562/1
f 946/565/1 968/564/1 945/563/1
f 946/565/1 967/566/1 968/564/1
f 947/567/1 967/566/1 946/565/1
f 947/567/1 966/568/1 967/566/1
f 948/569/1 966/568/1 947/567/1
f 949/570/1 966/568/1 948/569/1
f 949/570/1 965/571/1 966/568/1
f 950/572/1 965/571/1 949/570/1
f 950/572/1 964/573/1 965/571/1
f 951/574/1 964/573/1 950/572/1
f 951/574/1 963/575/1 964/573/1
f 952/576/1 963/575/1 951/574/1
f 952/576/1 962/577/1 963/575/1
f 953/578/1 962/577/1 952/576/1
f 953/578/1 961/579/1 962/577/1
f 954/580/1 961/579/1 953/578/1
f 954/580/1 960/581/1 961/579/1
f 955/582/1 960/581/1 954/580/1
f 955/582/1 959/583/1 960/581/1
f 956/584/1 959/583/1 955/582/1
f 956/584/1 958/585/1 959/583/1
f 956/584/1 957/586/1 958/585/1
f 838/587/1 836/588/1 837/589/1
f 838/587/1 835/590/1 836/588/1
f 838/587/1 834/591/1 835/590/1
f 839/592/1 834/591/1 838/587/1
f 839/592/1 833/593/1 834/591/1
f 839/592/1 832/594/1 833/593/1
f 839/592/1 831/595/1 832/594/1
f 839/592/1 830/596/1 831/595/1
f 839/592/1 829/597/1 830/596/1
f 840/598/1 829/597/1 839/592/1
f 840/598/1 828/599/1 829/597/1
f 840/598/1 827/600/1 828/599/1
f 840/598/1 826/601/1 827/600/1
f 840/598/1 825/602/1 826/601/1
f 840/598/1 824/603/1 825/602/1
f 840/598/1 823/604/1 824/603/1
f 841/605/1 823/604/1 840/598/1
f 841/605/1 822/606/1 823/604/1
f 842/607/1 822/606/1 841/605/1
f 842/607/1 821/608/1 822/606/1
f 842/607/1 820/609/1 821/608/1
f 843/610/1 820/609/1 842/607/1
f 843/610/1 819/611/1 820/609/1
f 844/612/1 819/611/1 843/610/1
f 844/612/1 818/613/1 819/611/1
f 845/614/1 818/613/1 844/612/1
f 845/614/1 817/615/1 818/613/1
f 846/616/1 817/615/1 845/614/1
f 846/616/1 816/617/1 817/615/1
f 847/618/1 816/617/1 846/616/1
f 847/618/1 815/619/1 816/617/1
f 848/620/1 815/619/1 847/618/1
f 848/620/1 814/621/1 815/619/1
f 787/170/1 814/621/1 848/620/1
f 787/170/1 813/622/1 814/621/1
f 788/623/1 813/622/1 787/170/1
f 788/623/1 812/624/1 813/622/1
f 789/625/1 812/624/1 788/623/1
f 789/625/1 811/626/1 812/624/1
f 790/627/1 811/626/1 789/625/1
f 790/627/1 810/628/1 811/626/1
f 791/629/1 810/628/1 790/627/1
f 791/629/1 809/630/1 810/628/1
f 792/631/1 809/630/1 791/629/1
f 792/631/1 808/632/1 809/630/1
f 793/633/1 808/632/1 792/631/1
f 793/633/1 807/634/1 808/632/1
f 794/635/1 807/634/1 793/633/1
f 794/635/1 806/636/1 807/634/1
f 795/637/1 806/636/1 794/635/1
f 795/637/1 805/638/1 806/636/1
f 796/639/1 805/638/1 795/637/1
f 796/639/1 804/640/1 805/638/1
f 797/641/1 804/640/1 796/639/1
f 797/641/1 803/642/1 804/640/1
f 798/643/1 803/642/1 797/641/1
f 798/643/1 802/644/1 803/642/1
f 799/645/1 802/644/1 798/643/1
f 799/645/1 801/646/1 802/644/1
f 800/647/1 801/646/1 799/645/1
