# Blender 4.4.1
# www.blender.org
mtllib Funnel.mtl
o 立方体
v 0.116873 -0.110576 0.497366
v 0.116873 0.121934 0.497366
v -0.093144 -0.110576 0.502351
v -0.093144 0.121934 0.502351
v 0.093144 -0.110576 -0.502351
v 0.093144 0.121934 -0.502351
v -0.116873 -0.110576 -0.497366
v -0.116873 0.121934 -0.497366
v -0.087368 -0.144101 0.575169
v 0.014465 -0.160942 0.609397
v 0.114559 -0.144101 0.570375
v 0.133921 -0.086715 0.569916
v 0.142485 -0.000000 0.606357
v 0.133921 0.077477 0.569916
v 0.114559 0.155460 0.570375
v 0.014465 0.147283 0.609397
v -0.087368 0.155460 0.575168
v -0.106731 0.077477 0.575628
v -0.113556 -0.000000 0.612435
v -0.106731 -0.086715 0.575628
v -0.127366 -0.144101 -0.293711
v -0.128020 -0.160942 0.003039
v -0.113287 -0.144101 0.299423
v -0.113287 0.155460 0.299423
v -0.128020 0.172300 0.003039
v -0.127366 0.155460 -0.293711
v -0.113278 0.077477 -0.099845
v -0.112590 0.000000 -0.116109
v -0.113278 -0.086715 -0.099845
v 0.087368 -0.144101 -0.575168
v -0.014465 -0.160942 -0.609397
v -0.114559 -0.144101 -0.570375
v -0.114559 0.155460 -0.570375
v -0.014465 0.154924 -0.609397
v 0.087368 0.155460 -0.575169
v 0.108598 0.077477 -0.097338
v 0.107307 0.000000 -0.106473
v 0.108413 -0.086715 -0.105107
v 0.127366 -0.144101 0.293711
v 0.128020 -0.160942 -0.003039
v 0.113287 -0.144101 -0.299423
v 0.113287 0.155460 -0.299423
v 0.128020 0.172300 -0.003039
v 0.127366 0.155460 0.293711
v 0.124901 -0.095682 0.726231
v 0.131935 -0.000000 0.778918
v 0.124901 0.086444 0.726231
v 0.018552 -0.103489 0.781609
v 0.019921 -0.000000 0.839270
v 0.018552 0.094251 0.781609
v -0.090305 -0.095682 0.731339
v -0.094831 -0.000000 0.784300
v -0.090305 0.086444 0.731339
v -0.125318 -0.095682 0.319220
v -0.127148 -0.000000 0.336252
v -0.125318 0.086444 0.319220
v -0.142448 -0.103489 0.003382
v -0.145016 -0.000000 0.003442
v -0.142448 0.094476 0.003382
v -0.134080 -0.095682 -0.049852
v -0.136714 0.000000 -0.066778
v -0.134080 0.086444 -0.049852
v -0.112905 -0.041450 -0.726537
v -0.091881 -0.000019 -0.116743
v -0.112905 0.055587 -0.726537
v -0.018586 -0.042376 -0.781603
v -0.003186 0.001721 -0.132776
v -0.018552 0.056070 -0.781609
v 0.078330 -0.041507 -0.731055
v 0.086263 0.000000 -0.120976
v 0.078330 0.055681 -0.731055
v 0.131562 -0.095682 -0.056158
v 0.133392 0.000000 -0.073190
v 0.131562 0.086444 -0.056158
v 0.142448 -0.103489 -0.003382
v 0.145016 0.000000 -0.003442
v 0.142448 0.094459 -0.003382
v 0.140324 -0.095682 0.312915
v 0.142958 -0.000000 0.329841
v 0.140323 0.086444 0.312915
v -0.100100 -0.215837 0.318622
v -0.113383 -0.240126 0.002692
v -0.115105 -0.215837 -0.313514
v 0.007905 -0.240126 0.333046
v 0.000000 -0.266639 -0.000000
v -0.007905 -0.240126 -0.333046
v 0.115105 -0.215837 0.313514
v 0.113383 -0.240126 -0.002692
v 0.100100 -0.215837 -0.318622
v -0.115105 0.227196 -0.313514
v -0.113383 0.251485 0.002692
v -0.100100 0.227196 0.318622
v -0.007905 0.226468 -0.333046
v -0.000000 0.252981 0.000000
v 0.007905 0.226468 0.333046
v 0.100100 0.227196 -0.318622
v 0.113383 0.251485 -0.002692
v 0.115105 0.227196 0.313514
v -0.003164 0.054725 -0.132578
v 0.089705 0.056908 -0.116096
v 0.107910 0.073658 -0.105478
v 0.107915 -0.076721 -0.106302
v -0.003193 -0.051912 -0.133087
v 0.089737 -0.051311 -0.120937
v -0.113184 0.073600 -0.116714
v -0.095234 0.056594 -0.117719
v -0.095352 -0.051320 -0.116543
v -0.113190 -0.076747 -0.115867
v 0.078495 -0.000000 0.807711
v 0.127941 -0.054329 0.749001
v -0.092263 -0.054274 0.754258
v 0.127935 0.049155 0.748958
v -0.092255 0.049202 0.754155
v -0.035255 -0.000000 0.812839
v 0.019202 -0.054301 0.809014
v 0.019206 0.049179 0.809183
v -0.035990 -0.054288 0.781903
v 0.077759 -0.054316 0.776697
v -0.035988 0.049190 0.781935
v 0.077760 0.049166 0.776751
v -0.020991 0.072704 -0.884386
v -0.118216 0.072686 -0.837434
v 0.078361 0.072722 -0.842105
v 0.078877 -0.058820 -0.822509
v -0.117797 -0.058595 -0.818153
v -0.020858 -0.058707 -0.877985
vn 0.4247 -0.4563 0.7820
vn 0.4266 -0.4508 0.7841
vn 0.4377 -0.4496 0.7787
vn 0.4171 0.4932 0.7634
vn 0.4155 0.4929 0.7645
vn 0.4199 0.4799 0.7703
vn -0.3897 -0.4602 0.7977
vn -0.3917 -0.4597 0.7970
vn -0.3814 0.4854 0.7867
vn -0.3788 0.4796 0.7915
vn -0.3793 0.4789 0.7917
vn 0.9408 -0.3184 -0.1164
vn 0.9925 -0.1064 0.0607
vn 0.9924 0.1117 0.0509
vn 0.9697 0.2405 0.0422
vn 0.2158 0.9346 0.2827
vn -0.2022 0.9346 0.2926
vn -0.9666 0.2405 0.0881
vn -0.9857 0.1349 0.1013
vn -0.9874 -0.1210 0.1019
vn -0.9453 -0.3184 -0.0716
vn -0.2484 -0.9266 0.2823
vn -0.2482 -0.9266 0.2826
vn -0.2456 -0.9305 0.2717
vn 0.2614 -0.9266 0.2705
vn 0.2615 -0.9266 0.2701
vn 0.2582 -0.9305 0.2597
vn -0.9982 -0.0257 0.0545
vn -0.9982 -0.0277 0.0539
vn -0.9982 -0.0248 0.0548
vn -0.9981 0.0283 0.0546
vn -0.9981 0.0306 0.0539
vn -0.9981 0.0317 0.0536
vn -0.9870 -0.0244 -0.1587
vn -0.9917 0.0532 -0.1172
vn -0.9454 -0.2931 0.1423
vn -0.9968 -0.0321 0.0734
vn -0.9927 0.1106 0.0489
vn -0.9086 0.4099 0.0802
vn -0.9813 0.1835 0.0589
vn -0.9808 0.1863 0.0583
vn -0.9805 0.1876 0.0580
vn -0.9675 0.1786 -0.1790
vn -0.7502 -0.6305 -0.1991
vn -0.9625 0.2631 -0.0658
vn -0.8983 0.0056 -0.4393
vn -0.9655 0.2603 -0.0069
vn -0.9951 -0.0987 -0.0078
vn -0.9679 -0.2434 0.0620
vn 0.0117 0.9998 0.0154
vn 0.0158 0.9998 0.0147
vn 0.0181 0.9997 0.0143
vn -0.1779 0.0046 -0.9840
vn -0.1780 0.0037 -0.9840
vn -0.1780 0.0047 -0.9840
vn -0.0147 0.9998 0.0154
vn -0.0108 0.9998 0.0159
vn -0.0168 0.9997 0.0151
vn 0.1309 0.0036 -0.9914
vn 0.1309 0.0045 -0.9914
vn 0.1309 0.0047 -0.9914
vn -0.9996 -0.0189 -0.0230
vn -1.0000 0.0090 0.0001
vn -0.0306 -0.0190 -0.9994
vn -0.9966 -0.0734 0.0364
vn -0.0787 -0.9851 -0.1527
vn -0.0787 -0.9851 -0.1528
vn -0.0814 -0.9856 -0.1481
vn 0.0719 -0.9851 -0.1561
vn 0.0719 -0.9851 -0.1560
vn 0.0750 -0.9857 -0.1512
vn 0.9973 0.0193 -0.0702
vn 0.5671 0.0363 -0.8229
vn 0.5671 0.0370 -0.8228
vn 0.9980 0.0444 -0.0448
vn 0.9965 0.0725 -0.0427
vn 0.2590 -0.9103 -0.3228
vn -0.2742 -0.9102 -0.3105
vn 0.9784 -0.0244 -0.2054
vn 0.9850 0.0532 -0.1642
vn 0.9996 -0.0277 0.0064
vn 0.9996 -0.0257 0.0070
vn 0.9997 -0.0248 0.0073
vn 0.9995 0.0307 0.0064
vn 0.9996 0.0283 0.0071
vn 0.9995 0.0317 0.0062
vn 0.9641 0.2603 -0.0527
vn 0.8854 -0.0978 -0.4545
vn 0.8852 0.1079 -0.4525
vn 0.6989 -0.6725 -0.2433
vn 0.9579 0.1785 -0.2247
vn 0.9824 0.1863 0.0116
vn 0.9829 0.1835 0.0122
vn 0.9822 0.1876 0.0114
vn 0.9114 0.4099 0.0370
vn 0.9939 0.1107 0.0017
vn 0.9991 -0.0321 0.0260
vn 0.9511 -0.2931 0.0973
vn 0.9698 -0.2434 0.0160
vn 0.9936 -0.0987 -0.0550
vn -0.2259 -0.9705 0.0837
vn -0.2282 -0.9701 0.0829
vn -0.2292 -0.9699 0.0826
vn -0.2297 -0.9705 -0.0729
vn -0.2319 -0.9701 -0.0720
vn -0.2287 -0.9707 -0.0733
vn 0.2319 -0.9701 0.0720
vn 0.2297 -0.9705 0.0729
vn 0.2328 -0.9699 0.0717
vn 0.2282 -0.9701 -0.0829
vn 0.2259 -0.9705 -0.0837
vn 0.2250 -0.9707 -0.0841
vn -0.9974 -0.0400 0.0607
vn -0.9845 -0.1654 0.0583
vn -0.9833 -0.1817 -0.0086
vn -0.9862 -0.1478 -0.0751
vn -0.2581 -0.9304 -0.2604
vn -0.2582 -0.9303 -0.2604
vn 0.2456 -0.9303 -0.2723
vn 0.2455 -0.9304 -0.2724
vn 0.9815 -0.1478 -0.1218
vn 0.9818 -0.1817 -0.0552
vn 0.9862 -0.1654 0.0116
vn 0.9991 -0.0400 0.0133
vn 0.2582 -0.9303 0.2604
vn -0.2456 -0.9303 0.2723
vn -0.0133 0.9969 -0.0770
vn -0.0092 0.9969 -0.0785
vn -0.0077 0.9968 -0.0792
vn -0.0096 0.9969 0.0776
vn -0.0055 0.9969 0.0789
vn -0.0113 0.9970 0.0771
vn 0.0055 0.9969 -0.0789
vn 0.0096 0.9969 -0.0776
vn 0.0039 0.9968 -0.0794
vn 0.0092 0.9969 0.0785
vn 0.0133 0.9969 0.0770
vn 0.0150 0.9970 0.0765
vn -0.9991 0.0400 -0.0133
vn -0.9862 0.1654 -0.0116
vn -0.9818 0.1817 0.0552
vn -0.9815 0.1478 0.1218
vn -0.0296 0.9623 0.2705
vn 0.0424 0.9623 0.2688
vn 0.9862 0.1478 0.0751
vn 0.9833 0.1817 0.0086
vn 0.9845 0.1654 -0.0583
vn 0.9974 0.0400 -0.0607
vn 0.0795 0.9646 -0.2516
vn -0.0913 0.9646 -0.2475
vn 0.9955 -0.0841 -0.0447
vn 0.0232 -0.9997 0.0016
vn 0.1299 0.0077 -0.9915
vn 0.1296 0.0080 -0.9915
vn 0.6299 0.0033 -0.7767
vn 0.0004 -1.0000 -0.0021
vn 0.0039 -1.0000 -0.0022
vn -0.6870 -0.7264 0.0211
vn -0.1768 0.0076 -0.9842
vn -0.0314 -0.0021 -0.9995
vn -0.0330 -0.0026 -0.9995
vn -0.0306 -0.0018 -0.9995
vn -0.3884 -0.4564 0.8005
vn -0.3923 -0.4463 0.8043
vn -0.3903 -0.4481 0.8043
vn -0.3869 -0.4449 0.8077
vn 0.4291 -0.4459 0.7855
vn 0.4248 -0.4449 0.7884
vn 0.4291 -0.4592 0.7778
vn -0.3844 0.4974 0.7777
vn -0.3771 0.4890 0.7866
vn -0.3769 0.4887 0.7868
vn -0.3880 0.4792 0.7873
vn -0.3950 0.4834 0.7812
vn -0.3952 0.4840 0.7807
vn 0.4193 0.4863 0.7666
vn 0.4164 0.4789 0.7728
vn 0.4317 0.4849 0.7606
vn 0.4313 0.4840 0.7614
vn 0.0950 0.9499 -0.2976
vn -0.1358 0.9501 -0.2808
vn 0.0876 0.9789 -0.1848
vn -0.1000 0.9814 -0.1639
vn 0.4381 -0.4504 0.7779
vn 0.4290 -0.4597 0.7776
vn 0.4206 0.4969 0.7591
vn -0.4009 -0.4492 0.7984
vn -0.4006 -0.4489 0.7988
vn -0.3961 -0.4439 0.8038
vn -0.3953 -0.4431 0.8046
vn 0.9470 -0.3192 0.0363
vn 0.9935 -0.1014 0.0515
vn 0.9911 -0.1210 0.0550
vn 0.9912 0.1176 0.0606
vn 0.9894 0.1350 0.0544
vn 0.9673 0.2406 -0.0798
vn 0.0810 0.9133 0.3991
vn -0.0619 0.9133 0.4025
vn -0.9700 0.2407 -0.0339
vn -0.9872 0.1176 0.1076
vn -0.9889 0.1117 0.0979
vn -0.9900 -0.1014 0.0986
vn -0.9885 -0.1064 0.1077
vn -0.9442 -0.3192 0.0812
vn -0.2113 -0.9257 0.3138
vn 0.2260 -0.9257 0.3035
vn -0.9982 -0.0286 0.0536
vn -0.9981 0.0272 0.0548
vn -0.9919 -0.0481 -0.1173
vn -0.9869 0.0267 -0.1592
vn -0.7458 -0.6617 0.0772
vn -0.9939 -0.0990 0.0489
vn -0.9967 0.0356 0.0735
vn -0.9697 0.2065 0.1304
vn -0.9815 0.1822 0.0591
vn -0.9972 0.0743 -0.0064
vn -0.9767 -0.2140 -0.0151
vn -0.8983 -0.0109 -0.4393
vn -0.9112 0.1057 -0.3981
vn -0.6744 -0.6253 -0.3928
vn -0.9430 -0.0830 -0.3222
vn -0.6883 0.7077 -0.1595
vn -0.9534 -0.2383 -0.1848
vn -0.9629 -0.2633 0.0587
vn 0.0093 0.9998 0.0159
vn -0.1598 -0.0265 -0.9868
vn -0.0086 0.9998 0.0162
vn 0.1726 0.0738 -0.9822
vn -0.9973 0.0727 0.0047
vn -0.9964 0.0755 0.0391
vn -0.8178 0.5746 0.0328
vn -0.0641 -0.0087 -0.9979
vn -0.9978 -0.0655 0.0017
vn -0.9996 0.0192 -0.0229
vn -0.0759 -0.9846 -0.1576
vn 0.0687 -0.9846 -0.1610
vn 0.9968 -0.0664 -0.0453
vn 0.9973 -0.0732 -0.0110
vn 0.4986 0.0076 -0.8668
vn 0.8149 0.5796 -0.0059
vn 0.9973 -0.0190 -0.0704
vn 0.9971 0.0753 -0.0083
vn 0.1953 -0.9150 -0.3529
vn -0.2129 -0.9148 -0.3432
vn 0.9853 -0.0481 -0.1642
vn 0.9782 0.0267 -0.2058
vn 0.9996 -0.0286 0.0062
vn 0.9996 0.0272 0.0074
vn 0.6800 0.7077 -0.1919
vn 0.9035 -0.0062 -0.4284
vn 0.7871 0.0049 -0.6168
vn 0.7871 0.0034 -0.6168
vn 0.7871 0.0019 -0.6169
vn 0.4272 0.8041 -0.4134
vn 0.9744 -0.2165 -0.0609
vn 0.9958 0.0743 -0.0537
vn 0.9832 0.1822 0.0125
vn 0.9748 0.2064 0.0842
vn 0.9990 0.0356 0.0261
vn 0.9951 -0.0990 0.0017
vn 0.7486 -0.6617 0.0417
vn 0.9646 -0.2633 0.0130
vn 0.9436 -0.2383 -0.2299
vn -0.2250 -0.9707 0.0841
vn -0.2328 -0.9699 -0.0717
vn 0.2287 -0.9707 0.0733
vn 0.2292 -0.9699 -0.0826
vn -0.9815 -0.1478 0.1218
vn -0.9818 -0.1817 0.0552
vn -0.9862 -0.1654 -0.0116
vn -0.9991 -0.0400 -0.0133
vn -0.2581 -0.9304 -0.2605
vn 0.2454 -0.9304 -0.2724
vn 0.9974 -0.0400 -0.0607
vn 0.9845 -0.1654 -0.0583
vn 0.9833 -0.1817 0.0086
vn 0.9862 -0.1478 0.0751
vn -0.0150 0.9970 -0.0765
vn -0.0039 0.9968 0.0794
vn 0.0113 0.9970 -0.0771
vn 0.0077 0.9968 0.0792
vn -0.9862 0.1478 -0.0751
vn -0.9833 0.1817 -0.0086
vn -0.9845 0.1654 0.0583
vn -0.9974 0.0400 0.0607
vn -0.0155 0.9611 0.2758
vn 0.0286 0.9611 0.2747
vn 0.9991 0.0400 0.0133
vn 0.9862 0.1654 0.0116
vn 0.9818 0.1817 -0.0552
vn 0.9815 0.1478 -0.1218
vn 0.0296 0.9623 -0.2705
vn -0.0424 0.9623 -0.2688
vn 0.6806 -0.7326 -0.0111
vn -0.0030 -1.0000 -0.0020
vn 0.5670 0.0378 -0.8228
vn -0.0199 -0.9998 0.0022
vn -0.9997 -0.0254 0.0003
vn -0.1766 0.0081 -0.9842
vn -0.0337 -0.0029 -0.9994
vn -0.3841 0.4969 0.7782
vn 0.1220 0.9501 -0.2870
vn -0.1091 0.9499 -0.2929
vn 0.0948 0.9811 -0.1685
vn -0.0944 0.9794 -0.1783
vt 0.112140 0.840410
vt 0.134958 0.818919
vt 0.148856 0.833594
vt 0.078488 0.842325
vt 0.084178 0.809982
vt 0.098325 0.823864
vt 0.155665 0.799717
vt 0.175784 0.780150
vt 0.186260 0.792141
vt 0.107905 0.789091
vt 0.140971 0.785214
vt 0.120760 0.803446
vt 0.086075 0.899131
vt 0.119825 0.907510
vt 0.097677 0.921723
vt 0.052005 0.866758
vt 0.091767 0.858980
vt 0.023895 0.834948
vt 0.053432 0.816760
vt 0.063936 0.829163
vt 0.013810 0.791786
vt 0.064702 0.738426
vt 0.095553 0.774877
vt 0.141664 0.741019
vt 0.126406 0.697868
vt 0.163040 0.718049
vt 0.151276 0.752452
vt 0.184145 0.746965
vt 0.212241 0.775302
vt 0.222560 0.806278
vt 0.234286 0.782891
vt 0.183781 0.869486
vt 0.104470 0.870599
vt 0.265720 0.743873
vt 0.303954 0.643552
vt 0.337460 0.700626
vt 0.200424 0.669478
vt 0.230932 0.705748
vt 0.353512 0.688862
vt 0.270137 0.589103
vt 0.322695 0.628272
vt 0.284881 0.764546
vt 0.151033 0.690830
vt 0.173290 0.640819
vt 0.254960 0.602735
vt 0.211370 0.576504
vt 0.240384 0.497471
vt 0.291829 0.570673
vt 0.295245 0.565869
vt 0.343546 0.611722
vt 0.380947 0.670326
vt 0.429150 0.726499
vt 0.377748 0.677004
vt 0.506001 0.713357
vt 0.350521 0.734043
vt 0.549949 0.675477
vt 0.477478 0.559859
vt 0.561892 0.663910
vt 0.361359 0.597565
vt 0.423396 0.489841
vt 0.450458 0.525061
vt 0.575587 0.654668
vt 0.541991 0.459060
vt 0.538938 0.712287
vt 0.321237 0.561901
vt 0.280884 0.389348
vt 0.322294 0.380035
vt 0.322360 0.387702
vt 0.338025 0.377905
vt 0.344246 0.363285
vt 0.351636 0.365388
vt 0.399708 0.325128
vt 0.364498 0.325237
vt 0.517522 0.409930
vt 0.560608 0.445748
vt 0.603806 0.493055
vt 0.610161 0.495275
vt 0.617890 0.621777
vt 0.586704 0.694133
vt 0.576281 0.660564
vt 0.611716 0.651473
vt 0.555684 0.677365
vt 0.630410 0.477881
vt 0.600680 0.417959
vt 0.645826 0.465841
vt 0.556459 0.375841
vt 0.582024 0.430941
vt 0.705739 0.409529
vt 0.650312 0.327606
vt 0.678835 0.365204
vt 0.644504 0.558751
vt 0.529516 0.387215
vt 0.531401 0.384681
vt 0.483022 0.317618
vt 0.560434 0.316666
vt 0.573251 0.364592
vt 0.628431 0.296071
vt 0.679336 0.283769
vt 0.706197 0.298346
vt 0.734948 0.327467
vt 0.753666 0.368761
vt 0.752302 0.392443
vt 0.719637 0.433627
vt 0.673626 0.487135
vt 0.656860 0.910580
vt 0.671349 0.792859
vt 0.728209 0.857800
vt 0.562443 0.775932
vt 0.604199 0.842728
vt 0.789481 0.794004
vt 0.669604 0.683504
vt 0.729355 0.733331
vt 0.676744 0.999906
vt 0.710083 0.988093
vt 0.558514 0.873653
vt 0.624437 0.947065
vt 0.518625 0.784785
vt 0.622427 0.736297
vt 0.683881 0.642685
vt 0.765465 0.692628
vt 0.829526 0.766600
vt 0.875241 0.824891
vt 0.859401 0.856370
vt 0.792273 0.930568
vt 0.217506 0.350598
vt 0.223194 0.228788
vt 0.276250 0.297327
vt 0.092221 0.220277
vt 0.154230 0.291711
vt 0.342857 0.253614
vt 0.247310 0.099617
vt 0.301361 0.177433
vt 0.271887 0.422511
vt 0.111146 0.334683
vt 0.199169 0.395347
vt 0.000094 0.179122
vt 0.045749 0.247423
vt 0.020407 0.145504
vt 0.161600 0.149524
vt 0.192382 0.011564
vt 0.229992 0.000094
vt 0.285089 0.061156
vt 0.353838 0.146143
vt 0.391226 0.246899
vt 0.313313 0.345524
vt 0.576200 0.494090
vt 0.386837 0.641050
vt 0.161554 0.767034
vt 0.129254 0.770278
vt 0.333257 0.371654
vt 0.566131 0.669106
vt 0.000094 0.813543
vt 0.093483 0.062016
s 1
usemtl マテリアル
f 118/1/1 115/2/2 48/3/3
f 46/4/4 120/5/5 109/6/6
f 117/7/7 111/8/8 51/9/8
f 116/10/9 114/11/10 49/12/11
f 12/13/12 11/14/12 1/15/12
f 13/16/13 46/4/13 110/17/13
f 14/18/14 47/19/14 112/20/14
f 14/18/15 15/21/15 47/19/15
f 47/19/16 16/22/16 50/23/16
f 16/22/17 53/24/17 50/23/17
f 17/25/18 18/26/18 53/24/18
f 113/27/19 18/26/19 19/28/19
f 111/8/20 19/28/20 20/29/20
f 9/30/21 20/29/21 3/31/21
f 10/32/22 51/9/23 9/30/24
f 45/33/25 10/32/26 11/14/27
f 54/34/28 58/35/29 57/36/30
f 56/37/31 58/35/32 55/38/33
f 58/35/34 60/39/34 57/36/34
f 58/35/35 62/40/35 61/41/35
f 3/31/36 54/34/36 23/42/36
f 20/29/37 55/38/37 54/34/37
f 18/26/38 55/38/38 19/28/38
f 4/43/39 56/37/39 18/26/39
f 24/44/40 59/45/41 56/37/42
f 25/46/43 62/40/43 59/45/43
f 26/47/44 27/48/44 62/40/44
f 105/49/45 61/41/45 27/48/45
f 61/41/46 28/50/46 108/51/46
f 21/52/47 29/53/47 7/54/47
f 22/55/48 60/39/48 21/52/48
f 23/42/49 57/36/49 22/55/49
f 63/56/50 103/57/51 66/58/52
f 64/59/53 99/60/54 67/61/55
f 103/57/56 69/62/57 66/58/58
f 99/60/59 70/63/60 67/61/61
f 7/54/62 63/56/62 32/64/62
f 108/51/63 63/56/63 29/53/63
f 28/50/64 106/65/64 64/59/64
f 33/66/65 122/67/65 65/68/65
f 122/67/66 68/69/67 65/68/68
f 68/69/69 123/70/70 71/71/71
f 6/72/72 71/71/72 35/73/72
f 100/74/73 37/75/74 70/63/74
f 69/62/75 102/76/75 38/77/75
f 69/62/76 38/77/76 5/78/76
f 31/79/77 124/80/77 30/81/77
f 125/82/78 31/79/78 32/64/78
f 72/83/79 76/84/79 75/85/79
f 74/86/80 76/84/80 73/87/80
f 76/84/81 78/88/82 75/85/83
f 76/84/84 80/89/85 79/90/86
f 38/77/87 41/91/87 5/78/87
f 102/76/88 73/87/88 72/83/88
f 101/92/89 74/86/89 73/87/89
f 36/93/90 42/94/90 74/86/90
f 74/86/91 43/95/91 77/96/91
f 77/96/92 44/97/93 80/89/94
f 80/89/95 2/98/95 14/99/95
f 79/90/96 14/99/96 13/100/96
f 79/90/97 12/101/97 78/88/97
f 78/88/98 1/102/98 39/103/98
f 75/85/99 39/103/99 40/104/99
f 72/83/100 40/104/100 41/91/100
f 81/105/101 85/106/102 84/107/103
f 83/108/104 85/106/105 82/109/106
f 85/106/107 87/110/108 84/107/109
f 85/106/110 89/111/111 88/112/112
f 3/113/113 81/105/113 9/114/113
f 22/115/114 81/105/114 23/116/114
f 22/115/115 83/108/115 82/109/115
f 7/54/116 83/108/116 21/117/116
f 32/64/117 86/118/118 83/108/118
f 86/118/119 30/81/120 89/111/119
f 89/111/121 5/78/121 41/119/121
f 89/111/122 40/120/122 88/112/122
f 87/110/123 40/120/123 39/121/123
f 87/110/124 1/122/124 11/123/124
f 84/107/125 11/123/27 10/124/26
f 9/114/24 84/107/126 10/124/22
f 90/125/127 94/126/128 93/127/129
f 92/128/130 94/126/131 91/129/132
f 94/126/133 96/130/134 93/127/135
f 94/126/136 98/131/137 97/132/138
f 8/133/139 90/125/139 33/66/139
f 25/134/140 90/125/140 26/135/140
f 25/134/141 92/128/141 91/129/141
f 4/136/142 92/128/142 24/137/142
f 17/138/143 95/139/143 92/128/143
f 95/139/144 15/140/144 98/131/144
f 98/131/145 2/141/145 44/142/145
f 98/131/146 43/143/146 97/132/146
f 96/130/147 43/143/147 42/144/147
f 96/130/148 6/72/148 35/73/148
f 93/127/149 35/73/149 34/145/149
f 33/66/150 93/127/150 34/145/150
f 101/92/151 71/71/151 36/93/151
f 99/60/152 71/71/152 100/74/152
f 103/57/153 70/63/60 104/146/154
f 104/146/155 37/75/155 102/76/155
f 99/60/156 65/68/157 68/69/156
f 105/49/158 65/68/158 106/65/158
f 103/57/159 64/59/53 67/61/55
f 107/147/160 28/50/161 64/59/162
f 117/7/7 52/148/163 111/8/8
f 114/11/164 115/2/165 49/12/166
f 115/2/2 109/6/167 49/12/168
f 118/1/1 46/4/169 109/6/167
f 119/149/170 52/148/171 114/11/172
f 119/149/173 50/23/174 53/24/175
f 109/6/6 116/10/176 49/12/177
f 120/5/5 47/19/178 50/23/179
f 123/70/180 34/145/180 35/73/180
f 122/67/181 34/145/181 121/150/181
f 124/80/182 66/58/182 69/62/182
f 125/82/183 66/58/183 126/151/183
f 48/3/3 45/33/184 118/1/1
f 45/33/184 110/17/185 118/1/1
f 46/4/4 112/20/186 120/5/5
f 51/9/187 48/3/188 117/7/189
f 48/3/188 115/2/190 117/7/189
f 116/10/9 119/149/173 114/11/10
f 12/13/191 45/33/191 11/14/191
f 45/33/192 12/13/192 110/17/192
f 12/13/193 13/16/193 110/17/193
f 46/4/194 13/16/194 112/20/194
f 13/16/195 14/18/195 112/20/195
f 14/18/196 2/152/196 15/21/196
f 47/19/197 15/21/197 16/22/197
f 16/22/198 17/25/198 53/24/198
f 17/25/199 4/43/199 18/26/199
f 19/28/200 52/148/200 113/27/200
f 113/27/201 53/24/201 18/26/201
f 20/29/202 51/9/202 111/8/202
f 111/8/203 52/148/203 19/28/203
f 9/30/204 51/9/204 20/29/204
f 10/32/205 48/3/205 51/9/205
f 45/33/206 48/3/206 10/32/206
f 54/34/28 55/38/207 58/35/29
f 56/37/31 59/45/208 58/35/32
f 58/35/209 61/41/209 60/39/209
f 58/35/210 59/45/210 62/40/210
f 3/31/211 20/29/211 54/34/211
f 20/29/212 19/28/212 55/38/212
f 18/26/213 56/37/213 55/38/213
f 4/43/214 24/44/214 56/37/214
f 24/44/40 25/46/215 59/45/41
f 25/46/216 26/47/216 62/40/216
f 26/47/217 8/133/217 27/48/217
f 28/50/218 61/41/218 105/49/218
f 61/41/219 62/40/219 27/48/219
f 29/53/220 60/39/220 108/51/220
f 60/39/221 61/41/221 108/51/221
f 21/52/222 60/39/222 29/53/222
f 22/55/223 57/36/223 60/39/223
f 23/42/224 54/34/224 57/36/224
f 63/56/50 107/147/225 103/57/51
f 64/59/226 106/65/226 99/60/226
f 103/57/56 104/146/227 69/62/57
f 99/60/228 100/74/228 70/63/228
f 7/54/229 29/53/229 63/56/229
f 63/56/230 125/82/230 32/64/230
f 108/51/231 107/147/231 63/56/231
f 28/50/232 105/49/232 106/65/232
f 65/68/233 27/48/233 8/133/233
f 8/133/234 33/66/234 65/68/234
f 122/67/66 121/150/235 68/69/67
f 68/69/69 121/150/236 123/70/70
f 36/93/237 71/71/237 6/72/237
f 71/71/238 123/70/238 35/73/238
f 100/74/239 101/92/239 37/75/239
f 69/62/240 104/146/240 102/76/240
f 5/78/241 30/81/241 69/62/241
f 30/81/242 124/80/242 69/62/242
f 31/79/243 126/151/243 124/80/243
f 125/82/244 126/151/244 31/79/244
f 72/83/245 73/87/245 76/84/245
f 74/86/246 77/96/246 76/84/246
f 76/84/81 79/90/247 78/88/82
f 76/84/84 77/96/248 80/89/85
f 38/77/249 72/83/249 41/91/249
f 72/83/250 38/77/250 102/76/250
f 102/76/251 37/75/252 73/87/252
f 73/87/252 37/75/252 101/92/253
f 101/92/254 36/93/254 74/86/254
f 36/93/255 6/72/255 42/94/255
f 74/86/256 42/94/256 43/95/256
f 77/96/92 43/95/257 44/97/93
f 80/89/258 44/97/258 2/98/258
f 79/90/259 80/89/259 14/99/259
f 79/90/260 13/100/260 12/101/260
f 78/88/261 12/101/261 1/102/261
f 75/85/262 78/88/262 39/103/262
f 72/83/263 75/85/263 40/104/263
f 81/105/101 82/109/264 85/106/102
f 83/108/104 86/118/265 85/106/105
f 85/106/107 88/112/266 87/110/108
f 85/106/110 86/118/267 89/111/111
f 3/113/268 23/116/268 81/105/268
f 22/115/269 82/109/269 81/105/269
f 22/115/270 21/117/270 83/108/270
f 7/54/271 32/64/271 83/108/271
f 32/64/117 31/79/272 86/118/118
f 86/118/119 31/79/273 30/81/120
f 89/111/274 30/81/274 5/78/274
f 89/111/275 41/119/275 40/120/275
f 87/110/276 88/112/276 40/120/276
f 87/110/277 39/121/277 1/122/277
f 84/107/125 87/110/125 11/123/27
f 9/114/24 81/105/126 84/107/126
f 90/125/127 91/129/278 94/126/128
f 92/128/130 95/139/279 94/126/131
f 94/126/133 97/132/280 96/130/134
f 94/126/136 95/139/281 98/131/137
f 8/133/282 26/135/282 90/125/282
f 25/134/283 91/129/283 90/125/283
f 25/134/284 24/137/284 92/128/284
f 4/136/285 17/138/285 92/128/285
f 17/138/286 16/153/286 95/139/286
f 95/139/287 16/153/287 15/140/287
f 98/131/288 15/140/288 2/141/288
f 98/131/289 44/142/289 43/143/289
f 96/130/290 97/132/290 43/143/290
f 96/130/291 42/144/291 6/72/291
f 93/127/292 96/130/292 35/73/292
f 33/66/293 90/125/293 93/127/293
f 101/92/294 100/74/294 71/71/294
f 99/60/156 68/69/156 71/71/295
f 103/57/153 67/61/61 70/63/60
f 104/146/296 70/63/74 37/75/74
f 99/60/297 106/65/297 65/68/297
f 105/49/298 27/48/298 65/68/298
f 103/57/159 107/147/299 64/59/53
f 107/147/160 108/51/300 28/50/161
f 117/7/7 114/11/164 52/148/163
f 114/11/164 117/7/7 115/2/165
f 115/2/2 118/1/1 109/6/167
f 118/1/1 110/17/185 46/4/169
f 119/149/170 113/27/301 52/148/171
f 53/24/301 113/27/301 119/149/170
f 119/149/173 116/10/9 50/23/174
f 109/6/6 120/5/5 116/10/176
f 50/23/179 116/10/176 120/5/5
f 120/5/5 112/20/186 47/19/186
f 123/70/302 121/150/302 34/145/302
f 122/67/303 33/66/303 34/145/303
f 124/80/304 126/151/304 66/58/304
f 125/82/305 63/56/305 66/58/305
