# Blender 4.4.1
# www.blender.org
mtllib Boss.mtl
o Body_Cube
v -1.000000 -1.000000 -1.000000
v 1.000000 -1.000000 -1.000000
v 1.000000 1.000000 -1.000000
v -1.000000 1.000000 -1.000000
v -1.000000 -1.000000 1.000000
v 1.000000 -1.000000 1.000000
v 1.000000 1.000000 1.000000
v -1.000000 1.000000 1.000000
vn -0.6570 -0.6570 0.3697
vn -0.0000 -0.0000 1.0000
vn -0.9618 0.0638 -0.2661
vn -0.5876 -0.1379 0.7973
vn -0.1354 -0.2904 0.9473
vn -0.2985 -0.6044 0.7387
vn -0.9220 0.3640 0.1321
vn -1.0000 -0.0000 -0.0000
vn -0.0000 -1.0000 -0.0000
vt 0.000000 0.000000
vt 1.000000 1.000000
vt 1.000000 0.000000
vt 0.000000 1.000000
s 1
usemtl Body
f 1/1/1 3/2/2 2/3/3
f 1/1/1 4/4/4 3/2/2
f 5/1/2 6/3/5 7/2/6
f 5/1/2 7/2/6 8/4/7
f 1/1/8 5/3/8 8/2/8
f 1/1/1 8/2/7 4/4/4
f 2/1/3 7/2/6 6/3/5
f 2/1/8 3/4/8 7/2/8
f 4/1/9 7/2/9 3/3/9
f 4/1/4 8/4/7 7/2/6
f 1/1/1 2/3/3 6/2/5
f 1/1/9 6/2/9 5/4/9
o Core_Sphere
v 0.000000 0.600000 -0.000000
v 0.000000 0.600000 -0.000000
v 0.000000 0.600000 -0.000000
v 0.000000 0.600000 -0.000000
v 0.000000 0.600000 -0.000000
v 0.000000 0.600000 -0.000000
v 0.000000 0.600000 -0.000000
v 0.000000 0.600000 -0.000000
v 0.000000 0.600000 -0.000000
v 0.000000 0.600000 -0.000000
v 0.000000 0.600000 -0.000000
v 0.000000 0.600000 -0.000000
v 0.000000 0.600000 -0.000000
v 0.000000 0.600000 -0.000000
v 0.000000 0.600000 -0.000000
v 0.000000 0.600000 -0.000000
v 0.000000 0.600000 -0.000000
v 0.000000 0.600000 -0.000000
v 0.000000 0.600000 -0.000000
v 0.000000 0.600000 -0.000000
v 0.000000 0.600000 -0.000000
v 0.000000 0.600000 -0.000000
v 0.000000 0.600000 -0.000000
v 0.000000 0.600000 -0.000000
v 0.000000 0.600000 -0.000000
v 0.000000 0.600000 -0.000000
v 0.000000 0.600000 -0.000000
v 0.000000 0.600000 -0.000000
v 0.000000 0.600000 -0.000000
v 0.000000 0.600000 -0.000000
v 0.000000 0.600000 -0.000000
v 0.000000 0.600000 -0.000000
v 0.000000 0.600000 -0.000000
v 0.117054 0.588471 -0.000000
v 0.114805 0.588471 0.022836
v 0.108144 0.588471 0.044795
v 0.097327 0.588471 0.065032
v 0.082770 0.588471 0.082770
v 0.065032 0.588471 0.097327
v 0.044795 0.588471 0.108144
v 0.022836 0.588471 0.114805
v 0.000000 0.588471 0.117054
v -0.022836 0.588471 0.114805
v -0.044795 0.588471 0.108144
v -0.065032 0.588471 0.097327
v -0.082770 0.588471 0.082770
v -0.097327 0.588471 0.065032
v -0.108144 0.588471 0.044795
v -0.114805 0.588471 0.022836
v -0.117054 0.588471 -0.000000
v -0.114805 0.588471 -0.022836
v -0.108144 0.588471 -0.044795
v -0.097327 0.588471 -0.065032
v -0.082770 0.588471 -0.082770
v -0.065032 0.588471 -0.097327
v -0.044795 0.588471 -0.108144
v -0.022836 0.588471 -0.114805
v 0.000000 0.588471 -0.117054
v 0.022836 0.588471 -0.114805
v 0.044795 0.588471 -0.108144
v 0.065032 0.588471 -0.097327
v 0.082770 0.588471 -0.082770
v 0.097327 0.588471 -0.065032
v 0.108144 0.588471 -0.044795
v 0.114805 0.588471 -0.022836
v 0.117054 0.588471 -0.000000
v 0.229610 0.554328 -0.000000
v 0.225198 0.554328 0.044795
v 0.212132 0.554328 0.087868
v 0.190914 0.554328 0.127565
v 0.162359 0.554328 0.162359
v 0.127565 0.554328 0.190914
v 0.087868 0.554328 0.212132
v 0.044795 0.554328 0.225198
v 0.000000 0.554328 0.229610
v -0.044795 0.554328 0.225198
v -0.087868 0.554328 0.212132
v -0.127565 0.554328 0.190914
v -0.162359 0.554328 0.162359
v -0.190914 0.554328 0.127565
v -0.212132 0.554328 0.087868
v -0.225198 0.554328 0.044795
v -0.229610 0.554328 -0.000000
v -0.225198 0.554328 -0.044795
v -0.212132 0.554328 -0.087868
v -0.190914 0.554328 -0.127565
v -0.162359 0.554328 -0.162359
v -0.127565 0.554328 -0.190914
v -0.087868 0.554328 -0.212132
v -0.044795 0.554328 -0.225198
v 0.000000 0.554328 -0.229610
v 0.044795 0.554328 -0.225198
v 0.087868 0.554328 -0.212132
v 0.127565 0.554328 -0.190914
v 0.162359 0.554328 -0.162359
v 0.190914 0.554328 -0.127565
v 0.212132 0.554328 -0.087868
v 0.225198 0.554328 -0.044795
v 0.229610 0.554328 -0.000000
v 0.333342 0.498882 -0.000000
v 0.326937 0.498882 0.065032
v 0.307968 0.498882 0.127565
v 0.277164 0.498882 0.185195
v 0.235708 0.498882 0.235708
v 0.185195 0.498882 0.277164
v 0.127565 0.498882 0.307968
v 0.065032 0.498882 0.326937
v 0.000000 0.498882 0.333342
v -0.065032 0.498882 0.326937
v -0.127565 0.498882 0.307968
v -0.185195 0.498882 0.277164
v -0.235708 0.498882 0.235708
v -0.277164 0.498882 0.185195
v -0.307968 0.498882 0.127565
v -0.326937 0.498882 0.065032
v -0.333342 0.498882 -0.000000
v -0.326937 0.498882 -0.065032
v -0.307968 0.498882 -0.127565
v -0.277164 0.498882 -0.185195
v -0.235708 0.498882 -0.235708
v -0.185195 0.498882 -0.277164
v -0.127565 0.498882 -0.307968
v -0.065032 0.498882 -0.326937
v 0.000000 0.498882 -0.333342
v 0.065032 0.498882 -0.326937
v 0.127565 0.498882 -0.307968
v 0.185195 0.498882 -0.277164
v 0.235708 0.498882 -0.235708
v 0.277164 0.498882 -0.185195
v 0.307968 0.498882 -0.127565
v 0.326937 0.498882 -0.065032
v 0.333342 0.498882 -0.000000
v 0.424264 0.424264 -0.000000
v 0.416112 0.424264 0.082770
v 0.391969 0.424264 0.162359
v 0.352763 0.424264 0.235708
v 0.300000 0.424264 0.300000
v 0.235708 0.424264 0.352763
v 0.162359 0.424264 0.391969
v 0.082770 0.424264 0.416112
v 0.000000 0.424264 0.424264
v -0.082770 0.424264 0.416112
v -0.162359 0.424264 0.391969
v -0.235708 0.424264 0.352763
v -0.300000 0.424264 0.300000
v -0.352763 0.424264 0.235708
v -0.391969 0.424264 0.162359
v -0.416112 0.424264 0.082770
v -0.424264 0.424264 -0.000000
v -0.416112 0.424264 -0.082770
v -0.391969 0.424264 -0.162359
v -0.352763 0.424264 -0.235708
v -0.300000 0.424264 -0.300000
v -0.235708 0.424264 -0.352763
v -0.162359 0.424264 -0.391969
v -0.082770 0.424264 -0.416112
v 0.000000 0.424264 -0.424264
v 0.082770 0.424264 -0.416112
v 0.162359 0.424264 -0.391969
v 0.235708 0.424264 -0.352763
v 0.300000 0.424264 -0.300000
v 0.352763 0.424264 -0.235708
v 0.391969 0.424264 -0.162359
v 0.416112 0.424264 -0.082770
v 0.424264 0.424264 -0.000000
v 0.498882 0.333342 -0.000000
v 0.489296 0.333342 0.097327
v 0.460907 0.333342 0.190914
v 0.414805 0.333342 0.277164
v 0.352763 0.333342 0.352763
v 0.277164 0.333342 0.414805
v 0.190914 0.333342 0.460907
v 0.097327 0.333342 0.489296
v 0.000000 0.333342 0.498882
v -0.097327 0.333342 0.489296
v -0.190914 0.333342 0.460907
v -0.277164 0.333342 0.414805
v -0.352763 0.333342 0.352763
v -0.414805 0.333342 0.277164
v -0.460907 0.333342 0.190914
v -0.489296 0.333342 0.097327
v -0.498882 0.333342 -0.000000
v -0.489296 0.333342 -0.097327
v -0.460907 0.333342 -0.190914
v -0.414805 0.333342 -0.277164
v -0.352763 0.333342 -0.352763
v -0.277164 0.333342 -0.414805
v -0.190914 0.333342 -0.460907
v -0.097327 0.333342 -0.489296
v 0.000000 0.333342 -0.498882
v 0.097327 0.333342 -0.489296
v 0.190914 0.333342 -0.460907
v 0.277164 0.333342 -0.414805
v 0.352763 0.333342 -0.352763
v 0.414805 0.333342 -0.277164
v 0.460907 0.333342 -0.190914
v 0.489296 0.333342 -0.097327
v 0.498882 0.333342 -0.000000
v 0.554328 0.229610 -0.000000
v 0.543676 0.229610 0.108144
v 0.512132 0.229610 0.212132
v 0.460907 0.229610 0.307968
v 0.391969 0.229610 0.391969
v 0.307968 0.229610 0.460907
v 0.212132 0.229610 0.512132
v 0.108144 0.229610 0.543676
v 0.000000 0.229610 0.554328
v -0.108144 0.229610 0.543676
v -0.212132 0.229610 0.512132
v -0.307968 0.229610 0.460907
v -0.391969 0.229610 0.391969
v -0.460907 0.229610 0.307968
v -0.512132 0.229610 0.212132
v -0.543676 0.229610 0.108144
v -0.554328 0.229610 -0.000000
v -0.543676 0.229610 -0.108144
v -0.512132 0.229610 -0.212132
v -0.460907 0.229610 -0.307968
v -0.391969 0.229610 -0.391969
v -0.307968 0.229610 -0.460907
v -0.212132 0.229610 -0.512132
v -0.108144 0.229610 -0.543676
v 0.000000 0.229610 -0.554328
v 0.108144 0.229610 -0.543676
v 0.212132 0.229610 -0.512132
v 0.307968 0.229610 -0.460907
v 0.391969 0.229610 -0.391969
v 0.460907 0.229610 -0.307968
v 0.512132 0.229610 -0.212132
v 0.543676 0.229610 -0.108144
v 0.554328 0.229610 -0.000000
v 0.588471 0.117054 -0.000000
v 0.577164 0.117054 0.114805
v 0.543676 0.117054 0.225198
v 0.489296 0.117054 0.326937
v 0.416112 0.117054 0.416112
v 0.326937 0.117054 0.489296
v 0.225198 0.117054 0.543676
v 0.114805 0.117054 0.577164
v 0.000000 0.117054 0.588471
v -0.114805 0.117054 0.577164
v -0.225198 0.117054 0.543676
v -0.326937 0.117054 0.489296
v -0.416112 0.117054 0.416112
v -0.489296 0.117054 0.326937
v -0.543676 0.117054 0.225198
v -0.577164 0.117054 0.114805
v -0.588471 0.117054 -0.000000
v -0.577164 0.117054 -0.114805
v -0.543676 0.117054 -0.225198
v -0.489296 0.117054 -0.326937
v -0.416112 0.117054 -0.416112
v -0.326937 0.117054 -0.489296
v -0.225198 0.117054 -0.543676
v -0.114805 0.117054 -0.577164
v 0.000000 0.117054 -0.588471
v 0.114805 0.117054 -0.577164
v 0.225198 0.117054 -0.543676
v 0.326937 0.117054 -0.489296
v 0.416112 0.117054 -0.416112
v 0.489296 0.117054 -0.326937
v 0.543676 0.117054 -0.225198
v 0.577164 0.117054 -0.114805
v 0.588471 0.117054 -0.000000
v 0.600000 0.000000 0.000000
v 0.588471 0.000000 0.117054
v 0.554328 0.000000 0.229610
v 0.498882 0.000000 0.333342
v 0.424264 0.000000 0.424264
v 0.333342 0.000000 0.498882
v 0.229610 0.000000 0.554328
v 0.117054 0.000000 0.588471
v 0.000000 0.000000 0.600000
v -0.117054 0.000000 0.588471
v -0.229610 0.000000 0.554328
v -0.333342 0.000000 0.498882
v -0.424264 0.000000 0.424264
v -0.498882 0.000000 0.333342
v -0.554328 0.000000 0.229610
v -0.588471 0.000000 0.117054
v -0.600000 0.000000 0.000000
v -0.588471 -0.000000 -0.117054
v -0.554328 -0.000000 -0.229610
v -0.498882 -0.000000 -0.333342
v -0.424264 -0.000000 -0.424264
v -0.333342 -0.000000 -0.498882
v -0.229610 -0.000000 -0.554328
v -0.117054 -0.000000 -0.588471
v 0.000000 -0.000000 -0.600000
v 0.117054 -0.000000 -0.588471
v 0.229610 -0.000000 -0.554328
v 0.333342 -0.000000 -0.498882
v 0.424264 -0.000000 -0.424264
v 0.498882 -0.000000 -0.333342
v 0.554328 -0.000000 -0.229610
v 0.588471 -0.000000 -0.117054
v 0.600000 0.000000 0.000000
v 0.588471 -0.117054 0.000000
v 0.577164 -0.117054 0.114805
v 0.543676 -0.117054 0.225198
v 0.489296 -0.117054 0.326937
v 0.416112 -0.117054 0.416112
v 0.326937 -0.117054 0.489296
v 0.225198 -0.117054 0.543676
v 0.114805 -0.117054 0.577164
v 0.000000 -0.117054 0.588471
v -0.114805 -0.117054 0.577164
v -0.225198 -0.117054 0.543676
v -0.326937 -0.117054 0.489296
v -0.416112 -0.117054 0.416112
v -0.489296 -0.117054 0.326937
v -0.543676 -0.117054 0.225198
v -0.577164 -0.117054 0.114805
v -0.588471 -0.117054 0.000000
v -0.577164 -0.117054 -0.114805
v -0.543676 -0.117054 -0.225198
v -0.489296 -0.117054 -0.326937
v -0.416112 -0.117054 -0.416112
v -0.326937 -0.117054 -0.489296
v -0.225198 -0.117054 -0.543676
v -0.114805 -0.117054 -0.577164
v 0.000000 -0.117054 -0.588471
v 0.114805 -0.117054 -0.577164
v 0.225198 -0.117054 -0.543676
v 0.326937 -0.117054 -0.489296
v 0.416112 -0.117054 -0.416112
v 0.489296 -0.117054 -0.326937
v 0.543676 -0.117054 -0.225198
v 0.577164 -0.117054 -0.114805
v 0.588471 -0.117054 0.000000
v 0.554328 -0.229610 0.000000
v 0.543676 -0.229610 0.108144
v 0.512132 -0.229610 0.212132
v 0.460907 -0.229610 0.307968
v 0.391969 -0.229610 0.391969
v 0.307968 -0.229610 0.460907
v 0.212132 -0.229610 0.512132
v 0.108144 -0.229610 0.543676
v 0.000000 -0.229610 0.554328
v -0.108144 -0.229610 0.543676
v -0.212132 -0.229610 0.512132
v -0.307968 -0.229610 0.460907
v -0.391969 -0.229610 0.391969
v -0.460907 -0.229610 0.307968
v -0.512132 -0.229610 0.212132
v -0.543676 -0.229610 0.108144
v -0.554328 -0.229610 0.000000
v -0.543676 -0.229610 -0.108144
v -0.512132 -0.229610 -0.212132
v -0.460907 -0.229610 -0.307968
v -0.391969 -0.229610 -0.391969
v -0.307968 -0.229610 -0.460907
v -0.212132 -0.229610 -0.512132
v -0.108144 -0.229610 -0.543676
v 0.000000 -0.229610 -0.554328
v 0.108144 -0.229610 -0.543676
v 0.212132 -0.229610 -0.512132
v 0.307968 -0.229610 -0.460907
v 0.391969 -0.229610 -0.391969
v 0.460907 -0.229610 -0.307968
v 0.512132 -0.229610 -0.212132
v 0.543676 -0.229610 -0.108144
v 0.554328 -0.229610 0.000000
v 0.498882 -0.333342 0.000000
v 0.489296 -0.333342 0.097327
v 0.460907 -0.333342 0.190914
v 0.414805 -0.333342 0.277164
v 0.352763 -0.333342 0.352763
v 0.277164 -0.333342 0.414805
v 0.190914 -0.333342 0.460907
v 0.097327 -0.333342 0.489296
v 0.000000 -0.333342 0.498882
v -0.097327 -0.333342 0.489296
v -0.190914 -0.333342 0.460907
v -0.277164 -0.333342 0.414805
v -0.352763 -0.333342 0.352763
v -0.414805 -0.333342 0.277164
v -0.460907 -0.333342 0.190914
v -0.489296 -0.333342 0.097327
v -0.498882 -0.333342 0.000000
v -0.489296 -0.333342 -0.097327
v -0.460907 -0.333342 -0.190914
v -0.414805 -0.333342 -0.277164
v -0.352763 -0.333342 -0.352763
v -0.277164 -0.333342 -0.414805
v -0.190914 -0.333342 -0.460907
v -0.097327 -0.333342 -0.489296
v 0.000000 -0.333342 -0.498882
v 0.097327 -0.333342 -0.489296
v 0.190914 -0.333342 -0.460907
v 0.277164 -0.333342 -0.414805
v 0.352763 -0.333342 -0.352763
v 0.414805 -0.333342 -0.277164
v 0.460907 -0.333342 -0.190914
v 0.489296 -0.333342 -0.097327
v 0.498882 -0.333342 0.000000
v 0.424264 -0.424264 0.000000
v 0.416112 -0.424264 0.082770
v 0.391969 -0.424264 0.162359
v 0.352763 -0.424264 0.235708
v 0.300000 -0.424264 0.300000
v 0.235708 -0.424264 0.352763
v 0.162359 -0.424264 0.391969
v 0.082770 -0.424264 0.416112
v 0.000000 -0.424264 0.424264
v -0.082770 -0.424264 0.416112
v -0.162359 -0.424264 0.391969
v -0.235708 -0.424264 0.352763
v -0.300000 -0.424264 0.300000
v -0.352763 -0.424264 0.235708
v -0.391969 -0.424264 0.162359
v -0.416112 -0.424264 0.082770
v -0.424264 -0.424264 0.000000
v -0.416112 -0.424264 -0.082770
v -0.391969 -0.424264 -0.162359
v -0.352763 -0.424264 -0.235708
v -0.300000 -0.424264 -0.300000
v -0.235708 -0.424264 -0.352763
v -0.162359 -0.424264 -0.391969
v -0.082770 -0.424264 -0.416112
v 0.000000 -0.424264 -0.424264
v 0.082770 -0.424264 -0.416112
v 0.162359 -0.424264 -0.391969
v 0.235708 -0.424264 -0.352763
v 0.300000 -0.424264 -0.300000
v 0.352763 -0.424264 -0.235708
v 0.391969 -0.424264 -0.162359
v 0.416112 -0.424264 -0.082770
v 0.424264 -0.424264 0.000000
v 0.333342 -0.498882 0.000000
v 0.326937 -0.498882 0.065032
v 0.307968 -0.498882 0.127565
v 0.277164 -0.498882 0.185195
v 0.235708 -0.498882 0.235708
v 0.185195 -0.498882 0.277164
v 0.127565 -0.498882 0.307968
v 0.065032 -0.498882 0.326937
v 0.000000 -0.498882 0.333342
v -0.065032 -0.498882 0.326937
v -0.127565 -0.498882 0.307968
v -0.185195 -0.498882 0.277164
v -0.235708 -0.498882 0.235708
v -0.277164 -0.498882 0.185195
v -0.307968 -0.498882 0.127565
v -0.326937 -0.498882 0.065032
v -0.333342 -0.498882 0.000000
v -0.326937 -0.498882 -0.065032
v -0.307968 -0.498882 -0.127565
v -0.277164 -0.498882 -0.185195
v -0.235708 -0.498882 -0.235708
v -0.185195 -0.498882 -0.277164
v -0.127565 -0.498882 -0.307968
v -0.065032 -0.498882 -0.326937
v 0.000000 -0.498882 -0.333342
v 0.065032 -0.498882 -0.326937
v 0.127565 -0.498882 -0.307968
v 0.185195 -0.498882 -0.277164
v 0.235708 -0.498882 -0.235708
v 0.277164 -0.498882 -0.185195
v 0.307968 -0.498882 -0.127565
v 0.326937 -0.498882 -0.065032
v 0.333342 -0.498882 0.000000
v 0.229610 -0.554328 0.000000
v 0.225198 -0.554328 0.044795
v 0.212132 -0.554328 0.087868
v 0.190914 -0.554328 0.127565
v 0.162359 -0.554328 0.162359
v 0.127565 -0.554328 0.190914
v 0.087868 -0.554328 0.212132
v 0.044795 -0.554328 0.225198
v 0.000000 -0.554328 0.229610
v -0.044795 -0.554328 0.225198
v -0.087868 -0.554328 0.212132
v -0.127565 -0.554328 0.190914
v -0.162359 -0.554328 0.162359
v -0.190914 -0.554328 0.127565
v -0.212132 -0.554328 0.087868
v -0.225198 -0.554328 0.044795
v -0.229610 -0.554328 0.000000
v -0.225198 -0.554328 -0.044795
v -0.212132 -0.554328 -0.087868
v -0.190914 -0.554328 -0.127565
v -0.162359 -0.554328 -0.162359
v -0.127565 -0.554328 -0.190914
v -0.087868 -0.554328 -0.212132
v -0.044795 -0.554328 -0.225198
v 0.000000 -0.554328 -0.229610
v 0.044795 -0.554328 -0.225198
v 0.087868 -0.554328 -0.212132
v 0.127565 -0.554328 -0.190914
v 0.162359 -0.554328 -0.162359
v 0.190914 -0.554328 -0.127565
v 0.212132 -0.554328 -0.087868
v 0.225198 -0.554328 -0.044795
v 0.229610 -0.554328 0.000000
v 0.117054 -0.588471 0.000000
v 0.114805 -0.588471 0.022836
v 0.108144 -0.588471 0.044795
v 0.097327 -0.588471 0.065032
v 0.082770 -0.588471 0.082770
v 0.065032 -0.588471 0.097327
v 0.044795 -0.588471 0.108144
v 0.022836 -0.588471 0.114805
v 0.000000 -0.588471 0.117054
v -0.022836 -0.588471 0.114805
v -0.044795 -0.588471 0.108144
v -0.065032 -0.588471 0.097327
v -0.082770 -0.588471 0.082770
v -0.097327 -0.588471 0.065032
v -0.108144 -0.588471 0.044795
v -0.114805 -0.588471 0.022836
v -0.117054 -0.588471 0.000000
v -0.114805 -0.588471 -0.022836
v -0.108144 -0.588471 -0.044795
v -0.097327 -0.588471 -0.065032
v -0.082770 -0.588471 -0.082770
v -0.065032 -0.588471 -0.097327
v -0.044795 -0.588471 -0.108144
v -0.022836 -0.588471 -0.114805
v 0.000000 -0.588471 -0.117054
v 0.022836 -0.588471 -0.114805
v 0.044795 -0.588471 -0.108144
v 0.065032 -0.588471 -0.097327
v 0.082770 -0.588471 -0.082770
v 0.097327 -0.588471 -0.065032
v 0.108144 -0.588471 -0.044795
v 0.114805 -0.588471 -0.022836
v 0.117054 -0.588471 0.000000
v 0.000000 -0.600000 0.000000
v 0.000000 -0.600000 0.000000
v 0.000000 -0.600000 0.000000
v 0.000000 -0.600000 0.000000
v 0.000000 -0.600000 0.000000
v 0.000000 -0.600000 0.000000
v 0.000000 -0.600000 0.000000
v 0.000000 -0.600000 0.000000
v 0.000000 -0.600000 0.000000
v 0.000000 -0.600000 0.000000
v 0.000000 -0.600000 0.000000
v 0.000000 -0.600000 0.000000
v 0.000000 -0.600000 0.000000
v 0.000000 -0.600000 0.000000
v 0.000000 -0.600000 0.000000
v 0.000000 -0.600000 0.000000
v 0.000000 -0.600000 0.000000
v 0.000000 -0.600000 0.000000
v 0.000000 -0.600000 0.000000
v 0.000000 -0.600000 0.000000
v 0.000000 -0.600000 0.000000
v 0.000000 -0.600000 0.000000
v 0.000000 -0.600000 0.000000
v 0.000000 -0.600000 0.000000
v 0.000000 -0.600000 0.000000
v 0.000000 -0.600000 0.000000
v 0.000000 -0.600000 0.000000
v 0.000000 -0.600000 0.000000
v 0.000000 -0.600000 0.000000
v 0.000000 -0.600000 0.000000
v 0.000000 -0.600000 0.000000
v 0.000000 -0.600000 0.000000
v 0.000000 -0.600000 0.000000
vn -0.0000 -0.0000 1.0000
vn -0.0000 1.0000 0.0001
vn 0.1912 0.9808 0.0381
vn -0.0000 1.0000 -0.0000
vn 0.1914 0.9808 0.0381
vn 0.1951 0.9808 -0.0000
vn 0.0001 1.0000 0.0001
vn 0.1801 0.9808 0.0746
vn 0.1803 0.9808 0.0747
vn -0.0000 -0.0000 -1.0000
vn -0.0000 1.0000 -0.0001
vn 0.1621 0.9808 0.1083
vn 0.1622 0.9808 0.1084
vn 0.1380 0.9808 0.1379
vn 0.1380 0.9808 0.1380
vn 0.1084 0.9808 0.1622
vn -0.0001 1.0000 0.0001
vn 0.0746 0.9808 0.1802
vn 0.0747 0.9808 0.1803
vn 0.0381 0.9808 0.1913
vn 0.0381 0.9808 0.1914
vn -0.0000 0.9808 0.1951
vn -0.0381 0.9808 0.1913
vn -0.0381 0.9808 0.1914
vn -0.0746 0.9808 0.1802
vn -0.0747 0.9808 0.1803
vn -0.0001 1.0000 -0.0000
vn -0.1084 0.9808 0.1622
vn -0.1380 0.9808 0.1379
vn -0.1380 0.9808 0.1380
vn -0.1621 0.9808 0.1083
vn -0.1622 0.9808 0.1084
vn -0.1801 0.9808 0.0746
vn -0.1803 0.9808 0.0747
vn -0.1912 0.9808 0.0381
vn -0.1914 0.9808 0.0381
vn -0.1950 0.9808 -0.0000
vn -0.1951 0.9808 -0.0000
vn -0.1912 0.9808 -0.0380
vn -0.1914 0.9808 -0.0381
vn -0.1801 0.9808 -0.0747
vn -0.1803 0.9808 -0.0747
vn -0.1621 0.9808 -0.1083
vn -0.1622 0.9808 -0.1084
vn -0.1380 0.9808 -0.1380
vn -0.1084 0.9808 -0.1622
vn -0.0746 0.9808 -0.1802
vn -0.0747 0.9808 -0.1803
vn -0.0381 0.9808 -0.1914
vn -0.0000 0.9808 -0.1951
vn 0.0381 0.9808 -0.1914
vn 0.0746 0.9808 -0.1802
vn 0.0747 0.9808 -0.1803
vn 0.1084 0.9808 -0.1622
vn 0.1380 0.9808 -0.1380
vn 0.1621 0.9808 -0.1083
vn 0.1622 0.9808 -0.1084
vn 0.0001 1.0000 -0.0000
vn 0.1801 0.9808 -0.0747
vn 0.1803 0.9808 -0.0747
vn 0.1912 0.9808 -0.0380
vn 0.1914 0.9808 -0.0381
vn 0.1950 0.9808 -0.0000
vn 0.3754 0.9239 0.0747
vn 0.3827 0.9239 -0.0000
vn 0.3535 0.9239 0.1464
vn 0.3182 0.9239 0.2126
vn 0.2706 0.9239 0.2706
vn 0.2126 0.9239 0.3182
vn 0.1464 0.9239 0.3535
vn 0.0747 0.9239 0.3753
vn -0.0000 0.9239 0.3827
vn -0.0747 0.9239 0.3754
vn -0.1464 0.9239 0.3535
vn -0.2126 0.9239 0.3182
vn -0.2706 0.9239 0.2706
vn -0.3182 0.9239 0.2126
vn -0.3535 0.9239 0.1464
vn -0.3753 0.9239 0.0747
vn -0.3827 0.9239 -0.0000
vn -0.3754 0.9239 -0.0747
vn -0.3535 0.9239 -0.1464
vn -0.3182 0.9239 -0.2126
vn -0.2706 0.9239 -0.2706
vn -0.2126 0.9239 -0.3182
vn -0.1464 0.9239 -0.3535
vn -0.0747 0.9239 -0.3753
vn -0.0000 0.9239 -0.3827
vn 0.0747 0.9239 -0.3754
vn 0.1464 0.9239 -0.3535
vn 0.2126 0.9239 -0.3182
vn 0.2706 0.9239 -0.2706
vn 0.3182 0.9239 -0.2126
vn 0.3535 0.9239 -0.1464
vn 0.3753 0.9239 -0.0747
vn 0.5449 0.8314 0.1084
vn 0.5556 0.8315 -0.0000
vn 0.5133 0.8315 0.2126
vn 0.4619 0.8315 0.3087
vn 0.3928 0.8315 0.3928
vn 0.3087 0.8315 0.4619
vn 0.2126 0.8315 0.5133
vn 0.1084 0.8314 0.5449
vn -0.0000 0.8315 0.5556
vn -0.1084 0.8315 0.5449
vn -0.2126 0.8314 0.5133
vn -0.3087 0.8315 0.4619
vn -0.3928 0.8315 0.3928
vn -0.4619 0.8315 0.3087
vn -0.5133 0.8315 0.2126
vn -0.5449 0.8314 0.1084
vn -0.5556 0.8315 -0.0000
vn -0.5449 0.8314 -0.1084
vn -0.5133 0.8315 -0.2126
vn -0.4619 0.8315 -0.3087
vn -0.3928 0.8315 -0.3928
vn -0.3087 0.8315 -0.4619
vn -0.2126 0.8315 -0.5133
vn -0.1084 0.8314 -0.5449
vn -0.0000 0.8315 -0.5556
vn 0.1084 0.8315 -0.5449
vn 0.2126 0.8314 -0.5133
vn 0.3087 0.8315 -0.4619
vn 0.3928 0.8315 -0.3928
vn 0.4619 0.8315 -0.3087
vn 0.5133 0.8315 -0.2126
vn 0.5449 0.8314 -0.1084
vn 0.6935 0.7071 0.1380
vn 0.7071 0.7071 -0.0000
vn 0.6533 0.7071 0.2706
vn 0.5880 0.7071 0.3929
vn 0.5000 0.7071 0.5000
vn 0.3929 0.7071 0.5880
vn 0.2706 0.7071 0.6533
vn 0.1380 0.7071 0.6935
vn -0.0000 0.7071 0.7071
vn -0.1380 0.7071 0.6935
vn -0.2706 0.7071 0.6533
vn -0.3929 0.7071 0.5880
vn -0.5000 0.7071 0.5000
vn -0.5880 0.7071 0.3929
vn -0.6533 0.7071 0.2706
vn -0.6935 0.7071 0.1380
vn -0.7071 0.7071 -0.0000
vn -0.6935 0.7071 -0.1380
vn -0.6533 0.7071 -0.2706
vn -0.5880 0.7071 -0.3929
vn -0.5000 0.7071 -0.5000
vn -0.3929 0.7071 -0.5880
vn -0.2706 0.7071 -0.6533
vn -0.1380 0.7071 -0.6935
vn -0.0000 0.7071 -0.7071
vn 0.1380 0.7071 -0.6935
vn 0.2706 0.7071 -0.6533
vn 0.3929 0.7071 -0.5880
vn 0.5000 0.7071 -0.5000
vn 0.5880 0.7071 -0.3929
vn 0.6533 0.7071 -0.2706
vn 0.6935 0.7071 -0.1380
vn 0.8155 0.5556 0.1622
vn 0.8315 0.5556 -0.0000
vn 0.7682 0.5556 0.3182
vn 0.6913 0.5556 0.4619
vn 0.5879 0.5556 0.5879
vn 0.4619 0.5556 0.6913
vn 0.3182 0.5556 0.7682
vn 0.1622 0.5556 0.8155
vn -0.0000 0.5555 0.8315
vn -0.1622 0.5556 0.8155
vn -0.3182 0.5555 0.7682
vn -0.4619 0.5556 0.6913
vn -0.5879 0.5556 0.5879
vn -0.6913 0.5556 0.4619
vn -0.7682 0.5556 0.3182
vn -0.8155 0.5556 0.1622
vn -0.8315 0.5555 -0.0000
vn -0.8155 0.5556 -0.1622
vn -0.7682 0.5556 -0.3182
vn -0.6913 0.5556 -0.4619
vn -0.5879 0.5556 -0.5879
vn -0.4619 0.5556 -0.6913
vn -0.3182 0.5556 -0.7682
vn -0.1622 0.5556 -0.8155
vn -0.0000 0.5555 -0.8315
vn 0.1622 0.5556 -0.8155
vn 0.3182 0.5555 -0.7682
vn 0.4619 0.5556 -0.6913
vn 0.5879 0.5556 -0.5879
vn 0.6913 0.5556 -0.4619
vn 0.7682 0.5556 -0.3182
vn 0.8155 0.5556 -0.1622
vn 0.9062 0.3826 0.1802
vn 0.9239 0.3827 -0.0000
vn 0.8536 0.3827 0.3536
vn 0.7682 0.3827 0.5133
vn 0.6533 0.3827 0.6533
vn 0.5133 0.3827 0.7682
vn 0.3536 0.3826 0.8536
vn 0.1802 0.3827 0.9061
vn -0.0000 0.3827 0.9239
vn -0.1802 0.3827 0.9061
vn -0.3536 0.3827 0.8536
vn -0.5133 0.3827 0.7682
vn -0.6533 0.3827 0.6533
vn -0.7682 0.3827 0.5133
vn -0.8536 0.3827 0.3536
vn -0.9062 0.3826 0.1802
vn -0.9239 0.3827 -0.0000
vn -0.9062 0.3826 -0.1802
vn -0.8536 0.3827 -0.3536
vn -0.7682 0.3827 -0.5133
vn -0.6533 0.3827 -0.6533
vn -0.5133 0.3827 -0.7682
vn -0.3536 0.3826 -0.8536
vn -0.1802 0.3827 -0.9061
vn -0.0000 0.3827 -0.9239
vn 0.1802 0.3827 -0.9061
vn 0.3536 0.3827 -0.8536
vn 0.5133 0.3827 -0.7682
vn 0.6533 0.3827 -0.6533
vn 0.7682 0.3827 -0.5133
vn 0.8536 0.3827 -0.3536
vn 0.9062 0.3826 -0.1802
vn 0.9619 0.1951 0.1913
vn 0.9808 0.1951 -0.0000
vn 0.9061 0.1950 0.3753
vn 0.8155 0.1951 0.5449
vn 0.6935 0.1950 0.6935
vn 0.5449 0.1951 0.8155
vn 0.3753 0.1950 0.9061
vn 0.1913 0.1950 0.9620
vn -0.0000 0.1951 0.9808
vn -0.1913 0.1950 0.9619
vn -0.3753 0.1949 0.9062
vn -0.5449 0.1951 0.8155
vn -0.6935 0.1950 0.6935
vn -0.8155 0.1950 0.5449
vn -0.9061 0.1950 0.3753
vn -0.9619 0.1951 0.1913
vn -0.9808 0.1951 -0.0000
vn -0.9619 0.1951 -0.1913
vn -0.9061 0.1950 -0.3753
vn -0.8155 0.1951 -0.5449
vn -0.6935 0.1950 -0.6935
vn -0.5449 0.1951 -0.8155
vn -0.3753 0.1950 -0.9061
vn -0.1913 0.1950 -0.9620
vn -0.0000 0.1951 -0.9808
vn 0.1913 0.1950 -0.9619
vn 0.3753 0.1949 -0.9062
vn 0.5449 0.1951 -0.8155
vn 0.6935 0.1950 -0.6935
vn 0.8155 0.1950 -0.5449
vn 0.9061 0.1950 -0.3753
vn 0.9619 0.1951 -0.1913
vn 0.9808 -0.0000 0.1951
vn 1.0000 -0.0000 -0.0000
vn 0.9239 -0.0000 0.3827
vn 0.8315 -0.0000 0.5556
vn 0.7071 -0.0000 0.7071
vn 0.5556 -0.0000 0.8315
vn 0.3827 -0.0000 0.9239
vn 0.1951 -0.0000 0.9808
vn -0.1951 -0.0000 0.9808
vn -0.3827 -0.0000 0.9239
vn -0.5556 -0.0000 0.8315
vn -0.7071 -0.0000 0.7071
vn -0.8315 -0.0000 0.5556
vn -0.9239 -0.0000 0.3827
vn -0.9808 -0.0000 0.1951
vn -1.0000 -0.0000 -0.0000
vn -0.9808 -0.0000 -0.1951
vn -0.9239 -0.0000 -0.3827
vn -0.8315 -0.0000 -0.5556
vn -0.7071 -0.0000 -0.7071
vn -0.5556 -0.0000 -0.8315
vn -0.3827 -0.0000 -0.9239
vn -0.1951 -0.0000 -0.9808
vn 0.1951 -0.0000 -0.9808
vn 0.3827 -0.0000 -0.9239
vn 0.5556 -0.0000 -0.8315
vn 0.7071 -0.0000 -0.7071
vn 0.8315 -0.0000 -0.5556
vn 0.9239 -0.0000 -0.3827
vn 0.9808 -0.0000 -0.1951
vn 0.9619 -0.1951 0.1913
vn 0.9808 -0.1951 -0.0000
vn 0.9061 -0.1950 0.3753
vn 0.8155 -0.1951 0.5449
vn 0.6935 -0.1950 0.6935
vn 0.5449 -0.1950 0.8155
vn 0.3753 -0.1950 0.9061
vn 0.1913 -0.1950 0.9619
vn -0.0000 -0.1951 0.9808
vn -0.1913 -0.1950 0.9620
vn -0.3753 -0.1951 0.9061
vn -0.5449 -0.1951 0.8155
vn -0.6935 -0.1950 0.6935
vn -0.8155 -0.1950 0.5449
vn -0.9061 -0.1950 0.3753
vn -0.9619 -0.1951 0.1913
vn -0.9808 -0.1951 -0.0000
vn -0.9619 -0.1951 -0.1913
vn -0.9061 -0.1950 -0.3753
vn -0.8155 -0.1951 -0.5449
vn -0.6935 -0.1950 -0.6935
vn -0.5449 -0.1950 -0.8155
vn -0.3753 -0.1950 -0.9061
vn -0.1913 -0.1950 -0.9619
vn -0.0000 -0.1951 -0.9808
vn 0.1913 -0.1950 -0.9620
vn 0.3753 -0.1951 -0.9061
vn 0.5449 -0.1951 -0.8155
vn 0.6935 -0.1950 -0.6935
vn 0.8155 -0.1950 -0.5449
vn 0.9061 -0.1950 -0.3753
vn 0.9619 -0.1951 -0.1913
vn 0.9061 -0.3827 0.1802
vn 0.9239 -0.3827 -0.0000
vn 0.8536 -0.3827 0.3536
vn 0.7682 -0.3827 0.5133
vn 0.6533 -0.3827 0.6533
vn 0.5133 -0.3827 0.7682
vn 0.3536 -0.3826 0.8536
vn 0.1802 -0.3827 0.9061
vn -0.0000 -0.3827 0.9239
vn -0.1802 -0.3827 0.9061
vn -0.3536 -0.3826 0.8536
vn -0.5133 -0.3827 0.7682
vn -0.6533 -0.3827 0.6533
vn -0.7682 -0.3827 0.5133
vn -0.8536 -0.3826 0.3536
vn -0.9061 -0.3827 0.1802
vn -0.9239 -0.3827 -0.0000
vn -0.9061 -0.3827 -0.1802
vn -0.8536 -0.3827 -0.3536
vn -0.7682 -0.3827 -0.5133
vn -0.6533 -0.3827 -0.6533
vn -0.5133 -0.3827 -0.7682
vn -0.3536 -0.3826 -0.8536
vn -0.1802 -0.3827 -0.9061
vn -0.0000 -0.3827 -0.9239
vn 0.1802 -0.3827 -0.9061
vn 0.3536 -0.3826 -0.8536
vn 0.5133 -0.3827 -0.7682
vn 0.6533 -0.3827 -0.6533
vn 0.7682 -0.3827 -0.5133
vn 0.8536 -0.3826 -0.3536
vn 0.9061 -0.3827 -0.1802
vn 0.8155 -0.5556 0.1622
vn 0.8315 -0.5556 -0.0000
vn 0.7682 -0.5556 0.3182
vn 0.6913 -0.5556 0.4619
vn 0.5879 -0.5556 0.5879
vn 0.4619 -0.5556 0.6913
vn 0.3182 -0.5556 0.7682
vn 0.1622 -0.5556 0.8155
vn -0.0000 -0.5556 0.8315
vn -0.1622 -0.5556 0.8155
vn -0.3182 -0.5556 0.7682
vn -0.4620 -0.5555 0.6914
vn -0.5879 -0.5556 0.5879
vn -0.6913 -0.5556 0.4619
vn -0.7682 -0.5556 0.3182
vn -0.8155 -0.5555 0.1622
vn -0.8315 -0.5555 -0.0000
vn -0.8155 -0.5556 -0.1622
vn -0.7682 -0.5556 -0.3182
vn -0.6913 -0.5556 -0.4619
vn -0.5879 -0.5556 -0.5879
vn -0.4619 -0.5556 -0.6913
vn -0.3182 -0.5556 -0.7682
vn -0.1622 -0.5556 -0.8155
vn -0.0000 -0.5556 -0.8315
vn 0.1622 -0.5556 -0.8155
vn 0.3182 -0.5556 -0.7682
vn 0.4620 -0.5555 -0.6914
vn 0.5879 -0.5556 -0.5879
vn 0.6913 -0.5556 -0.4619
vn 0.7682 -0.5556 -0.3182
vn 0.8155 -0.5555 -0.1622
vn 0.6935 -0.7071 0.1380
vn 0.7071 -0.7071 -0.0000
vn 0.6533 -0.7071 0.2706
vn 0.5879 -0.7071 0.3928
vn 0.5000 -0.7071 0.5000
vn 0.3929 -0.7071 0.5880
vn 0.2706 -0.7071 0.6533
vn 0.1380 -0.7071 0.6935
vn -0.0000 -0.7071 0.7071
vn -0.1380 -0.7071 0.6935
vn -0.2706 -0.7071 0.6533
vn -0.3929 -0.7071 0.5880
vn -0.5000 -0.7071 0.5000
vn -0.5880 -0.7071 0.3929
vn -0.6533 -0.7071 0.2706
vn -0.6935 -0.7071 0.1379
vn -0.7071 -0.7071 -0.0000
vn -0.6935 -0.7071 -0.1380
vn -0.6533 -0.7071 -0.2706
vn -0.5879 -0.7071 -0.3928
vn -0.5000 -0.7071 -0.5000
vn -0.3929 -0.7071 -0.5880
vn -0.2706 -0.7071 -0.6533
vn -0.1380 -0.7071 -0.6935
vn -0.0000 -0.7071 -0.7071
vn 0.1380 -0.7071 -0.6935
vn 0.2706 -0.7071 -0.6533
vn 0.3929 -0.7071 -0.5880
vn 0.5000 -0.7071 -0.5000
vn 0.5880 -0.7071 -0.3929
vn 0.6533 -0.7071 -0.2706
vn 0.6935 -0.7071 -0.1379
vn 0.5449 -0.8314 0.1084
vn 0.5556 -0.8315 -0.0000
vn 0.5133 -0.8315 0.2126
vn 0.4619 -0.8315 0.3087
vn 0.3928 -0.8315 0.3928
vn 0.3087 -0.8315 0.4619
vn 0.2126 -0.8315 0.5133
vn 0.1084 -0.8315 0.5449
vn -0.0000 -0.8314 0.5556
vn -0.1084 -0.8315 0.5449
vn -0.2126 -0.8315 0.5133
vn -0.3087 -0.8315 0.4619
vn -0.3928 -0.8315 0.3928
vn -0.4619 -0.8315 0.3087
vn -0.5133 -0.8315 0.2126
vn -0.5449 -0.8314 0.1084
vn -0.5556 -0.8314 -0.0000
vn -0.5449 -0.8314 -0.1084
vn -0.5133 -0.8315 -0.2126
vn -0.4619 -0.8315 -0.3087
vn -0.3928 -0.8315 -0.3928
vn -0.3087 -0.8315 -0.4619
vn -0.2126 -0.8315 -0.5133
vn -0.1084 -0.8315 -0.5449
vn -0.0000 -0.8314 -0.5556
vn 0.1084 -0.8315 -0.5449
vn 0.2126 -0.8315 -0.5133
vn 0.3087 -0.8315 -0.4619
vn 0.3928 -0.8315 -0.3928
vn 0.4619 -0.8315 -0.3087
vn 0.5133 -0.8315 -0.2126
vn 0.5449 -0.8314 -0.1084
vn 0.3753 -0.9239 0.0747
vn 0.3827 -0.9239 -0.0000
vn 0.3536 -0.9239 0.1465
vn 0.3182 -0.9239 0.2126
vn 0.2706 -0.9239 0.2706
vn 0.2126 -0.9239 0.3182
vn 0.1464 -0.9239 0.3535
vn 0.0747 -0.9239 0.3754
vn -0.0000 -0.9239 0.3827
vn -0.0747 -0.9239 0.3753
vn -0.1464 -0.9239 0.3535
vn -0.2126 -0.9239 0.3182
vn -0.2706 -0.9239 0.2706
vn -0.3182 -0.9239 0.2126
vn -0.3536 -0.9239 0.1465
vn -0.3753 -0.9239 0.0747
vn -0.3827 -0.9239 -0.0000
vn -0.3753 -0.9239 -0.0747
vn -0.3536 -0.9239 -0.1465
vn -0.3182 -0.9239 -0.2126
vn -0.2706 -0.9239 -0.2706
vn -0.2126 -0.9239 -0.3182
vn -0.1464 -0.9239 -0.3535
vn -0.0747 -0.9239 -0.3754
vn -0.0000 -0.9239 -0.3827
vn 0.0747 -0.9239 -0.3753
vn 0.1464 -0.9239 -0.3535
vn 0.2126 -0.9239 -0.3182
vn 0.2706 -0.9239 -0.2706
vn 0.3182 -0.9239 -0.2126
vn 0.3536 -0.9239 -0.1465
vn 0.3753 -0.9239 -0.0747
vn 0.1914 -0.9808 0.0381
vn 0.1951 -0.9808 -0.0000
vn 0.1803 -0.9808 0.0747
vn 0.1622 -0.9808 0.1084
vn 0.1380 -0.9808 0.1380
vn 0.1084 -0.9808 0.1622
vn 0.0747 -0.9808 0.1803
vn 0.0381 -0.9808 0.1914
vn -0.0000 -0.9808 0.1951
vn -0.0381 -0.9808 0.1914
vn -0.0747 -0.9808 0.1803
vn -0.1084 -0.9808 0.1622
vn -0.1380 -0.9808 0.1380
vn -0.1622 -0.9808 0.1084
vn -0.1803 -0.9808 0.0747
vn -0.1914 -0.9808 0.0381
vn -0.1951 -0.9808 -0.0000
vn -0.1914 -0.9808 -0.0381
vn -0.1803 -0.9808 -0.0747
vn -0.1622 -0.9808 -0.1084
vn -0.1380 -0.9808 -0.1380
vn -0.1084 -0.9808 -0.1622
vn -0.0747 -0.9808 -0.1803
vn -0.0381 -0.9808 -0.1914
vn -0.0000 -0.9808 -0.1951
vn 0.0381 -0.9808 -0.1914
vn 0.0747 -0.9808 -0.1803
vn 0.1084 -0.9808 -0.1622
vn 0.1380 -0.9808 -0.1380
vn 0.1622 -0.9808 -0.1084
vn 0.1803 -0.9808 -0.0747
vn 0.1914 -0.9808 -0.0381
vn -0.0000 -1.0000 -0.0000
vn 0.1950 -0.9808 -0.0000
vn 0.1912 -0.9808 0.0381
vn -0.0000 -1.0000 0.0001
vn 0.1801 -0.9808 0.0746
vn 0.1621 -0.9808 0.1083
vn -0.0000 -1.0000 -0.0001
vn 0.1380 -0.9808 0.1379
vn 0.0001 -1.0000 -0.0000
vn 0.0746 -0.9808 0.1802
vn 0.0381 -0.9808 0.1913
vn -0.0381 -0.9808 0.1913
vn -0.0746 -0.9808 0.1802
vn 0.0001 -1.0000 0.0001
vn -0.1380 -0.9808 0.1379
vn -0.1621 -0.9808 0.1083
vn -0.1801 -0.9808 0.0746
vn -0.0001 -1.0000 0.0001
vn -0.1912 -0.9808 0.0381
vn -0.1950 -0.9808 -0.0000
vn -0.0001 -1.0000 -0.0000
vn -0.1912 -0.9808 -0.0380
vn -0.1801 -0.9808 -0.0747
vn -0.1621 -0.9808 -0.1083
vn -0.0746 -0.9808 -0.1802
vn 0.0746 -0.9808 -0.1802
vn 0.1621 -0.9808 -0.1083
vn 0.1801 -0.9808 -0.0747
vn 0.1912 -0.9808 -0.0380
vt 0.000000 1.000000
vt 0.031250 1.000000
vt 0.031250 0.937500
vt 0.000000 0.937500
vt 0.062500 1.000000
vt 0.062500 0.937500
vt 0.093750 1.000000
vt 0.093750 0.937500
vt 0.125000 1.000000
vt 0.125000 0.937500
vt 0.156250 1.000000
vt 0.156250 0.937500
vt 0.187500 1.000000
vt 0.187500 0.937500
vt 0.218750 1.000000
vt 0.218750 0.937500
vt 0.250000 1.000000
vt 0.250000 0.937500
vt 0.281250 1.000000
vt 0.281250 0.937500
vt 0.312500 1.000000
vt 0.312500 0.937500
vt 0.343750 1.000000
vt 0.343750 0.937500
vt 0.375000 1.000000
vt 0.375000 0.937500
vt 0.406250 1.000000
vt 0.406250 0.937500
vt 0.437500 1.000000
vt 0.437500 0.937500
vt 0.468750 1.000000
vt 0.468750 0.937500
vt 0.500000 1.000000
vt 0.500000 0.937500
vt 0.531250 1.000000
vt 0.531250 0.937500
vt 0.562500 1.000000
vt 0.562500 0.937500
vt 0.593750 1.000000
vt 0.593750 0.937500
vt 0.625000 1.000000
vt 0.625000 0.937500
vt 0.656250 1.000000
vt 0.656250 0.937500
vt 0.687500 1.000000
vt 0.687500 0.937500
vt 0.718750 1.000000
vt 0.718750 0.937500
vt 0.750000 1.000000
vt 0.750000 0.937500
vt 0.781250 1.000000
vt 0.781250 0.937500
vt 0.812500 1.000000
vt 0.812500 0.937500
vt 0.843750 1.000000
vt 0.843750 0.937500
vt 0.875000 1.000000
vt 0.875000 0.937500
vt 0.906250 1.000000
vt 0.906250 0.937500
vt 0.937500 1.000000
vt 0.937500 0.937500
vt 0.968750 1.000000
vt 0.968750 0.937500
vt 1.000000 1.000000
vt 1.000000 0.937500
vt 0.031250 0.875000
vt 0.000000 0.875000
vt 0.062500 0.875000
vt 0.093750 0.875000
vt 0.125000 0.875000
vt 0.156250 0.875000
vt 0.187500 0.875000
vt 0.218750 0.875000
vt 0.250000 0.875000
vt 0.281250 0.875000
vt 0.312500 0.875000
vt 0.343750 0.875000
vt 0.375000 0.875000
vt 0.406250 0.875000
vt 0.437500 0.875000
vt 0.468750 0.875000
vt 0.500000 0.875000
vt 0.531250 0.875000
vt 0.562500 0.875000
vt 0.593750 0.875000
vt 0.625000 0.875000
vt 0.656250 0.875000
vt 0.687500 0.875000
vt 0.718750 0.875000
vt 0.750000 0.875000
vt 0.781250 0.875000
vt 0.812500 0.875000
vt 0.843750 0.875000
vt 0.875000 0.875000
vt 0.906250 0.875000
vt 0.937500 0.875000
vt 0.968750 0.875000
vt 1.000000 0.875000
vt 0.031250 0.812500
vt 0.000000 0.812500
vt 0.062500 0.812500
vt 0.093750 0.812500
vt 0.125000 0.812500
vt 0.156250 0.812500
vt 0.187500 0.812500
vt 0.218750 0.812500
vt 0.250000 0.812500
vt 0.281250 0.812500
vt 0.312500 0.812500
vt 0.343750 0.812500
vt 0.375000 0.812500
vt 0.406250 0.812500
vt 0.437500 0.812500
vt 0.468750 0.812500
vt 0.500000 0.812500
vt 0.531250 0.812500
vt 0.562500 0.812500
vt 0.593750 0.812500
vt 0.625000 0.812500
vt 0.656250 0.812500
vt 0.687500 0.812500
vt 0.718750 0.812500
vt 0.750000 0.812500
vt 0.781250 0.812500
vt 0.812500 0.812500
vt 0.843750 0.812500
vt 0.875000 0.812500
vt 0.906250 0.812500
vt 0.937500 0.812500
vt 0.968750 0.812500
vt 1.000000 0.812500
vt 0.031250 0.750000
vt 0.000000 0.750000
vt 0.062500 0.750000
vt 0.093750 0.750000
vt 0.125000 0.750000
vt 0.156250 0.750000
vt 0.187500 0.750000
vt 0.218750 0.750000
vt 0.250000 0.750000
vt 0.281250 0.750000
vt 0.312500 0.750000
vt 0.343750 0.750000
vt 0.375000 0.750000
vt 0.406250 0.750000
vt 0.437500 0.750000
vt 0.468750 0.750000
vt 0.500000 0.750000
vt 0.531250 0.750000
vt 0.562500 0.750000
vt 0.593750 0.750000
vt 0.625000 0.750000
vt 0.656250 0.750000
vt 0.687500 0.750000
vt 0.718750 0.750000
vt 0.750000 0.750000
vt 0.781250 0.750000
vt 0.812500 0.750000
vt 0.843750 0.750000
vt 0.875000 0.750000
vt 0.906250 0.750000
vt 0.937500 0.750000
vt 0.968750 0.750000
vt 1.000000 0.750000
vt 0.031250 0.687500
vt 0.000000 0.687500
vt 0.062500 0.687500
vt 0.093750 0.687500
vt 0.125000 0.687500
vt 0.156250 0.687500
vt 0.187500 0.687500
vt 0.218750 0.687500
vt 0.250000 0.687500
vt 0.281250 0.687500
vt 0.312500 0.687500
vt 0.343750 0.687500
vt 0.375000 0.687500
vt 0.406250 0.687500
vt 0.437500 0.687500
vt 0.468750 0.687500
vt 0.500000 0.687500
vt 0.531250 0.687500
vt 0.562500 0.687500
vt 0.593750 0.687500
vt 0.625000 0.687500
vt 0.656250 0.687500
vt 0.687500 0.687500
vt 0.718750 0.687500
vt 0.750000 0.687500
vt 0.781250 0.687500
vt 0.812500 0.687500
vt 0.843750 0.687500
vt 0.875000 0.687500
vt 0.906250 0.687500
vt 0.937500 0.687500
vt 0.968750 0.687500
vt 1.000000 0.687500
vt 0.031250 0.625000
vt 0.000000 0.625000
vt 0.062500 0.625000
vt 0.093750 0.625000
vt 0.125000 0.625000
vt 0.156250 0.625000
vt 0.187500 0.625000
vt 0.218750 0.625000
vt 0.250000 0.625000
vt 0.281250 0.625000
vt 0.312500 0.625000
vt 0.343750 0.625000
vt 0.375000 0.625000
vt 0.406250 0.625000
vt 0.437500 0.625000
vt 0.468750 0.625000
vt 0.500000 0.625000
vt 0.531250 0.625000
vt 0.562500 0.625000
vt 0.593750 0.625000
vt 0.625000 0.625000
vt 0.656250 0.625000
vt 0.687500 0.625000
vt 0.718750 0.625000
vt 0.750000 0.625000
vt 0.781250 0.625000
vt 0.812500 0.625000
vt 0.843750 0.625000
vt 0.875000 0.625000
vt 0.906250 0.625000
vt 0.937500 0.625000
vt 0.968750 0.625000
vt 1.000000 0.625000
vt 0.031250 0.562500
vt 0.000000 0.562500
vt 0.062500 0.562500
vt 0.093750 0.562500
vt 0.125000 0.562500
vt 0.156250 0.562500
vt 0.187500 0.562500
vt 0.218750 0.562500
vt 0.250000 0.562500
vt 0.281250 0.562500
vt 0.312500 0.562500
vt 0.343750 0.562500
vt 0.375000 0.562500
vt 0.406250 0.562500
vt 0.437500 0.562500
vt 0.468750 0.562500
vt 0.500000 0.562500
vt 0.531250 0.562500
vt 0.562500 0.562500
vt 0.593750 0.562500
vt 0.625000 0.562500
vt 0.656250 0.562500
vt 0.687500 0.562500
vt 0.718750 0.562500
vt 0.750000 0.562500
vt 0.781250 0.562500
vt 0.812500 0.562500
vt 0.843750 0.562500
vt 0.875000 0.562500
vt 0.906250 0.562500
vt 0.937500 0.562500
vt 0.968750 0.562500
vt 1.000000 0.562500
vt 0.031250 0.500000
vt 0.000000 0.500000
vt 0.062500 0.500000
vt 0.093750 0.500000
vt 0.125000 0.500000
vt 0.156250 0.500000
vt 0.187500 0.500000
vt 0.218750 0.500000
vt 0.250000 0.500000
vt 0.281250 0.500000
vt 0.312500 0.500000
vt 0.343750 0.500000
vt 0.375000 0.500000
vt 0.406250 0.500000
vt 0.437500 0.500000
vt 0.468750 0.500000
vt 0.500000 0.500000
vt 0.531250 0.500000
vt 0.562500 0.500000
vt 0.593750 0.500000
vt 0.625000 0.500000
vt 0.656250 0.500000
vt 0.687500 0.500000
vt 0.718750 0.500000
vt 0.750000 0.500000
vt 0.781250 0.500000
vt 0.812500 0.500000
vt 0.843750 0.500000
vt 0.875000 0.500000
vt 0.906250 0.500000
vt 0.937500 0.500000
vt 0.968750 0.500000
vt 1.000000 0.500000
vt 0.031250 0.437500
vt 0.000000 0.437500
vt 0.062500 0.437500
vt 0.093750 0.437500
vt 0.125000 0.437500
vt 0.156250 0.437500
vt 0.187500 0.437500
vt 0.218750 0.437500
vt 0.250000 0.437500
vt 0.281250 0.437500
vt 0.312500 0.437500
vt 0.343750 0.437500
vt 0.375000 0.437500
vt 0.406250 0.437500
vt 0.437500 0.437500
vt 0.468750 0.437500
vt 0.500000 0.437500
vt 0.531250 0.437500
vt 0.562500 0.437500
vt 0.593750 0.437500
vt 0.625000 0.437500
vt 0.656250 0.437500
vt 0.687500 0.437500
vt 0.718750 0.437500
vt 0.750000 0.437500
vt 0.781250 0.437500
vt 0.812500 0.437500
vt 0.843750 0.437500
vt 0.875000 0.437500
vt 0.906250 0.437500
vt 0.937500 0.437500
vt 0.968750 0.437500
vt 1.000000 0.437500
vt 0.031250 0.375000
vt 0.000000 0.375000
vt 0.062500 0.375000
vt 0.093750 0.375000
vt 0.125000 0.375000
vt 0.156250 0.375000
vt 0.187500 0.375000
vt 0.218750 0.375000
vt 0.250000 0.375000
vt 0.281250 0.375000
vt 0.312500 0.375000
vt 0.343750 0.375000
vt 0.375000 0.375000
vt 0.406250 0.375000
vt 0.437500 0.375000
vt 0.468750 0.375000
vt 0.500000 0.375000
vt 0.531250 0.375000
vt 0.562500 0.375000
vt 0.593750 0.375000
vt 0.625000 0.375000
vt 0.656250 0.375000
vt 0.687500 0.375000
vt 0.718750 0.375000
vt 0.750000 0.375000
vt 0.781250 0.375000
vt 0.812500 0.375000
vt 0.843750 0.375000
vt 0.875000 0.375000
vt 0.906250 0.375000
vt 0.937500 0.375000
vt 0.968750 0.375000
vt 1.000000 0.375000
vt 0.031250 0.312500
vt 0.000000 0.312500
vt 0.062500 0.312500
vt 0.093750 0.312500
vt 0.125000 0.312500
vt 0.156250 0.312500
vt 0.187500 0.312500
vt 0.218750 0.312500
vt 0.250000 0.312500
vt 0.281250 0.312500
vt 0.312500 0.312500
vt 0.343750 0.312500
vt 0.375000 0.312500
vt 0.406250 0.312500
vt 0.437500 0.312500
vt 0.468750 0.312500
vt 0.500000 0.312500
vt 0.531250 0.312500
vt 0.562500 0.312500
vt 0.593750 0.312500
vt 0.625000 0.312500
vt 0.656250 0.312500
vt 0.687500 0.312500
vt 0.718750 0.312500
vt 0.750000 0.312500
vt 0.781250 0.312500
vt 0.812500 0.312500
vt 0.843750 0.312500
vt 0.875000 0.312500
vt 0.906250 0.312500
vt 0.937500 0.312500
vt 0.968750 0.312500
vt 1.000000 0.312500
vt 0.031250 0.250000
vt 0.000000 0.250000
vt 0.062500 0.250000
vt 0.093750 0.250000
vt 0.125000 0.250000
vt 0.156250 0.250000
vt 0.187500 0.250000
vt 0.218750 0.250000
vt 0.250000 0.250000
vt 0.281250 0.250000
vt 0.312500 0.250000
vt 0.343750 0.250000
vt 0.375000 0.250000
vt 0.406250 0.250000
vt 0.437500 0.250000
vt 0.468750 0.250000
vt 0.500000 0.250000
vt 0.531250 0.250000
vt 0.562500 0.250000
vt 0.593750 0.250000
vt 0.625000 0.250000
vt 0.656250 0.250000
vt 0.687500 0.250000
vt 0.718750 0.250000
vt 0.750000 0.250000
vt 0.781250 0.250000
vt 0.812500 0.250000
vt 0.843750 0.250000
vt 0.875000 0.250000
vt 0.906250 0.250000
vt 0.937500 0.250000
vt 0.968750 0.250000
vt 1.000000 0.250000
vt 0.031250 0.187500
vt 0.000000 0.187500
vt 0.062500 0.187500
vt 0.093750 0.187500
vt 0.125000 0.187500
vt 0.156250 0.187500
vt 0.187500 0.187500
vt 0.218750 0.187500
vt 0.250000 0.187500
vt 0.281250 0.187500
vt 0.312500 0.187500
vt 0.343750 0.187500
vt 0.375000 0.187500
vt 0.406250 0.187500
vt 0.437500 0.187500
vt 0.468750 0.187500
vt 0.500000 0.187500
vt 0.531250 0.187500
vt 0.562500 0.187500
vt 0.593750 0.187500
vt 0.625000 0.187500
vt 0.656250 0.187500
vt 0.687500 0.187500
vt 0.718750 0.187500
vt 0.750000 0.187500
vt 0.781250 0.187500
vt 0.812500 0.187500
vt 0.843750 0.187500
vt 0.875000 0.187500
vt 0.906250 0.187500
vt 0.937500 0.187500
vt 0.968750 0.187500
vt 1.000000 0.187500
vt 0.031250 0.125000
vt 0.000000 0.125000
vt 0.062500 0.125000
vt 0.093750 0.125000
vt 0.125000 0.125000
vt 0.156250 0.125000
vt 0.187500 0.125000
vt 0.218750 0.125000
vt 0.250000 0.125000
vt 0.281250 0.125000
vt 0.312500 0.125000
vt 0.343750 0.125000
vt 0.375000 0.125000
vt 0.406250 0.125000
vt 0.437500 0.125000
vt 0.468750 0.125000
vt 0.500000 0.125000
vt 0.531250 0.125000
vt 0.562500 0.125000
vt 0.593750 0.125000
vt 0.625000 0.125000
vt 0.656250 0.125000
vt 0.687500 0.125000
vt 0.718750 0.125000
vt 0.750000 0.125000
vt 0.781250 0.125000
vt 0.812500 0.125000
vt 0.843750 0.125000
vt 0.875000 0.125000
vt 0.906250 0.125000
vt 0.937500 0.125000
vt 0.968750 0.125000
vt 1.000000 0.125000
vt 0.031250 0.062500
vt 0.000000 0.062500
vt 0.062500 0.062500
vt 0.093750 0.062500
vt 0.125000 0.062500
vt 0.156250 0.062500
vt 0.187500 0.062500
vt 0.218750 0.062500
vt 0.250000 0.062500
vt 0.281250 0.062500
vt 0.312500 0.062500
vt 0.343750 0.062500
vt 0.375000 0.062500
vt 0.406250 0.062500
vt 0.437500 0.062500
vt 0.468750 0.062500
vt 0.500000 0.062500
vt 0.531250 0.062500
vt 0.562500 0.062500
vt 0.593750 0.062500
vt 0.625000 0.062500
vt 0.656250 0.062500
vt 0.687500 0.062500
vt 0.718750 0.062500
vt 0.750000 0.062500
vt 0.781250 0.062500
vt 0.812500 0.062500
vt 0.843750 0.062500
vt 0.875000 0.062500
vt 0.906250 0.062500
vt 0.937500 0.062500
vt 0.968750 0.062500
vt 1.000000 0.062500
vt 0.031250 0.000000
vt 0.000000 0.000000
vt 0.062500 0.000000
vt 0.093750 0.000000
vt 0.125000 0.000000
vt 0.156250 0.000000
vt 0.187500 0.000000
vt 0.218750 0.000000
vt 0.250000 0.000000
vt 0.281250 0.000000
vt 0.312500 0.000000
vt 0.343750 0.000000
vt 0.375000 0.000000
vt 0.406250 0.000000
vt 0.437500 0.000000
vt 0.468750 0.000000
vt 0.500000 0.000000
vt 0.531250 0.000000
vt 0.562500 0.000000
vt 0.593750 0.000000
vt 0.625000 0.000000
vt 0.656250 0.000000
vt 0.687500 0.000000
vt 0.718750 0.000000
vt 0.750000 0.000000
vt 0.781250 0.000000
vt 0.812500 0.000000
vt 0.843750 0.000000
vt 0.875000 0.000000
vt 0.906250 0.000000
vt 0.937500 0.000000
vt 0.968750 0.000000
vt 1.000000 0.000000
s 0
usemtl Core
f 9/5/10 10/6/11 43/7/12
s 1
f 9/5/13 43/7/14 42/8/15
s 0
f 10/6/10 11/9/16 44/10/17
s 1
f 10/6/13 44/10/18 43/7/14
s 0
f 11/9/19 12/11/20 45/12/21
s 1
f 11/9/13 45/12/22 44/10/18
s 0
f 12/11/10 13/13/13 46/14/23
s 1
f 12/11/13 46/14/24 45/12/22
s 0
f 13/13/19 14/15/13 47/16/25
s 1
f 13/13/13 47/16/25 46/14/24
s 0
f 14/15/10 15/17/26 48/18/27
s 1
f 14/15/13 48/18/28 47/16/25
s 0
f 15/17/19 16/19/13 49/20/29
s 1
f 15/17/13 49/20/30 48/18/28
s 0
f 16/19/10 17/21/13 50/22/31
s 1
f 16/19/13 50/22/31 49/20/30
s 0
f 17/21/19 18/23/13 51/24/32
s 1
f 17/21/13 51/24/33 50/22/31
s 0
f 18/23/10 19/25/11 52/26/34
s 1
f 18/23/13 52/26/35 51/24/33
s 0
f 19/25/19 20/27/36 53/28/37
s 1
f 19/25/13 53/28/37 52/26/35
s 0
f 20/27/10 21/29/36 54/30/38
s 1
f 20/27/13 54/30/39 53/28/37
s 0
f 21/29/19 22/31/20 55/32/40
s 1
f 21/29/13 55/32/41 54/30/39
s 0
f 22/31/10 23/33/11 56/34/42
s 1
f 22/31/13 56/34/43 55/32/41
s 0
f 23/33/10 24/35/11 57/36/44
s 1
f 23/33/13 57/36/45 56/34/43
s 0
f 24/35/19 25/37/13 58/38/46
s 1
f 24/35/13 58/38/47 57/36/45
s 0
f 25/37/10 26/39/13 59/40/48
s 1
f 25/37/13 59/40/49 58/38/47
s 0
f 26/39/10 27/41/13 60/42/50
s 1
f 26/39/13 60/42/51 59/40/49
s 0
f 27/41/10 28/43/13 61/44/52
s 1
f 27/41/13 61/44/53 60/42/51
s 0
f 28/43/10 29/45/36 62/46/54
s 1
f 28/43/13 62/46/54 61/44/53
s 0
f 29/45/19 30/47/36 63/48/55
s 1
f 29/45/13 63/48/55 62/46/54
s 0
f 30/47/19 31/49/13 64/50/56
s 1
f 30/47/13 64/50/57 63/48/55
s 0
f 31/49/10 32/51/13 65/52/58
s 1
f 31/49/13 65/52/58 64/50/57
s 0
f 32/51/10 33/53/13 66/54/59
s 1
f 32/51/13 66/54/59 65/52/58
s 0
f 33/53/10 34/55/13 67/56/60
s 1
f 33/53/13 67/56/60 66/54/59
s 0
f 34/55/19 35/57/36 68/58/61
s 1
f 34/55/13 68/58/62 67/56/60
s 0
f 35/57/19 36/59/13 69/60/63
s 1
f 35/57/13 69/60/63 68/58/62
s 0
f 36/59/10 37/61/13 70/62/64
s 1
f 36/59/13 70/62/64 69/60/63
s 0
f 37/61/10 38/63/13 71/64/65
s 1
f 37/61/13 71/64/66 70/62/64
s 0
f 38/63/10 39/65/67 72/66/68
s 1
f 38/63/13 72/66/69 71/64/66
s 0
f 39/65/10 40/67/13 73/68/70
s 1
f 39/65/13 73/68/71 72/66/69
s 0
f 40/67/19 41/69/67 74/70/72
s 1
f 40/67/13 74/70/15 73/68/71
f 42/8/15 43/7/14 76/71/73
f 42/8/15 76/71/73 75/72/74
f 43/7/14 44/10/18 77/73/75
f 43/7/14 77/73/75 76/71/73
f 44/10/18 45/12/22 78/74/76
f 44/10/18 78/74/76 77/73/75
f 45/12/22 46/14/24 79/75/77
f 45/12/22 79/75/77 78/74/76
f 46/14/24 47/16/25 80/76/78
f 46/14/24 80/76/78 79/75/77
f 47/16/25 48/18/28 81/77/79
f 47/16/25 81/77/79 80/76/78
f 48/18/28 49/20/30 82/78/80
f 48/18/28 82/78/80 81/77/79
f 49/20/30 50/22/31 83/79/81
f 49/20/30 83/79/81 82/78/80
f 50/22/31 51/24/33 84/80/82
f 50/22/31 84/80/82 83/79/81
f 51/24/33 52/26/35 85/81/83
f 51/24/33 85/81/83 84/80/82
f 52/26/35 53/28/37 86/82/84
f 52/26/35 86/82/84 85/81/83
f 53/28/37 54/30/39 87/83/85
f 53/28/37 87/83/85 86/82/84
f 54/30/39 55/32/41 88/84/86
f 54/30/39 88/84/86 87/83/85
f 55/32/41 56/34/43 89/85/87
f 55/32/41 89/85/87 88/84/86
f 56/34/43 57/36/45 90/86/88
f 56/34/43 90/86/88 89/85/87
f 57/36/45 58/38/47 91/87/89
f 57/36/45 91/87/89 90/86/88
f 58/38/47 59/40/49 92/88/90
f 58/38/47 92/88/90 91/87/89
f 59/40/49 60/42/51 93/89/91
f 59/40/49 93/89/91 92/88/90
f 60/42/51 61/44/53 94/90/92
f 60/42/51 94/90/92 93/89/91
f 61/44/53 62/46/54 95/91/93
f 61/44/53 95/91/93 94/90/92
f 62/46/54 63/48/55 96/92/94
f 62/46/54 96/92/94 95/91/93
f 63/48/55 64/50/57 97/93/95
f 63/48/55 97/93/95 96/92/94
f 64/50/57 65/52/58 98/94/96
f 64/50/57 98/94/96 97/93/95
f 65/52/58 66/54/59 99/95/97
f 65/52/58 99/95/97 98/94/96
f 66/54/59 67/56/60 100/96/98
f 66/54/59 100/96/98 99/95/97
f 67/56/60 68/58/62 101/97/99
f 67/56/60 101/97/99 100/96/98
f 68/58/62 69/60/63 102/98/100
f 68/58/62 102/98/100 101/97/99
f 69/60/63 70/62/64 103/99/101
f 69/60/63 103/99/101 102/98/100
f 70/62/64 71/64/66 104/100/102
f 70/62/64 104/100/102 103/99/101
f 71/64/66 72/66/69 105/101/103
f 71/64/66 105/101/103 104/100/102
f 72/66/69 73/68/71 106/102/104
f 72/66/69 106/102/104 105/101/103
f 73/68/71 74/70/15 107/103/74
f 73/68/71 107/103/74 106/102/104
f 75/72/74 76/71/73 109/104/105
f 75/72/74 109/104/105 108/105/106
f 76/71/73 77/73/75 110/106/107
f 76/71/73 110/106/107 109/104/105
f 77/73/75 78/74/76 111/107/108
f 77/73/75 111/107/108 110/106/107
f 78/74/76 79/75/77 112/108/109
f 78/74/76 112/108/109 111/107/108
f 79/75/77 80/76/78 113/109/110
f 79/75/77 113/109/110 112/108/109
f 80/76/78 81/77/79 114/110/111
f 80/76/78 114/110/111 113/109/110
f 81/77/79 82/78/80 115/111/112
f 81/77/79 115/111/112 114/110/111
f 82/78/80 83/79/81 116/112/113
f 82/78/80 116/112/113 115/111/112
f 83/79/81 84/80/82 117/113/114
f 83/79/81 117/113/114 116/112/113
f 84/80/82 85/81/83 118/114/115
f 84/80/82 118/114/115 117/113/114
f 85/81/83 86/82/84 119/115/116
f 85/81/83 119/115/116 118/114/115
f 86/82/84 87/83/85 120/116/117
f 86/82/84 120/116/117 119/115/116
f 87/83/85 88/84/86 121/117/118
f 87/83/85 121/117/118 120/116/117
f 88/84/86 89/85/87 122/118/119
f 88/84/86 122/118/119 121/117/118
f 89/85/87 90/86/88 123/119/120
f 89/85/87 123/119/120 122/118/119
f 90/86/88 91/87/89 124/120/121
f 90/86/88 124/120/121 123/119/120
f 91/87/89 92/88/90 125/121/122
f 91/87/89 125/121/122 124/120/121
f 92/88/90 93/89/91 126/122/123
f 92/88/90 126/122/123 125/121/122
f 93/89/91 94/90/92 127/123/124
f 93/89/91 127/123/124 126/122/123
f 94/90/92 95/91/93 128/124/125
f 94/90/92 128/124/125 127/123/124
f 95/91/93 96/92/94 129/125/126
f 95/91/93 129/125/126 128/124/125
f 96/92/94 97/93/95 130/126/127
f 96/92/94 130/126/127 129/125/126
f 97/93/95 98/94/96 131/127/128
f 97/93/95 131/127/128 130/126/127
f 98/94/96 99/95/97 132/128/129
f 98/94/96 132/128/129 131/127/128
f 99/95/97 100/96/98 133/129/130
f 99/95/97 133/129/130 132/128/129
f 100/96/98 101/97/99 134/130/131
f 100/96/98 134/130/131 133/129/130
f 101/97/99 102/98/100 135/131/132
f 101/97/99 135/131/132 134/130/131
f 102/98/100 103/99/101 136/132/133
f 102/98/100 136/132/133 135/131/132
f 103/99/101 104/100/102 137/133/134
f 103/99/101 137/133/134 136/132/133
f 104/100/102 105/101/103 138/134/135
f 104/100/102 138/134/135 137/133/134
f 105/101/103 106/102/104 139/135/136
f 105/101/103 139/135/136 138/134/135
f 106/102/104 107/103/74 140/136/106
f 106/102/104 140/136/106 139/135/136
f 108/105/106 109/104/105 142/137/137
f 108/105/106 142/137/137 141/138/138
f 109/104/105 110/106/107 143/139/139
f 109/104/105 143/139/139 142/137/137
f 110/106/107 111/107/108 144/140/140
f 110/106/107 144/140/140 143/139/139
f 111/107/108 112/108/109 145/141/141
f 111/107/108 145/141/141 144/140/140
f 112/108/109 113/109/110 146/142/142
f 112/108/109 146/142/142 145/141/141
f 113/109/110 114/110/111 147/143/143
f 113/109/110 147/143/143 146/142/142
f 114/110/111 115/111/112 148/144/144
f 114/110/111 148/144/144 147/143/143
f 115/111/112 116/112/113 149/145/145
f 115/111/112 149/145/145 148/144/144
f 116/112/113 117/113/114 150/146/146
f 116/112/113 150/146/146 149/145/145
f 117/113/114 118/114/115 151/147/147
f 117/113/114 151/147/147 150/146/146
f 118/114/115 119/115/116 152/148/148
f 118/114/115 152/148/148 151/147/147
f 119/115/116 120/116/117 153/149/149
f 119/115/116 153/149/149 152/148/148
f 120/116/117 121/117/118 154/150/150
f 120/116/117 154/150/150 153/149/149
f 121/117/118 122/118/119 155/151/151
f 121/117/118 155/151/151 154/150/150
f 122/118/119 123/119/120 156/152/152
f 122/118/119 156/152/152 155/151/151
f 123/119/120 124/120/121 157/153/153
f 123/119/120 157/153/153 156/152/152
f 124/120/121 125/121/122 158/154/154
f 124/120/121 158/154/154 157/153/153
f 125/121/122 126/122/123 159/155/155
f 125/121/122 159/155/155 158/154/154
f 126/122/123 127/123/124 160/156/156
f 126/122/123 160/156/156 159/155/155
f 127/123/124 128/124/125 161/157/157
f 127/123/124 161/157/157 160/156/156
f 128/124/125 129/125/126 162/158/158
f 128/124/125 162/158/158 161/157/157
f 129/125/126 130/126/127 163/159/159
f 129/125/126 163/159/159 162/158/158
f 130/126/127 131/127/128 164/160/160
f 130/126/127 164/160/160 163/159/159
f 131/127/128 132/128/129 165/161/161
f 131/127/128 165/161/161 164/160/160
f 132/128/129 133/129/130 166/162/162
f 132/128/129 166/162/162 165/161/161
f 133/129/130 134/130/131 167/163/163
f 133/129/130 167/163/163 166/162/162
f 134/130/131 135/131/132 168/164/164
f 134/130/131 168/164/164 167/163/163
f 135/131/132 136/132/133 169/165/165
f 135/131/132 169/165/165 168/164/164
f 136/132/133 137/133/134 170/166/166
f 136/132/133 170/166/166 169/165/165
f 137/133/134 138/134/135 171/167/167
f 137/133/134 171/167/167 170/166/166
f 138/134/135 139/135/136 172/168/168
f 138/134/135 172/168/168 171/167/167
f 139/135/136 140/136/106 173/169/138
f 139/135/136 173/169/138 172/168/168
f 141/138/138 142/137/137 175/170/169
f 141/138/138 175/170/169 174/171/170
f 142/137/137 143/139/139 176/172/171
f 142/137/137 176/172/171 175/170/169
f 143/139/139 144/140/140 177/173/172
f 143/139/139 177/173/172 176/172/171
f 144/140/140 145/141/141 178/174/173
f 144/140/140 178/174/173 177/173/172
f 145/141/141 146/142/142 179/175/174
f 145/141/141 179/175/174 178/174/173
f 146/142/142 147/143/143 180/176/175
f 146/142/142 180/176/175 179/175/174
f 147/143/143 148/144/144 181/177/176
f 147/143/143 181/177/176 180/176/175
f 148/144/144 149/145/145 182/178/177
f 148/144/144 182/178/177 181/177/176
f 149/145/145 150/146/146 183/179/178
f 149/145/145 183/179/178 182/178/177
f 150/146/146 151/147/147 184/180/179
f 150/146/146 184/180/179 183/179/178
f 151/147/147 152/148/148 185/181/180
f 151/147/147 185/181/180 184/180/179
f 152/148/148 153/149/149 186/182/181
f 152/148/148 186/182/181 185/181/180
f 153/149/149 154/150/150 187/183/182
f 153/149/149 187/183/182 186/182/181
f 154/150/150 155/151/151 188/184/183
f 154/150/150 188/184/183 187/183/182
f 155/151/151 156/152/152 189/185/184
f 155/151/151 189/185/184 188/184/183
f 156/152/152 157/153/153 190/186/185
f 156/152/152 190/186/185 189/185/184
f 157/153/153 158/154/154 191/187/186
f 157/153/153 191/187/186 190/186/185
f 158/154/154 159/155/155 192/188/187
f 158/154/154 192/188/187 191/187/186
f 159/155/155 160/156/156 193/189/188
f 159/155/155 193/189/188 192/188/187
f 160/156/156 161/157/157 194/190/189
f 160/156/156 194/190/189 193/189/188
f 161/157/157 162/158/158 195/191/190
f 161/157/157 195/191/190 194/190/189
f 162/158/158 163/159/159 196/192/191
f 162/158/158 196/192/191 195/191/190
f 163/159/159 164/160/160 197/193/192
f 163/159/159 197/193/192 196/192/191
f 164/160/160 165/161/161 198/194/193
f 164/160/160 198/194/193 197/193/192
f 165/161/161 166/162/162 199/195/194
f 165/161/161 199/195/194 198/194/193
f 166/162/162 167/163/163 200/196/195
f 166/162/162 200/196/195 199/195/194
f 167/163/163 168/164/164 201/197/196
f 167/163/163 201/197/196 200/196/195
f 168/164/164 169/165/165 202/198/197
f 168/164/164 202/198/197 201/197/196
f 169/165/165 170/166/166 203/199/198
f 169/165/165 203/199/198 202/198/197
f 170/166/166 171/167/167 204/200/199
f 170/166/166 204/200/199 203/199/198
f 171/167/167 172/168/168 205/201/200
f 171/167/167 205/201/200 204/200/199
f 172/168/168 173/169/138 206/202/170
f 172/168/168 206/202/170 205/201/200
f 174/171/170 175/170/169 208/203/201
f 174/171/170 208/203/201 207/204/202
f 175/170/169 176/172/171 209/205/203
f 175/170/169 209/205/203 208/203/201
f 176/172/171 177/173/172 210/206/204
f 176/172/171 210/206/204 209/205/203
f 177/173/172 178/174/173 211/207/205
f 177/173/172 211/207/205 210/206/204
f 178/174/173 179/175/174 212/208/206
f 178/174/173 212/208/206 211/207/205
f 179/175/174 180/176/175 213/209/207
f 179/175/174 213/209/207 212/208/206
f 180/176/175 181/177/176 214/210/208
f 180/176/175 214/210/208 213/209/207
f 181/177/176 182/178/177 215/211/209
f 181/177/176 215/211/209 214/210/208
f 182/178/177 183/179/178 216/212/210
f 182/178/177 216/212/210 215/211/209
f 183/179/178 184/180/179 217/213/211
f 183/179/178 217/213/211 216/212/210
f 184/180/179 185/181/180 218/214/212
f 184/180/179 218/214/212 217/213/211
f 185/181/180 186/182/181 219/215/213
f 185/181/180 219/215/213 218/214/212
f 186/182/181 187/183/182 220/216/214
f 186/182/181 220/216/214 219/215/213
f 187/183/182 188/184/183 221/217/215
f 187/183/182 221/217/215 220/216/214
f 188/184/183 189/185/184 222/218/216
f 188/184/183 222/218/216 221/217/215
f 189/185/184 190/186/185 223/219/217
f 189/185/184 223/219/217 222/218/216
f 190/186/185 191/187/186 224/220/218
f 190/186/185 224/220/218 223/219/217
f 191/187/186 192/188/187 225/221/219
f 191/187/186 225/221/219 224/220/218
f 192/188/187 193/189/188 226/222/220
f 192/188/187 226/222/220 225/221/219
f 193/189/188 194/190/189 227/223/221
f 193/189/188 227/223/221 226/222/220
f 194/190/189 195/191/190 228/224/222
f 194/190/189 228/224/222 227/223/221
f 195/191/190 196/192/191 229/225/223
f 195/191/190 229/225/223 228/224/222
f 196/192/191 197/193/192 230/226/224
f 196/192/191 230/226/224 229/225/223
f 197/193/192 198/194/193 231/227/225
f 197/193/192 231/227/225 230/226/224
f 198/194/193 199/195/194 232/228/226
f 198/194/193 232/228/226 231/227/225
f 199/195/194 200/196/195 233/229/227
f 199/195/194 233/229/227 232/228/226
f 200/196/195 201/197/196 234/230/228
f 200/196/195 234/230/228 233/229/227
f 201/197/196 202/198/197 235/231/229
f 201/197/196 235/231/229 234/230/228
f 202/198/197 203/199/198 236/232/230
f 202/198/197 236/232/230 235/231/229
f 203/199/198 204/200/199 237/233/231
f 203/199/198 237/233/231 236/232/230
f 204/200/199 205/201/200 238/234/232
f 204/200/199 238/234/232 237/233/231
f 205/201/200 206/202/170 239/235/202
f 205/201/200 239/235/202 238/234/232
f 207/204/202 208/203/201 241/236/233
f 207/204/202 241/236/233 240/237/234
f 208/203/201 209/205/203 242/238/235
f 208/203/201 242/238/235 241/236/233
f 209/205/203 210/206/204 243/239/236
f 209/205/203 243/239/236 242/238/235
f 210/206/204 211/207/205 244/240/237
f 210/206/204 244/240/237 243/239/236
f 211/207/205 212/208/206 245/241/238
f 211/207/205 245/241/238 244/240/237
f 212/208/206 213/209/207 246/242/239
f 212/208/206 246/242/239 245/241/238
f 213/209/207 214/210/208 247/243/240
f 213/209/207 247/243/240 246/242/239
f 214/210/208 215/211/209 248/244/241
f 214/210/208 248/244/241 247/243/240
f 215/211/209 216/212/210 249/245/242
f 215/211/209 249/245/242 248/244/241
f 216/212/210 217/213/211 250/246/243
f 216/212/210 250/246/243 249/245/242
f 217/213/211 218/214/212 251/247/244
f 217/213/211 251/247/244 250/246/243
f 218/214/212 219/215/213 252/248/245
f 218/214/212 252/248/245 251/247/244
f 219/215/213 220/216/214 253/249/246
f 219/215/213 253/249/246 252/248/245
f 220/216/214 221/217/215 254/250/247
f 220/216/214 254/250/247 253/249/246
f 221/217/215 222/218/216 255/251/248
f 221/217/215 255/251/248 254/250/247
f 222/218/216 223/219/217 256/252/249
f 222/218/216 256/252/249 255/251/248
f 223/219/217 224/220/218 257/253/250
f 223/219/217 257/253/250 256/252/249
f 224/220/218 225/221/219 258/254/251
f 224/220/218 258/254/251 257/253/250
f 225/221/219 226/222/220 259/255/252
f 225/221/219 259/255/252 258/254/251
f 226/222/220 227/223/221 260/256/253
f 226/222/220 260/256/253 259/255/252
f 227/223/221 228/224/222 261/257/254
f 227/223/221 261/257/254 260/256/253
f 228/224/222 229/225/223 262/258/255
f 228/224/222 262/258/255 261/257/254
f 229/225/223 230/226/224 263/259/256
f 229/225/223 263/259/256 262/258/255
f 230/226/224 231/227/225 264/260/257
f 230/226/224 264/260/257 263/259/256
f 231/227/225 232/228/226 265/261/258
f 231/227/225 265/261/258 264/260/257
f 232/228/226 233/229/227 266/262/259
f 232/228/226 266/262/259 265/261/258
f 233/229/227 234/230/228 267/263/260
f 233/229/227 267/263/260 266/262/259
f 234/230/228 235/231/229 268/264/261
f 234/230/228 268/264/261 267/263/260
f 235/231/229 236/232/230 269/265/262
f 235/231/229 269/265/262 268/264/261
f 236/232/230 237/233/231 270/266/263
f 236/232/230 270/266/263 269/265/262
f 237/233/231 238/234/232 271/267/264
f 237/233/231 271/267/264 270/266/263
f 238/234/232 239/235/202 272/268/234
f 238/234/232 272/268/234 271/267/264
f 240/237/234 241/236/233 274/269/265
f 240/237/234 274/269/265 273/270/266
f 241/236/233 242/238/235 275/271/267
f 241/236/233 275/271/267 274/269/265
f 242/238/235 243/239/236 276/272/268
f 242/238/235 276/272/268 275/271/267
f 243/239/236 244/240/237 277/273/269
f 243/239/236 277/273/269 276/272/268
f 244/240/237 245/241/238 278/274/270
f 244/240/237 278/274/270 277/273/269
f 245/241/238 246/242/239 279/275/271
f 245/241/238 279/275/271 278/274/270
f 246/242/239 247/243/240 280/276/272
f 246/242/239 280/276/272 279/275/271
f 247/243/240 248/244/241 281/277/10
f 247/243/240 281/277/10 280/276/272
f 248/244/241 249/245/242 282/278/273
f 248/244/241 282/278/273 281/277/10
f 249/245/242 250/246/243 283/279/274
f 249/245/242 283/279/274 282/278/273
f 250/246/243 251/247/244 284/280/275
f 250/246/243 284/280/275 283/279/274
f 251/247/244 252/248/245 285/281/276
f 251/247/244 285/281/276 284/280/275
f 252/248/245 253/249/246 286/282/277
f 252/248/245 286/282/277 285/281/276
f 253/249/246 254/250/247 287/283/278
f 253/249/246 287/283/278 286/282/277
f 254/250/247 255/251/248 288/284/279
f 254/250/247 288/284/279 287/283/278
f 255/251/248 256/252/249 289/285/280
f 255/251/248 289/285/280 288/284/279
f 256/252/249 257/253/250 290/286/281
f 256/252/249 290/286/281 289/285/280
f 257/253/250 258/254/251 291/287/282
f 257/253/250 291/287/282 290/286/281
f 258/254/251 259/255/252 292/288/283
f 258/254/251 292/288/283 291/287/282
f 259/255/252 260/256/253 293/289/284
f 259/255/252 293/289/284 292/288/283
f 260/256/253 261/257/254 294/290/285
f 260/256/253 294/290/285 293/289/284
f 261/257/254 262/258/255 295/291/286
f 261/257/254 295/291/286 294/290/285
f 262/258/255 263/259/256 296/292/287
f 262/258/255 296/292/287 295/291/286
f 263/259/256 264/260/257 297/293/19
f 263/259/256 297/293/19 296/292/287
f 264/260/257 265/261/258 298/294/288
f 264/260/257 298/294/288 297/293/19
f 265/261/258 266/262/259 299/295/289
f 265/261/258 299/295/289 298/294/288
f 266/262/259 267/263/260 300/296/290
f 266/262/259 300/296/290 299/295/289
f 267/263/260 268/264/261 301/297/291
f 267/263/260 301/297/291 300/296/290
f 268/264/261 269/265/262 302/298/292
f 268/264/261 302/298/292 301/297/291
f 269/265/262 270/266/263 303/299/293
f 269/265/262 303/299/293 302/298/292
f 270/266/263 271/267/264 304/300/294
f 270/266/263 304/300/294 303/299/293
f 271/267/264 272/268/234 305/301/266
f 271/267/264 305/301/266 304/300/294
f 273/270/266 274/269/265 307/302/295
f 273/270/266 307/302/295 306/303/296
f 274/269/265 275/271/267 308/304/297
f 274/269/265 308/304/297 307/302/295
f 275/271/267 276/272/268 309/305/298
f 275/271/267 309/305/298 308/304/297
f 276/272/268 277/273/269 310/306/299
f 276/272/268 310/306/299 309/305/298
f 277/273/269 278/274/270 311/307/300
f 277/273/269 311/307/300 310/306/299
f 278/274/270 279/275/271 312/308/301
f 278/274/270 312/308/301 311/307/300
f 279/275/271 280/276/272 313/309/302
f 279/275/271 313/309/302 312/308/301
f 280/276/272 281/277/10 314/310/303
f 280/276/272 314/310/303 313/309/302
f 281/277/10 282/278/273 315/311/304
f 281/277/10 315/311/304 314/310/303
f 282/278/273 283/279/274 316/312/305
f 282/278/273 316/312/305 315/311/304
f 283/279/274 284/280/275 317/313/306
f 283/279/274 317/313/306 316/312/305
f 284/280/275 285/281/276 318/314/307
f 284/280/275 318/314/307 317/313/306
f 285/281/276 286/282/277 319/315/308
f 285/281/276 319/315/308 318/314/307
f 286/282/277 287/283/278 320/316/309
f 286/282/277 320/316/309 319/315/308
f 287/283/278 288/284/279 321/317/310
f 287/283/278 321/317/310 320/316/309
f 288/284/279 289/285/280 322/318/311
f 288/284/279 322/318/311 321/317/310
f 289/285/280 290/286/281 323/319/312
f 289/285/280 323/319/312 322/318/311
f 290/286/281 291/287/282 324/320/313
f 290/286/281 324/320/313 323/319/312
f 291/287/282 292/288/283 325/321/314
f 291/287/282 325/321/314 324/320/313
f 292/288/283 293/289/284 326/322/315
f 292/288/283 326/322/315 325/321/314
f 293/289/284 294/290/285 327/323/316
f 293/289/284 327/323/316 326/322/315
f 294/290/285 295/291/286 328/324/317
f 294/290/285 328/324/317 327/323/316
f 295/291/286 296/292/287 329/325/318
f 295/291/286 329/325/318 328/324/317
f 296/292/287 297/293/19 330/326/319
f 296/292/287 330/326/319 329/325/318
f 297/293/19 298/294/288 331/327/320
f 297/293/19 331/327/320 330/326/319
f 298/294/288 299/295/289 332/328/321
f 298/294/288 332/328/321 331/327/320
f 299/295/289 300/296/290 333/329/322
f 299/295/289 333/329/322 332/328/321
f 300/296/290 301/297/291 334/330/323
f 300/296/290 334/330/323 333/329/322
f 301/297/291 302/298/292 335/331/324
f 301/297/291 335/331/324 334/330/323
f 302/298/292 303/299/293 336/332/325
f 302/298/292 336/332/325 335/331/324
f 303/299/293 304/300/294 337/333/326
f 303/299/293 337/333/326 336/332/325
f 304/300/294 305/301/266 338/334/296
f 304/300/294 338/334/296 337/333/326
f 306/303/296 307/302/295 340/335/327
f 306/303/296 340/335/327 339/336/328
f 307/302/295 308/304/297 341/337/329
f 307/302/295 341/337/329 340/335/327
f 308/304/297 309/305/298 342/338/330
f 308/304/297 342/338/330 341/337/329
f 309/305/298 310/306/299 343/339/331
f 309/305/298 343/339/331 342/338/330
f 310/306/299 311/307/300 344/340/332
f 310/306/299 344/340/332 343/339/331
f 311/307/300 312/308/301 345/341/333
f 311/307/300 345/341/333 344/340/332
f 312/308/301 313/309/302 346/342/334
f 312/308/301 346/342/334 345/341/333
f 313/309/302 314/310/303 347/343/335
f 313/309/302 347/343/335 346/342/334
f 314/310/303 315/311/304 348/344/336
f 314/310/303 348/344/336 347/343/335
f 315/311/304 316/312/305 349/345/337
f 315/311/304 349/345/337 348/344/336
f 316/312/305 317/313/306 350/346/338
f 316/312/305 350/346/338 349/345/337
f 317/313/306 318/314/307 351/347/339
f 317/313/306 351/347/339 350/346/338
f 318/314/307 319/315/308 352/348/340
f 318/314/307 352/348/340 351/347/339
f 319/315/308 320/316/309 353/349/341
f 319/315/308 353/349/341 352/348/340
f 320/316/309 321/317/310 354/350/342
f 320/316/309 354/350/342 353/349/341
f 321/317/310 322/318/311 355/351/343
f 321/317/310 355/351/343 354/350/342
f 322/318/311 323/319/312 356/352/344
f 322/318/311 356/352/344 355/351/343
f 323/319/312 324/320/313 357/353/345
f 323/319/312 357/353/345 356/352/344
f 324/320/313 325/321/314 358/354/346
f 324/320/313 358/354/346 357/353/345
f 325/321/314 326/322/315 359/355/347
f 325/321/314 359/355/347 358/354/346
f 326/322/315 327/323/316 360/356/348
f 326/322/315 360/356/348 359/355/347
f 327/323/316 328/324/317 361/357/349
f 327/323/316 361/357/349 360/356/348
f 328/324/317 329/325/318 362/358/350
f 328/324/317 362/358/350 361/357/349
f 329/325/318 330/326/319 363/359/351
f 329/325/318 363/359/351 362/358/350
f 330/326/319 331/327/320 364/360/352
f 330/326/319 364/360/352 363/359/351
f 331/327/320 332/328/321 365/361/353
f 331/327/320 365/361/353 364/360/352
f 332/328/321 333/329/322 366/362/354
f 332/328/321 366/362/354 365/361/353
f 333/329/322 334/330/323 367/363/355
f 333/329/322 367/363/355 366/362/354
f 334/330/323 335/331/324 368/364/356
f 334/330/323 368/364/356 367/363/355
f 335/331/324 336/332/325 369/365/357
f 335/331/324 369/365/357 368/364/356
f 336/332/325 337/333/326 370/366/358
f 336/332/325 370/366/358 369/365/357
f 337/333/326 338/334/296 371/367/328
f 337/333/326 371/367/328 370/366/358
f 339/336/328 340/335/327 373/368/359
f 339/336/328 373/368/359 372/369/360
f 340/335/327 341/337/329 374/370/361
f 340/335/327 374/370/361 373/368/359
f 341/337/329 342/338/330 375/371/362
f 341/337/329 375/371/362 374/370/361
f 342/338/330 343/339/331 376/372/363
f 342/338/330 376/372/363 375/371/362
f 343/339/331 344/340/332 377/373/364
f 343/339/331 377/373/364 376/372/363
f 344/340/332 345/341/333 378/374/365
f 344/340/332 378/374/365 377/373/364
f 345/341/333 346/342/334 379/375/366
f 345/341/333 379/375/366 378/374/365
f 346/342/334 347/343/335 380/376/367
f 346/342/334 380/376/367 379/375/366
f 347/343/335 348/344/336 381/377/368
f 347/343/335 381/377/368 380/376/367
f 348/344/336 349/345/337 382/378/369
f 348/344/336 382/378/369 381/377/368
f 349/345/337 350/346/338 383/379/370
f 349/345/337 383/379/370 382/378/369
f 350/346/338 351/347/339 384/380/371
f 350/346/338 384/380/371 383/379/370
f 351/347/339 352/348/340 385/381/372
f 351/347/339 385/381/372 384/380/371
f 352/348/340 353/349/341 386/382/373
f 352/348/340 386/382/373 385/381/372
f 353/349/341 354/350/342 387/383/374
f 353/349/341 387/383/374 386/382/373
f 354/350/342 355/351/343 388/384/375
f 354/350/342 388/384/375 387/383/374
f 355/351/343 356/352/344 389/385/376
f 355/351/343 389/385/376 388/384/375
f 356/352/344 357/353/345 390/386/377
f 356/352/344 390/386/377 389/385/376
f 357/353/345 358/354/346 391/387/378
f 357/353/345 391/387/378 390/386/377
f 358/354/346 359/355/347 392/388/379
f 358/354/346 392/388/379 391/387/378
f 359/355/347 360/356/348 393/389/380
f 359/355/347 393/389/380 392/388/379
f 360/356/348 361/357/349 394/390/381
f 360/356/348 394/390/381 393/389/380
f 361/357/349 362/358/350 395/391/382
f 361/357/349 395/391/382 394/390/381
f 362/358/350 363/359/351 396/392/383
f 362/358/350 396/392/383 395/391/382
f 363/359/351 364/360/352 397/393/384
f 363/359/351 397/393/384 396/392/383
f 364/360/352 365/361/353 398/394/385
f 364/360/352 398/394/385 397/393/384
f 365/361/353 366/362/354 399/395/386
f 365/361/353 399/395/386 398/394/385
f 366/362/354 367/363/355 400/396/387
f 366/362/354 400/396/387 399/395/386
f 367/363/355 368/364/356 401/397/388
f 367/363/355 401/397/388 400/396/387
f 368/364/356 369/365/357 402/398/389
f 368/364/356 402/398/389 401/397/388
f 369/365/357 370/366/358 403/399/390
f 369/365/357 403/399/390 402/398/389
f 370/366/358 371/367/328 404/400/360
f 370/366/358 404/400/360 403/399/390
f 372/369/360 373/368/359 406/401/391
f 372/369/360 406/401/391 405/402/392
f 373/368/359 374/370/361 407/403/393
f 373/368/359 407/403/393 406/401/391
f 374/370/361 375/371/362 408/404/394
f 374/370/361 408/404/394 407/403/393
f 375/371/362 376/372/363 409/405/395
f 375/371/362 409/405/395 408/404/394
f 376/372/363 377/373/364 410/406/396
f 376/372/363 410/406/396 409/405/395
f 377/373/364 378/374/365 411/407/397
f 377/373/364 411/407/397 410/406/396
f 378/374/365 379/375/366 412/408/398
f 378/374/365 412/408/398 411/407/397
f 379/375/366 380/376/367 413/409/399
f 379/375/366 413/409/399 412/408/398
f 380/376/367 381/377/368 414/410/400
f 380/376/367 414/410/400 413/409/399
f 381/377/368 382/378/369 415/411/401
f 381/377/368 415/411/401 414/410/400
f 382/378/369 383/379/370 416/412/402
f 382/378/369 416/412/402 415/411/401
f 383/379/370 384/380/371 417/413/403
f 383/379/370 417/413/403 416/412/402
f 384/380/371 385/381/372 418/414/404
f 384/380/371 418/414/404 417/413/403
f 385/381/372 386/382/373 419/415/405
f 385/381/372 419/415/405 418/414/404
f 386/382/373 387/383/374 420/416/406
f 386/382/373 420/416/406 419/415/405
f 387/383/374 388/384/375 421/417/407
f 387/383/374 421/417/407 420/416/406
f 388/384/375 389/385/376 422/418/408
f 388/384/375 422/418/408 421/417/407
f 389/385/376 390/386/377 423/419/409
f 389/385/376 423/419/409 422/418/408
f 390/386/377 391/387/378 424/420/410
f 390/386/377 424/420/410 423/419/409
f 391/387/378 392/388/379 425/421/411
f 391/387/378 425/421/411 424/420/410
f 392/388/379 393/389/380 426/422/412
f 392/388/379 426/422/412 425/421/411
f 393/389/380 394/390/381 427/423/413
f 393/389/380 427/423/413 426/422/412
f 394/390/381 395/391/382 428/424/414
f 394/390/381 428/424/414 427/423/413
f 395/391/382 396/392/383 429/425/415
f 395/391/382 429/425/415 428/424/414
f 396/392/383 397/393/384 430/426/416
f 396/392/383 430/426/416 429/425/415
f 397/393/384 398/394/385 431/427/417
f 397/393/384 431/427/417 430/426/416
f 398/394/385 399/395/386 432/428/418
f 398/394/385 432/428/418 431/427/417
f 399/395/386 400/396/387 433/429/419
f 399/395/386 433/429/419 432/428/418
f 400/396/387 401/397/388 434/430/420
f 400/396/387 434/430/420 433/429/419
f 401/397/388 402/398/389 435/431/421
f 401/397/388 435/431/421 434/430/420
f 402/398/389 403/399/390 436/432/422
f 402/398/389 436/432/422 435/431/421
f 403/399/390 404/400/360 437/433/392
f 403/399/390 437/433/392 436/432/422
f 405/402/392 406/401/391 439/434/423
f 405/402/392 439/434/423 438/435/424
f 406/401/391 407/403/393 440/436/425
f 406/401/391 440/436/425 439/434/423
f 407/403/393 408/404/394 441/437/426
f 407/403/393 441/437/426 440/436/425
f 408/404/394 409/405/395 442/438/427
f 408/404/394 442/438/427 441/437/426
f 409/405/395 410/406/396 443/439/428
f 409/405/395 443/439/428 442/438/427
f 410/406/396 411/407/397 444/440/429
f 410/406/396 444/440/429 443/439/428
f 411/407/397 412/408/398 445/441/430
f 411/407/397 445/441/430 444/440/429
f 412/408/398 413/409/399 446/442/431
f 412/408/398 446/442/431 445/441/430
f 413/409/399 414/410/400 447/443/432
f 413/409/399 447/443/432 446/442/431
f 414/410/400 415/411/401 448/444/433
f 414/410/400 448/444/433 447/443/432
f 415/411/401 416/412/402 449/445/434
f 415/411/401 449/445/434 448/444/433
f 416/412/402 417/413/403 450/446/435
f 416/412/402 450/446/435 449/445/434
f 417/413/403 418/414/404 451/447/436
f 417/413/403 451/447/436 450/446/435
f 418/414/404 419/415/405 452/448/437
f 418/414/404 452/448/437 451/447/436
f 419/415/405 420/416/406 453/449/438
f 419/415/405 453/449/438 452/448/437
f 420/416/406 421/417/407 454/450/439
f 420/416/406 454/450/439 453/449/438
f 421/417/407 422/418/408 455/451/440
f 421/417/407 455/451/440 454/450/439
f 422/418/408 423/419/409 456/452/441
f 422/418/408 456/452/441 455/451/440
f 423/419/409 424/420/410 457/453/442
f 423/419/409 457/453/442 456/452/441
f 424/420/410 425/421/411 458/454/443
f 424/420/410 458/454/443 457/453/442
f 425/421/411 426/422/412 459/455/444
f 425/421/411 459/455/444 458/454/443
f 426/422/412 427/423/413 460/456/445
f 426/422/412 460/456/445 459/455/444
f 427/423/413 428/424/414 461/457/446
f 427/423/413 461/457/446 460/456/445
f 428/424/414 429/425/415 462/458/447
f 428/424/414 462/458/447 461/457/446
f 429/425/415 430/426/416 463/459/448
f 429/425/415 463/459/448 462/458/447
f 430/426/416 431/427/417 464/460/449
f 430/426/416 464/460/449 463/459/448
f 431/427/417 432/428/418 465/461/450
f 431/427/417 465/461/450 464/460/449
f 432/428/418 433/429/419 466/462/451
f 432/428/418 466/462/451 465/461/450
f 433/429/419 434/430/420 467/463/452
f 433/429/419 467/463/452 466/462/451
f 434/430/420 435/431/421 468/464/453
f 434/430/420 468/464/453 467/463/452
f 435/431/421 436/432/422 469/465/454
f 435/431/421 469/465/454 468/464/453
f 436/432/422 437/433/392 470/466/424
f 436/432/422 470/466/424 469/465/454
f 438/435/424 439/434/423 472/467/455
f 438/435/424 472/467/455 471/468/456
f 439/434/423 440/436/425 473/469/457
f 439/434/423 473/469/457 472/467/455
f 440/436/425 441/437/426 474/470/458
f 440/436/425 474/470/458 473/469/457
f 441/437/426 442/438/427 475/471/459
f 441/437/426 475/471/459 474/470/458
f 442/438/427 443/439/428 476/472/460
f 442/438/427 476/472/460 475/471/459
f 443/439/428 444/440/429 477/473/461
f 443/439/428 477/473/461 476/472/460
f 444/440/429 445/441/430 478/474/462
f 444/440/429 478/474/462 477/473/461
f 445/441/430 446/442/431 479/475/463
f 445/441/430 479/475/463 478/474/462
f 446/442/431 447/443/432 480/476/464
f 446/442/431 480/476/464 479/475/463
f 447/443/432 448/444/433 481/477/465
f 447/443/432 481/477/465 480/476/464
f 448/444/433 449/445/434 482/478/466
f 448/444/433 482/478/466 481/477/465
f 449/445/434 450/446/435 483/479/467
f 449/445/434 483/479/467 482/478/466
f 450/446/435 451/447/436 484/480/468
f 450/446/435 484/480/468 483/479/467
f 451/447/436 452/448/437 485/481/469
f 451/447/436 485/481/469 484/480/468
f 452/448/437 453/449/438 486/482/470
f 452/448/437 486/482/470 485/481/469
f 453/449/438 454/450/439 487/483/471
f 453/449/438 487/483/471 486/482/470
f 454/450/439 455/451/440 488/484/472
f 454/450/439 488/484/472 487/483/471
f 455/451/440 456/452/441 489/485/473
f 455/451/440 489/485/473 488/484/472
f 456/452/441 457/453/442 490/486/474
f 456/452/441 490/486/474 489/485/473
f 457/453/442 458/454/443 491/487/475
f 457/453/442 491/487/475 490/486/474
f 458/454/443 459/455/444 492/488/476
f 458/454/443 492/488/476 491/487/475
f 459/455/444 460/456/445 493/489/477
f 459/455/444 493/489/477 492/488/476
f 460/456/445 461/457/446 494/490/478
f 460/456/445 494/490/478 493/489/477
f 461/457/446 462/458/447 495/491/479
f 461/457/446 495/491/479 494/490/478
f 462/458/447 463/459/448 496/492/480
f 462/458/447 496/492/480 495/491/479
f 463/459/448 464/460/449 497/493/481
f 463/459/448 497/493/481 496/492/480
f 464/460/449 465/461/450 498/494/482
f 464/460/449 498/494/482 497/493/481
f 465/461/450 466/462/451 499/495/483
f 465/461/450 499/495/483 498/494/482
f 466/462/451 467/463/452 500/496/484
f 466/462/451 500/496/484 499/495/483
f 467/463/452 468/464/453 501/497/485
f 467/463/452 501/497/485 500/496/484
f 468/464/453 469/465/454 502/498/486
f 468/464/453 502/498/486 501/497/485
f 469/465/454 470/466/424 503/499/456
f 469/465/454 503/499/456 502/498/486
f 471/468/456 472/467/455 505/500/487
f 471/468/456 505/500/487 504/501/488
f 472/467/455 473/469/457 506/502/489
f 472/467/455 506/502/489 505/500/487
f 473/469/457 474/470/458 507/503/490
f 473/469/457 507/503/490 506/502/489
f 474/470/458 475/471/459 508/504/491
f 474/470/458 508/504/491 507/503/490
f 475/471/459 476/472/460 509/505/492
f 475/471/459 509/505/492 508/504/491
f 476/472/460 477/473/461 510/506/493
f 476/472/460 510/506/493 509/505/492
f 477/473/461 478/474/462 511/507/494
f 477/473/461 511/507/494 510/506/493
f 478/474/462 479/475/463 512/508/495
f 478/474/462 512/508/495 511/507/494
f 479/475/463 480/476/464 513/509/496
f 479/475/463 513/509/496 512/508/495
f 480/476/464 481/477/465 514/510/497
f 480/476/464 514/510/497 513/509/496
f 481/477/465 482/478/466 515/511/498
f 481/477/465 515/511/498 514/510/497
f 482/478/466 483/479/467 516/512/499
f 482/478/466 516/512/499 515/511/498
f 483/479/467 484/480/468 517/513/500
f 483/479/467 517/513/500 516/512/499
f 484/480/468 485/481/469 518/514/501
f 484/480/468 518/514/501 517/513/500
f 485/481/469 486/482/470 519/515/502
f 485/481/469 519/515/502 518/514/501
f 486/482/470 487/483/471 520/516/503
f 486/482/470 520/516/503 519/515/502
f 487/483/471 488/484/472 521/517/504
f 487/483/471 521/517/504 520/516/503
f 488/484/472 489/485/473 522/518/505
f 488/484/472 522/518/505 521/517/504
f 489/485/473 490/486/474 523/519/506
f 489/485/473 523/519/506 522/518/505
f 490/486/474 491/487/475 524/520/507
f 490/486/474 524/520/507 523/519/506
f 491/487/475 492/488/476 525/521/508
f 491/487/475 525/521/508 524/520/507
f 492/488/476 493/489/477 526/522/509
f 492/488/476 526/522/509 525/521/508
f 493/489/477 494/490/478 527/523/510
f 493/489/477 527/523/510 526/522/509
f 494/490/478 495/491/479 528/524/511
f 494/490/478 528/524/511 527/523/510
f 495/491/479 496/492/480 529/525/512
f 495/491/479 529/525/512 528/524/511
f 496/492/480 497/493/481 530/526/513
f 496/492/480 530/526/513 529/525/512
f 497/493/481 498/494/482 531/527/514
f 497/493/481 531/527/514 530/526/513
f 498/494/482 499/495/483 532/528/515
f 498/494/482 532/528/515 531/527/514
f 499/495/483 500/496/484 533/529/516
f 499/495/483 533/529/516 532/528/515
f 500/496/484 501/497/485 534/530/517
f 500/496/484 534/530/517 533/529/516
f 501/497/485 502/498/486 535/531/518
f 501/497/485 535/531/518 534/530/517
f 502/498/486 503/499/456 536/532/488
f 502/498/486 536/532/488 535/531/518
f 504/501/488 505/500/487 538/533/519
s 0
f 504/501/520 538/533/19 537/534/519
s 1
f 505/500/487 506/502/489 539/535/519
s 0
f 505/500/521 539/535/10 538/533/522
s 1
f 506/502/489 507/503/490 540/536/519
s 0
f 506/502/523 540/536/10 539/535/522
s 1
f 507/503/490 508/504/491 541/537/519
s 0
f 507/503/524 541/537/19 540/536/525
s 1
f 508/504/491 509/505/492 542/538/519
s 0
f 508/504/526 542/538/10 541/537/527
s 1
f 509/505/492 510/506/493 543/539/519
s 0
f 509/505/492 543/539/19 542/538/527
s 1
f 510/506/493 511/507/494 544/540/519
s 0
f 510/506/528 544/540/10 543/539/522
s 1
f 511/507/494 512/508/495 545/541/519
s 0
f 511/507/529 545/541/19 544/540/519
s 1
f 512/508/495 513/509/496 546/542/519
s 0
f 512/508/495 546/542/10 545/541/519
s 1
f 513/509/496 514/510/497 547/543/519
s 0
f 513/509/530 547/543/19 546/542/519
s 1
f 514/510/497 515/511/498 548/544/519
s 0
f 514/510/531 548/544/10 547/543/532
s 1
f 515/511/498 516/512/499 549/545/519
s 0
f 515/511/498 549/545/19 548/544/519
s 1
f 516/512/499 517/513/500 550/546/519
s 0
f 516/512/533 550/546/10 549/545/519
s 1
f 517/513/500 518/514/501 551/547/519
s 0
f 517/513/534 551/547/19 550/546/525
s 1
f 518/514/501 519/515/502 552/548/519
s 0
f 518/514/535 552/548/10 551/547/536
s 1
f 519/515/502 520/516/503 553/549/519
s 0
f 519/515/537 553/549/10 552/548/522
s 1
f 520/516/503 521/517/504 554/550/519
s 0
f 520/516/538 554/550/19 553/549/539
s 1
f 521/517/504 522/518/505 555/551/519
s 0
f 521/517/540 555/551/10 554/550/519
s 1
f 522/518/505 523/519/506 556/552/519
s 0
f 522/518/541 556/552/10 555/551/539
s 1
f 523/519/506 524/520/507 557/553/519
s 0
f 523/519/542 557/553/10 556/552/519
s 1
f 524/520/507 525/521/508 558/554/519
s 0
f 524/520/507 558/554/10 557/553/519
s 1
f 525/521/508 526/522/509 559/555/519
s 0
f 525/521/508 559/555/19 558/554/519
s 1
f 526/522/509 527/523/510 560/556/519
s 0
f 526/522/543 560/556/19 559/555/527
s 1
f 527/523/510 528/524/511 561/557/519
s 0
f 527/523/510 561/557/10 560/556/519
s 1
f 528/524/511 529/525/512 562/558/519
s 0
f 528/524/511 562/558/10 561/557/519
s 1
f 529/525/512 530/526/513 563/559/519
s 0
f 529/525/512 563/559/10 562/558/519
s 1
f 530/526/513 531/527/514 564/560/519
s 0
f 530/526/544 564/560/19 563/559/519
s 1
f 531/527/514 532/528/515 565/561/519
s 0
f 531/527/514 565/561/19 564/560/527
s 1
f 532/528/515 533/529/516 566/562/519
s 0
f 532/528/515 566/562/10 565/561/527
s 1
f 533/529/516 534/530/517 567/563/519
s 0
f 533/529/545 567/563/10 566/562/519
s 1
f 534/530/517 535/531/518 568/564/519
s 0
f 534/530/546 568/564/10 567/563/519
s 1
f 535/531/518 536/532/488 569/565/519
s 0
f 535/531/547 569/565/10 568/564/519
o Frame_Edges
v -1.250000 -1.290000 -1.290000
v 1.250000 -1.290000 -1.290000
v 1.250000 -1.210000 -1.290000
v -1.250000 -1.210000 -1.290000
v -1.250000 -1.290000 -1.210000
v 1.250000 -1.290000 -1.210000
v 1.250000 -1.210000 -1.210000
v -1.250000 -1.210000 -1.210000
v -1.250000 -1.290000 1.210000
v 1.250000 -1.290000 1.210000
v 1.250000 -1.210000 1.210000
v -1.250000 -1.210000 1.210000
v -1.250000 -1.290000 1.290000
v 1.250000 -1.290000 1.290000
v 1.250000 -1.210000 1.290000
v -1.250000 -1.210000 1.290000
v -1.250000 1.210000 -1.290000
v 1.250000 1.210000 -1.290000
v 1.250000 1.290000 -1.290000
v -1.250000 1.290000 -1.290000
v -1.250000 1.210000 -1.210000
v 1.250000 1.210000 -1.210000
v 1.250000 1.290000 -1.210000
v -1.250000 1.290000 -1.210000
v -1.250000 1.210000 1.210000
v 1.250000 1.210000 1.210000
v 1.250000 1.290000 1.210000
v -1.250000 1.290000 1.210000
v -1.250000 1.210000 1.290000
v 1.250000 1.210000 1.290000
v 1.250000 1.290000 1.290000
v -1.250000 1.290000 1.290000
v -1.290000 -1.250000 -1.290000
v -1.210000 -1.250000 -1.290000
v -1.210000 1.250000 -1.290000
v -1.290000 1.250000 -1.290000
v -1.290000 -1.250000 -1.210000
v -1.210000 -1.250000 -1.210000
v -1.210000 1.250000 -1.210000
v -1.290000 1.250000 -1.210000
v -1.290000 -1.250000 1.210000
v -1.210000 -1.250000 1.210000
v -1.210000 1.250000 1.210000
v -1.290000 1.250000 1.210000
v -1.290000 -1.250000 1.290000
v -1.210000 -1.250000 1.290000
v -1.210000 1.250000 1.290000
v -1.290000 1.250000 1.290000
v 1.210000 -1.250000 -1.290000
v 1.290000 -1.250000 -1.290000
v 1.290000 1.250000 -1.290000
v 1.210000 1.250000 -1.290000
v 1.210000 -1.250000 -1.210000
v 1.290000 -1.250000 -1.210000
v 1.290000 1.250000 -1.210000
v 1.210000 1.250000 -1.210000
v 1.210000 -1.250000 1.210000
v 1.290000 -1.250000 1.210000
v 1.290000 1.250000 1.210000
v 1.210000 1.250000 1.210000
v 1.210000 -1.250000 1.290000
v 1.290000 -1.250000 1.290000
v 1.290000 1.250000 1.290000
v 1.210000 1.250000 1.290000
v -1.290000 -1.290000 -1.250000
v -1.210000 -1.290000 -1.250000
v -1.210000 -1.210000 -1.250000
v -1.290000 -1.210000 -1.250000
v -1.290000 -1.290000 1.250000
v -1.210000 -1.290000 1.250000
v -1.210000 -1.210000 1.250000
v -1.290000 -1.210000 1.250000
v -1.290000 1.210000 -1.250000
v -1.210000 1.210000 -1.250000
v -1.210000 1.290000 -1.250000
v -1.290000 1.290000 -1.250000
v -1.290000 1.210000 1.250000
v -1.210000 1.210000 1.250000
v -1.210000 1.290000 1.250000
v -1.290000 1.290000 1.250000
v 1.210000 -1.290000 -1.250000
v 1.290000 -1.290000 -1.250000
v 1.290000 -1.210000 -1.250000
v 1.210000 -1.210000 -1.250000
v 1.210000 -1.290000 1.250000
v 1.290000 -1.290000 1.250000
v 1.290000 -1.210000 1.250000
v 1.210000 -1.210000 1.250000
v 1.210000 1.210000 -1.250000
v 1.290000 1.210000 -1.250000
v 1.290000 1.290000 -1.250000
v 1.210000 1.290000 -1.250000
v 1.210000 1.210000 1.250000
v 1.290000 1.210000 1.250000
v 1.290000 1.290000 1.250000
v 1.210000 1.290000 1.250000
vn -0.5398 -0.8321 0.1276
vn -0.0000 -0.0000 1.0000
vn -0.9619 0.0639 -0.2660
vn -0.6468 -0.5240 0.5542
vn 0.0260 -0.0328 0.9991
vn -0.0703 -0.9743 0.2141
vn -0.9220 0.3640 0.1321
vn -1.0000 -0.0000 -0.0000
vn -1.0000 -0.0000 0.0003
vn -1.0000 -0.0003 -0.0000
vn -1.0000 0.0002 -0.0002
vn -0.0000 -1.0000 -0.0000
vn -0.8320 -0.5398 0.1276
vn -0.5623 -0.6462 0.5160
vn -0.5875 -0.1379 0.7974
vn -0.1354 -0.2904 0.9473
vn -0.5380 -0.6735 0.5068
vn -0.9984 0.0415 0.0377
vn 0.0002 -1.0000 -0.0002
vn -0.0003 -1.0000 -0.0000
vn -0.0000 -1.0000 0.0003
vn -0.5340 -0.5341 0.6554
vn 0.2307 0.8455 -0.4816
vn -0.4814 0.2316 0.8453
vn 0.1424 -0.6922 0.7075
vn -0.2716 -0.2718 0.9232
vn -0.6926 0.7070 0.1428
vt 0.000000 0.000000
vt 1.000000 1.000000
vt 1.000000 0.000000
vt 0.000000 1.000000
s 1
usemtl Frame
f 570/566/548 572/567/549 571/568/550
f 570/566/548 573/569/551 572/567/549
f 574/566/549 575/568/552 576/567/553
f 574/566/549 576/567/553 577/569/554
f 570/566/555 574/568/555 577/567/555
f 570/566/548 577/567/554 573/569/551
f 571/566/550 576/567/553 575/568/552
f 571/566/556 572/569/557 576/567/558
f 573/566/559 576/567/559 572/568/559
f 573/566/551 577/569/554 576/567/553
f 570/566/548 571/568/550 575/567/552
f 570/566/559 575/567/559 574/569/559
f 578/566/548 580/567/549 579/568/550
f 578/566/548 581/569/551 580/567/549
f 582/566/549 583/568/552 584/567/553
f 582/566/549 584/567/553 585/569/554
f 578/566/555 582/568/555 585/567/555
f 578/566/548 585/567/554 581/569/551
f 579/566/550 584/567/553 583/568/552
f 579/566/556 580/569/557 584/567/558
f 581/566/559 584/567/559 580/568/559
f 581/566/551 585/569/554 584/567/553
f 578/566/548 579/568/550 583/567/552
f 578/566/559 583/567/559 582/569/559
f 586/566/548 588/567/549 587/568/550
f 586/566/548 589/569/551 588/567/549
f 590/566/549 591/568/552 592/567/553
f 590/566/549 592/567/553 593/569/554
f 586/566/555 590/568/555 593/567/555
f 586/566/548 593/567/554 589/569/551
f 587/566/550 592/567/553 591/568/552
f 587/566/556 588/569/557 592/567/558
f 589/566/559 592/567/559 588/568/559
f 589/566/551 593/569/554 592/567/553
f 586/566/548 587/568/550 591/567/552
f 586/566/559 591/567/559 590/569/559
f 594/566/548 596/567/549 595/568/550
f 594/566/548 597/569/551 596/567/549
f 598/566/549 599/568/552 600/567/553
f 598/566/549 600/567/553 601/569/554
f 594/566/555 598/568/555 601/567/555
f 594/566/548 601/567/554 597/569/551
f 595/566/550 600/567/553 599/568/552
f 595/566/556 596/569/557 600/567/558
f 597/566/559 600/567/559 596/568/559
f 597/566/551 601/569/554 600/567/553
f 594/566/548 595/568/550 599/567/552
f 594/566/559 599/567/559 598/569/559
f 602/566/560 604/567/549 603/568/561
f 602/566/560 605/569/562 604/567/549
f 606/566/549 607/568/563 608/567/564
f 606/566/549 608/567/564 609/569/565
f 602/566/555 606/568/555 609/567/555
f 602/566/560 609/567/565 605/569/562
f 603/566/561 608/567/564 607/568/563
f 603/566/555 604/569/555 608/567/555
f 605/566/566 608/567/567 604/568/568
f 605/566/562 609/569/565 608/567/564
f 602/566/560 603/568/561 607/567/563
f 602/566/559 607/567/559 606/569/559
f 610/566/560 612/567/549 611/568/561
f 610/566/560 613/569/562 612/567/549
f 614/566/549 615/568/563 616/567/564
f 614/566/549 616/567/564 617/569/565
f 610/566/555 614/568/555 617/567/555
f 610/566/560 617/567/565 613/569/562
f 611/566/561 616/567/564 615/568/563
f 611/566/555 612/569/555 616/567/555
f 613/566/566 616/567/567 612/568/568
f 613/566/562 617/569/565 616/567/564
f 610/566/560 611/568/561 615/567/563
f 610/566/559 615/567/559 614/569/559
f 618/566/560 620/567/549 619/568/561
f 618/566/560 621/569/562 620/567/549
f 622/566/549 623/568/563 624/567/564
f 622/566/549 624/567/564 625/569/565
f 618/566/555 622/568/555 625/567/555
f 618/566/560 625/567/565 621/569/562
f 619/566/561 624/567/564 623/568/563
f 619/566/555 620/569/555 624/567/555
f 621/566/566 624/567/567 620/568/568
f 621/566/562 625/569/565 624/567/564
f 618/566/560 619/568/561 623/567/563
f 618/566/559 623/567/559 622/569/559
f 626/566/560 628/567/549 627/568/561
f 626/566/560 629/569/562 628/567/549
f 630/566/549 631/568/563 632/567/564
f 630/566/549 632/567/564 633/569/565
f 626/566/555 630/568/555 633/567/555
f 626/566/560 633/567/565 629/569/562
f 627/566/561 632/567/564 631/568/563
f 627/566/555 628/569/555 632/567/555
f 629/566/566 632/567/567 628/568/568
f 629/566/562 633/569/565 632/567/564
f 626/566/560 627/568/561 631/567/563
f 626/566/559 631/567/559 630/569/559
f 634/566/569 636/567/549 635/568/570
f 634/566/569 637/569/571 636/567/549
f 638/566/549 639/568/572 640/567/573
f 638/566/549 640/567/573 641/569/574
f 634/566/555 638/568/555 641/567/555
f 634/566/569 641/567/574 637/569/571
f 635/566/570 640/567/573 639/568/572
f 635/566/555 636/569/555 640/567/555
f 637/566/559 640/567/559 636/568/559
f 637/566/571 641/569/574 640/567/573
f 634/566/569 635/568/570 639/567/572
f 634/566/559 639/567/559 638/569/559
f 642/566/569 644/567/549 643/568/570
f 642/566/569 645/569/571 644/567/549
f 646/566/549 647/568/572 648/567/573
f 646/566/549 648/567/573 649/569/574
f 642/566/555 646/568/555 649/567/555
f 642/566/569 649/567/574 645/569/571
f 643/566/570 648/567/573 647/568/572
f 643/566/555 644/569/555 648/567/555
f 645/566/559 648/567/559 644/568/559
f 645/566/571 649/569/574 648/567/573
f 642/566/569 643/568/570 647/567/572
f 642/566/559 647/567/559 646/569/559
f 650/566/569 652/567/549 651/568/570
f 650/566/569 653/569/571 652/567/549
f 654/566/549 655/568/572 656/567/573
f 654/566/549 656/567/573 657/569/574
f 650/566/555 654/568/555 657/567/555
f 650/566/569 657/567/574 653/569/571
f 651/566/570 656/567/573 655/568/572
f 651/566/555 652/569/555 656/567/555
f 653/566/559 656/567/559 652/568/559
f 653/566/571 657/569/574 656/567/573
f 650/566/569 651/568/570 655/567/572
f 650/566/559 655/567/559 654/569/559
f 658/566/569 660/567/549 659/568/570
f 658/566/569 661/569/571 660/567/549
f 662/566/549 663/568/572 664/567/573
f 662/566/549 664/567/573 665/569/574
f 658/566/555 662/568/555 665/567/555
f 658/566/569 665/567/574 661/569/571
f 659/566/570 664/567/573 663/568/572
f 659/566/555 660/569/555 664/567/555
f 661/566/559 664/567/559 660/568/559
f 661/566/571 665/569/574 664/567/573
f 658/566/569 659/568/570 663/567/572
f 658/566/559 663/567/559 662/569/559
