# Blender 4.4.1
# www.blender.org
mtllib BossMissile.mtl
o 球
v 0.000000 -0.211701 0.141454
v 0.000000 -0.141454 0.211701
v 0.000000 -0.049672 0.249719
v 0.000000 0.000000 0.254611
v 0.000000 0.049672 0.249719
v 0.000000 0.141454 0.211701
v 0.009691 -0.249719 0.048718
v 0.019009 -0.235230 0.095563
v 0.027596 -0.211701 0.138736
v 0.035124 -0.180037 0.176578
v 0.041301 -0.141454 0.207634
v 0.045891 -0.097435 0.230710
v 0.048718 -0.049672 0.244920
v 0.049672 0.000000 0.249719
v 0.048718 0.049672 0.244920
v 0.045891 0.097435 0.230710
v 0.041301 0.141454 0.207634
v 0.035124 0.180037 0.176578
v 0.027596 0.211701 0.138736
v 0.019009 0.235230 0.095563
v 0.009691 0.249719 0.048718
v 0.019009 -0.249719 0.045891
v 0.037287 -0.235230 0.090019
v 0.054132 -0.211701 0.130687
v 0.068897 -0.180037 0.166333
v 0.081015 -0.141454 0.195586
v 0.090019 -0.097435 0.217324
v 0.095563 -0.049672 0.230710
v 0.097435 0.000000 0.235230
v 0.095563 0.049672 0.230710
v 0.090019 0.097435 0.217324
v 0.081015 0.141454 0.195586
v 0.068897 0.180037 0.166333
v 0.054132 0.211701 0.130687
v 0.037287 0.235230 0.090019
v 0.019009 0.249719 0.045891
v 0.027596 -0.249719 0.041301
v 0.054132 -0.235230 0.081015
v 0.078588 -0.211701 0.117615
v 0.100023 -0.180037 0.149695
v 0.117615 -0.141454 0.176023
v 0.130687 -0.097435 0.195587
v 0.138736 -0.049672 0.207634
v 0.141454 0.000000 0.211701
v 0.138736 0.049672 0.207634
v 0.130687 0.097435 0.195587
v 0.117615 0.141454 0.176023
v 0.100023 0.180037 0.149695
v 0.078588 0.211701 0.117615
v 0.054132 0.235230 0.081015
v 0.027596 0.249719 0.041301
v 0.035124 -0.249719 0.035124
v 0.068897 -0.235230 0.068897
v 0.100023 -0.211701 0.100023
v 0.127306 -0.180037 0.127306
v 0.149695 -0.141454 0.149695
v 0.166333 -0.097435 0.166333
v 0.176578 -0.049672 0.176578
v 0.180037 0.000000 0.180037
v 0.176578 0.049672 0.176578
v 0.166333 0.097435 0.166333
v 0.149695 0.141454 0.149695
v 0.127306 0.180037 0.127306
v 0.100023 0.211701 0.100023
v 0.068897 0.235230 0.068897
v 0.035124 0.249719 0.035124
v 0.041301 -0.249719 0.027596
v 0.081015 -0.235230 0.054132
v 0.117615 -0.211701 0.078588
v 0.149695 -0.180037 0.100023
v 0.176023 -0.141454 0.117615
v 0.195586 -0.097435 0.130687
v 0.207634 -0.049672 0.138736
v 0.211701 0.000000 0.141454
v 0.207634 0.049672 0.138736
v 0.195586 0.097435 0.130687
v 0.176023 0.141454 0.117615
v 0.149695 0.180037 0.100023
v 0.117615 0.211701 0.078588
v 0.081015 0.235230 0.054132
v 0.041301 0.249719 0.027596
v 0.000000 -0.254611 -0.385970
v 0.045891 -0.249719 0.019009
v 0.090019 -0.235230 0.037287
v 0.130687 -0.211701 0.054132
v 0.166333 -0.180037 0.068897
v 0.195586 -0.141454 0.081015
v 0.217324 -0.097435 0.090019
v 0.230710 -0.049672 0.095563
v 0.235230 0.000000 0.097435
v 0.230710 0.049672 0.095563
v 0.217324 0.097435 0.090019
v 0.195586 0.141454 0.081015
v 0.166333 0.180037 0.068897
v 0.130687 0.211701 0.054132
v 0.090019 0.235230 0.037287
v 0.045891 0.249719 0.019009
v 0.048718 -0.249719 0.009691
v 0.095563 -0.235230 0.019009
v 0.138736 -0.211701 0.027596
v 0.176578 -0.180037 0.035124
v 0.207633 -0.141454 0.041301
v 0.230710 -0.097435 0.045891
v 0.575198 -0.029011 -0.340671
v 0.576005 -0.020661 -0.340511
v 0.244920 0.049672 0.048718
v 0.230710 0.097435 0.045891
v 0.207633 0.141454 0.041301
v 0.176578 0.180037 0.035124
v 0.138736 0.211701 0.027596
v 0.095563 0.235230 0.019009
v 0.048718 0.249719 0.009691
v 0.049672 -0.249719 -0.385970
v 0.097435 -0.235230 -0.385970
v 0.141454 -0.211701 -0.385970
v 0.180037 -0.180037 -0.385970
v 0.211701 -0.141454 -0.385970
v 0.235230 -0.097435 -0.385970
v 0.576005 -0.029011 -0.353652
v 0.576827 -0.020661 -0.353652
v 0.249719 0.049672 -0.385970
v 0.235230 0.097435 -0.385970
v 0.211701 0.141454 -0.385970
v 0.180037 0.180037 -0.385970
v 0.141454 0.211701 -0.385970
v 0.097435 0.235230 -0.385970
v 0.049672 0.249719 -0.385970
v 0.048718 -0.249719 -0.395660
v 0.095563 -0.235230 -0.404978
v 0.138736 -0.211701 -0.413566
v 0.176578 -0.180037 -0.421093
v 0.207633 -0.141454 -0.427271
v 0.230710 -0.097435 -0.431861
v 0.244920 -0.049672 -0.434687
v 0.249719 -0.000000 -0.435642
v 0.244920 0.049672 -0.434687
v 0.230710 0.097435 -0.431861
v 0.207633 0.141454 -0.427271
v 0.176578 0.180037 -0.421093
v 0.138736 0.211701 -0.413566
v 0.095563 0.235230 -0.404978
v 0.048718 0.249719 -0.395660
v 0.045891 -0.249719 -0.404978
v 0.090019 -0.235230 -0.423257
v 0.130687 -0.211701 -0.440102
v 0.166333 -0.180037 -0.454867
v 0.195586 -0.141454 -0.466984
v 0.217324 -0.097435 -0.475988
v 0.230710 -0.049672 -0.481533
v 0.235230 -0.000000 -0.483405
v 0.230710 0.049672 -0.481533
v 0.217324 0.097435 -0.475988
v 0.195586 0.141454 -0.466984
v 0.166333 0.180037 -0.454867
v 0.130687 0.211701 -0.440102
v 0.090019 0.235230 -0.423257
v 0.045891 0.249719 -0.404978
v 0.041301 -0.249719 -0.413566
v 0.081015 -0.235230 -0.440102
v 0.117615 -0.211701 -0.464557
v 0.149695 -0.180037 -0.485993
v 0.176023 -0.141454 -0.503585
v 0.195586 -0.097435 -0.516656
v 0.207633 -0.049672 -0.524706
v 0.211701 -0.000000 -0.527424
v 0.207633 0.049672 -0.524706
v 0.195586 0.097435 -0.516656
v 0.176023 0.141454 -0.503585
v 0.149695 0.180037 -0.485993
v 0.117615 0.211701 -0.464557
v 0.081015 0.235230 -0.440102
v 0.041301 0.249719 -0.413566
v 0.035123 -0.249719 -0.421093
v 0.068897 -0.235230 -0.454867
v 0.100023 -0.211701 -0.485993
v 0.127305 -0.180037 -0.513275
v 0.149695 -0.141454 -0.535665
v 0.166333 -0.097435 -0.552302
v 0.176578 -0.049672 -0.562547
v 0.180037 -0.000000 -0.566007
v 0.176578 0.049672 -0.562547
v 0.166333 0.097435 -0.552302
v 0.149695 0.141454 -0.535665
v 0.127305 0.180037 -0.513275
v 0.100023 0.211701 -0.485993
v 0.068897 0.235230 -0.454867
v 0.035123 0.249719 -0.421093
v 0.027596 -0.249719 -0.427270
v 0.054132 -0.235230 -0.466984
v 0.078588 -0.211701 -0.503585
v 0.100023 -0.180037 -0.535665
v 0.117615 -0.141454 -0.684227
v 0.130687 -0.097435 -0.703789
v 0.138736 -0.049672 -0.714028
v 0.141454 -0.000000 -0.718096
v 0.138736 0.049672 -0.715837
v 0.130687 0.097435 -0.703789
v 0.117615 0.141454 -0.561993
v 0.100023 0.180037 -0.535665
v 0.078588 0.211701 -0.503585
v 0.054132 0.235230 -0.466984
v 0.027596 0.249719 -0.427270
v 0.019009 -0.249719 -0.431861
v 0.037287 -0.235230 -0.475988
v 0.054132 -0.211701 -0.516656
v 0.068897 -0.180037 -0.552302
v 0.081015 -0.141454 -0.703789
v 0.090019 -0.097435 -0.725528
v 0.095563 -0.049672 -0.738914
v 0.097435 -0.000000 -0.743433
v 0.095563 0.049672 -0.738914
v 0.090019 0.097435 -0.725528
v 0.081015 0.141454 -0.703789
v 0.068897 0.180037 -0.552302
v 0.054132 0.211701 -0.516656
v 0.037287 0.235230 -0.475988
v 0.019009 0.249719 -0.431861
v 0.009691 -0.249719 -0.434687
v 0.019009 -0.235230 -0.481533
v 0.027596 -0.211701 -0.524706
v 0.035124 -0.180037 -0.562547
v 0.041301 -0.141454 -0.715837
v 0.045891 -0.097435 -0.738914
v 0.048718 -0.049672 -0.923289
v 0.049672 -0.000000 -0.928087
v 0.048718 0.049672 -0.922911
v 0.045891 0.097435 -0.738914
v 0.041301 0.141454 -0.715837
v 0.035124 0.180037 -0.562547
v 0.027596 0.211701 -0.524706
v 0.019009 0.235230 -0.481533
v 0.009691 0.249719 -0.434687
v 0.000000 -0.249719 -0.435642
v 0.000000 -0.235230 -0.483405
v 0.000000 -0.211701 -0.527424
v 0.000000 -0.180037 -0.566007
v 0.000000 -0.141454 -0.719904
v 0.000000 -0.097435 -0.743433
v 0.000000 -0.049672 -0.928087
v 0.000000 -0.000000 -0.838830
v 0.000000 0.049672 -0.928087
v 0.000000 0.097435 -0.743433
v 0.000000 0.141454 -0.719904
v 0.000000 0.180037 -0.566007
v 0.000000 0.211701 -0.527424
v 0.000000 0.235230 -0.483405
v 0.000000 0.249719 -0.435642
v -0.009691 -0.249719 -0.434687
v -0.019009 -0.235230 -0.481533
v -0.027596 -0.211701 -0.524706
v -0.035124 -0.180037 -0.562547
v -0.041301 -0.141454 -0.715837
v -0.045891 -0.097435 -0.738914
v -0.048718 -0.049672 -0.922911
v -0.049672 -0.000000 -0.928087
v -0.048718 0.049672 -0.923289
v -0.045891 0.097435 -0.738914
v -0.041301 0.141454 -0.715837
v -0.035124 0.180037 -0.562547
v -0.027596 0.211701 -0.524706
v -0.019009 0.235230 -0.481533
v -0.009691 0.249719 -0.434687
v -0.019009 -0.249719 -0.431861
v -0.037287 -0.235230 -0.475988
v -0.054132 -0.211701 -0.516656
v -0.068897 -0.180037 -0.552302
v -0.081015 -0.141454 -0.703789
v -0.090019 -0.097435 -0.725528
v -0.095563 -0.049672 -0.738914
v -0.097435 -0.000000 -0.743433
v -0.095563 0.049672 -0.738914
v -0.090019 0.097435 -0.725528
v -0.081015 0.141454 -0.703789
v -0.068897 0.180037 -0.552302
v -0.054132 0.211701 -0.516656
v -0.037287 0.235230 -0.475988
v -0.019009 0.249719 -0.431861
v -0.027596 -0.249719 -0.427270
v -0.054132 -0.235230 -0.466984
v -0.078588 -0.211701 -0.503585
v -0.100023 -0.180037 -0.535665
v -0.117615 -0.141454 -0.561993
v -0.130687 -0.097435 -0.703789
v -0.138736 -0.049672 -0.715837
v -0.141454 -0.000000 -0.719904
v -0.138736 0.049672 -0.715837
v -0.130687 0.097435 -0.703789
v -0.117615 0.141454 -0.684227
v -0.100023 0.180037 -0.535665
v -0.078588 0.211701 -0.503585
v -0.054132 0.235230 -0.466984
v -0.027596 0.249719 -0.427270
v -0.035123 -0.249719 -0.421093
v -0.068897 -0.235230 -0.454867
v -0.100023 -0.211701 -0.485993
v -0.127305 -0.180037 -0.513275
v -0.149695 -0.141454 -0.535665
v -0.166333 -0.097435 -0.552302
v -0.176578 -0.049672 -0.562547
v -0.180037 -0.000000 -0.566007
v -0.176578 0.049672 -0.562547
v -0.166333 0.097435 -0.552302
v -0.149695 0.141454 -0.535665
v -0.127305 0.180037 -0.513275
v -0.100023 0.211701 -0.485993
v -0.068897 0.235230 -0.454867
v -0.035123 0.249719 -0.421093
v 0.000000 0.254611 -0.385970
v -0.041301 -0.249719 -0.413566
v -0.081015 -0.235230 -0.440102
v -0.117615 -0.211701 -0.464557
v -0.149695 -0.180037 -0.485993
v -0.176023 -0.141454 -0.503585
v -0.195586 -0.097435 -0.516656
v -0.207633 -0.049672 -0.524706
v -0.211701 -0.000000 -0.527424
v -0.207633 0.049672 -0.524706
v -0.195586 0.097435 -0.516656
v -0.176023 0.141454 -0.503585
v -0.149695 0.180037 -0.485993
v -0.117615 0.211701 -0.464557
v -0.081015 0.235230 -0.440102
v -0.041301 0.249719 -0.413566
v -0.045891 -0.249719 -0.404978
v -0.090019 -0.235230 -0.423257
v -0.130687 -0.211701 -0.440102
v -0.166333 -0.180037 -0.454867
v -0.195586 -0.141454 -0.466984
v -0.217324 -0.097435 -0.475988
v -0.230710 -0.049672 -0.481533
v -0.235230 -0.000000 -0.483405
v -0.230710 0.049672 -0.481533
v -0.217324 0.097435 -0.475988
v -0.195586 0.141454 -0.466984
v -0.166333 0.180037 -0.454867
v -0.130687 0.211701 -0.440102
v -0.090019 0.235230 -0.423257
v -0.045891 0.249719 -0.404978
v -0.048718 -0.249719 -0.395660
v -0.095563 -0.235230 -0.404978
v -0.138736 -0.211701 -0.413566
v -0.176578 -0.180037 -0.421093
v -0.207633 -0.141454 -0.427270
v -0.230710 -0.097435 -0.431861
v -0.244920 -0.049672 -0.434687
v -0.249719 -0.000000 -0.435642
v -0.244920 0.049672 -0.434687
v -0.230710 0.097435 -0.431861
v -0.207633 0.141454 -0.427270
v -0.176578 0.180037 -0.421093
v -0.138736 0.211701 -0.413566
v -0.095563 0.235230 -0.404978
v -0.048718 0.249719 -0.395660
v -0.049672 -0.249719 -0.385970
v -0.097435 -0.235230 -0.385970
v -0.141454 -0.211701 -0.385970
v -0.180037 -0.180037 -0.385970
v -0.211701 -0.141454 -0.385970
v -0.235230 -0.097435 -0.385970
v -0.249719 -0.049672 -0.385970
v -0.563890 0.018292 -0.373077
v -0.562601 0.031380 -0.373077
v -0.235230 0.097435 -0.385970
v -0.211701 0.141454 -0.385970
v -0.180037 0.180037 -0.385970
v -0.141454 0.211701 -0.385970
v -0.097435 0.235230 -0.385970
v -0.049672 0.249719 -0.385970
v -0.048718 -0.249719 0.009691
v -0.095563 -0.235230 0.019009
v -0.138736 -0.211701 0.027596
v -0.176578 -0.180037 0.035124
v -0.207633 -0.141454 0.041301
v -0.230710 -0.097435 0.045891
v -0.244920 -0.049672 0.048718
v -0.562600 0.018292 -0.363727
v -0.561336 0.031380 -0.363978
v -0.230710 0.097435 0.045891
v -0.207633 0.141454 0.041301
v -0.176578 0.180037 0.035124
v -0.138736 0.211701 0.027596
v -0.095563 0.235230 0.019009
v -0.048718 0.249719 0.009691
v -0.045891 -0.249719 0.019009
v -0.090019 -0.235230 0.037287
v -0.130687 -0.211701 0.054132
v -0.166333 -0.180037 0.068897
v -0.195586 -0.141454 0.081015
v -0.217324 -0.097435 0.090019
v -0.230710 -0.049672 0.095563
v -0.235230 0.000000 0.097435
v -0.230710 0.049672 0.095563
v -0.217324 0.097435 0.090019
v -0.195586 0.141454 0.081015
v -0.166333 0.180037 0.068897
v -0.130687 0.211701 0.054132
v -0.090019 0.235230 0.037287
v -0.045891 0.249719 0.019009
v -0.041301 -0.249719 0.027596
v -0.081015 -0.235230 0.054132
v -0.117615 -0.211701 0.078588
v -0.149695 -0.180037 0.100023
v -0.176023 -0.141454 0.117615
v -0.195586 -0.097435 0.130687
v -0.207633 -0.049672 0.138736
v -0.211701 0.000000 0.141454
v -0.207633 0.049672 0.138736
v -0.195586 0.097435 0.130687
v -0.176023 0.141454 0.117615
v -0.149695 0.180037 0.100023
v -0.117615 0.211701 0.078588
v -0.081015 0.235230 0.054132
v -0.041301 0.249719 0.027596
v -0.035123 -0.249719 0.035123
v -0.068897 -0.235230 0.068897
v -0.100023 -0.211701 0.100023
v -0.127305 -0.180037 0.127305
v -0.149695 -0.141454 0.149695
v -0.166333 -0.097435 0.166333
v -0.176578 -0.049672 0.176578
v -0.180037 0.000000 0.180037
v -0.176578 0.049672 0.176578
v -0.166333 0.097435 0.166333
v -0.149695 0.141454 0.149695
v -0.127305 0.180037 0.127305
v -0.100023 0.211701 0.100023
v -0.068897 0.235230 0.068897
v -0.035123 0.249719 0.035123
v -0.027596 -0.249719 0.041301
v -0.054132 -0.235230 0.081015
v -0.078588 -0.211701 0.117615
v -0.100023 -0.180037 0.149695
v -0.117615 -0.141454 0.176023
v -0.130687 -0.097435 0.195586
v -0.138736 -0.049672 0.207633
v -0.141454 0.000000 0.211701
v -0.138736 0.049672 0.207633
v -0.130687 0.097435 0.195586
v -0.117615 0.141454 0.176023
v -0.100023 0.180037 0.149695
v -0.078588 0.211701 0.117615
v -0.054132 0.235230 0.081015
v -0.027596 0.249719 0.041301
v -0.019009 -0.249719 0.045891
v -0.037287 -0.235230 0.090019
v -0.054132 -0.211701 0.130687
v -0.068897 -0.180037 0.166333
v -0.081014 -0.141454 0.195586
v -0.090019 -0.097435 0.217324
v -0.095563 -0.049672 0.230710
v -0.097435 0.000000 0.235230
v -0.095563 0.049672 0.230710
v -0.090019 0.097435 0.217324
v -0.081014 0.141454 0.195586
v -0.068897 0.180037 0.166333
v -0.054132 0.211701 0.130687
v -0.037287 0.235230 0.090019
v -0.019009 0.249719 0.045891
v -0.009691 -0.249719 0.048718
v -0.019009 -0.235230 0.095563
v -0.027596 -0.211701 0.138736
v -0.035123 -0.180037 0.176578
v -0.041301 -0.141454 0.207633
v -0.045891 -0.097435 0.230710
v -0.048718 -0.049672 0.244920
v -0.049672 0.000000 0.249718
v -0.048718 0.049672 0.244920
v -0.045891 0.097435 0.230710
v -0.041301 0.141454 0.207633
v -0.035123 0.180037 0.176578
v -0.027596 0.211701 0.138736
v -0.019009 0.235230 0.095563
v -0.009691 0.249719 0.048718
v 0.000000 -0.249719 0.049672
v 0.000000 -0.235230 0.097435
v 0.000000 -0.180037 0.180037
v 0.000000 -0.097435 0.235230
v 0.000000 0.097435 0.235230
v 0.000000 0.180037 0.180037
v 0.000000 0.211701 0.141454
v 0.000000 0.235230 0.097435
v 0.000000 0.249719 0.049672
vn -0.0000 -0.3805 0.9248
vn -0.0000 -0.5528 0.8333
vn 0.1626 -0.5528 0.8173
vn 0.1804 -0.3805 0.9070
vn -0.0000 0.9217 0.3879
vn -0.0000 0.8286 0.5598
vn 0.1092 0.8286 0.5490
vn 0.0757 0.9217 0.3804
vn -0.0000 -0.1939 0.9810
vn 0.1914 -0.1939 0.9622
vn -0.0000 0.9870 0.1609
vn 0.0308 0.9870 0.1579
vn -0.0000 -0.0000 1.0000
vn 0.1951 -0.0000 0.9808
vn -0.0000 -0.9870 0.1609
vn 0.0001 -0.9996 -0.0281
vn 0.0313 -0.9870 0.1579
vn -0.0000 0.9996 -0.0294
vn -0.0000 0.1939 0.9810
vn 0.1914 0.1939 0.9622
vn -0.0000 -0.9217 0.3879
vn 0.0757 -0.9217 0.3804
vn -0.0000 0.3805 0.9248
vn 0.1804 0.3805 0.9070
vn -0.0000 -0.8286 0.5598
vn 0.1092 -0.8286 0.5490
vn -0.0000 0.5528 0.8333
vn 0.1626 0.5528 0.8173
vn -0.0000 -0.7041 0.7101
vn 0.1385 -0.7041 0.6965
vn -0.0000 0.7041 0.7101
vn 0.1385 0.7041 0.6965
vn 0.3189 0.5528 0.7699
vn 0.2718 0.7041 0.6561
vn 0.2718 -0.7041 0.6561
vn 0.3189 -0.5528 0.7699
vn 0.2142 0.8286 0.5172
vn 0.3539 -0.3805 0.8544
vn 0.1484 0.9217 0.3584
vn 0.3754 -0.1939 0.9063
vn 0.0610 0.9869 0.1492
vn 0.3827 -0.0000 0.9239
vn 0.0610 -0.9869 0.1492
vn 0.3754 0.1939 0.9063
vn 0.1484 -0.9217 0.3584
vn 0.3539 0.3805 0.8544
vn 0.2142 -0.8286 0.5172
vn 0.0896 0.9870 0.1337
vn 0.5556 -0.0000 0.8315
vn 0.5450 0.1939 0.8157
vn 0.0901 -0.9867 0.1352
vn 0.2155 -0.9217 0.3225
vn 0.5138 0.3805 0.7689
vn 0.3110 -0.8286 0.4654
vn 0.4630 0.5528 0.6929
vn 0.3945 -0.7041 0.5905
vn 0.3945 0.7041 0.5905
vn 0.4630 -0.5528 0.6929
vn 0.3110 0.8286 0.4654
vn 0.5138 -0.3805 0.7689
vn 0.2155 0.9217 0.3225
vn 0.5450 -0.1939 0.8157
vn 0.5021 0.7041 0.5021
vn 0.3958 0.8286 0.3958
vn 0.5893 -0.5528 0.5893
vn 0.6539 -0.3805 0.6539
vn 0.2743 0.9217 0.2743
vn 0.6937 -0.1939 0.6937
vn 0.1138 0.9867 0.1158
vn 0.7071 -0.0000 0.7071
vn 0.1138 -0.9867 0.1158
vn 0.6937 0.1939 0.6937
vn 0.2743 -0.9217 0.2743
vn 0.6539 0.3805 0.6539
vn 0.3958 -0.8286 0.3958
vn 0.5893 0.5528 0.5893
vn 0.5021 -0.7041 0.5021
vn 0.1359 -0.9865 0.0913
vn 0.3225 -0.9217 0.2155
vn 0.8157 0.1939 0.5450
vn 0.7689 0.3805 0.5138
vn 0.4654 -0.8286 0.3110
vn 0.6929 0.5528 0.4630
vn 0.5905 -0.7041 0.3945
vn 0.5905 0.7041 0.3945
vn 0.6929 -0.5528 0.4630
vn 0.4654 0.8286 0.3110
vn 0.7689 -0.3805 0.5138
vn 0.3225 0.9217 0.2155
vn 0.8157 -0.1939 0.5450
vn 0.1359 0.9865 0.0913
vn 0.8315 -0.0000 0.5556
vn 0.7699 -0.5528 0.3189
vn 0.7986 -0.4398 0.4109
vn 0.5172 0.8286 0.2142
vn 0.3584 0.9217 0.1484
vn 0.8152 -0.2605 0.5172
vn 0.1515 0.9862 0.0671
vn 0.8417 0.0766 0.5345
vn 0.1515 -0.9862 0.0671
vn 0.8578 0.2664 0.4396
vn 0.3584 -0.9217 0.1484
vn 0.8544 0.3805 0.3539
vn 0.5172 -0.8286 0.2142
vn 0.7699 0.5528 0.3189
vn 0.6561 -0.7041 0.2718
vn 0.6561 0.7041 0.2718
vn 0.8437 0.4334 0.3168
vn 0.9139 0.3807 0.1407
vn 0.3849 -0.9211 0.0577
vn 0.5541 -0.8282 0.0838
vn 0.8237 0.5528 0.1263
vn 0.7022 -0.7039 0.1070
vn 0.7022 0.7039 0.1070
vn 0.8237 -0.5528 0.1263
vn 0.5541 0.8282 0.0838
vn 0.7621 -0.5801 0.2876
vn 0.3849 0.9211 0.0577
vn 0.7506 -0.6088 0.2569
vn 0.1722 0.9847 0.0268
vn 0.8099 0.5213 0.2690
vn 0.1722 -0.9847 0.0268
vn 0.5593 0.8286 -0.0256
vn 0.3868 0.9220 -0.0181
vn 0.6297 -0.7444 -0.2223
vn 0.6746 -0.5544 -0.4874
vn 0.1987 0.9800 -0.0070
vn 0.7357 0.4738 -0.4840
vn 0.1987 -0.9800 -0.0070
vn 0.7120 0.6583 -0.2441
vn 0.3868 -0.9220 -0.0181
vn 0.9242 0.3798 -0.0405
vn 0.5593 -0.8286 -0.0256
vn 0.8330 0.5520 -0.0369
vn 0.7099 -0.7036 -0.0319
vn 0.7099 0.7036 -0.0319
vn 0.8330 -0.5520 -0.0369
vn 0.3804 -0.9217 -0.0757
vn 0.5490 -0.8286 -0.1092
vn 0.9070 0.3805 -0.1804
vn 0.8173 0.5528 -0.1626
vn 0.6965 -0.7041 -0.1385
vn 0.6965 0.7041 -0.1385
vn 0.8173 -0.5528 -0.1626
vn 0.5490 0.8286 -0.1092
vn 0.7818 -0.5211 -0.3423
vn 0.3804 0.9217 -0.0757
vn 0.6875 -0.3627 -0.6291
vn 0.1971 0.9796 -0.0392
vn 0.7175 0.2022 -0.6666
vn 0.1971 -0.9796 -0.0392
vn 0.8537 0.3696 -0.3668
vn 0.8544 -0.3805 -0.3539
vn 0.9063 -0.1939 -0.3754
vn 0.3584 0.9217 -0.1484
vn 0.1857 0.9796 -0.0769
vn 0.9239 -0.0000 -0.3827
vn 0.1857 -0.9796 -0.0769
vn 0.9063 0.1939 -0.3754
vn 0.3584 -0.9217 -0.1484
vn 0.8544 0.3805 -0.3539
vn 0.5172 -0.8286 -0.2142
vn 0.7699 0.5528 -0.3189
vn 0.6561 -0.7041 -0.2718
vn 0.6561 0.7041 -0.2718
vn 0.7699 -0.5528 -0.3189
vn 0.5172 0.8286 -0.2142
vn 0.7689 0.3805 -0.5138
vn 0.6929 0.5528 -0.4630
vn 0.4654 -0.8286 -0.3110
vn 0.5905 -0.7041 -0.3945
vn 0.5905 0.7041 -0.3945
vn 0.6929 -0.5528 -0.4630
vn 0.4654 0.8286 -0.3110
vn 0.7689 -0.3805 -0.5138
vn 0.3225 0.9217 -0.2155
vn 0.8157 -0.1939 -0.5450
vn 0.1671 0.9796 -0.1117
vn 0.8315 -0.0000 -0.5556
vn 0.1671 -0.9796 -0.1117
vn 0.8157 0.1939 -0.5450
vn 0.3225 -0.9217 -0.2155
vn 0.2743 0.9217 -0.2743
vn 0.1421 0.9796 -0.1421
vn 0.8816 -0.1803 -0.4363
vn 0.8951 -0.0012 -0.4459
vn 0.1421 -0.9796 -0.1421
vn 0.8819 0.1804 -0.4357
vn 0.2743 -0.9217 -0.2743
vn 0.7829 0.4522 -0.4273
vn 0.3958 -0.8286 -0.3958
vn 0.6240 0.6151 -0.4820
vn 0.5334 -0.7445 -0.4015
vn 0.5021 0.7041 -0.5021
vn 0.7048 -0.6018 -0.3757
vn 0.3958 0.8286 -0.3958
vn 0.8407 -0.3570 -0.4072
vn 0.6020 0.7197 -0.3458
vn 0.4533 0.7511 -0.4799
vn 0.4041 -0.8341 -0.3755
vn 0.5581 -0.7132 -0.4241
vn 0.3110 0.8286 -0.4654
vn 0.7382 -0.3630 -0.5686
vn 0.2155 0.9217 -0.3225
vn 0.7816 -0.1819 -0.5967
vn 0.1117 0.9796 -0.1671
vn 0.7929 -0.0053 -0.6093
vn 0.1117 -0.9796 -0.1671
vn 0.7729 0.1821 -0.6078
vn 0.2155 -0.9217 -0.3225
vn 0.7415 0.4859 -0.4627
vn 0.3110 -0.8286 -0.4654
vn 0.0769 -0.9796 -0.1857
vn 0.0769 0.9796 -0.1857
vn 0.8015 -0.0039 -0.5979
vn 0.7097 0.3278 -0.6236
vn 0.1484 -0.9217 -0.3584
vn 0.5376 0.5774 -0.6144
vn 0.2142 -0.8286 -0.5172
vn 0.3823 0.7957 -0.4697
vn 0.1736 -0.8947 -0.4115
vn 0.3203 0.8490 -0.4203
vn 0.2411 -0.7720 -0.5881
vn 0.2142 0.8286 -0.5172
vn 0.4758 -0.4994 -0.7241
vn 0.1484 0.9217 -0.3584
vn 0.7154 -0.3268 -0.6175
vn 0.0873 -0.8977 -0.4318
vn 0.1222 -0.7752 -0.6199
vn 0.0873 0.8977 -0.4318
vn 0.1092 0.8286 -0.5490
vn 0.3092 -0.7210 -0.6201
vn 0.0757 0.9217 -0.3804
vn 0.4195 -0.4382 -0.7950
vn 0.0392 0.9796 -0.1971
vn 0.4328 0.0021 -0.9015
vn 0.0392 -0.9796 -0.1971
vn 0.4216 0.4403 -0.7927
vn 0.0757 -0.9217 -0.3804
vn 0.3094 0.7208 -0.6203
vn 0.1092 -0.8286 -0.5490
vn 0.1222 0.7752 -0.6199
vn -0.0000 -0.0000 -1.0000
vn 0.0022 0.4254 -0.9050
vn -0.0000 -0.9796 -0.2010
vn -0.0000 -0.9217 -0.3879
vn 0.0003 0.7982 -0.6023
vn -0.0000 -0.8286 -0.5598
vn -0.0000 0.7761 -0.6306
vn -0.0000 -0.8987 -0.4387
vn -0.0000 0.8987 -0.4387
vn -0.0000 -0.7761 -0.6306
vn -0.0000 0.8286 -0.5598
vn -0.0003 -0.7982 -0.6023
vn -0.0000 0.9217 -0.3879
vn -0.0022 -0.4254 -0.9050
vn -0.0000 0.9796 -0.2010
vn -0.0873 0.8977 -0.4318
vn -0.1092 0.8286 -0.5490
vn -0.1222 -0.7752 -0.6199
vn -0.3094 -0.7208 -0.6203
vn -0.0757 0.9217 -0.3804
vn -0.4216 -0.4403 -0.7927
vn -0.0392 0.9796 -0.1971
vn -0.4328 -0.0021 -0.9015
vn -0.0392 -0.9796 -0.1971
vn -0.4195 0.4382 -0.7950
vn -0.0757 -0.9217 -0.3804
vn -0.3092 0.7210 -0.6201
vn -0.1092 -0.8286 -0.5490
vn -0.1222 0.7752 -0.6199
vn -0.0873 -0.8977 -0.4318
vn -0.0769 -0.9796 -0.1857
vn -0.1484 -0.9217 -0.3584
vn -0.7061 0.3321 -0.6254
vn -0.4711 0.5030 -0.7246
vn -0.2142 -0.8286 -0.5172
vn -0.2411 0.7720 -0.5881
vn -0.3203 -0.8490 -0.4203
vn -0.1736 0.8947 -0.4115
vn -0.3823 -0.7957 -0.4697
vn -0.2142 0.8286 -0.5172
vn -0.5376 -0.5774 -0.6144
vn -0.1484 0.9217 -0.3584
vn -0.7059 -0.3322 -0.6255
vn -0.0769 0.9796 -0.1857
vn -0.7944 -0.0003 -0.6073
vn -0.6020 -0.7197 -0.3458
vn -0.7415 -0.4859 -0.4627
vn -0.3110 0.8286 -0.4654
vn -0.2155 0.9217 -0.3225
vn -0.7721 -0.1877 -0.6071
vn -0.1117 0.9796 -0.1671
vn -0.7840 -0.0000 -0.6207
vn -0.1117 -0.9796 -0.1671
vn -0.7721 0.1877 -0.6071
vn -0.2155 -0.9217 -0.3225
vn -0.7367 0.3684 -0.5671
vn -0.3110 -0.8286 -0.4654
vn -0.5581 0.7132 -0.4241
vn -0.4533 -0.7511 -0.4799
vn -0.4041 0.8341 -0.3755
vn -0.8818 0.1814 -0.4353
vn -0.8405 0.3579 -0.4068
vn -0.2743 -0.9217 -0.2743
vn -0.3958 -0.8286 -0.3958
vn -0.7048 0.6018 -0.3757
vn -0.5021 -0.7041 -0.5021
vn -0.5334 0.7445 -0.4015
vn -0.6240 -0.6151 -0.4820
vn -0.3958 0.8286 -0.3958
vn -0.7829 -0.4522 -0.4273
vn -0.2743 0.9217 -0.2743
vn -0.8818 -0.1814 -0.4353
vn -0.1421 0.9796 -0.1421
vn -0.8956 -0.0000 -0.4449
vn -0.1421 -0.9796 -0.1421
vn -0.4654 0.8286 -0.3110
vn -0.3225 0.9217 -0.2155
vn -0.7689 -0.3805 -0.5138
vn -0.8157 -0.1939 -0.5450
vn -0.1671 0.9796 -0.1117
vn -0.8315 -0.0000 -0.5556
vn -0.1671 -0.9796 -0.1117
vn -0.8157 0.1939 -0.5450
vn -0.3225 -0.9217 -0.2155
vn -0.7689 0.3805 -0.5138
vn -0.4654 -0.8286 -0.3110
vn -0.6929 0.5528 -0.4630
vn -0.5905 -0.7041 -0.3945
vn -0.5905 0.7041 -0.3945
vn -0.6929 -0.5528 -0.4630
vn -0.8544 0.3805 -0.3539
vn -0.7699 0.5528 -0.3189
vn -0.5172 -0.8286 -0.2142
vn -0.6561 -0.7041 -0.2718
vn -0.6561 0.7041 -0.2718
vn -0.7699 -0.5528 -0.3189
vn -0.5172 0.8286 -0.2142
vn -0.8544 -0.3805 -0.3539
vn -0.3584 0.9217 -0.1484
vn -0.9063 -0.1939 -0.3754
vn -0.1857 0.9796 -0.0769
vn -0.9239 -0.0000 -0.3827
vn -0.1857 -0.9796 -0.0769
vn -0.9063 0.1939 -0.3754
vn -0.3584 -0.9217 -0.1484
vn -0.3804 0.9217 -0.0757
vn -0.1971 0.9796 -0.0392
vn -0.8502 -0.3736 -0.3708
vn -0.7022 -0.2082 -0.6809
vn -0.1971 -0.9796 -0.0392
vn -0.6729 0.3666 -0.6425
vn -0.3804 -0.9217 -0.0757
vn -0.7777 0.5245 -0.3464
vn -0.5490 -0.8286 -0.1092
vn -0.8173 0.5528 -0.1626
vn -0.6965 -0.7041 -0.1385
vn -0.6965 0.7041 -0.1385
vn -0.8173 -0.5528 -0.1626
vn -0.5490 0.8286 -0.1092
vn -0.9070 -0.3805 -0.1804
vn -0.5593 -0.8286 -0.0256
vn -0.7099 -0.7036 -0.0319
vn -0.8330 0.5520 -0.0369
vn -0.7099 0.7036 -0.0319
vn -0.8330 -0.5520 -0.0369
vn -0.5593 0.8286 -0.0256
vn -0.9242 -0.3798 -0.0405
vn -0.3868 0.9220 -0.0181
vn -0.7053 -0.6669 -0.2403
vn -0.1985 0.9800 -0.0121
vn -0.7412 -0.4670 -0.4822
vn -0.1985 -0.9800 -0.0121
vn -0.6799 0.5481 -0.4872
vn -0.3868 -0.9220 -0.0181
vn -0.6229 0.7509 -0.2196
vn -0.8565 -0.4134 0.3090
vn -0.8012 -0.5317 0.2745
vn -0.1722 -0.9847 0.0268
vn -0.1722 0.9847 0.0268
vn -0.7414 0.6181 0.2611
vn -0.3849 -0.9211 0.0577
vn -0.7758 0.5646 0.2815
vn -0.5541 -0.8282 0.0838
vn -0.8237 0.5528 0.1263
vn -0.7022 -0.7039 0.1070
vn -0.7022 0.7039 0.1070
vn -0.8237 -0.5528 0.1263
vn -0.5541 0.8282 0.0838
vn -0.9139 -0.3807 0.1407
vn -0.3849 0.9211 0.0577
vn -0.7699 0.5528 0.3189
vn -0.6561 0.7041 0.2718
vn -0.6561 -0.7041 0.2718
vn -0.7699 -0.5528 0.3189
vn -0.5172 0.8286 0.2142
vn -0.8544 -0.3805 0.3539
vn -0.3584 0.9217 0.1484
vn -0.8634 -0.2588 0.4330
vn -0.1541 0.9862 0.0609
vn -0.8528 -0.0684 0.5177
vn -0.1541 -0.9862 0.0609
vn -0.8270 0.2534 0.5019
vn -0.3584 -0.9217 0.1484
vn -0.8047 0.4339 0.4052
vn -0.5172 -0.8286 0.2142
vn -0.1359 -0.9865 0.0913
vn -0.1359 0.9865 0.0913
vn -0.8315 -0.0000 0.5556
vn -0.8157 0.1939 0.5450
vn -0.3225 -0.9217 0.2155
vn -0.7689 0.3805 0.5138
vn -0.4654 -0.8286 0.3110
vn -0.6929 0.5528 0.4630
vn -0.5905 -0.7041 0.3945
vn -0.5905 0.7041 0.3945
vn -0.6929 -0.5528 0.4630
vn -0.4654 0.8286 0.3110
vn -0.7689 -0.3805 0.5138
vn -0.3225 0.9217 0.2155
vn -0.8157 -0.1939 0.5450
vn -0.5021 -0.7041 0.5021
vn -0.5893 -0.5528 0.5893
vn -0.5021 0.7041 0.5021
vn -0.3958 0.8286 0.3958
vn -0.6539 -0.3805 0.6539
vn -0.2743 0.9217 0.2743
vn -0.6937 -0.1939 0.6937
vn -0.1154 0.9867 0.1142
vn -0.7071 -0.0000 0.7071
vn -0.1154 -0.9867 0.1142
vn -0.6937 0.1939 0.6937
vn -0.2743 -0.9217 0.2743
vn -0.6539 0.3805 0.6539
vn -0.3958 -0.8286 0.3958
vn -0.5893 0.5528 0.5893
vn -0.5556 -0.0000 0.8315
vn -0.5450 0.1939 0.8157
vn -0.0901 -0.9867 0.1352
vn -0.2155 -0.9217 0.3225
vn -0.5138 0.3805 0.7689
vn -0.3110 -0.8286 0.4654
vn -0.4630 0.5528 0.6929
vn -0.3945 -0.7041 0.5905
vn -0.3945 0.7041 0.5905
vn -0.4630 -0.5528 0.6929
vn -0.3110 0.8286 0.4654
vn -0.5138 -0.3805 0.7689
vn -0.2155 0.9217 0.3225
vn -0.5450 -0.1939 0.8157
vn -0.0903 0.9869 0.1340
vn -0.2718 0.7041 0.6561
vn -0.2142 0.8286 0.5172
vn -0.3189 -0.5528 0.7699
vn -0.3539 -0.3805 0.8544
vn -0.1484 0.9217 0.3584
vn -0.3754 -0.1939 0.9063
vn -0.0622 0.9869 0.1487
vn -0.3827 -0.0000 0.9239
vn -0.0622 -0.9869 0.1487
vn -0.3754 0.1939 0.9063
vn -0.1484 -0.9217 0.3584
vn -0.3539 0.3805 0.8544
vn -0.2142 -0.8286 0.5172
vn -0.3189 0.5528 0.7699
vn -0.2718 -0.7041 0.6561
vn -0.1914 0.1939 0.9622
vn -0.1804 0.3805 0.9070
vn -0.0757 -0.9217 0.3804
vn -0.1092 -0.8286 0.5490
vn -0.1626 0.5528 0.8173
vn -0.1385 -0.7041 0.6965
vn -0.1385 0.7041 0.6965
vn -0.1626 -0.5528 0.8173
vn -0.1092 0.8286 0.5490
vn -0.1804 -0.3805 0.9070
vn -0.0757 0.9217 0.3804
vn -0.1914 -0.1939 0.9622
vn -0.0319 0.9870 0.1577
vn -0.1951 -0.0000 0.9808
vn -0.0319 -0.9870 0.1577
vt 0.624975 0.250050
vt 0.687463 0.250050
vt 0.687462 0.281294
vt 0.624975 0.281294
vt 0.125075 0.250050
vt 0.187562 0.250050
vt 0.187562 0.281294
vt 0.125075 0.281294
vt 0.562488 0.250050
vt 0.562488 0.281294
vt 0.062587 0.250050
vt 0.062587 0.281294
vt 0.500000 0.250050
vt 0.500000 0.281294
vt 0.937413 0.250050
vt 0.999900 0.265672
vt 0.937413 0.281294
vt 0.000100 0.265672
vt 0.437512 0.250050
vt 0.437512 0.281294
vt 0.874925 0.250050
vt 0.874925 0.281294
vt 0.375025 0.250050
vt 0.375025 0.281294
vt 0.812438 0.250050
vt 0.812438 0.281294
vt 0.312538 0.250050
vt 0.312537 0.281294
vt 0.749950 0.250050
vt 0.749950 0.281294
vt 0.250050 0.250050
vt 0.250050 0.281294
vt 0.312537 0.312537
vt 0.250050 0.312537
vt 0.749950 0.312537
vt 0.687463 0.312537
vt 0.187562 0.312537
vt 0.624975 0.312537
vt 0.125075 0.312537
vt 0.562488 0.312537
vt 0.062587 0.312537
vt 0.500000 0.312537
vt 0.999900 0.296916
vt 0.937413 0.312537
vt 0.000100 0.296916
vt 0.437512 0.312537
vt 0.874925 0.312537
vt 0.375025 0.312537
vt 0.812438 0.312537
vt 0.000100 0.328159
vt 0.062587 0.343781
vt 0.500000 0.343781
vt 0.437512 0.343781
vt 0.937413 0.343781
vt 0.874925 0.343781
vt 0.375025 0.343781
vt 0.812438 0.343781
vt 0.312537 0.343781
vt 0.749950 0.343781
vt 0.250050 0.343781
vt 0.687462 0.343781
vt 0.187562 0.343781
vt 0.624975 0.343781
vt 0.125075 0.343781
vt 0.562487 0.343781
vt 0.999900 0.328159
vt 0.250050 0.375025
vt 0.187562 0.375025
vt 0.687463 0.375025
vt 0.624975 0.375025
vt 0.125075 0.375025
vt 0.562488 0.375025
vt 0.062587 0.375025
vt 0.500000 0.375025
vt 0.999900 0.359403
vt 0.937413 0.375025
vt 0.000100 0.359403
vt 0.437512 0.375025
vt 0.874925 0.375025
vt 0.375025 0.375025
vt 0.812438 0.375025
vt 0.312537 0.375025
vt 0.749950 0.375025
vt 0.937413 0.406269
vt 0.874925 0.406269
vt 0.437512 0.406269
vt 0.375025 0.406269
vt 0.812438 0.406269
vt 0.312537 0.406269
vt 0.749950 0.406269
vt 0.250050 0.406269
vt 0.687463 0.406269
vt 0.187562 0.406269
vt 0.624975 0.406269
vt 0.125075 0.406269
vt 0.562488 0.406269
vt 0.062587 0.406269
vt 0.500000 0.406269
vt 0.999900 0.390647
vt 0.000100 0.390647
vt 0.687462 0.437513
vt 0.624975 0.437513
vt 0.187562 0.437513
vt 0.125075 0.437513
vt 0.562488 0.437513
vt 0.062587 0.437513
vt 0.500000 0.437513
vt 0.999900 0.421891
vt 0.937413 0.437513
vt 0.000100 0.421891
vt 0.437512 0.437513
vt 0.874925 0.437512
vt 0.375025 0.437513
vt 0.812438 0.437513
vt 0.312537 0.437513
vt 0.749950 0.437513
vt 0.250050 0.437513
vt 0.437512 0.468756
vt 0.375025 0.468756
vt 0.874925 0.468756
vt 0.812438 0.468756
vt 0.312537 0.468756
vt 0.749950 0.468756
vt 0.250050 0.468756
vt 0.687463 0.468756
vt 0.187562 0.468756
vt 0.624975 0.468756
vt 0.125075 0.468756
vt 0.562488 0.468756
vt 0.062587 0.468756
vt 0.500000 0.468756
vt 0.999900 0.453134
vt 0.937413 0.468756
vt 0.000100 0.453134
vt 0.187562 0.500000
vt 0.125075 0.500000
vt 0.624975 0.500000
vt 0.562488 0.500000
vt 0.062587 0.500000
vt 0.500000 0.500000
vt 0.999900 0.484378
vt 0.937413 0.500000
vt 0.000100 0.484378
vt 0.437512 0.500000
vt 0.874925 0.500000
vt 0.375025 0.500000
vt 0.812438 0.500000
vt 0.312537 0.500000
vt 0.749950 0.500000
vt 0.250050 0.500000
vt 0.687463 0.500000
vt 0.874925 0.531244
vt 0.812438 0.531244
vt 0.375025 0.531244
vt 0.312537 0.531244
vt 0.749950 0.531244
vt 0.250050 0.531244
vt 0.687463 0.531244
vt 0.187562 0.531244
vt 0.624975 0.531244
vt 0.125075 0.531244
vt 0.562488 0.531244
vt 0.062587 0.531244
vt 0.500000 0.531244
vt 0.999900 0.515622
vt 0.937413 0.531244
vt 0.000100 0.515622
vt 0.437512 0.531244
vt 0.624975 0.562488
vt 0.562488 0.562488
vt 0.125075 0.562488
vt 0.062587 0.562487
vt 0.500000 0.562488
vt 0.999900 0.546866
vt 0.937413 0.562488
vt 0.000100 0.546866
vt 0.437512 0.562488
vt 0.874925 0.562488
vt 0.375025 0.562488
vt 0.812438 0.562488
vt 0.312537 0.562488
vt 0.749950 0.562488
vt 0.250050 0.562488
vt 0.687463 0.562488
vt 0.187562 0.562488
vt 0.375025 0.593731
vt 0.312537 0.593731
vt 0.812438 0.593731
vt 0.749950 0.593731
vt 0.250050 0.593731
vt 0.687463 0.593731
vt 0.187562 0.593731
vt 0.624975 0.593731
vt 0.125075 0.593731
vt 0.562488 0.593731
vt 0.062587 0.593731
vt 0.500000 0.593731
vt 0.999900 0.578109
vt 0.937413 0.593731
vt 0.000100 0.578109
vt 0.437512 0.593731
vt 0.874925 0.593731
vt 0.125075 0.624975
vt 0.062587 0.624975
vt 0.562488 0.624975
vt 0.500000 0.624975
vt 0.999900 0.609353
vt 0.937413 0.624975
vt 0.000100 0.609353
vt 0.437512 0.624975
vt 0.874925 0.624975
vt 0.375025 0.624975
vt 0.812438 0.624975
vt 0.312537 0.624975
vt 0.749950 0.624975
vt 0.250050 0.624975
vt 0.687463 0.624975
vt 0.187562 0.624975
vt 0.624975 0.624975
vt 0.312537 0.656219
vt 0.250050 0.656219
vt 0.749950 0.656219
vt 0.687463 0.656219
vt 0.187562 0.656219
vt 0.624975 0.656219
vt 0.125075 0.656219
vt 0.562488 0.656219
vt 0.062587 0.656219
vt 0.500000 0.656219
vt 0.999900 0.640597
vt 0.937413 0.656219
vt 0.000100 0.640597
vt 0.437512 0.656219
vt 0.874925 0.656219
vt 0.375025 0.656219
vt 0.812438 0.656219
vt 0.999900 0.671841
vt 0.937413 0.687462
vt 0.000100 0.671841
vt 0.062587 0.687463
vt 0.500000 0.687463
vt 0.437512 0.687463
vt 0.874925 0.687462
vt 0.375025 0.687462
vt 0.812438 0.687462
vt 0.312537 0.687463
vt 0.749950 0.687463
vt 0.250050 0.687463
vt 0.687463 0.687463
vt 0.187562 0.687462
vt 0.624975 0.687462
vt 0.125075 0.687463
vt 0.562487 0.687463
vt 0.749950 0.718706
vt 0.687463 0.718706
vt 0.250050 0.718706
vt 0.187562 0.718706
vt 0.624975 0.718706
vt 0.125075 0.718706
vt 0.562487 0.718706
vt 0.062587 0.718706
vt 0.500000 0.718706
vt 0.999900 0.703084
vt 0.937413 0.718706
vt 0.000100 0.703084
vt 0.437512 0.718706
vt 0.874925 0.718706
vt 0.375025 0.718706
vt 0.812438 0.718706
vt 0.312537 0.718706
vt 0.500000 0.749950
vt 0.437512 0.749950
vt 0.937413 0.749950
vt 0.874925 0.749950
vt 0.375025 0.749950
vt 0.812438 0.749950
vt 0.312537 0.749950
vt 0.749950 0.749950
vt 0.250050 0.749950
vt 0.687462 0.749950
vt 0.187563 0.749950
vt 0.624975 0.749950
vt 0.125075 0.749950
vt 0.562487 0.749950
vt 0.062587 0.749950
vt 0.999900 0.734328
vt 0.000100 0.734328
vt 0.250050 0.781194
vt 0.187562 0.781194
vt 0.687463 0.781194
vt 0.624975 0.781194
vt 0.125075 0.781194
vt 0.562487 0.781194
vt 0.062587 0.781194
vt 0.500000 0.781194
vt 0.999900 0.765572
vt 0.937413 0.781194
vt 0.000100 0.765572
vt 0.437512 0.781194
vt 0.874925 0.781194
vt 0.375025 0.781194
vt 0.812438 0.781194
vt 0.312537 0.781194
vt 0.749950 0.781194
vt 0.937413 0.812437
vt 0.874925 0.812438
vt 0.437512 0.812438
vt 0.375025 0.812437
vt 0.812438 0.812438
vt 0.312537 0.812437
vt 0.749950 0.812438
vt 0.250050 0.812438
vt 0.687463 0.812438
vt 0.187562 0.812438
vt 0.624975 0.812438
vt 0.125075 0.812438
vt 0.562487 0.812438
vt 0.062587 0.812438
vt 0.500000 0.812438
vt 0.999900 0.796816
vt 0.000100 0.796816
vt 0.687463 0.843681
vt 0.624975 0.843681
vt 0.187562 0.843681
vt 0.125075 0.843681
vt 0.562487 0.843681
vt 0.062587 0.843681
vt 0.500000 0.843681
vt 0.999900 0.828059
vt 0.937413 0.843681
vt 0.000100 0.828059
vt 0.437512 0.843681
vt 0.874925 0.843681
vt 0.375025 0.843681
vt 0.812438 0.843681
vt 0.312537 0.843681
vt 0.749950 0.843681
vt 0.250050 0.843681
vt 0.437513 0.874925
vt 0.375025 0.874925
vt 0.874925 0.874925
vt 0.812438 0.874925
vt 0.312537 0.874925
vt 0.749950 0.874925
vt 0.250050 0.874925
vt 0.687463 0.874925
vt 0.187562 0.874925
vt 0.624975 0.874925
vt 0.125075 0.874925
vt 0.562487 0.874925
vt 0.062587 0.874925
vt 0.500000 0.874925
vt 0.999900 0.859303
vt 0.937413 0.874925
vt 0.000100 0.859303
vt 0.187562 0.906169
vt 0.125075 0.906169
vt 0.624975 0.906169
vt 0.562487 0.906169
vt 0.062587 0.906169
vt 0.500000 0.906169
vt 0.999900 0.890547
vt 0.937413 0.906169
vt 0.000100 0.890547
vt 0.437513 0.906169
vt 0.874925 0.906169
vt 0.375025 0.906169
vt 0.812438 0.906169
vt 0.312537 0.906169
vt 0.749950 0.906169
vt 0.250050 0.906169
vt 0.687463 0.906169
vt 0.375025 0.937412
vt 0.312537 0.937412
vt 0.812438 0.937412
vt 0.749950 0.937412
vt 0.250050 0.937412
vt 0.687463 0.937412
vt 0.187562 0.937412
vt 0.624975 0.937412
vt 0.125075 0.937413
vt 0.562487 0.937412
vt 0.062587 0.937412
vt 0.500000 0.937413
vt 0.999900 0.921791
vt 0.937413 0.937412
vt 0.000100 0.921791
vt 0.437513 0.937412
vt 0.874925 0.937412
vt 0.125075 0.968656
vt 0.062587 0.968656
vt 0.562487 0.968656
vt 0.500000 0.968656
vt 0.999900 0.953034
vt 0.937413 0.968656
vt 0.000100 0.953034
vt 0.437513 0.968656
vt 0.874925 0.968656
vt 0.375025 0.968656
vt 0.812438 0.968656
vt 0.312537 0.968656
vt 0.749950 0.968656
vt 0.250050 0.968656
vt 0.687463 0.968656
vt 0.187562 0.968656
vt 0.624975 0.968656
vt 0.812438 0.999900
vt 0.749950 0.999900
vt 0.312537 0.999900
vt 0.250050 0.999900
vt 0.687463 0.999900
vt 0.187562 0.999900
vt 0.624975 0.999900
vt 0.125075 0.999900
vt 0.562487 0.999900
vt 0.062587 0.999900
vt 0.500000 0.999900
vt 0.999900 0.984278
vt 0.937413 0.999900
vt 0.000100 0.984278
vt 0.437513 0.999900
vt 0.874925 0.999900
vt 0.375025 0.999900
vt 0.500000 0.000100
vt 0.562487 0.000100
vt 0.562488 0.031344
vt 0.500000 0.031344
vt 0.937413 0.000100
vt 0.999900 0.015722
vt 0.937413 0.031344
vt 0.000100 0.015722
vt 0.062587 0.000100
vt 0.062587 0.031344
vt 0.437512 0.000100
vt 0.437512 0.031344
vt 0.874925 0.000100
vt 0.874925 0.031344
vt 0.375025 0.000100
vt 0.375025 0.031344
vt 0.812438 0.000100
vt 0.812438 0.031344
vt 0.312537 0.000100
vt 0.312537 0.031344
vt 0.749950 0.000100
vt 0.749950 0.031344
vt 0.250050 0.000100
vt 0.250050 0.031344
vt 0.687463 0.000100
vt 0.687463 0.031344
vt 0.187562 0.000100
vt 0.187562 0.031344
vt 0.624975 0.000100
vt 0.624975 0.031344
vt 0.125075 0.000100
vt 0.125075 0.031344
vt 0.312537 0.062588
vt 0.250050 0.062587
vt 0.749950 0.062587
vt 0.687463 0.062588
vt 0.187562 0.062588
vt 0.624975 0.062587
vt 0.125075 0.062587
vt 0.562488 0.062588
vt 0.062587 0.062587
vt 0.500000 0.062588
vt 0.999900 0.046966
vt 0.937413 0.062587
vt 0.000100 0.046966
vt 0.437512 0.062588
vt 0.874925 0.062587
vt 0.375025 0.062587
vt 0.812438 0.062588
vt 0.999900 0.078209
vt 0.937413 0.093831
vt 0.000100 0.078209
vt 0.062587 0.093831
vt 0.500000 0.093831
vt 0.437512 0.093831
vt 0.874925 0.093831
vt 0.375025 0.093831
vt 0.812438 0.093831
vt 0.312537 0.093831
vt 0.749950 0.093831
vt 0.250050 0.093831
vt 0.687463 0.093831
vt 0.187562 0.093831
vt 0.624975 0.093831
vt 0.125075 0.093831
vt 0.562488 0.093831
vt 0.749950 0.125075
vt 0.687463 0.125075
vt 0.250050 0.125075
vt 0.187562 0.125075
vt 0.624975 0.125075
vt 0.125075 0.125075
vt 0.562488 0.125075
vt 0.062587 0.125075
vt 0.500000 0.125075
vt 0.999900 0.109453
vt 0.937413 0.125075
vt 0.000100 0.109453
vt 0.437512 0.125075
vt 0.874925 0.125075
vt 0.375025 0.125075
vt 0.812438 0.125075
vt 0.312537 0.125075
vt 0.500000 0.156319
vt 0.437512 0.156319
vt 0.937413 0.156319
vt 0.874925 0.156319
vt 0.375025 0.156319
vt 0.812438 0.156319
vt 0.312537 0.156319
vt 0.749950 0.156319
vt 0.250050 0.156319
vt 0.687463 0.156319
vt 0.187562 0.156319
vt 0.624975 0.156319
vt 0.125075 0.156319
vt 0.562488 0.156319
vt 0.062587 0.156319
vt 0.999900 0.140697
vt 0.000100 0.140697
vt 0.250050 0.187562
vt 0.187562 0.187563
vt 0.687463 0.187563
vt 0.624975 0.187563
vt 0.125075 0.187562
vt 0.562488 0.187563
vt 0.062587 0.187563
vt 0.500000 0.187563
vt 0.999900 0.171941
vt 0.937413 0.187563
vt 0.000100 0.171941
vt 0.437512 0.187563
vt 0.874925 0.187563
vt 0.375025 0.187563
vt 0.812438 0.187563
vt 0.312537 0.187563
vt 0.749950 0.187563
vt 0.437512 0.218806
vt 0.375025 0.218806
vt 0.874925 0.218806
vt 0.812438 0.218806
vt 0.312537 0.218806
vt 0.749950 0.218806
vt 0.250050 0.218806
vt 0.687463 0.218806
vt 0.187562 0.218806
vt 0.624975 0.218806
vt 0.125075 0.218806
vt 0.562488 0.218806
vt 0.062587 0.218806
vt 0.500000 0.218806
vt 0.999900 0.203184
vt 0.937413 0.218806
vt 0.000100 0.203184
vt 0.999900 0.234428
vt 0.000100 0.234428
s 1
usemtl マテリアル
f 477/1/1 2/2/2 11/3/3 12/4/4
f 481/5/5 480/6/6 19/7/7 20/8/8
f 3/9/9 477/1/1 12/4/4 13/10/10
f 482/11/11 481/5/5 20/8/8 21/12/12
f 4/13/13 3/9/9 13/10/10 14/14/14
f 474/15/15 82/16/16 7/17/17
f 308/18/18 482/11/11 21/12/12
f 5/19/19 4/13/13 14/14/14 15/20/20
f 475/21/21 474/15/15 7/17/17 8/22/22
f 478/23/23 5/19/19 15/20/20 16/24/24
f 1/25/25 475/21/21 8/22/22 9/26/26
f 6/27/27 478/23/23 16/24/24 17/28/28
f 476/29/29 1/25/25 9/26/26 10/30/30
f 479/31/31 6/27/27 17/28/28 18/32/32
f 2/2/2 476/29/29 10/30/30 11/3/3
f 480/6/6 479/31/31 18/32/32 19/7/7
f 18/32/32 17/28/28 32/33/33 33/34/34
f 11/3/3 10/30/30 25/35/35 26/36/36
f 19/7/7 18/32/32 33/34/34 34/37/37
f 12/4/4 11/3/3 26/36/36 27/38/38
f 20/8/8 19/7/7 34/37/37 35/39/39
f 13/10/10 12/4/4 27/38/38 28/40/40
f 21/12/12 20/8/8 35/39/39 36/41/41
f 14/14/14 13/10/10 28/40/40 29/42/42
f 7/17/17 82/43/16 22/44/43
f 308/45/18 21/12/12 36/41/41
f 15/20/20 14/14/14 29/42/42 30/46/44
f 8/22/22 7/17/17 22/44/43 23/47/45
f 16/24/24 15/20/20 30/46/44 31/48/46
f 9/26/26 8/22/22 23/47/45 24/49/47
f 17/28/28 16/24/24 31/48/46 32/33/33
f 10/30/30 9/26/26 24/49/47 25/35/35
f 308/50/18 36/41/41 51/51/48
f 30/46/44 29/42/42 44/52/49 45/53/50
f 23/47/45 22/44/43 37/54/51 38/55/52
f 31/48/46 30/46/44 45/53/50 46/56/53
f 24/49/47 23/47/45 38/55/52 39/57/54
f 32/33/33 31/48/46 46/56/53 47/58/55
f 25/35/35 24/49/47 39/57/54 40/59/56
f 33/34/34 32/33/33 47/58/55 48/60/57
f 26/36/36 25/35/35 40/59/56 41/61/58
f 34/37/37 33/34/34 48/60/57 49/62/59
f 27/38/38 26/36/36 41/61/58 42/63/60
f 35/39/39 34/37/37 49/62/59 50/64/61
f 28/40/40 27/38/38 42/63/60 43/65/62
f 36/41/41 35/39/39 50/64/61 51/51/48
f 29/42/42 28/40/40 43/65/62 44/52/49
f 22/44/43 82/66/16 37/54/51
f 49/62/59 48/60/57 63/67/63 64/68/64
f 42/63/60 41/61/58 56/69/65 57/70/66
f 50/64/61 49/62/59 64/68/64 65/71/67
f 43/65/62 42/63/60 57/70/66 58/72/68
f 51/51/48 50/64/61 65/71/67 66/73/69
f 44/52/49 43/65/62 58/72/68 59/74/70
f 37/54/51 82/75/16 52/76/71
f 308/77/18 51/51/48 66/73/69
f 45/53/50 44/52/49 59/74/70 60/78/72
f 38/55/52 37/54/51 52/76/71 53/79/73
f 46/56/53 45/53/50 60/78/72 61/80/74
f 39/57/54 38/55/52 53/79/73 54/81/75
f 47/58/55 46/56/53 61/80/74 62/82/76
f 40/59/56 39/57/54 54/81/75 55/83/77
f 48/60/57 47/58/55 62/82/76 63/67/63
f 41/61/58 40/59/56 55/83/77 56/69/65
f 53/79/73 52/76/71 67/84/78 68/85/79
f 61/80/74 60/78/72 75/86/80 76/87/81
f 54/81/75 53/79/73 68/85/79 69/88/82
f 62/82/76 61/80/74 76/87/81 77/89/83
f 55/83/77 54/81/75 69/88/82 70/90/84
f 63/67/63 62/82/76 77/89/83 78/91/85
f 56/69/65 55/83/77 70/90/84 71/92/86
f 64/68/64 63/67/63 78/91/85 79/93/87
f 57/70/66 56/69/65 71/92/86 72/94/88
f 65/71/67 64/68/64 79/93/87 80/95/89
f 58/72/68 57/70/66 72/94/88 73/96/90
f 66/73/69 65/71/67 80/95/89 81/97/91
f 59/74/70 58/72/68 73/96/90 74/98/92
f 52/76/71 82/99/16 67/84/78
f 308/100/18 66/73/69 81/97/91
f 60/78/72 59/74/70 74/98/92 75/86/80
f 72/94/88 71/92/86 87/101/93 88/102/94
f 80/95/89 79/93/87 95/103/95 96/104/96
f 73/96/90 72/94/88 88/102/94 89/105/97
f 81/97/91 80/95/89 96/104/96 97/106/98
f 74/98/92 73/96/90 89/105/97 90/107/99
f 67/84/78 82/108/16 83/109/100
f 308/110/18 81/97/91 97/106/98
f 75/86/80 74/98/92 90/107/99 91/111/101
f 68/85/79 67/84/78 83/109/100 84/112/102
f 76/87/81 75/86/80 91/111/101 92/113/103
f 69/88/82 68/85/79 84/112/102 85/114/104
f 77/89/83 76/87/81 92/113/103 93/115/105
f 70/90/84 69/88/82 85/114/104 86/116/106
f 78/91/85 77/89/83 93/115/105 94/117/107
f 71/92/86 70/90/84 86/116/106 87/101/93
f 79/93/87 78/91/85 94/117/107 95/103/95
f 92/113/103 91/111/101 106/118/108 107/119/109
f 85/114/104 84/112/102 99/120/110 100/121/111
f 93/115/105 92/113/103 107/119/109 108/122/112
f 86/116/106 85/114/104 100/121/111 101/123/113
f 94/117/107 93/115/105 108/122/112 109/124/114
f 87/101/93 86/116/106 101/123/113 102/125/115
f 95/103/95 94/117/107 109/124/114 110/126/116
f 88/102/94 87/101/93 102/125/115 103/127/117
f 96/104/96 95/103/95 110/126/116 111/128/118
f 89/105/97 88/102/94 103/127/117 104/129/119
f 97/106/98 96/104/96 111/128/118 112/130/120
f 90/107/99 89/105/97 104/129/119 105/131/121
f 83/109/100 82/132/16 98/133/122
f 308/134/18 97/106/98 112/130/120
f 91/111/101 90/107/99 105/131/121 106/118/108
f 84/112/102 83/109/100 98/133/122 99/120/110
f 111/128/118 110/126/116 125/135/123 126/136/124
f 104/129/119 103/127/117 118/137/125 119/138/126
f 112/130/120 111/128/118 126/136/124 127/139/127
f 105/131/121 104/129/119 119/138/126 120/140/128
f 98/133/122 82/141/16 113/142/129
f 308/143/18 112/130/120 127/139/127
f 106/118/108 105/131/121 120/140/128 121/144/130
f 99/120/110 98/133/122 113/142/129 114/145/131
f 107/119/109 106/118/108 121/144/130 122/146/132
f 100/121/111 99/120/110 114/145/131 115/147/133
f 108/122/112 107/119/109 122/146/132 123/148/134
f 101/123/113 100/121/111 115/147/133 116/149/135
f 109/124/114 108/122/112 123/148/134 124/150/136
f 102/125/115 101/123/113 116/149/135 117/151/137
f 110/126/116 109/124/114 124/150/136 125/135/123
f 103/127/117 102/125/115 117/151/137 118/137/125
f 115/147/133 114/145/131 129/152/138 130/153/139
f 123/148/134 122/146/132 137/154/140 138/155/141
f 116/149/135 115/147/133 130/153/139 131/156/142
f 124/150/136 123/148/134 138/155/141 139/157/143
f 117/151/137 116/149/135 131/156/142 132/158/144
f 125/135/123 124/150/136 139/157/143 140/159/145
f 118/137/125 117/151/137 132/158/144 133/160/146
f 126/136/124 125/135/123 140/159/145 141/161/147
f 119/138/126 118/137/125 133/160/146 134/162/148
f 127/139/127 126/136/124 141/161/147 142/163/149
f 120/140/128 119/138/126 134/162/148 135/164/150
f 113/142/129 82/165/16 128/166/151
f 308/167/18 127/139/127 142/163/149
f 121/144/130 120/140/128 135/164/150 136/168/152
f 114/145/131 113/142/129 128/166/151 129/152/138
f 122/146/132 121/144/130 136/168/152 137/154/140
f 134/162/148 133/160/146 148/169/153 149/170/154
f 142/163/149 141/161/147 156/171/155 157/172/156
f 135/164/150 134/162/148 149/170/154 150/173/157
f 128/166/151 82/174/16 143/175/158
f 308/176/18 142/163/149 157/172/156
f 136/168/152 135/164/150 150/173/157 151/177/159
f 129/152/138 128/166/151 143/175/158 144/178/160
f 137/154/140 136/168/152 151/177/159 152/179/161
f 130/153/139 129/152/138 144/178/160 145/180/162
f 138/155/141 137/154/140 152/179/161 153/181/163
f 131/156/142 130/153/139 145/180/162 146/182/164
f 139/157/143 138/155/141 153/181/163 154/183/165
f 132/158/144 131/156/142 146/182/164 147/184/166
f 140/159/145 139/157/143 154/183/165 155/185/167
f 133/160/146 132/158/144 147/184/166 148/169/153
f 141/161/147 140/159/145 155/185/167 156/171/155
f 153/181/163 152/179/161 167/186/168 168/187/169
f 146/182/164 145/180/162 160/188/170 161/189/171
f 154/183/165 153/181/163 168/187/169 169/190/172
f 147/184/166 146/182/164 161/189/171 162/191/173
f 155/185/167 154/183/165 169/190/172 170/192/174
f 148/169/153 147/184/166 162/191/173 163/193/175
f 156/171/155 155/185/167 170/192/174 171/194/176
f 149/170/154 148/169/153 163/193/175 164/195/177
f 157/172/156 156/171/155 171/194/176 172/196/178
f 150/173/157 149/170/154 164/195/177 165/197/179
f 143/175/158 82/198/16 158/199/180
f 308/200/18 157/172/156 172/196/178
f 151/177/159 150/173/157 165/197/179 166/201/181
f 144/178/160 143/175/158 158/199/180 159/202/182
f 152/179/161 151/177/159 166/201/181 167/186/168
f 145/180/162 144/178/160 159/202/182 160/188/170
f 172/196/178 171/194/176 186/203/183 187/204/184
f 165/197/179 164/195/177 179/205/185 180/206/186
f 158/199/180 82/207/16 173/208/187
f 308/209/18 172/196/178 187/204/184
f 166/201/181 165/197/179 180/206/186 181/210/188
f 159/202/182 158/199/180 173/208/187 174/211/189
f 167/186/168 166/201/181 181/210/188 182/212/190
f 160/188/170 159/202/182 174/211/189 175/213/191
f 168/187/169 167/186/168 182/212/190 183/214/192
f 161/189/171 160/188/170 175/213/191 176/215/193
f 169/190/172 168/187/169 183/214/192 184/216/194
f 162/191/173 161/189/171 176/215/193 177/217/195
f 170/192/174 169/190/172 184/216/194 185/218/196
f 163/193/175 162/191/173 177/217/195 178/219/197
f 171/194/176 170/192/174 185/218/196 186/203/183
f 164/195/177 163/193/175 178/219/197 179/205/185
f 184/216/194 183/214/192 198/220/198 199/221/199
f 177/217/195 176/215/193 191/222/200 192/223/201
f 185/218/196 184/216/194 199/221/199 200/224/202
f 178/219/197 177/217/195 192/223/201 193/225/203
f 186/203/183 185/218/196 200/224/202 201/226/204
f 179/205/185 178/219/197 193/225/203 194/227/205
f 187/204/184 186/203/183 201/226/204 202/228/206
f 180/206/186 179/205/185 194/227/205 195/229/207
f 173/208/187 82/230/16 188/231/208
f 308/232/18 187/204/184 202/228/206
f 181/210/188 180/206/186 195/229/207 196/233/209
f 174/211/189 173/208/187 188/231/208 189/234/210
f 182/212/190 181/210/188 196/233/209 197/235/211
f 175/213/191 174/211/189 189/234/210 190/236/212
f 183/214/192 182/212/190 197/235/211 198/220/198
f 176/215/193 175/213/191 190/236/212 191/222/200
f 188/231/208 82/237/16 203/238/213
f 308/239/18 202/228/206 217/240/214
f 196/233/209 195/229/207 210/241/215 211/242/216
f 189/234/210 188/231/208 203/238/213 204/243/217
f 197/235/211 196/233/209 211/242/216 212/244/218
f 190/236/212 189/234/210 204/243/217 205/245/219
f 198/220/198 197/235/211 212/244/218 213/246/220
f 191/222/200 190/236/212 205/245/219 206/247/221
f 199/221/199 198/220/198 213/246/220 214/248/222
f 192/223/201 191/222/200 206/247/221 207/249/223
f 200/224/202 199/221/199 214/248/222 215/250/224
f 193/225/203 192/223/201 207/249/223 208/251/225
f 201/226/204 200/224/202 215/250/224 216/252/226
f 194/227/205 193/225/203 208/251/225 209/253/227
f 202/228/206 201/226/204 216/252/226 217/240/214
f 195/229/207 194/227/205 209/253/227 210/241/215
f 207/249/223 206/247/221 221/254/228 222/255/229
f 215/250/224 214/248/222 229/256/230 230/257/231
f 208/251/225 207/249/223 222/255/229 223/258/232
f 216/252/226 215/250/224 230/257/231 231/259/233
f 209/253/227 208/251/225 223/258/232 224/260/234
f 217/240/214 216/252/226 231/259/233 232/261/235
f 210/241/215 209/253/227 224/260/234 225/262/236
f 203/238/213 82/263/16 218/264/237
f 308/265/18 217/240/214 232/261/235
f 211/242/216 210/241/215 225/262/236 226/266/238
f 204/243/217 203/238/213 218/264/237 219/267/239
f 212/244/218 211/242/216 226/266/238 227/268/240
f 205/245/219 204/243/217 219/267/239 220/269/241
f 213/246/220 212/244/218 227/268/240 228/270/242
f 206/247/221 205/245/219 220/269/241 221/254/228
f 214/248/222 213/246/220 228/270/242 229/256/230
f 226/266/238 225/262/236 240/271/243 241/272/244
f 219/267/239 218/264/237 233/273/245 234/274/246
f 227/268/240 226/266/238 241/272/244 242/275/247
f 220/269/241 219/267/239 234/274/246 235/276/248
f 228/270/242 227/268/240 242/275/247 243/277/249
f 221/254/228 220/269/241 235/276/248 236/278/250
f 229/256/230 228/270/242 243/277/249 244/279/251
f 222/255/229 221/254/228 236/278/250 237/280/252
f 230/257/231 229/256/230 244/279/251 245/281/253
f 223/258/232 222/255/229 237/280/252 238/282/254
f 231/259/233 230/257/231 245/281/253 246/283/255
f 224/260/234 223/258/232 238/282/254 239/284/256
f 232/261/235 231/259/233 246/283/255 247/285/257
f 225/262/236 224/260/234 239/284/256 240/271/243
f 218/264/237 82/286/16 233/273/245
f 308/287/18 232/261/235 247/285/257
f 245/281/253 244/279/251 259/288/258 260/289/259
f 238/282/254 237/280/252 252/290/260 253/291/261
f 246/283/255 245/281/253 260/289/259 261/292/262
f 239/284/256 238/282/254 253/291/261 254/293/263
f 247/285/257 246/283/255 261/292/262 262/294/264
f 240/271/243 239/284/256 254/293/263 255/295/265
f 233/273/245 82/296/16 248/297/266
f 308/298/18 247/285/257 262/294/264
f 241/272/244 240/271/243 255/295/265 256/299/267
f 234/274/246 233/273/245 248/297/266 249/300/268
f 242/275/247 241/272/244 256/299/267 257/301/269
f 235/276/248 234/274/246 249/300/268 250/302/270
f 243/277/249 242/275/247 257/301/269 258/303/271
f 236/278/250 235/276/248 250/302/270 251/304/272
f 244/279/251 243/277/249 258/303/271 259/288/258
f 237/280/252 236/278/250 251/304/272 252/290/260
f 249/300/268 248/297/266 263/305/273 264/306/274
f 257/301/269 256/299/267 271/307/275 272/308/276
f 250/302/270 249/300/268 264/306/274 265/309/277
f 258/303/271 257/301/269 272/308/276 273/310/278
f 251/304/272 250/302/270 265/309/277 266/311/279
f 259/288/258 258/303/271 273/310/278 274/312/280
f 252/290/260 251/304/272 266/311/279 267/313/281
f 260/289/259 259/288/258 274/312/280 275/314/282
f 253/291/261 252/290/260 267/313/281 268/315/283
f 261/292/262 260/289/259 275/314/282 276/316/284
f 254/293/263 253/291/261 268/315/283 269/317/285
f 262/294/264 261/292/262 276/316/284 277/318/286
f 255/295/265 254/293/263 269/317/285 270/319/287
f 248/297/266 82/320/16 263/305/273
f 308/321/18 262/294/264 277/318/286
f 256/299/267 255/295/265 270/319/287 271/307/275
f 268/315/283 267/313/281 282/322/288 283/323/289
f 276/316/284 275/314/282 290/324/290 291/325/291
f 269/317/285 268/315/283 283/323/289 284/326/292
f 277/318/286 276/316/284 291/325/291 292/327/293
f 270/319/287 269/317/285 284/326/292 285/328/294
f 263/305/273 82/329/16 278/330/295
f 308/331/18 277/318/286 292/327/293
f 271/307/275 270/319/287 285/328/294 286/332/296
f 264/306/274 263/305/273 278/330/295 279/333/297
f 272/308/276 271/307/275 286/332/296 287/334/298
f 265/309/277 264/306/274 279/333/297 280/335/299
f 273/310/278 272/308/276 287/334/298 288/336/300
f 266/311/279 265/309/277 280/335/299 281/337/301
f 274/312/280 273/310/278 288/336/300 289/338/302
f 267/313/281 266/311/279 281/337/301 282/322/288
f 275/314/282 274/312/280 289/338/302 290/324/290
f 287/334/298 286/332/296 301/339/303 302/340/304
f 280/335/299 279/333/297 294/341/305 295/342/306
f 288/336/300 287/334/298 302/340/304 303/343/307
f 281/337/301 280/335/299 295/342/306 296/344/308
f 289/338/302 288/336/300 303/343/307 304/345/309
f 282/322/288 281/337/301 296/344/308 297/346/310
f 290/324/290 289/338/302 304/345/309 305/347/311
f 283/323/289 282/322/288 297/346/310 298/348/312
f 291/325/291 290/324/290 305/347/311 306/349/313
f 284/326/292 283/323/289 298/348/312 299/350/314
f 292/327/293 291/325/291 306/349/313 307/351/315
f 285/328/294 284/326/292 299/350/314 300/352/316
f 278/330/295 82/353/16 293/354/317
f 308/355/18 292/327/293 307/351/315
f 286/332/296 285/328/294 300/352/316 301/339/303
f 279/333/297 278/330/295 293/354/317 294/341/305
f 306/349/313 305/347/311 321/356/318 322/357/319
f 299/350/314 298/348/312 314/358/320 315/359/321
f 307/351/315 306/349/313 322/357/319 323/360/322
f 300/352/316 299/350/314 315/359/321 316/361/323
f 293/354/317 82/362/16 309/363/324
f 308/364/18 307/351/315 323/360/322
f 301/339/303 300/352/316 316/361/323 317/365/325
f 294/341/305 293/354/317 309/363/324 310/366/326
f 302/340/304 301/339/303 317/365/325 318/367/327
f 295/342/306 294/341/305 310/366/326 311/368/328
f 303/343/307 302/340/304 318/367/327 319/369/329
f 296/344/308 295/342/306 311/368/328 312/370/330
f 304/345/309 303/343/307 319/369/329 320/371/331
f 297/346/310 296/344/308 312/370/330 313/372/332
f 305/347/311 304/345/309 320/371/331 321/356/318
f 298/348/312 297/346/310 313/372/332 314/358/320
f 319/369/329 318/367/327 333/373/333 334/374/334
f 312/370/330 311/368/328 326/375/335 327/376/336
f 320/371/331 319/369/329 334/374/334 335/377/337
f 313/372/332 312/370/330 327/376/336 328/378/338
f 321/356/318 320/371/331 335/377/337 336/379/339
f 314/358/320 313/372/332 328/378/338 329/380/340
f 322/357/319 321/356/318 336/379/339 337/381/341
f 315/359/321 314/358/320 329/380/340 330/382/342
f 323/360/322 322/357/319 337/381/341 338/383/343
f 316/361/323 315/359/321 330/382/342 331/384/344
f 309/363/324 82/385/16 324/386/345
f 308/387/18 323/360/322 338/383/343
f 317/365/325 316/361/323 331/384/344 332/388/346
f 310/366/326 309/363/324 324/386/345 325/389/347
f 318/367/327 317/365/325 332/388/346 333/373/333
f 311/368/328 310/366/326 325/389/347 326/375/335
f 338/383/343 337/381/341 352/390/348 353/391/349
f 331/384/344 330/382/342 345/392/350 346/393/351
f 324/386/345 82/394/16 339/395/352
f 308/396/18 338/383/343 353/391/349
f 332/388/346 331/384/344 346/393/351 347/397/353
f 325/389/347 324/386/345 339/395/352 340/398/354
f 333/373/333 332/388/346 347/397/353 348/399/355
f 326/375/335 325/389/347 340/398/354 341/400/356
f 334/374/334 333/373/333 348/399/355 349/401/357
f 327/376/336 326/375/335 341/400/356 342/402/358
f 335/377/337 334/374/334 349/401/357 350/403/359
f 328/378/338 327/376/336 342/402/358 343/404/360
f 336/379/339 335/377/337 350/403/359 351/405/361
f 329/380/340 328/378/338 343/404/360 344/406/362
f 337/381/341 336/379/339 351/405/361 352/390/348
f 330/382/342 329/380/340 344/406/362 345/392/350
f 342/402/358 341/400/356 356/407/363 357/408/364
f 350/403/359 349/401/357 364/409/365 365/410/366
f 343/404/360 342/402/358 357/408/364 358/411/367
f 351/405/361 350/403/359 365/410/366 366/412/368
f 344/406/362 343/404/360 358/411/367 359/413/369
f 352/390/348 351/405/361 366/412/368 367/414/370
f 345/392/350 344/406/362 359/413/369 360/415/371
f 353/391/349 352/390/348 367/414/370 368/416/372
f 346/393/351 345/392/350 360/415/371 361/417/373
f 339/395/352 82/418/16 354/419/374
f 308/420/18 353/391/349 368/416/372
f 347/397/353 346/393/351 361/417/373 362/421/375
f 340/398/354 339/395/352 354/419/374 355/422/376
f 348/399/355 347/397/353 362/421/375 363/423/377
f 341/400/356 340/398/354 355/422/376 356/407/363
f 349/401/357 348/399/355 363/423/377 364/409/365
f 361/424/373 360/425/371 375/426/378 376/427/379
f 354/428/374 82/429/16 369/430/380
f 308/431/18 368/432/372 383/433/381
f 362/434/375 361/424/373 376/427/379 377/435/382
f 355/436/376 354/428/374 369/430/380 370/437/383
f 363/438/377 362/434/375 377/435/382 378/439/384
f 356/440/363 355/436/376 370/437/383 371/441/385
f 364/442/365 363/438/377 378/439/384 379/443/386
f 357/444/364 356/440/363 371/441/385 372/445/387
f 365/446/366 364/442/365 379/443/386 380/447/388
f 358/448/367 357/444/364 372/445/387 373/449/389
f 366/450/368 365/446/366 380/447/388 381/451/390
f 359/452/369 358/448/367 373/449/389 374/453/391
f 367/454/370 366/450/368 381/451/390 382/455/392
f 360/425/371 359/452/369 374/453/391 375/426/378
f 368/432/372 367/454/370 382/455/392 383/433/381
f 380/447/388 379/443/386 394/456/393 395/457/394
f 373/449/389 372/445/387 387/458/395 388/459/396
f 381/451/390 380/447/388 395/457/394 396/460/397
f 374/453/391 373/449/389 388/459/396 389/461/398
f 382/455/392 381/451/390 396/460/397 397/462/399
f 375/426/378 374/453/391 389/461/398 390/463/400
f 383/433/381 382/455/392 397/462/399 398/464/401
f 376/427/379 375/426/378 390/463/400 391/465/402
f 369/430/380 82/466/16 384/467/403
f 308/468/18 383/433/381 398/464/401
f 377/435/382 376/427/379 391/465/402 392/469/404
f 370/437/383 369/430/380 384/467/403 385/470/405
f 378/439/384 377/435/382 392/469/404 393/471/406
f 371/441/385 370/437/383 385/470/405 386/472/407
f 379/443/386 378/439/384 393/471/406 394/456/393
f 372/445/387 371/441/385 386/472/407 387/458/395
f 384/467/403 82/473/16 399/474/408
f 308/475/18 398/464/401 413/476/409
f 392/469/404 391/465/402 406/477/410 407/478/411
f 385/470/405 384/467/403 399/474/408 400/479/412
f 393/471/406 392/469/404 407/478/411 408/480/413
f 386/472/407 385/470/405 400/479/412 401/481/414
f 394/456/393 393/471/406 408/480/413 409/482/415
f 387/458/395 386/472/407 401/481/414 402/483/416
f 395/457/394 394/456/393 409/482/415 410/484/417
f 388/459/396 387/458/395 402/483/416 403/485/418
f 396/460/397 395/457/394 410/484/417 411/486/419
f 389/461/398 388/459/396 403/485/418 404/487/420
f 397/462/399 396/460/397 411/486/419 412/488/421
f 390/463/400 389/461/398 404/487/420 405/489/422
f 398/464/401 397/462/399 412/488/421 413/476/409
f 391/465/402 390/463/400 405/489/422 406/477/410
f 403/485/418 402/483/416 417/490/423 418/491/424
f 411/486/419 410/484/417 425/492/425 426/493/426
f 404/487/420 403/485/418 418/491/424 419/494/427
f 412/488/421 411/486/419 426/493/426 427/495/428
f 405/489/422 404/487/420 419/494/427 420/496/429
f 413/476/409 412/488/421 427/495/428 428/497/430
f 406/477/410 405/489/422 420/496/429 421/498/431
f 399/474/408 82/499/16 414/500/432
f 308/501/18 413/476/409 428/497/430
f 407/478/411 406/477/410 421/498/431 422/502/433
f 400/479/412 399/474/408 414/500/432 415/503/434
f 408/480/413 407/478/411 422/502/433 423/504/435
f 401/481/414 400/479/412 415/503/434 416/505/436
f 409/482/415 408/480/413 423/504/435 424/506/437
f 402/483/416 401/481/414 416/505/436 417/490/423
f 410/484/417 409/482/415 424/506/437 425/492/425
f 422/502/433 421/498/431 436/507/438 437/508/439
f 415/503/434 414/500/432 429/509/440 430/510/441
f 423/504/435 422/502/433 437/508/439 438/511/442
f 416/505/436 415/503/434 430/510/441 431/512/443
f 424/506/437 423/504/435 438/511/442 439/513/444
f 417/490/423 416/505/436 431/512/443 432/514/445
f 425/492/425 424/506/437 439/513/444 440/515/446
f 418/491/424 417/490/423 432/514/445 433/516/447
f 426/493/426 425/492/425 440/515/446 441/517/448
f 419/494/427 418/491/424 433/516/447 434/518/449
f 427/495/428 426/493/426 441/517/448 442/519/450
f 420/496/429 419/494/427 434/518/449 435/520/451
f 428/497/430 427/495/428 442/519/450 443/521/452
f 421/498/431 420/496/429 435/520/451 436/507/438
f 414/500/432 82/522/16 429/509/440
f 308/523/18 428/497/430 443/521/452
f 441/517/448 440/515/446 455/524/453 456/525/454
f 434/518/449 433/516/447 448/526/455 449/527/456
f 442/519/450 441/517/448 456/525/454 457/528/457
f 435/520/451 434/518/449 449/527/456 450/529/458
f 443/521/452 442/519/450 457/528/457 458/530/459
f 436/507/438 435/520/451 450/529/458 451/531/460
f 429/509/440 82/532/16 444/533/461
f 308/534/18 443/521/452 458/530/459
f 437/508/439 436/507/438 451/531/460 452/535/462
f 430/510/441 429/509/440 444/533/461 445/536/463
f 438/511/442 437/508/439 452/535/462 453/537/464
f 431/512/443 430/510/441 445/536/463 446/538/465
f 439/513/444 438/511/442 453/537/464 454/539/466
f 432/514/445 431/512/443 446/538/465 447/540/467
f 440/515/446 439/513/444 454/539/466 455/524/453
f 433/516/447 432/514/445 447/540/467 448/526/455
f 453/537/464 452/535/462 467/541/468 468/542/469
f 446/538/465 445/536/463 460/543/470 461/544/471
f 454/539/466 453/537/464 468/542/469 469/545/472
f 447/540/467 446/538/465 461/544/471 462/546/473
f 455/524/453 454/539/466 469/545/472 470/547/474
f 448/526/455 447/540/467 462/546/473 463/548/475
f 456/525/454 455/524/453 470/547/474 471/549/476
f 449/527/456 448/526/455 463/548/475 464/550/477
f 457/528/457 456/525/454 471/549/476 472/551/478
f 450/529/458 449/527/456 464/550/477 465/552/479
f 458/530/459 457/528/457 472/551/478 473/553/480
f 451/531/460 450/529/458 465/552/479 466/554/481
f 444/533/461 82/555/16 459/556/482
f 308/557/18 458/530/459 473/553/480
f 452/535/462 451/531/460 466/554/481 467/541/468
f 445/536/463 444/533/461 459/556/482 460/543/470
f 472/551/478 471/549/476 480/6/6 481/5/5
f 465/552/479 464/550/477 477/1/1 3/9/9
f 473/553/480 472/551/478 481/5/5 482/11/11
f 466/554/481 465/552/479 3/9/9 4/13/13
f 459/556/482 82/558/16 474/15/15
f 308/559/18 473/553/480 482/11/11
f 467/541/468 466/554/481 4/13/13 5/19/19
f 460/543/470 459/556/482 474/15/15 475/21/21
f 468/542/469 467/541/468 5/19/19 478/23/23
f 461/544/471 460/543/470 475/21/21 1/25/25
f 469/545/472 468/542/469 478/23/23 6/27/27
f 462/546/473 461/544/471 1/25/25 476/29/29
f 470/547/474 469/545/472 6/27/27 479/31/31
f 463/548/475 462/546/473 476/29/29 2/2/2
f 471/549/476 470/547/474 479/31/31 480/6/6
f 464/550/477 463/548/475 2/2/2 477/1/1
