# Blender 4.4.1
# www.blender.org
mtllib beam.mtl
o 円柱.002
v -0.295175 4.010178 -1.709484
v -0.187247 3.936313 1.726082
v -0.290064 4.061745 -1.708535
v -0.182136 3.987880 1.727030
v -0.274997 4.111331 -1.707943
v -0.167069 4.037466 1.727623
v -0.250553 4.157029 -1.707728
v -0.142625 4.083164 1.727838
v -0.217671 4.197083 -1.707900
v -0.109744 4.123219 1.727666
v -0.177616 4.229956 -1.708452
v -0.069688 4.156091 1.727114
v -0.131926 4.254382 -1.709362
v -0.023998 4.180518 1.726204
v -0.082357 4.269424 -1.710595
v 0.025571 4.195559 1.724970
v -0.030814 4.274503 -1.712106
v 0.077113 4.200638 1.723460
v 0.020721 4.269424 -1.713834
v 0.128649 4.195559 1.721732
v 0.070270 4.254382 -1.715714
v 0.178198 4.180518 1.719852
v 0.115927 4.229956 -1.717673
v 0.223855 4.156091 1.717893
v 0.155938 4.197083 -1.719637
v 0.263866 4.123219 1.715929
v 0.188765 4.157029 -1.721529
v 0.296693 4.083164 1.714036
v 0.213148 4.111331 -1.723278
v 0.321075 4.037466 1.712288
v 0.228148 4.061745 -1.724815
v 0.336075 3.987880 1.710751
v 0.233189 4.010178 -1.726082
v 0.341117 3.936313 1.709484
v 0.228078 3.958611 -1.727030
v 0.336006 3.884746 1.708535
v 0.213011 3.909025 -1.727623
v 0.320939 3.835160 1.707943
v 0.188567 3.863327 -1.727838
v 0.296495 3.789462 1.707728
v 0.155686 3.823272 -1.727666
v 0.263614 3.749407 1.707900
v 0.115630 3.790400 -1.727114
v 0.223558 3.716535 1.708452
v 0.069940 3.765973 -1.726204
v 0.177868 3.692109 1.709362
v 0.020372 3.750932 -1.724970
v 0.128299 3.677067 1.710595
v -0.031171 3.745853 -1.723460
v 0.076757 3.671988 1.712106
v -0.082707 3.750932 -1.721732
v 0.025221 3.677067 1.713834
v -0.132256 3.765973 -1.719852
v -0.024328 3.692109 1.715714
v -0.177913 3.790400 -1.717893
v -0.069985 3.716535 1.717673
v -0.217924 3.823272 -1.715929
v -0.109996 3.749407 1.719637
v -0.250751 3.863327 -1.714036
v -0.142823 3.789462 1.721529
v -0.275133 3.909025 -1.712288
v -0.167205 3.835160 1.723278
v -0.290133 3.958611 -1.710751
v -0.182205 3.884746 1.724815
v -0.065815 3.930404 1.997377
v -0.144711 3.932948 1.881417
v -0.190254 3.936272 1.728101
v -0.198118 3.938071 1.644599
v -0.195510 3.939869 1.560769
v -0.159681 3.943193 1.404897
v 0.035450 3.939404 2.058517
v -0.015444 3.949906 2.035902
v -0.062887 3.959954 1.997920
v -0.105055 3.969160 1.946031
v -0.140328 3.977172 1.882230
v -0.167350 3.983681 1.808968
v -0.185084 3.988438 1.729060
v -0.192846 3.991259 1.645577
v -0.190340 3.992035 1.561728
v -0.177662 3.990738 1.480735
v -0.155298 3.987417 1.405710
v -0.124108 3.982200 1.339536
v -0.085291 3.975287 1.284757
v -0.040338 3.966943 1.243477
v 0.009023 3.957490 1.217284
v 0.038482 3.949382 2.058636
v -0.009497 3.969478 2.036136
v -0.054253 3.988368 1.998260
v -0.094066 4.005325 1.946464
v -0.127406 4.019697 1.882739
v -0.152993 4.030932 1.809533
v -0.169842 4.038599 1.729660
v -0.177306 4.042403 1.646189
v -0.175098 4.042197 1.562328
v -0.163304 4.037989 1.481300
v -0.142376 4.029942 1.406218
v -0.113119 4.018364 1.339969
v -0.076657 4.003701 1.285097
v -0.034391 3.986515 1.243711
v 0.012055 3.967468 1.217403
v 0.043400 3.958577 2.058679
v 0.000151 3.987516 2.036221
v -0.040246 4.014555 1.998383
v -0.076238 4.038654 1.946620
v -0.106443 4.058888 1.882923
v -0.129700 4.074479 1.809737
v -0.145114 4.084828 1.729877
v -0.152094 4.089537 1.646410
v -0.150371 4.088426 1.562545
v -0.140011 4.081536 1.481504
v -0.121413 4.069133 1.406402
v -0.095291 4.051693 1.340125
v -0.062650 4.029887 1.285220
v -0.024743 4.004553 1.243796
v 0.016973 3.976664 1.217446
v 0.050017 3.966637 2.058645
v 0.013130 4.003326 2.036153
v -0.021404 4.037507 1.998284
v -0.052257 4.067867 1.946495
v -0.078244 4.093239 1.882775
v -0.098366 4.112648 1.809574
v -0.111851 4.125348 1.729703
v -0.118179 4.130851 1.646233
v -0.117107 4.128946 1.562371
v -0.108678 4.119705 1.481341
v -0.093214 4.103484 1.406255
v -0.071310 4.080907 1.340000
v -0.043808 4.052840 1.285121
v -0.011764 4.020363 1.243728
v 0.023590 3.984723 1.217412
v 0.058077 3.973252 2.058534
v 0.028940 4.016301 2.035935
v 0.001549 4.056344 1.997968
v -0.023043 4.091842 1.946093
v -0.043892 4.121430 1.882302
v -0.060197 4.143972 1.809048
v -0.071330 4.158602 1.729145
v -0.076864 4.164756 1.645664
v -0.076587 4.162199 1.561813
v -0.070508 4.151030 1.480815
v -0.058862 4.131676 1.405782
v -0.042096 4.104881 1.339597
v -0.020855 4.071677 1.284805
v 0.004046 4.033338 1.243510
v 0.031650 3.991338 1.217301
v 0.087840 3.928850 2.064896
v 0.067271 3.978167 2.058351
v 0.046975 4.025942 2.035576
v 0.027731 4.070341 1.997447
v 0.010280 4.109657 1.945429
v -0.004709 4.142378 1.881522
v -0.016658 4.167249 1.808181
v -0.025110 4.183312 1.728224
v -0.029738 4.189950 1.644725
v -0.030366 4.186909 1.560892
v -0.026970 4.174305 1.479948
v -0.019678 4.152624 1.405001
v -0.008773 4.122696 1.338934
v 0.005327 4.085674 1.284284
v 0.022081 4.042979 1.243151
v 0.040844 3.996253 1.217118
v 0.077245 3.981193 2.058102
v 0.066540 4.031879 2.035089
v 0.056136 4.078960 1.996740
v 0.046432 4.120627 1.944529
v 0.037802 4.155278 1.880464
v 0.030577 4.181582 1.807005
v 0.025035 4.198528 1.726976
v 0.021388 4.205465 1.643453
v 0.019778 4.202126 1.559644
v 0.020265 4.188639 1.478772
v 0.022832 4.165523 1.403943
v 0.027379 4.133667 1.338034
v 0.033732 4.094293 1.283576
v 0.041646 4.048916 1.242664
v 0.050818 3.999280 1.216869
v 0.087617 3.982215 2.057799
v 0.086884 4.033884 2.034493
v 0.085671 4.081871 1.995874
v 0.084024 4.124331 1.943428
v 0.082005 4.159634 1.879169
v 0.079693 4.186422 1.805566
v 0.077176 4.203666 1.725449
v 0.074551 4.210703 1.641895
v 0.071919 4.207263 1.558117
v 0.069381 4.193479 1.477333
v 0.067035 4.169879 1.402648
v 0.064971 4.137371 1.336933
v 0.063267 4.097204 1.282711
v 0.061991 4.050921 1.242068
v 0.061189 4.000302 1.216565
v 0.097987 3.981193 2.057451
v 0.107226 4.031879 2.033811
v 0.115203 4.078960 1.994884
v 0.121610 4.120627 1.942167
v 0.126202 4.155278 1.877687
v 0.128802 4.181582 1.803919
v 0.129310 4.198528 1.723700
v 0.127707 4.205465 1.640113
v 0.124053 4.202126 1.556369
v 0.118491 4.188639 1.475686
v 0.111232 4.165523 1.401166
v 0.102557 4.133667 1.335672
v 0.092799 4.094293 1.281721
v 0.082332 4.048916 1.241386
v 0.071560 3.999280 1.216218
v 0.107957 3.978167 2.057072
v 0.126784 4.025942 2.033069
v 0.143596 4.070341 1.993807
v 0.157748 4.109657 1.940796
v 0.168695 4.142378 1.876074
v 0.176018 4.167249 1.802128
v 0.179434 4.183311 1.721799
v 0.178813 4.189950 1.638174
v 0.174177 4.186909 1.554467
v 0.165706 4.174305 1.473895
v 0.153725 4.152624 1.399554
v 0.138695 4.122696 1.334301
v 0.121192 4.085674 1.280644
v 0.101890 4.042979 1.240644
v 0.081530 3.996253 1.215839
v 0.117144 3.973252 2.056678
v 0.144805 4.016301 2.032295
v 0.169759 4.056344 1.992684
v 0.191047 4.091842 1.939367
v 0.207851 4.121430 1.874394
v 0.219525 4.143972 1.800260
v 0.225621 4.158602 1.719816
v 0.225905 4.164756 1.636153
v 0.220365 4.162199 1.552485
v 0.209214 4.151030 1.472028
v 0.192881 4.131676 1.397874
v 0.171994 4.104881 1.332872
v 0.147355 4.071677 1.279521
v 0.119911 4.033338 1.239871
v 0.090717 3.991338 1.215445
v 0.125195 3.966637 2.056283
v 0.160598 4.003326 2.031520
v 0.192686 4.037507 1.991559
v 0.220228 4.067867 1.937935
v 0.242164 4.093239 1.872710
v 0.257652 4.112648 1.798389
v 0.266097 4.125348 1.717830
v 0.267173 4.130851 1.634127
v 0.260840 4.128945 1.550498
v 0.247341 4.119705 1.470156
v 0.227195 4.103484 1.396189
v 0.201175 4.080907 1.331440
v 0.170282 4.052840 1.278396
v 0.135704 4.020363 1.239095
v 0.098768 3.984723 1.215050
v 0.131801 3.958577 2.055902
v 0.173555 3.987516 2.030773
v 0.211497 4.014555 1.990474
v 0.244170 4.038654 1.936555
v 0.270317 4.058888 1.871087
v 0.288934 4.074479 1.796586
v 0.299305 4.084828 1.715915
v 0.301032 4.089537 1.632175
v 0.294049 4.088426 1.548584
v 0.278623 4.081536 1.468353
v 0.255347 4.069133 1.394566
v 0.225117 4.051693 1.330059
v 0.189094 4.029887 1.277311
v 0.148661 4.004553 1.238348
v 0.105374 3.976664 1.214669
v 0.136707 3.949382 2.055550
v 0.183179 3.969478 2.030083
v 0.225469 3.988368 1.989472
v 0.261953 4.005325 1.935279
v 0.291227 4.019697 1.869587
v 0.312168 4.030932 1.794920
v 0.323971 4.038599 1.714147
v 0.326181 4.042402 1.630372
v 0.318714 4.042197 1.546815
v 0.301857 4.037989 1.466687
v 0.276258 4.029942 1.393067
v 0.242900 4.018364 1.328784
v 0.203065 4.003701 1.276309
v 0.158285 3.986515 1.237658
v 0.110280 3.967468 1.214317
v 0.139725 3.939404 2.055241
v 0.189100 3.949906 2.029476
v 0.234065 3.959954 1.988591
v 0.272893 3.969160 1.934158
v 0.304091 3.977172 1.868269
v 0.326462 3.983681 1.793455
v 0.339145 3.988438 1.712592
v 0.341652 3.991258 1.628786
v 0.333888 3.992035 1.545260
v 0.316151 3.990738 1.465222
v 0.289122 3.987417 1.391749
v 0.253840 3.982200 1.327663
v 0.211661 3.975287 1.275428
v 0.164206 3.966943 1.237052
v 0.113298 3.957490 1.214008
v 0.140740 3.929027 2.054986
v 0.191090 3.929552 2.028976
v 0.236954 3.930404 1.987865
v 0.276570 3.931551 1.933234
v 0.308415 3.932948 1.867182
v 0.331266 3.934542 1.792247
v 0.344245 3.936272 1.711310
v 0.346852 3.938071 1.627479
v 0.338988 3.939869 1.543978
v 0.320955 3.941599 1.464015
v 0.293445 3.943193 1.390662
v 0.257517 3.944590 1.326739
v 0.214550 3.945737 1.274702
v 0.166196 3.946589 1.236552
v 0.114313 3.947114 1.213753
v 0.139711 3.918651 2.054795
v 0.189072 3.909198 2.028602
v 0.234025 3.900854 1.987322
v 0.272842 3.893941 1.932543
v 0.304032 3.888724 1.866369
v 0.326396 3.885403 1.791344
v 0.339074 3.884106 1.710351
v 0.341580 3.884882 1.626501
v 0.333818 3.887703 1.543019
v 0.316084 3.892460 1.463111
v 0.289062 3.898969 1.389849
v 0.253789 3.906981 1.326047
v 0.211621 3.916187 1.274159
v 0.164178 3.926235 1.236177
v 0.113284 3.936737 1.213562
v 0.136680 3.908673 2.054676
v 0.183125 3.889626 2.028368
v 0.225391 3.872440 1.986982
v 0.261853 3.857777 1.932110
v 0.291110 3.846199 1.865861
v 0.312038 3.838152 1.790779
v 0.323832 3.833945 1.709751
v 0.326040 3.833739 1.625890
v 0.318576 3.837542 1.542419
v 0.301727 3.845209 1.462546
v 0.276141 3.856444 1.389340
v 0.242800 3.870816 1.325615
v 0.202987 3.887773 1.273819
v 0.158231 3.906663 1.235943
v 0.110252 3.926760 1.213443
v 0.131761 3.899478 2.054633
v 0.173477 3.871588 2.028283
v 0.211384 3.846254 1.986859
v 0.244026 3.824448 1.931954
v 0.270147 3.807008 1.865677
v 0.288745 3.794605 1.790575
v 0.299105 3.787715 1.709534
v 0.300828 3.786604 1.625669
v 0.293848 3.791313 1.542202
v 0.278434 3.801662 1.462342
v 0.255177 3.817253 1.389156
v 0.224973 3.837487 1.325459
v 0.188980 3.861587 1.273696
v 0.148583 3.888625 1.235859
v 0.105334 3.917564 1.213400
v 0.125145 3.891418 2.054667
v 0.160498 3.855778 2.028351
v 0.192542 3.823301 1.986958
v 0.220044 3.795234 1.932079
v 0.241948 3.772657 1.865824
v 0.257412 3.756436 1.790738
v 0.265842 3.747195 1.709708
v 0.266913 3.745290 1.625846
v 0.260585 3.750793 1.542376
v 0.247101 3.763493 1.462505
v 0.226978 3.782902 1.389304
v 0.200991 3.808274 1.325584
v 0.170138 3.838634 1.273795
v 0.135604 3.872815 1.235926
v 0.098717 3.909504 1.213434
v 0.060895 3.947291 1.207183
v 0.117085 3.884803 2.054778
v 0.144688 3.842803 2.028569
v 0.169589 3.804464 1.987274
v 0.190830 3.771260 1.932481
v 0.207596 3.744466 1.866297
v 0.219243 3.725112 1.791264
v 0.225321 3.713942 1.710266
v 0.225598 3.711385 1.626415
v 0.220064 3.717539 1.542934
v 0.208931 3.732169 1.463031
v 0.192627 3.754711 1.389777
v 0.171777 3.784299 1.325986
v 0.147185 3.819797 1.274111
v 0.119794 3.859840 1.236144
v 0.090657 3.902890 1.213545
v 0.107891 3.879888 2.054962
v 0.126654 3.833162 2.028928
v 0.143407 3.790467 1.987795
v 0.157507 3.753445 1.933145
v 0.168413 3.723518 1.867078
v 0.175704 3.701836 1.792131
v 0.179101 3.689232 1.711186
v 0.178472 3.686191 1.627354
v 0.173844 3.692829 1.543855
v 0.165392 3.708893 1.463898
v 0.153443 3.733763 1.390557
v 0.138454 3.766484 1.326650
v 0.121003 3.805800 1.274632
v 0.101760 3.850199 1.236503
v 0.081463 3.897974 1.213728
v 0.097916 3.876861 2.055210
v 0.107088 3.827225 2.029415
v 0.115002 3.781848 1.988503
v 0.121355 3.742475 1.934045
v 0.125902 3.710618 1.868136
v 0.128469 3.687502 1.793307
v 0.128956 3.674016 1.712435
v 0.127346 3.670677 1.628626
v 0.123699 3.677613 1.545103
v 0.118157 3.694559 1.465074
v 0.110932 3.720863 1.391615
v 0.102302 3.755514 1.327550
v 0.092599 3.797181 1.275339
v 0.082194 3.844262 1.236990
v 0.071489 3.894948 1.213977
v 0.087545 3.875839 2.055514
v 0.086744 3.825220 2.030011
v 0.085467 3.778938 1.989368
v 0.083764 3.738770 1.935146
v 0.081699 3.706262 1.869431
v 0.079353 3.682662 1.794746
v 0.076815 3.668878 1.713962
v 0.074183 3.665438 1.630184
v 0.071558 3.672475 1.546630
v 0.069041 3.689719 1.466513
v 0.066729 3.716507 1.392910
v 0.064711 3.751810 1.328651
v 0.063063 3.794271 1.276205
v 0.061850 3.842257 1.237586
v 0.061118 3.893926 1.214281
v 0.077175 3.876861 2.055861
v 0.066402 3.827225 2.030693
v 0.055935 3.781848 1.990358
v 0.046177 3.742475 1.936407
v 0.037502 3.710618 1.870913
v 0.030243 3.687502 1.796393
v 0.024681 3.674016 1.715710
v 0.021027 3.670677 1.631966
v 0.019424 3.677613 1.548378
v 0.019932 3.694559 1.468160
v 0.022532 3.720863 1.394392
v 0.027124 3.755514 1.329912
v 0.033531 3.797181 1.277195
v 0.041508 3.844262 1.238268
v 0.050747 3.894948 1.214628
v 0.067204 3.879888 2.056240
v 0.046845 3.833162 2.031435
v 0.027542 3.790467 1.991435
v 0.010040 3.753445 1.937778
v -0.004991 3.723518 1.872525
v -0.016972 3.701836 1.798184
v -0.025443 3.689232 1.717612
v -0.030078 3.686191 1.633905
v -0.030700 3.692830 1.550280
v -0.027284 3.708893 1.469951
v -0.019961 3.733763 1.396005
v -0.009013 3.766484 1.331283
v 0.005138 3.805800 1.278272
v 0.021951 3.850199 1.239011
v 0.040777 3.897974 1.215007
v 0.058017 3.884803 2.056634
v 0.028823 3.842803 2.032208
v 0.001379 3.804464 1.992558
v -0.023260 3.771260 1.939207
v -0.044147 3.744466 1.874205
v -0.060480 3.725112 1.800051
v -0.071630 3.713942 1.719594
v -0.077170 3.711385 1.635926
v -0.076887 3.717540 1.552263
v -0.070791 3.732169 1.471818
v -0.059117 3.754711 1.397685
v -0.042313 3.784299 1.332712
v -0.021025 3.819797 1.279395
v 0.003929 3.859840 1.239784
v 0.031590 3.902890 1.215401
v 0.049966 3.891418 2.057029
v 0.013030 3.855778 2.032984
v -0.021548 3.823301 1.993683
v -0.052441 3.795234 1.940639
v -0.078460 3.772657 1.875890
v -0.098607 3.756436 1.801923
v -0.112106 3.747196 1.721581
v -0.118439 3.745291 1.637952
v -0.117363 3.750793 1.554249
v -0.108918 3.763493 1.473690
v -0.093430 3.782902 1.399369
v -0.071494 3.808274 1.334144
v -0.043952 3.838634 1.280520
v -0.011863 3.872815 1.240559
v 0.023539 3.909504 1.215796
v 0.043361 3.899478 2.057410
v 0.000073 3.871588 2.033731
v -0.040359 3.846254 1.994768
v -0.076383 3.824448 1.942019
v -0.106613 3.807008 1.877513
v -0.129888 3.794605 1.803726
v -0.145314 3.787716 1.723495
v -0.152298 3.786604 1.639904
v -0.150571 3.791313 1.556163
v -0.140200 3.801662 1.475493
v -0.121583 3.817253 1.400992
v -0.095436 3.837487 1.335524
v -0.062763 3.861587 1.281605
v -0.024821 3.888625 1.241306
v 0.016933 3.917564 1.216177
v 0.038454 3.908673 2.057762
v -0.009551 3.889626 2.034421
v -0.054331 3.872440 1.995770
v -0.094166 3.857777 1.943295
v -0.127523 3.846199 1.879012
v -0.153123 3.838152 1.805392
v -0.169980 3.833945 1.725264
v -0.177446 3.833739 1.641707
v -0.175236 3.837542 1.557932
v -0.163434 3.845209 1.477159
v -0.142493 3.856444 1.402492
v -0.113219 3.870816 1.336799
v -0.076735 3.887774 1.282607
v -0.034445 3.906663 1.241996
v 0.012027 3.926760 1.216529
v 0.035436 3.918651 2.058071
v -0.015471 3.909198 2.035028
v -0.062926 3.900855 1.996651
v -0.105106 3.893941 1.944416
v -0.140387 3.888724 1.880330
v -0.167416 3.885403 1.806857
v -0.185154 3.884106 1.726819
v -0.192918 3.884883 1.643293
v -0.190410 3.887703 1.559487
v -0.177728 3.892460 1.478624
v -0.155357 3.898969 1.403810
v -0.124158 3.906981 1.337921
v -0.085330 3.916188 1.283488
v -0.040365 3.926235 1.242603
v 0.009009 3.936737 1.216838
v 0.034422 3.929027 2.058326
v -0.017461 3.929552 2.035528
v -0.108782 3.931551 1.945340
v -0.172220 3.934542 1.808064
v -0.182532 3.941599 1.479831
v -0.127835 3.944590 1.338845
v -0.088219 3.945737 1.284214
v -0.042355 3.946589 1.243103
v 0.007994 3.947114 1.217093
vn -0.9946 0.0980 0.0334
vn -0.9563 0.2901 0.0363
vn -0.8812 0.4712 0.0378
vn -0.7723 0.6341 0.0379
vn -0.6337 0.7727 0.0365
vn -0.4707 0.8817 0.0337
vn -0.2896 0.9567 0.0297
vn -0.0973 0.9950 0.0244
vn 0.0987 0.9950 0.0183
vn 0.2909 0.9567 0.0114
vn 0.4719 0.8817 0.0041
vn 0.6347 0.7727 -0.0033
vn 0.7731 0.6341 -0.0107
vn 0.8819 0.4712 -0.0176
vn 0.9567 0.2901 -0.0238
vn 0.9948 0.0980 -0.0291
vn 0.9946 -0.0980 -0.0334
vn 0.9563 -0.2901 -0.0363
vn 0.8812 -0.4712 -0.0378
vn 0.7723 -0.6341 -0.0379
vn 0.6337 -0.7727 -0.0365
vn 0.4707 -0.8817 -0.0337
vn 0.2896 -0.9567 -0.0297
vn 0.0973 -0.9950 -0.0244
vn -0.0987 -0.9950 -0.0183
vn -0.2909 -0.9567 -0.0114
vn -0.4719 -0.8817 -0.0041
vn -0.6347 -0.7727 0.0033
vn -0.7731 -0.6341 0.0107
vn -0.8819 -0.4712 0.0176
vn 0.0314 -0.0215 0.9993
vn -0.9567 -0.2901 0.0238
vn -0.9948 -0.0980 0.0291
vn -0.0314 0.0215 -0.9993
vn -0.8071 0.0907 -0.5834
vn -0.9322 0.0859 0.3515
vn -0.6662 0.0797 -0.7415
vn -0.9709 0.0922 0.2210
vn -0.4586 0.0618 -0.8865
vn -0.9908 0.0964 0.0954
vn -0.1221 -0.0062 0.9925
vn -0.1841 0.0363 -0.9822
vn -0.9947 0.0991 -0.0288
vn -0.4020 0.0230 0.9154
vn -0.9827 0.1003 -0.1554
vn -0.6182 0.0469 0.7846
vn -0.9523 0.0997 -0.2883
vn -0.7688 0.0645 0.6362
vn -0.8973 0.0969 -0.4306
vn -0.8684 0.0771 0.4898
vn -0.7384 0.2167 0.6385
vn -0.8633 0.2674 -0.4280
vn -0.8344 0.2476 0.4924
vn -0.7767 0.2430 -0.5811
vn -0.8959 0.2680 0.3543
vn -0.6414 0.2037 -0.7397
vn -0.9333 0.2809 0.2238
vn -0.4420 0.1449 -0.8852
vn -0.9525 0.2882 0.0983
vn -0.1162 0.0234 0.9930
vn -0.1782 0.0659 -0.9818
vn -0.9564 0.2909 -0.0259
vn -0.3854 0.1061 0.9166
vn -0.9451 0.2890 -0.1526
vn -0.5935 0.1709 0.7865
vn -0.9160 0.2818 -0.2855
vn -0.8776 0.4689 0.0998
vn -0.1046 0.0513 0.9932
vn -0.1667 0.0938 -0.9815
vn -0.8815 0.4716 -0.0244
vn -0.3529 0.1845 0.9173
vn -0.8714 0.4668 -0.1511
vn -0.5450 0.2878 0.7875
vn -0.8449 0.4533 -0.2841
vn -0.6789 0.3602 0.6398
vn -0.7967 0.4281 -0.4266
vn -0.7678 0.4083 0.4938
vn -0.7173 0.3864 -0.5799
vn -0.8248 0.4395 0.3557
vn -0.5929 0.3206 -0.7387
vn -0.8595 0.4587 0.2253
vn -0.4095 0.2232 -0.8846
vn -0.7000 0.5728 -0.4266
vn -0.6710 0.5530 0.4939
vn -0.6310 0.5155 -0.5798
vn -0.7216 0.5939 0.3558
vn -0.5226 0.4258 -0.7386
vn -0.7526 0.6187 0.2254
vn -0.3624 0.2937 -0.8846
vn -0.7688 0.6316 0.0999
vn -0.0879 0.0764 0.9932
vn -0.1499 0.1188 -0.9815
vn -0.7727 0.6342 -0.0243
vn -0.3058 0.2549 0.9173
vn -0.7644 0.6268 -0.1510
vn -0.4746 0.3930 0.7876
vn -0.7417 0.6076 -0.2840
vn -0.5926 0.4892 0.6399
vn -0.1285 0.1402 -0.9817
vn -0.6344 0.7726 -0.0257
vn -0.2458 0.3149 0.9167
vn -0.6282 0.7630 -0.1524
vn -0.3851 0.4825 0.7867
vn -0.6104 0.7389 -0.2853
vn -0.4828 0.5990 0.6388
vn -0.5769 0.6958 -0.4278
vn -0.5480 0.6760 0.4927
vn -0.5211 0.6253 -0.5809
vn -0.5903 0.7252 0.3545
vn -0.4331 0.5153 -0.7396
vn -0.6164 0.7549 0.2241
vn -0.3024 0.3536 -0.8852
vn -0.6305 0.7699 0.0986
vn -0.0665 0.0977 0.9930
vn -0.3920 0.7115 -0.5832
vn -0.4358 0.8284 0.3519
vn -0.3278 0.5856 -0.7414
vn -0.4563 0.8618 0.2214
vn -0.2319 0.4007 -0.8864
vn -0.4678 0.8786 0.0958
vn -0.0414 0.1145 0.9926
vn -0.1035 0.1569 -0.9822
vn -0.4717 0.8813 -0.0284
vn -0.1753 0.3620 0.9156
vn -0.4682 0.8699 -0.1551
vn -0.2799 0.5528 0.7849
vn -0.4559 0.8421 -0.2880
vn -0.3537 0.6853 0.6366
vn -0.4322 0.7925 -0.4303
vn -0.4033 0.7727 0.4902
vn -0.0969 0.3944 0.9138
vn -0.2903 0.9436 -0.1591
vn -0.1630 0.6012 0.7823
vn -0.2844 0.9132 -0.2919
vn -0.2102 0.7447 0.6334
vn -0.2715 0.8591 -0.4339
vn -0.2426 0.8393 0.4866
vn -0.2485 0.7709 -0.5864
vn -0.2643 0.8994 0.3481
vn -0.2109 0.6340 -0.7440
vn -0.2785 0.9355 0.2174
vn -0.1536 0.4332 -0.8881
vn -0.2871 0.9535 0.0917
vn -0.0135 0.1260 0.9919
vn -0.0756 0.1685 -0.9828
vn -0.2910 0.9562 -0.0325
vn -0.0821 0.9357 0.3431
vn -0.0868 0.6587 -0.7474
vn -0.0897 0.9731 0.2123
vn -0.0704 0.4497 -0.8904
vn -0.0952 0.9917 0.0865
vn 0.0160 0.1319 0.9911
vn -0.0460 0.1744 -0.9836
vn -0.0991 0.9944 -0.0377
vn -0.0138 0.4110 0.9115
vn -0.1015 0.9812 -0.1642
vn -0.0389 0.6259 0.7789
vn -0.1023 0.9494 -0.2968
vn -0.0579 0.7750 0.6293
vn -0.1008 0.8930 -0.4386
vn -0.0719 0.8732 0.4820
vn -0.0963 0.8012 -0.5905
vn 0.0910 0.9812 -0.1703
vn 0.0877 0.6259 0.7750
vn 0.0834 0.9494 -0.3026
vn 0.0973 0.7750 0.6244
vn 0.0731 0.8930 -0.4441
vn 0.1020 0.8732 0.4765
vn 0.0590 0.8012 -0.5954
vn 0.1035 0.9357 0.3373
vn 0.0397 0.6587 -0.7514
vn 0.1028 0.9731 0.2062
vn 0.0144 0.4497 -0.8931
vn 0.1004 0.9917 0.0804
vn 0.0462 0.1319 0.9902
vn -0.0158 0.1744 -0.9846
vn 0.0965 0.9944 -0.0439
vn 0.0710 0.4110 0.9089
vn 0.1638 0.6340 -0.7558
vn 0.2916 0.9355 0.1995
vn 0.0975 0.4332 -0.8960
vn 0.2923 0.9535 0.0735
vn 0.0758 0.1260 0.9891
vn 0.0137 0.1685 -0.9856
vn 0.2883 0.9562 -0.0507
vn 0.1541 0.3944 0.9059
vn 0.2797 0.9436 -0.1770
vn 0.2117 0.6012 0.7705
vn 0.2655 0.9132 -0.3091
vn 0.2496 0.7447 0.6190
vn 0.2437 0.8591 -0.4501
vn 0.2726 0.8393 0.4704
vn 0.2112 0.7709 -0.6008
vn 0.2856 0.8994 0.3308
vn 0.3286 0.5528 0.7658
vn 0.4370 0.8421 -0.3160
vn 0.3929 0.6853 0.6132
vn 0.4044 0.7925 -0.4566
vn 0.4333 0.7727 0.4639
vn 0.3546 0.7115 -0.6066
vn 0.4571 0.8284 0.3239
vn 0.2806 0.5856 -0.7605
vn 0.4693 0.8618 0.1923
vn 0.1758 0.4007 -0.8992
vn 0.4729 0.8786 0.0662
vn 0.1036 0.1145 0.9880
vn 0.0416 0.1569 -0.9867
vn 0.4690 0.8813 -0.0580
vn 0.2324 0.3620 0.9027
vn 0.4575 0.8699 -0.1842
vn 0.6293 0.7549 0.1850
vn 0.2462 0.3536 -0.9024
vn 0.6354 0.7699 0.0588
vn 0.1287 0.0977 0.9869
vn 0.0667 0.1402 -0.9879
vn 0.6315 0.7726 -0.0654
vn 0.3029 0.3149 0.8995
vn 0.6174 0.7630 -0.1915
vn 0.4337 0.4825 0.7610
vn 0.5912 0.7389 -0.3231
vn 0.5220 0.5990 0.6072
vn 0.5489 0.6958 -0.4632
vn 0.5778 0.6760 0.4573
vn 0.4836 0.6253 -0.6125
vn 0.6113 0.7252 0.3168
vn 0.3858 0.5153 -0.7653
vn 0.7224 0.6076 -0.3300
vn 0.6316 0.4892 0.6014
vn 0.6718 0.5728 -0.4697
vn 0.7007 0.5530 0.4508
vn 0.5933 0.5155 -0.6183
vn 0.7425 0.5939 0.3098
vn 0.4752 0.4258 -0.7700
vn 0.7652 0.6187 0.1778
vn 0.3061 0.2937 -0.9056
vn 0.7736 0.6316 0.0515
vn 0.1500 0.0764 0.9857
vn 0.0880 0.1188 -0.9890
vn 0.7697 0.6343 -0.0727
vn 0.3628 0.2549 0.8963
vn 0.7534 0.6268 -0.1987
vn 0.5231 0.3930 0.7562
vn 0.3532 0.2232 -0.9085
vn 0.8821 0.4689 0.0446
vn 0.1668 0.0513 0.9847
vn 0.1047 0.0938 -0.9901
vn 0.8782 0.4716 -0.0796
vn 0.4098 0.1845 0.8933
vn 0.8602 0.4668 -0.2055
vn 0.5933 0.2878 0.7517
vn 0.8254 0.4533 -0.3366
vn 0.7178 0.3602 0.5959
vn 0.7683 0.4281 -0.4758
vn 0.7972 0.4083 0.4446
vn 0.6794 0.3864 -0.6237
vn 0.8455 0.4395 0.3033
vn 0.5454 0.3206 -0.7744
vn 0.8720 0.4587 0.1710
vn 0.8347 0.2674 -0.4813
vn 0.8637 0.2477 0.4391
vn 0.7387 0.2430 -0.6287
vn 0.9164 0.2680 0.2973
vn 0.5937 0.2037 -0.7785
vn 0.9455 0.2809 0.1648
vn 0.3856 0.1449 -0.9112
vn 0.9568 0.2882 0.0383
vn 0.1783 0.0234 0.9837
vn 0.1163 0.0659 -0.9910
vn 0.9529 0.2909 -0.0859
vn 0.4422 0.1061 0.8906
vn 0.9337 0.2890 -0.2116
vn 0.6417 0.1709 0.7477
vn 0.8963 0.2818 -0.3425
vn 0.7771 0.2167 0.5909
vn 0.1842 -0.0061 0.9829
vn 0.1221 0.0363 -0.9919
vn 0.9909 0.0991 -0.0912
vn 0.4587 0.0230 0.8883
vn 0.9710 0.1003 -0.2168
vn 0.6662 0.0469 0.7443
vn 0.9324 0.0997 -0.3475
vn 0.8072 0.0645 0.5867
vn 0.8685 0.0969 -0.4861
vn 0.8975 0.0771 0.4343
vn 0.7689 0.0907 -0.6329
vn 0.9525 0.0859 0.2923
vn 0.6183 0.0797 -0.7819
vn 0.9829 0.0922 0.1596
vn 0.4021 0.0617 -0.9135
vn 0.9948 0.0964 0.0330
vn 0.8973 -0.0969 0.4306
vn 0.7688 -0.0645 -0.6362
vn 0.9523 -0.0997 0.2883
vn 0.6182 -0.0468 -0.7846
vn 0.9827 -0.1003 0.1554
vn 0.4020 -0.0230 -0.9154
vn 0.9947 -0.0991 0.0288
vn 0.1841 -0.0363 0.9822
vn 0.1221 0.0061 -0.9925
vn 0.9908 -0.0964 -0.0954
vn 0.4586 -0.0618 0.8865
vn 0.9709 -0.0922 -0.2210
vn 0.6662 -0.0797 0.7415
vn 0.9322 -0.0859 -0.3515
vn 0.8071 -0.0907 0.5834
vn 0.8684 -0.0771 -0.4898
vn 0.9525 -0.2882 -0.0983
vn 0.4420 -0.1449 0.8852
vn 0.9333 -0.2809 -0.2238
vn 0.6414 -0.2037 0.7397
vn 0.8959 -0.2680 -0.3543
vn 0.7767 -0.2430 0.5811
vn 0.8344 -0.2477 -0.4924
vn 0.8633 -0.2674 0.4280
vn 0.7384 -0.2167 -0.6386
vn 0.9160 -0.2818 0.2855
vn 0.5935 -0.1709 -0.7865
vn 0.9451 -0.2890 0.1526
vn 0.3854 -0.1062 -0.9166
vn 0.9564 -0.2909 0.0259
vn 0.1782 -0.0659 0.9818
vn 0.1162 -0.0234 -0.9930
vn 0.6789 -0.3602 -0.6398
vn 0.8449 -0.4533 0.2841
vn 0.5450 -0.2878 -0.7875
vn 0.8714 -0.4668 0.1511
vn 0.3529 -0.1844 -0.9173
vn 0.8815 -0.4716 0.0244
vn 0.1667 -0.0938 0.9815
vn 0.1046 -0.0513 -0.9932
vn 0.8776 -0.4689 -0.0998
vn 0.4095 -0.2232 0.8846
vn 0.8595 -0.4587 -0.2253
vn 0.5929 -0.3206 0.7387
vn 0.8248 -0.4395 -0.3557
vn 0.7173 -0.3864 0.5799
vn 0.7677 -0.4083 -0.4938
vn 0.7967 -0.4281 0.4266
vn 0.3624 -0.2937 0.8846
vn 0.7526 -0.6187 -0.2254
vn 0.5226 -0.4258 0.7386
vn 0.7216 -0.5939 -0.3558
vn 0.6310 -0.5155 0.5798
vn 0.6710 -0.5530 -0.4939
vn 0.7000 -0.5728 0.4266
vn 0.5926 -0.4892 -0.6399
vn 0.7417 -0.6076 0.2840
vn 0.4746 -0.3930 -0.7876
vn 0.7644 -0.6268 0.1510
vn 0.3058 -0.2549 -0.9173
vn 0.7727 -0.6343 0.0243
vn 0.1499 -0.1188 0.9815
vn 0.0879 -0.0764 -0.9932
vn 0.7688 -0.6316 -0.0999
vn 0.6104 -0.7389 0.2853
vn 0.3851 -0.4825 -0.7867
vn 0.6282 -0.7630 0.1524
vn 0.2458 -0.3149 -0.9167
vn 0.6344 -0.7726 0.0257
vn 0.1286 -0.1402 0.9817
vn 0.0665 -0.0977 -0.9930
vn 0.6305 -0.7699 -0.0986
vn 0.3024 -0.3536 0.8852
vn 0.6164 -0.7549 -0.2241
vn 0.4331 -0.5153 0.7395
vn 0.5903 -0.7252 -0.3545
vn 0.5211 -0.6253 0.5809
vn 0.5480 -0.6760 -0.4927
vn 0.5769 -0.6958 0.4278
vn 0.4828 -0.5990 -0.6388
vn 0.4563 -0.8618 -0.2214
vn 0.3278 -0.5856 0.7414
vn 0.4358 -0.8284 -0.3519
vn 0.3920 -0.7115 0.5832
vn 0.4033 -0.7727 -0.4902
vn 0.4322 -0.7925 0.4303
vn 0.3537 -0.6853 -0.6366
vn 0.4559 -0.8421 0.2880
vn 0.2799 -0.5528 -0.7849
vn 0.4682 -0.8699 0.1551
vn 0.1753 -0.3620 -0.9156
vn 0.4717 -0.8813 0.0284
vn 0.1035 -0.1569 0.9822
vn 0.0414 -0.1145 -0.9926
vn 0.4678 -0.8786 -0.0958
vn 0.2319 -0.4007 0.8864
vn 0.1630 -0.6012 -0.7823
vn 0.2903 -0.9436 0.1591
vn 0.0969 -0.3944 -0.9138
vn 0.2910 -0.9562 0.0325
vn 0.0756 -0.1685 0.9828
vn 0.0135 -0.1260 -0.9919
vn 0.2871 -0.9535 -0.0917
vn 0.1536 -0.4332 0.8881
vn 0.2785 -0.9355 -0.2174
vn 0.2109 -0.6340 0.7440
vn 0.2643 -0.8994 -0.3481
vn 0.2485 -0.7709 0.5864
vn 0.2426 -0.8393 -0.4866
vn 0.2715 -0.8591 0.4339
vn 0.2102 -0.7447 -0.6334
vn 0.2844 -0.9132 0.2919
vn 0.0821 -0.9357 -0.3431
vn 0.0963 -0.8012 0.5905
vn 0.0719 -0.8732 -0.4820
vn 0.1008 -0.8930 0.4386
vn 0.0579 -0.7750 -0.6293
vn 0.1023 -0.9494 0.2968
vn 0.0389 -0.6259 -0.7789
vn 0.1015 -0.9812 0.1642
vn 0.0138 -0.4110 -0.9115
vn 0.0991 -0.9944 0.0377
vn 0.0460 -0.1744 0.9836
vn -0.0160 -0.1319 -0.9911
vn 0.0952 -0.9917 -0.0865
vn 0.0704 -0.4497 0.8904
vn 0.0897 -0.9731 -0.2123
vn 0.0868 -0.6587 0.7474
vn -0.0710 -0.4110 -0.9089
vn -0.0965 -0.9944 0.0439
vn 0.0158 -0.1744 0.9846
vn -0.0462 -0.1319 -0.9902
vn -0.1004 -0.9917 -0.0804
vn -0.0144 -0.4497 0.8931
vn -0.1028 -0.9731 -0.2062
vn -0.0397 -0.6587 0.7514
vn -0.1035 -0.9357 -0.3373
vn -0.0590 -0.8012 0.5954
vn -0.1020 -0.8732 -0.4765
vn -0.0731 -0.8930 0.4441
vn -0.0973 -0.7750 -0.6244
vn -0.0834 -0.9494 0.3026
vn -0.0877 -0.6259 -0.7750
vn -0.0910 -0.9812 0.1703
vn -0.2112 -0.7710 0.6008
vn -0.2726 -0.8393 -0.4704
vn -0.2437 -0.8591 0.4501
vn -0.2496 -0.7447 -0.6190
vn -0.2655 -0.9132 0.3091
vn -0.2117 -0.6012 -0.7705
vn -0.2797 -0.9436 0.1770
vn -0.1541 -0.3944 -0.9059
vn -0.2883 -0.9562 0.0507
vn -0.0137 -0.1685 0.9856
vn -0.0758 -0.1260 -0.9891
vn -0.2923 -0.9535 -0.0735
vn -0.0975 -0.4332 0.8960
vn -0.2916 -0.9355 -0.1995
vn -0.1638 -0.6340 0.7558
vn -0.2856 -0.8994 -0.3308
vn -0.4690 -0.8813 0.0580
vn -0.0416 -0.1569 0.9867
vn -0.1036 -0.1145 -0.9880
vn -0.4729 -0.8786 -0.0662
vn -0.1758 -0.4007 0.8992
vn -0.4693 -0.8618 -0.1923
vn -0.2807 -0.5856 0.7605
vn -0.4571 -0.8284 -0.3239
vn -0.3546 -0.7115 0.6066
vn -0.4333 -0.7727 -0.4639
vn -0.4044 -0.7925 0.4566
vn -0.3929 -0.6853 -0.6132
vn -0.4370 -0.8421 0.3160
vn -0.3286 -0.5528 -0.7658
vn -0.4575 -0.8699 0.1842
vn -0.2324 -0.3620 -0.9027
vn -0.5778 -0.6760 -0.4573
vn -0.5489 -0.6958 0.4632
vn -0.5220 -0.5990 -0.6072
vn -0.5912 -0.7389 0.3231
vn -0.4337 -0.4825 -0.7610
vn -0.6174 -0.7630 0.1915
vn -0.3029 -0.3149 -0.8995
vn -0.6315 -0.7726 0.0654
vn -0.0667 -0.1402 0.9879
vn -0.1287 -0.0977 -0.9869
vn -0.6354 -0.7699 -0.0588
vn -0.2462 -0.3536 0.9024
vn -0.6293 -0.7549 -0.1850
vn -0.3858 -0.5153 0.7653
vn -0.6113 -0.7252 -0.3168
vn -0.4836 -0.6253 0.6125
vn -0.0880 -0.1188 0.9890
vn -0.1500 -0.0764 -0.9857
vn -0.7736 -0.6316 -0.0515
vn -0.3061 -0.2937 0.9056
vn -0.7652 -0.6187 -0.1778
vn -0.4752 -0.4258 0.7700
vn -0.7425 -0.5939 -0.3098
vn -0.5933 -0.5155 0.6183
vn -0.7007 -0.5530 -0.4508
vn -0.6718 -0.5728 0.4697
vn -0.6316 -0.4892 -0.6014
vn -0.7224 -0.6076 0.3300
vn -0.5231 -0.3930 -0.7562
vn -0.7534 -0.6268 0.1987
vn -0.3628 -0.2549 -0.8963
vn -0.7697 -0.6342 0.0727
vn -0.7683 -0.4281 0.4758
vn -0.7178 -0.3602 -0.5959
vn -0.8254 -0.4533 0.3366
vn -0.5933 -0.2878 -0.7517
vn -0.8602 -0.4668 0.2055
vn -0.4098 -0.1845 -0.8933
vn -0.8782 -0.4716 0.0796
vn -0.1047 -0.0938 0.9901
vn -0.1668 -0.0513 -0.9847
vn -0.8821 -0.4689 -0.0446
vn -0.3532 -0.2232 0.9085
vn -0.8720 -0.4587 -0.1710
vn -0.5454 -0.3206 0.7744
vn -0.8455 -0.4395 -0.3033
vn -0.6794 -0.3864 0.6237
vn -0.7972 -0.4083 -0.4446
vn -0.9568 -0.2882 -0.0383
vn -0.3856 -0.1449 0.9112
vn -0.9455 -0.2809 -0.1648
vn -0.5937 -0.2037 0.7785
vn -0.9164 -0.2680 -0.2973
vn -0.7387 -0.2430 0.6287
vn -0.8637 -0.2477 -0.4391
vn -0.8347 -0.2674 0.4813
vn -0.7770 -0.2167 -0.5909
vn -0.8963 -0.2818 0.3425
vn -0.6417 -0.1709 -0.7477
vn -0.9337 -0.2890 0.2116
vn -0.4422 -0.1061 -0.8906
vn -0.9529 -0.2909 0.0859
vn -0.1163 -0.0659 0.9910
vn -0.1783 -0.0234 -0.9837
vn -0.8072 -0.0645 -0.5867
vn -0.9324 -0.0997 0.3475
vn -0.6663 -0.0468 -0.7443
vn -0.9710 -0.1003 0.2168
vn -0.4587 -0.0230 -0.8883
vn -0.9909 -0.0991 0.0912
vn -0.1221 -0.0363 0.9919
vn -0.1842 0.0061 -0.9829
vn -0.9948 -0.0964 -0.0330
vn -0.4021 -0.0618 0.9135
vn -0.9829 -0.0922 -0.1596
vn -0.6183 -0.0797 0.7819
vn -0.9525 -0.0859 -0.2923
vn -0.7689 -0.0907 0.6329
vn -0.8975 -0.0771 -0.4343
vn -0.8685 -0.0969 0.4861
vn -0.4586 0.0617 -0.8865
vn -0.6182 0.0468 0.7846
vn -0.7384 0.2167 0.6386
vn -0.8344 0.2477 0.4924
vn -0.3854 0.1062 0.9166
vn -0.7677 0.4084 0.4938
vn -0.6309 0.5155 -0.5798
vn -0.7727 0.6343 -0.0243
vn -0.3058 0.2550 0.9173
vn -0.4331 0.5153 -0.7395
vn -0.0822 0.9357 0.3431
vn 0.0731 0.8930 -0.4440
vn 0.2922 0.9535 0.0735
vn 0.2856 0.8995 0.3308
vn 0.7697 0.6342 -0.0727
vn 0.4422 0.1062 0.8906
vn 0.4021 0.0618 -0.9135
vn 0.4586 -0.0617 0.8865
vn 0.8344 -0.2476 -0.4924
vn 0.3529 -0.1845 -0.9173
vn 0.7678 -0.4083 -0.4938
vn 0.3624 -0.2937 0.8845
vn -0.0731 -0.8930 0.4440
vn -0.2112 -0.7709 0.6008
vn -0.2806 -0.5856 0.7605
vn -0.4836 -0.6252 0.6125
vn -0.7697 -0.6343 0.0727
vn -0.8637 -0.2476 -0.4391
vn -0.7771 -0.2167 -0.5909
vn -0.4422 -0.1062 -0.8906
vn -0.4021 -0.0617 0.9135
vt 0.410110 0.001645
vt 0.001571 0.027179
vt 0.001571 0.001645
vt 0.410110 0.027179
vt 0.001571 0.052713
vt 0.410110 0.052713
vt 0.001571 0.078246
vt 0.410110 0.078246
vt 0.001571 0.103780
vt 0.410110 0.103780
vt 0.001571 0.129314
vt 0.410110 0.129314
vt 0.001571 0.154847
vt 0.410110 0.154847
vt 0.001571 0.180381
vt 0.410110 0.180381
vt 0.001571 0.205915
vt 0.410110 0.205915
vt 0.001571 0.231449
vt 0.410110 0.231449
vt 0.001571 0.256982
vt 0.410110 0.256982
vt 0.001571 0.282516
vt 0.410110 0.282516
vt 0.001571 0.308050
vt 0.410110 0.308050
vt 0.001571 0.333583
vt 0.410110 0.333583
vt 0.001571 0.359117
vt 0.410110 0.359117
vt 0.001571 0.384651
vt 0.410110 0.384651
vt 0.001571 0.410185
vt 0.410110 0.410185
vt 0.001571 0.435718
vt 0.410110 0.435718
vt 0.001571 0.461252
vt 0.410110 0.461252
vt 0.001571 0.486786
vt 0.410110 0.486786
vt 0.001571 0.512319
vt 0.410110 0.512319
vt 0.001571 0.537853
vt 0.410110 0.537853
vt 0.001571 0.563387
vt 0.410110 0.563387
vt 0.001571 0.588921
vt 0.410110 0.588921
vt 0.001571 0.614454
vt 0.410110 0.614454
vt 0.001571 0.639988
vt 0.410110 0.639988
vt 0.001571 0.665522
vt 0.410110 0.665522
vt 0.001571 0.691056
vt 0.410110 0.691056
vt 0.001571 0.716589
vt 0.410110 0.716589
vt 0.001571 0.742123
vt 0.410110 0.742123
vt 0.001571 0.767657
vt 0.679914 0.884852
vt 0.788656 0.681411
vt 0.992096 0.790152
vt 0.410110 0.767657
vt 0.001571 0.793190
vt 0.410110 0.793190
vt 0.001571 0.818724
vt 0.731661 0.592581
vt 0.528221 0.483840
vt 0.419479 0.687280
vt 0.527467 0.130827
vt 0.498705 0.145208
vt 0.498705 0.130827
vt 0.700037 0.130827
vt 0.728799 0.145208
vt 0.700037 0.145208
vt 0.469944 0.145208
vt 0.469943 0.130827
vt 0.671275 0.130827
vt 0.671275 0.145208
vt 0.441182 0.145208
vt 0.441182 0.130827
vt 0.642514 0.130827
vt 0.642514 0.145208
vt 0.843846 0.130827
vt 0.872607 0.138018
vt 0.843846 0.145208
vt 0.412420 0.138018
vt 0.613752 0.145208
vt 0.613752 0.130827
vt 0.815084 0.130827
vt 0.815084 0.145208
vt 0.584990 0.145208
vt 0.584990 0.130827
vt 0.786322 0.130827
vt 0.786322 0.145208
vt 0.556229 0.145208
vt 0.556229 0.130827
vt 0.757560 0.130827
vt 0.757560 0.145208
vt 0.527467 0.145208
vt 0.728799 0.130827
vt 0.786322 0.159589
vt 0.757560 0.159589
vt 0.527467 0.159589
vt 0.728799 0.159589
vt 0.498705 0.159589
vt 0.700037 0.159589
vt 0.469944 0.159589
vt 0.671275 0.159589
vt 0.441182 0.159589
vt 0.642514 0.159589
vt 0.872607 0.152398
vt 0.843846 0.159589
vt 0.412420 0.152399
vt 0.613752 0.159589
vt 0.815084 0.159589
vt 0.584990 0.159589
vt 0.556229 0.159589
vt 0.642514 0.173970
vt 0.872607 0.166779
vt 0.843846 0.173970
vt 0.412420 0.166779
vt 0.441182 0.173970
vt 0.613752 0.173970
vt 0.815084 0.173970
vt 0.584990 0.173970
vt 0.786322 0.173970
vt 0.556229 0.173970
vt 0.757560 0.173970
vt 0.527467 0.173970
vt 0.728799 0.173970
vt 0.498705 0.173970
vt 0.700037 0.173970
vt 0.469944 0.173970
vt 0.671275 0.173970
vt 0.556229 0.188351
vt 0.527467 0.188351
vt 0.728799 0.188351
vt 0.498705 0.188351
vt 0.700037 0.188351
vt 0.469943 0.188351
vt 0.671275 0.188351
vt 0.441182 0.188351
vt 0.642514 0.188351
vt 0.872607 0.181160
vt 0.843846 0.188351
vt 0.412420 0.181160
vt 0.613752 0.188351
vt 0.815084 0.188351
vt 0.584990 0.188351
vt 0.786322 0.188351
vt 0.757560 0.188351
vt 0.412420 0.195541
vt 0.441182 0.202731
vt 0.613752 0.202731
vt 0.815084 0.202731
vt 0.584990 0.202731
vt 0.786322 0.202731
vt 0.556229 0.202731
vt 0.757560 0.202731
vt 0.527467 0.202731
vt 0.728799 0.202731
vt 0.498705 0.202731
vt 0.700037 0.202731
vt 0.469943 0.202731
vt 0.671275 0.202731
vt 0.642514 0.202731
vt 0.872607 0.195541
vt 0.843846 0.202731
vt 0.527467 0.217112
vt 0.498705 0.217112
vt 0.700037 0.217112
vt 0.469943 0.217112
vt 0.671275 0.217112
vt 0.441182 0.217112
vt 0.642514 0.217112
vt 0.872607 0.209922
vt 0.843846 0.217112
vt 0.412420 0.209922
vt 0.613752 0.217112
vt 0.815084 0.217112
vt 0.584990 0.217112
vt 0.786322 0.217112
vt 0.556229 0.217112
vt 0.757560 0.217112
vt 0.728799 0.217112
vt 0.815084 0.231493
vt 0.584990 0.231493
vt 0.786322 0.231493
vt 0.556229 0.231493
vt 0.757560 0.231493
vt 0.527467 0.231493
vt 0.728799 0.231493
vt 0.498705 0.231493
vt 0.700037 0.231493
vt 0.469943 0.231493
vt 0.671275 0.231493
vt 0.441182 0.231493
vt 0.642514 0.231493
vt 0.872607 0.224303
vt 0.843846 0.231493
vt 0.412420 0.224303
vt 0.613752 0.231493
vt 0.700037 0.245874
vt 0.469943 0.245874
vt 0.671275 0.245874
vt 0.441182 0.245874
vt 0.642514 0.245874
vt 0.872607 0.238684
vt 0.843846 0.245874
vt 0.412420 0.238684
vt 0.613752 0.245874
vt 0.815084 0.245874
vt 0.584990 0.245874
vt 0.786322 0.245874
vt 0.556229 0.245874
vt 0.757560 0.245874
vt 0.527467 0.245874
vt 0.728799 0.245874
vt 0.498705 0.245874
vt 0.584990 0.260255
vt 0.786322 0.260255
vt 0.556229 0.260255
vt 0.757560 0.260255
vt 0.527467 0.260255
vt 0.728799 0.260255
vt 0.498705 0.260255
vt 0.700037 0.260255
vt 0.469943 0.260255
vt 0.671275 0.260255
vt 0.441182 0.260255
vt 0.642514 0.260255
vt 0.872607 0.253064
vt 0.843846 0.260255
vt 0.412420 0.253064
vt 0.613752 0.260255
vt 0.815084 0.260255
vt 0.498705 0.274636
vt 0.469943 0.274636
vt 0.700037 0.274636
vt 0.671275 0.274636
vt 0.441182 0.274636
vt 0.642514 0.274636
vt 0.872607 0.267445
vt 0.843846 0.274636
vt 0.412420 0.267445
vt 0.613752 0.274636
vt 0.815084 0.274636
vt 0.584990 0.274636
vt 0.786322 0.274636
vt 0.556229 0.274636
vt 0.757560 0.274636
vt 0.527467 0.274636
vt 0.728799 0.274636
vt 0.815084 0.289017
vt 0.786322 0.289017
vt 0.584990 0.289017
vt 0.556229 0.289017
vt 0.757560 0.289017
vt 0.527467 0.289017
vt 0.728799 0.289017
vt 0.498705 0.289017
vt 0.700037 0.289017
vt 0.469943 0.289017
vt 0.671275 0.289017
vt 0.441182 0.289017
vt 0.642514 0.289017
vt 0.872607 0.281826
vt 0.843846 0.289017
vt 0.412420 0.281826
vt 0.613752 0.289017
vt 0.700037 0.303397
vt 0.671275 0.303397
vt 0.441182 0.303397
vt 0.642514 0.303397
vt 0.872607 0.296207
vt 0.843846 0.303397
vt 0.412420 0.296207
vt 0.613752 0.303397
vt 0.815084 0.303397
vt 0.584990 0.303397
vt 0.786322 0.303397
vt 0.556229 0.303397
vt 0.757560 0.303397
vt 0.527467 0.303397
vt 0.728799 0.303397
vt 0.498705 0.303397
vt 0.469943 0.303397
vt 0.584990 0.317778
vt 0.556229 0.317778
vt 0.757560 0.317778
vt 0.527467 0.317778
vt 0.728799 0.317778
vt 0.498705 0.317778
vt 0.700037 0.317778
vt 0.469943 0.317778
vt 0.671275 0.317778
vt 0.441182 0.317778
vt 0.642514 0.317778
vt 0.872607 0.310588
vt 0.843846 0.317778
vt 0.412420 0.310588
vt 0.613752 0.317778
vt 0.815084 0.317778
vt 0.786322 0.317778
vt 0.469943 0.332159
vt 0.441182 0.332159
vt 0.671275 0.332159
vt 0.642514 0.332159
vt 0.872607 0.324969
vt 0.843846 0.332159
vt 0.412420 0.324969
vt 0.613752 0.332159
vt 0.815084 0.332159
vt 0.584990 0.332159
vt 0.786322 0.332159
vt 0.556229 0.332159
vt 0.757560 0.332159
vt 0.527467 0.332159
vt 0.728799 0.332159
vt 0.498705 0.332159
vt 0.700037 0.332159
vt 0.527467 0.346540
vt 0.757560 0.346540
vt 0.728799 0.346540
vt 0.498705 0.346540
vt 0.700037 0.346540
vt 0.469943 0.346540
vt 0.671275 0.346540
vt 0.441182 0.346540
vt 0.642514 0.346540
vt 0.872607 0.339350
vt 0.843846 0.346540
vt 0.412420 0.339350
vt 0.613752 0.346540
vt 0.815084 0.346540
vt 0.584990 0.346540
vt 0.786322 0.346540
vt 0.556229 0.346540
vt 0.872607 0.353730
vt 0.843846 0.360921
vt 0.412420 0.353730
vt 0.441182 0.360921
vt 0.613752 0.360921
vt 0.815084 0.360921
vt 0.584990 0.360921
vt 0.786322 0.360921
vt 0.556229 0.360921
vt 0.757560 0.360921
vt 0.527467 0.360921
vt 0.728799 0.360921
vt 0.498705 0.360921
vt 0.700037 0.360921
vt 0.469943 0.360921
vt 0.671275 0.360921
vt 0.642514 0.360921
vt 0.757560 0.375302
vt 0.728799 0.375302
vt 0.527467 0.375302
vt 0.498705 0.375302
vt 0.700037 0.375302
vt 0.469943 0.375302
vt 0.671275 0.375302
vt 0.441182 0.375302
vt 0.642514 0.375302
vt 0.872607 0.368111
vt 0.843846 0.375302
vt 0.412420 0.368111
vt 0.613752 0.375302
vt 0.815084 0.375302
vt 0.584990 0.375302
vt 0.786322 0.375302
vt 0.556229 0.375302
vt 0.613752 0.389683
vt 0.843846 0.389683
vt 0.815084 0.389683
vt 0.584990 0.389683
vt 0.786322 0.389683
vt 0.556229 0.389683
vt 0.757560 0.389683
vt 0.527467 0.389683
vt 0.728799 0.389683
vt 0.498705 0.389683
vt 0.700037 0.389683
vt 0.469943 0.389683
vt 0.671275 0.389683
vt 0.441182 0.389683
vt 0.642514 0.389683
vt 0.872607 0.382492
vt 0.412420 0.382492
vt 0.527467 0.404063
vt 0.498705 0.404063
vt 0.700037 0.404063
vt 0.469943 0.404063
vt 0.671275 0.404063
vt 0.441182 0.404063
vt 0.642514 0.404063
vt 0.872607 0.396873
vt 0.843846 0.404063
vt 0.412420 0.396873
vt 0.613752 0.404063
vt 0.815084 0.404063
vt 0.584990 0.404063
vt 0.786322 0.404063
vt 0.556229 0.404063
vt 0.757560 0.404063
vt 0.728799 0.404063
vt 0.815084 0.418444
vt 0.584990 0.418444
vt 0.786322 0.418444
vt 0.556229 0.418444
vt 0.757560 0.418444
vt 0.527467 0.418444
vt 0.728799 0.418444
vt 0.498705 0.418444
vt 0.700037 0.418444
vt 0.469943 0.418444
vt 0.671275 0.418444
vt 0.441182 0.418444
vt 0.642514 0.418444
vt 0.872607 0.411254
vt 0.843846 0.418444
vt 0.412420 0.411254
vt 0.613752 0.418444
vt 0.700037 0.432825
vt 0.469943 0.432825
vt 0.671275 0.432825
vt 0.441182 0.432825
vt 0.642514 0.432825
vt 0.872607 0.425635
vt 0.843846 0.432825
vt 0.412420 0.425635
vt 0.613752 0.432825
vt 0.815084 0.432825
vt 0.584990 0.432825
vt 0.786322 0.432825
vt 0.556229 0.432825
vt 0.757560 0.432825
vt 0.527467 0.432825
vt 0.728799 0.432825
vt 0.498705 0.432825
vt 0.584990 0.447206
vt 0.786322 0.447206
vt 0.556229 0.447206
vt 0.757560 0.447206
vt 0.527467 0.447206
vt 0.728799 0.447206
vt 0.498705 0.447206
vt 0.700037 0.447206
vt 0.469943 0.447206
vt 0.671275 0.447206
vt 0.441182 0.447206
vt 0.642514 0.447206
vt 0.872607 0.440015
vt 0.843846 0.447206
vt 0.412420 0.440015
vt 0.613752 0.447206
vt 0.815084 0.447206
vt 0.469944 0.461587
vt 0.700037 0.461587
vt 0.671275 0.461587
vt 0.441182 0.461587
vt 0.642514 0.461587
vt 0.872607 0.454396
vt 0.843846 0.461587
vt 0.412420 0.454396
vt 0.613752 0.461587
vt 0.815084 0.461587
vt 0.584990 0.461587
vt 0.786322 0.461587
vt 0.556229 0.461587
vt 0.757560 0.461587
vt 0.527467 0.461587
vt 0.728799 0.461587
vt 0.498705 0.461587
vt 0.584990 0.475968
vt 0.556229 0.475968
vt 0.757560 0.475968
vt 0.527467 0.475968
vt 0.728799 0.475968
vt 0.498705 0.475968
vt 0.700037 0.475968
vt 0.469943 0.475968
vt 0.671275 0.475968
vt 0.441182 0.475968
vt 0.642514 0.475968
vt 0.872607 0.468777
vt 0.843846 0.475968
vt 0.412420 0.468777
vt 0.613752 0.475968
vt 0.815084 0.475968
vt 0.786322 0.475968
vt 0.469943 0.015780
vt 0.441182 0.030161
vt 0.441182 0.015780
vt 0.642514 0.015780
vt 0.671275 0.030161
vt 0.642514 0.030161
vt 0.843846 0.015780
vt 0.872607 0.022971
vt 0.843846 0.030161
vt 0.412420 0.022971
vt 0.613752 0.030161
vt 0.613752 0.015780
vt 0.815084 0.030161
vt 0.815084 0.015780
vt 0.584990 0.030161
vt 0.584990 0.015780
vt 0.786322 0.015780
vt 0.786322 0.030161
vt 0.556229 0.015780
vt 0.556229 0.030161
vt 0.757560 0.030161
vt 0.757560 0.015780
vt 0.527467 0.015780
vt 0.527467 0.030161
vt 0.728799 0.030161
vt 0.728799 0.015780
vt 0.498705 0.015780
vt 0.498705 0.030161
vt 0.700037 0.030161
vt 0.700037 0.015780
vt 0.469943 0.030161
vt 0.671275 0.015780
vt 0.757560 0.044542
vt 0.527467 0.044542
vt 0.728799 0.044542
vt 0.498705 0.044542
vt 0.700037 0.044542
vt 0.469943 0.044542
vt 0.671275 0.044542
vt 0.441182 0.044542
vt 0.642514 0.044542
vt 0.872607 0.037352
vt 0.843846 0.044542
vt 0.412420 0.037352
vt 0.613752 0.044542
vt 0.815084 0.044542
vt 0.584990 0.044542
vt 0.786322 0.044542
vt 0.556229 0.044542
vt 0.671275 0.058923
vt 0.642514 0.058923
vt 0.872607 0.051733
vt 0.843846 0.058923
vt 0.412420 0.051733
vt 0.441182 0.058923
vt 0.613752 0.058923
vt 0.815084 0.058923
vt 0.584990 0.058923
vt 0.786322 0.058923
vt 0.556229 0.058923
vt 0.757560 0.058923
vt 0.527467 0.058923
vt 0.728799 0.058923
vt 0.498705 0.058923
vt 0.700037 0.058923
vt 0.469943 0.058923
vt 0.527467 0.073304
vt 0.757560 0.073304
vt 0.728799 0.073304
vt 0.498705 0.073304
vt 0.700037 0.073304
vt 0.469943 0.073304
vt 0.671275 0.073304
vt 0.441182 0.073304
vt 0.642514 0.073304
vt 0.872607 0.066113
vt 0.843846 0.073304
vt 0.412420 0.066113
vt 0.613752 0.073304
vt 0.815084 0.073304
vt 0.584990 0.073304
vt 0.786322 0.073304
vt 0.556229 0.073304
vt 0.872607 0.080494
vt 0.843846 0.087685
vt 0.412420 0.080494
vt 0.441182 0.087685
vt 0.613752 0.087685
vt 0.815084 0.087685
vt 0.584990 0.087685
vt 0.786322 0.087685
vt 0.556229 0.087685
vt 0.757560 0.087685
vt 0.527467 0.087685
vt 0.728799 0.087685
vt 0.498705 0.087685
vt 0.700037 0.087685
vt 0.469943 0.087685
vt 0.671275 0.087685
vt 0.642514 0.087685
vt 0.728799 0.102066
vt 0.527467 0.102066
vt 0.498705 0.102066
vt 0.700037 0.102066
vt 0.469943 0.102066
vt 0.671275 0.102066
vt 0.441182 0.102066
vt 0.642514 0.102066
vt 0.872607 0.094875
vt 0.843846 0.102066
vt 0.412420 0.094875
vt 0.613752 0.102066
vt 0.815084 0.102066
vt 0.584990 0.102066
vt 0.786322 0.102066
vt 0.556229 0.102066
vt 0.757560 0.102066
vt 0.613752 0.116446
vt 0.843846 0.116446
vt 0.815084 0.116446
vt 0.584990 0.116446
vt 0.786322 0.116446
vt 0.556229 0.116446
vt 0.757560 0.116446
vt 0.527467 0.116446
vt 0.728799 0.116446
vt 0.498705 0.116446
vt 0.700037 0.116446
vt 0.469943 0.116446
vt 0.671275 0.116446
vt 0.441182 0.116446
vt 0.642514 0.116446
vt 0.872607 0.109256
vt 0.412420 0.109256
vt 0.872607 0.123637
vt 0.412420 0.123637
vt 0.998334 0.821514
vt 0.998334 0.853490
vt 0.992096 0.884852
vt 0.979860 0.914394
vt 0.962095 0.940981
vt 0.939484 0.963591
vt 0.912897 0.981356
vt 0.883355 0.993593
vt 0.851993 0.999831
vt 0.820017 0.999831
vt 0.788656 0.993593
vt 0.759114 0.981356
vt 0.732527 0.963591
vt 0.709916 0.940981
vt 0.692151 0.914394
vt 0.673676 0.853490
vt 0.692151 0.760610
vt 0.673676 0.821514
vt 0.679914 0.790152
vt 0.709916 0.734023
vt 0.732527 0.711413
vt 0.759114 0.693648
vt 0.820017 0.675173
vt 0.912897 0.693648
vt 0.851993 0.675173
vt 0.883355 0.681411
vt 0.939484 0.711413
vt 0.962095 0.734023
vt 0.979860 0.760610
vt 0.410110 0.818724
vt 0.431716 0.716822
vt 0.449481 0.743409
vt 0.472091 0.766020
vt 0.498678 0.783785
vt 0.528220 0.796022
vt 0.559582 0.802260
vt 0.591558 0.802260
vt 0.622920 0.796022
vt 0.652462 0.783785
vt 0.679049 0.766020
vt 0.701659 0.743410
vt 0.719424 0.716823
vt 0.731661 0.687280
vt 0.737899 0.655919
vt 0.737899 0.623943
vt 0.719424 0.563039
vt 0.701660 0.536452
vt 0.679049 0.513841
vt 0.652462 0.496076
vt 0.622920 0.483840
vt 0.591558 0.477601
vt 0.559582 0.477601
vt 0.498679 0.496076
vt 0.472091 0.513841
vt 0.449481 0.536452
vt 0.431716 0.563039
vt 0.419479 0.592581
vt 0.413241 0.623942
vt 0.413241 0.655919
s 0
usemtl マテリアル
f 2/1/1 3/2/1 1/3/1
f 4/4/2 5/5/2 3/2/2
f 6/6/3 7/7/3 5/5/3
f 8/8/4 9/9/4 7/7/4
f 10/10/5 11/11/5 9/9/5
f 12/12/6 13/13/6 11/11/6
f 14/14/7 15/15/7 13/13/7
f 16/16/8 17/17/8 15/15/8
f 18/18/9 19/19/9 17/17/9
f 20/20/10 21/21/10 19/19/10
f 22/22/11 23/23/11 21/21/11
f 24/24/12 25/25/12 23/23/12
f 26/26/13 27/27/13 25/25/13
f 28/28/14 29/29/14 27/27/14
f 30/30/15 31/31/15 29/29/15
f 32/32/16 33/33/16 31/31/16
f 34/34/17 35/35/17 33/33/17
f 36/36/18 37/37/18 35/35/18
f 38/38/19 39/39/19 37/37/19
f 40/40/20 41/41/20 39/39/20
f 42/42/21 43/43/21 41/41/21
f 44/44/22 45/45/22 43/43/22
f 46/46/23 47/47/23 45/45/23
f 48/48/24 49/49/24 47/47/24
f 50/50/25 51/51/25 49/49/25
f 52/52/26 53/53/26 51/51/26
f 54/54/27 55/55/27 53/53/27
f 56/56/28 57/57/28 55/55/28
f 58/58/29 59/59/29 57/57/29
f 60/60/30 61/61/30 59/59/30
f 38/62/31 22/63/31 6/64/31
f 62/65/32 63/66/32 61/61/32
f 64/67/33 1/68/33 63/66/33
f 31/69/34 47/70/34 63/71/34
f 543/72/35 83/73/35 544/74/35
f 541/75/36 75/76/36 76/77/36
f 544/74/37 84/78/37 545/79/37
f 67/80/38 76/77/38 77/81/38
f 545/79/39 85/82/39 546/83/39
f 68/84/40 77/81/40 78/85/40
f 538/86/41 146/87/41 71/88/41
f 372/89/42 546/83/42 85/82/42
f 68/84/43 79/90/43 69/91/43
f 539/92/44 71/88/44 72/93/44
f 69/91/45 80/94/45 542/95/45
f 65/96/46 72/93/46 73/97/46
f 542/95/47 81/98/47 70/99/47
f 540/100/48 73/97/48 74/101/48
f 70/99/49 82/102/49 543/72/49
f 66/103/50 74/101/50 75/76/50
f 74/101/51 88/104/51 89/105/51
f 81/98/52 97/106/52 82/102/52
f 75/76/53 89/105/53 90/107/53
f 82/102/54 98/108/54 83/73/54
f 76/77/55 90/107/55 91/109/55
f 83/73/56 99/110/56 84/78/56
f 77/81/57 91/109/57 92/111/57
f 84/78/58 100/112/58 85/82/58
f 77/81/59 93/113/59 78/85/59
f 71/88/60 146/114/60 86/115/60
f 372/116/61 85/82/61 100/112/61
f 79/90/62 93/113/62 94/117/62
f 71/88/63 87/118/63 72/93/63
f 79/90/64 95/119/64 80/94/64
f 73/97/65 87/118/65 88/104/65
f 80/94/66 96/120/66 81/98/66
f 92/111/67 108/121/67 93/113/67
f 86/115/68 146/122/68 101/123/68
f 372/124/69 100/112/69 115/125/69
f 94/117/70 108/121/70 109/126/70
f 86/115/71 102/127/71 87/118/71
f 94/117/72 110/128/72 95/119/72
f 87/118/73 103/129/73 88/104/73
f 96/120/74 110/128/74 111/130/74
f 89/105/75 103/129/75 104/131/75
f 96/120/76 112/132/76 97/106/76
f 90/107/77 104/131/77 105/133/77
f 97/106/78 113/134/78 98/108/78
f 90/107/79 106/135/79 91/109/79
f 99/110/80 113/134/80 114/136/80
f 92/111/81 106/135/81 107/137/81
f 99/110/82 115/125/82 100/112/82
f 112/132/83 126/138/83 127/139/83
f 104/131/84 120/140/84 105/133/84
f 112/132/85 128/141/85 113/134/85
f 105/133/86 121/142/86 106/135/86
f 114/136/87 128/141/87 129/143/87
f 107/137/88 121/142/88 122/144/88
f 115/125/89 129/143/89 130/145/89
f 108/121/90 122/144/90 123/146/90
f 101/123/91 146/147/91 116/148/91
f 372/149/92 115/125/92 130/145/92
f 108/121/93 124/150/93 109/126/93
f 101/123/94 117/151/94 102/127/94
f 109/126/95 125/152/95 110/128/95
f 102/127/96 118/153/96 103/129/96
f 111/130/97 125/152/97 126/138/97
f 103/129/98 119/154/98 104/131/98
f 372/155/99 130/145/99 145/156/99
f 123/146/100 139/157/100 124/150/100
f 116/148/101 132/158/101 117/151/101
f 124/150/102 140/159/102 125/152/102
f 117/151/103 133/160/103 118/153/103
f 126/138/104 140/159/104 141/161/104
f 118/153/105 134/162/105 119/154/105
f 126/138/106 142/163/106 127/139/106
f 119/154/107 135/164/107 120/140/107
f 128/141/108 142/163/108 143/165/108
f 120/140/109 136/166/109 121/142/109
f 128/141/110 144/167/110 129/143/110
f 122/144/111 136/166/111 137/168/111
f 129/143/112 145/156/112 130/145/112
f 123/146/113 137/168/113 138/169/113
f 116/148/114 146/170/114 131/171/114
f 143/165/115 158/172/115 159/173/115
f 135/164/116 152/174/116 136/166/116
f 143/165/117 160/175/117 144/167/117
f 137/168/118 152/174/118 153/176/118
f 144/167/119 161/177/119 145/156/119
f 138/169/120 153/176/120 154/178/120
f 131/171/121 146/179/121 147/180/121
f 372/181/122 145/156/122 161/177/122
f 138/169/123 155/182/123 139/157/123
f 131/171/124 148/183/124 132/158/124
f 139/157/125 156/184/125 140/159/125
f 133/160/126 148/183/126 149/185/126
f 141/161/127 156/184/127 157/186/127
f 133/160/128 150/187/128 134/162/128
f 141/161/129 158/172/129 142/163/129
f 135/164/130 150/187/130 151/188/130
f 147/180/131 163/189/131 148/183/131
f 155/182/132 171/190/132 156/184/132
f 148/183/133 164/191/133 149/185/133
f 157/186/134 171/190/134 172/192/134
f 149/185/135 165/193/135 150/187/135
f 157/186/136 173/194/136 158/172/136
f 150/187/137 166/195/137 151/188/137
f 159/173/138 173/194/138 174/196/138
f 151/188/139 167/197/139 152/174/139
f 159/173/140 175/198/140 160/175/140
f 153/176/141 167/197/141 168/199/141
f 161/177/142 175/198/142 176/200/142
f 154/178/143 168/199/143 169/201/143
f 147/180/144 146/202/144 162/203/144
f 372/204/145 161/177/145 176/200/145
f 154/178/146 170/205/146 155/182/146
f 166/195/147 182/206/147 167/197/147
f 174/196/148 190/207/148 175/198/148
f 168/199/149 182/206/149 183/208/149
f 175/198/150 191/209/150 176/200/150
f 169/201/151 183/208/151 184/210/151
f 162/203/152 146/211/152 177/212/152
f 372/213/153 176/200/153 191/209/153
f 169/201/154 185/214/154 170/205/154
f 163/189/155 177/212/155 178/215/155
f 170/205/156 186/216/156 171/190/156
f 163/189/157 179/217/157 164/191/157
f 172/192/158 186/216/158 187/218/158
f 164/191/159 180/219/159 165/193/159
f 172/192/160 188/220/160 173/194/160
f 166/195/161 180/219/161 181/221/161
f 174/196/162 188/220/162 189/222/162
f 185/214/163 201/223/163 186/216/163
f 178/215/164 194/224/164 179/217/164
f 187/218/165 201/223/165 202/225/165
f 179/217/166 195/226/166 180/219/166
f 187/218/167 203/227/167 188/220/167
f 181/221/168 195/226/168 196/228/168
f 189/222/169 203/227/169 204/229/169
f 181/221/170 197/230/170 182/206/170
f 189/222/171 205/231/171 190/207/171
f 183/208/172 197/230/172 198/232/172
f 191/209/173 205/231/173 206/233/173
f 184/210/174 198/232/174 199/234/174
f 177/212/175 146/235/175 192/236/175
f 372/237/176 191/209/176 206/233/176
f 184/210/177 200/238/177 185/214/177
f 177/212/178 193/239/178 178/215/178
f 205/231/179 219/240/179 220/241/179
f 198/232/180 212/242/180 213/243/180
f 205/231/181 221/244/181 206/233/181
f 199/234/182 213/243/182 214/245/182
f 192/236/183 146/246/183 207/247/183
f 372/248/184 206/233/184 221/244/184
f 199/234/185 215/249/185 200/238/185
f 193/239/186 207/247/186 208/250/186
f 200/238/187 216/251/187 201/223/187
f 193/239/188 209/252/188 194/224/188
f 202/225/189 216/251/189 217/253/189
f 195/226/190 209/252/190 210/254/190
f 202/225/191 218/255/191 203/227/191
f 196/228/192 210/254/192 211/256/192
f 204/229/193 218/255/193 219/240/193
f 196/228/194 212/242/194 197/230/194
f 209/252/195 223/257/195 224/258/195
f 217/253/196 231/259/196 232/260/196
f 209/252/197 225/261/197 210/254/197
f 217/253/198 233/262/198 218/255/198
f 210/254/199 226/263/199 211/256/199
f 219/240/200 233/262/200 234/264/200
f 211/256/201 227/265/201 212/242/201
f 219/240/202 235/266/202 220/241/202
f 213/243/203 227/265/203 228/267/203
f 221/244/204 235/266/204 236/268/204
f 214/245/205 228/267/205 229/269/205
f 207/247/206 146/270/206 222/271/206
f 372/272/207 221/244/207 236/268/207
f 214/245/208 230/273/208 215/249/208
f 207/247/209 223/257/209 208/250/209
f 215/249/210 231/259/210 216/251/210
f 228/267/211 242/274/211 243/275/211
f 235/266/212 251/276/212 236/268/212
f 229/269/213 243/275/213 244/277/213
f 222/271/214 146/278/214 237/279/214
f 372/280/215 236/268/215 251/276/215
f 229/269/216 245/281/216 230/273/216
f 222/271/217 238/282/217 223/257/217
f 230/273/218 246/283/218 231/259/218
f 224/258/219 238/282/219 239/284/219
f 232/260/220 246/283/220 247/285/220
f 224/258/221 240/286/221 225/261/221
f 232/260/222 248/287/222 233/262/222
f 226/263/223 240/286/223 241/288/223
f 234/264/224 248/287/224 249/289/224
f 226/263/225 242/274/225 227/265/225
f 234/264/226 250/290/226 235/266/226
f 247/285/227 261/291/227 262/292/227
f 239/284/228 255/293/228 240/286/228
f 247/285/229 263/294/229 248/287/229
f 241/288/230 255/293/230 256/295/230
f 249/289/231 263/294/231 264/296/231
f 241/288/232 257/297/232 242/274/232
f 250/290/233 264/296/233 265/298/233
f 243/275/234 257/297/234 258/299/234
f 250/290/235 266/300/235 251/276/235
f 244/277/236 258/299/236 259/301/236
f 237/279/237 146/302/237 252/303/237
f 372/304/238 251/276/238 266/300/238
f 244/277/239 260/305/239 245/281/239
f 237/279/240 253/306/240 238/282/240
f 245/281/241 261/291/241 246/283/241
f 238/282/242 254/307/242 239/284/242
f 266/300/243 280/308/243 281/309/243
f 259/301/244 273/310/244 274/311/244
f 252/303/245 146/312/245 267/313/245
f 372/314/246 266/300/246 281/309/246
f 259/301/247 275/315/247 260/305/247
f 252/303/248 268/316/248 253/306/248
f 260/305/249 276/317/249 261/291/249
f 253/306/250 269/318/250 254/307/250
f 262/292/251 276/317/251 277/319/251
f 254/307/252 270/320/252 255/293/252
f 262/292/253 278/321/253 263/294/253
f 256/295/254 270/320/254 271/322/254
f 264/296/255 278/321/255 279/323/255
f 256/295/256 272/324/256 257/297/256
f 265/298/257 279/323/257 280/308/257
f 258/299/258 272/324/258 273/310/258
f 277/319/259 293/325/259 278/321/259
f 271/322/260 285/326/260 286/327/260
f 279/323/261 293/325/261 294/328/261
f 271/322/262 287/329/262 272/324/262
f 280/308/263 294/328/263 295/330/263
f 273/310/264 287/329/264 288/331/264
f 281/309/265 295/330/265 296/332/265
f 274/311/266 288/331/266 289/333/266
f 267/313/267 146/334/267 282/335/267
f 372/336/268 281/309/268 296/332/268
f 274/311/269 290/337/269 275/315/269
f 267/313/270 283/338/270 268/316/270
f 275/315/271 291/339/271 276/317/271
f 268/316/272 284/340/272 269/318/272
f 277/319/273 291/339/273 292/341/273
f 269/318/274 285/326/274 270/320/274
f 282/335/275 146/342/275 297/343/275
f 372/344/276 296/332/276 311/345/276
f 289/333/277 305/346/277 290/337/277
f 283/338/278 297/343/278 298/347/278
f 290/337/279 306/348/279 291/339/279
f 284/340/280 298/347/280 299/349/280
f 292/341/281 306/348/281 307/350/281
f 284/340/282 300/351/282 285/326/282
f 292/341/283 308/352/283 293/325/283
f 285/326/284 301/353/284 286/327/284
f 294/328/285 308/352/285 309/354/285
f 286/327/286 302/355/286 287/329/286
f 294/328/287 310/356/287 295/330/287
f 288/331/288 302/355/288 303/357/288
f 295/330/289 311/345/289 296/332/289
f 289/333/290 303/357/290 304/358/290
f 301/353/291 315/359/291 316/360/291
f 309/354/292 323/361/292 324/362/292
f 301/353/293 317/363/293 302/355/293
f 310/356/294 324/362/294 325/364/294
f 303/357/295 317/363/295 318/365/295
f 310/356/296 326/366/296 311/345/296
f 304/358/297 318/365/297 319/367/297
f 297/343/298 146/368/298 312/369/298
f 372/370/299 311/345/299 326/366/299
f 304/358/300 320/371/300 305/346/300
f 297/343/301 313/372/301 298/347/301
f 305/346/302 321/373/302 306/348/302
f 298/347/303 314/374/303 299/349/303
f 307/350/304 321/373/304 322/375/304
f 299/349/305 315/359/305 300/351/305
f 307/350/306 323/361/306 308/352/306
f 319/367/307 335/376/307 320/371/307
f 313/372/308 327/377/308 328/378/308
f 320/371/309 336/379/309 321/373/309
f 314/374/310 328/378/310 329/380/310
f 322/375/311 336/379/311 337/381/311
f 314/374/312 330/382/312 315/359/312
f 322/375/313 338/383/313 323/361/313
f 316/360/314 330/382/314 331/384/314
f 324/362/315 338/383/315 339/385/315
f 316/360/316 332/386/316 317/363/316
f 324/362/317 340/387/317 325/364/317
f 318/365/318 332/386/318 333/388/318
f 325/364/319 341/389/319 326/366/319
f 319/367/320 333/388/320 334/390/320
f 312/369/321 146/391/321 327/377/321
f 372/392/322 326/366/322 341/389/322
f 339/385/323 353/393/323 354/394/323
f 331/384/324 347/395/324 332/386/324
f 339/385/325 355/396/325 340/387/325
f 333/388/326 347/395/326 348/397/326
f 340/387/327 356/398/327 341/389/327
f 334/390/328 348/397/328 349/399/328
f 327/377/329 146/400/329 342/401/329
f 372/402/330 341/389/330 356/398/330
f 334/390/331 350/403/331 335/376/331
f 328/378/332 342/401/332 343/404/332
f 335/376/333 351/405/333 336/379/333
f 329/380/334 343/404/334 344/406/334
f 337/381/335 351/405/335 352/407/335
f 329/380/336 345/408/336 330/382/336
f 337/381/337 353/393/337 338/383/337
f 330/382/338 346/409/338 331/384/338
f 342/401/339 358/410/339 343/404/339
f 350/403/340 366/411/340 351/405/340
f 344/406/341 358/410/341 359/412/341
f 352/407/342 366/411/342 367/413/342
f 344/406/343 360/414/343 345/408/343
f 352/407/344 368/415/344 353/393/344
f 346/409/345 360/414/345 361/416/345
f 354/394/346 368/415/346 369/417/346
f 346/409/347 362/418/347 347/395/347
f 354/394/348 370/419/348 355/396/348
f 348/397/349 362/418/349 363/420/349
f 356/398/350 370/419/350 371/421/350
f 349/399/351 363/420/351 364/422/351
f 342/401/352 146/423/352 357/424/352
f 372/425/353 356/398/353 371/421/353
f 349/399/354 365/426/354 350/403/354
f 361/416/355 378/427/355 362/418/355
f 369/417/356 386/428/356 370/419/356
f 363/420/357 378/427/357 379/429/357
f 371/421/358 386/428/358 387/430/358
f 364/422/359 379/429/359 380/431/359
f 357/424/360 146/432/360 373/433/360
f 372/434/361 371/421/361 387/430/361
f 364/422/362 381/435/362 365/426/362
f 357/424/363 374/436/363 358/410/363
f 365/426/364 382/437/364 366/411/364
f 358/410/365 375/438/365 359/412/365
f 367/413/366 382/437/366 383/439/366
f 359/412/367 376/440/367 360/414/367
f 367/413/368 384/441/368 368/415/368
f 361/416/369 376/440/369 377/442/369
f 369/417/370 384/441/370 385/443/370
f 381/435/371 397/444/371 382/437/371
f 374/436/372 390/445/372 375/438/372
f 383/439/373 397/444/373 398/446/373
f 375/438/374 391/447/374 376/440/374
f 383/439/375 399/448/375 384/441/375
f 377/442/376 391/447/376 392/449/376
f 385/443/377 399/448/377 400/450/377
f 377/442/378 393/451/378 378/427/378
f 385/443/379 401/452/379 386/428/379
f 379/429/380 393/451/380 394/453/380
f 386/428/381 402/454/381 387/430/381
f 380/431/382 394/453/382 395/455/382
f 373/433/383 146/456/383 388/457/383
f 372/458/384 387/430/384 402/454/384
f 380/431/385 396/459/385 381/435/385
f 373/433/386 389/460/386 374/436/386
f 400/450/387 416/461/387 401/452/387
f 394/453/388 408/462/388 409/463/388
f 402/454/389 416/461/389 417/464/389
f 395/455/390 409/463/390 410/465/390
f 388/457/391 146/466/391 403/467/391
f 372/468/392 402/454/392 417/464/392
f 395/455/393 411/469/393 396/459/393
f 389/460/394 403/467/394 404/470/394
f 396/459/395 412/471/395 397/444/395
f 390/445/396 404/470/396 405/472/396
f 398/446/397 412/471/397 413/473/397
f 390/445/398 406/474/398 391/447/398
f 398/446/399 414/475/399 399/448/399
f 392/449/400 406/474/400 407/476/400
f 400/450/401 414/475/401 415/477/401
f 392/449/402 408/462/402 393/451/402
f 413/473/403 427/478/403 428/479/403
f 405/472/404 421/480/404 406/474/404
f 413/473/405 429/481/405 414/475/405
f 407/476/406 421/480/406 422/482/406
f 415/477/407 429/481/407 430/483/407
f 407/476/408 423/484/408 408/462/408
f 415/477/409 431/485/409 416/461/409
f 409/463/410 423/484/410 424/486/410
f 416/461/411 432/487/411 417/464/411
f 410/465/412 424/486/412 425/488/412
f 403/467/413 146/489/413 418/490/413
f 372/491/414 417/464/414 432/487/414
f 410/465/415 426/492/415 411/469/415
f 404/470/416 418/490/416 419/493/416
f 411/469/417 427/478/417 412/471/417
f 405/472/418 419/493/418 420/494/418
f 431/495/419 447/496/419 432/497/419
f 425/498/420 439/499/420 440/500/420
f 418/501/421 146/502/421 433/503/421
f 372/504/422 432/497/422 447/496/422
f 425/498/423 441/505/423 426/506/423
f 418/501/424 434/507/424 419/508/424
f 426/506/425 442/509/425 427/510/425
f 420/511/426 434/507/426 435/512/426
f 428/513/427 442/509/427 443/514/427
f 420/511/428 436/515/428 421/516/428
f 429/517/429 443/514/429 444/518/429
f 421/516/430 437/519/430 422/520/430
f 430/521/431 444/518/431 445/522/431
f 422/520/432 438/523/432 423/524/432
f 430/521/433 446/525/433 431/495/433
f 424/526/434 438/523/434 439/499/434
f 435/512/435 451/527/435 436/515/435
f 443/514/436 459/528/436 444/518/436
f 437/519/437 451/527/437 452/529/437
f 445/522/438 459/528/438 460/530/438
f 437/519/439 453/531/439 438/523/439
f 446/525/440 460/530/440 461/532/440
f 439/499/441 453/531/441 454/533/441
f 447/496/442 461/532/442 462/534/442
f 440/500/443 454/533/443 455/535/443
f 433/503/444 146/536/444 448/537/444
f 372/538/445 447/496/445 462/534/445
f 440/500/446 456/539/446 441/505/446
f 433/503/447 449/540/447 434/507/447
f 441/505/448 457/541/448 442/509/448
f 434/507/449 450/542/449 435/512/449
f 443/514/450 457/541/450 458/543/450
f 455/535/451 469/544/451 470/545/451
f 448/537/452 146/546/452 463/547/452
f 372/548/453 462/534/453 477/549/453
f 455/535/454 471/550/454 456/539/454
f 448/537/455 464/551/455 449/540/455
f 456/539/456 472/552/456 457/541/456
f 449/540/457 465/553/457 450/542/457
f 458/543/458 472/552/458 473/554/458
f 450/542/459 466/555/459 451/527/459
f 458/543/460 474/556/460 459/528/460
f 452/529/461 466/555/461 467/557/461
f 460/530/462 474/556/462 475/558/462
f 452/529/463 468/559/463 453/531/463
f 461/532/464 475/558/464 476/560/464
f 454/533/465 468/559/465 469/544/465
f 461/532/466 477/549/466 462/534/466
f 473/554/467 489/561/467 474/556/467
f 467/557/468 481/562/468 482/563/468
f 475/558/469 489/561/469 490/564/469
f 467/557/470 483/565/470 468/559/470
f 475/558/471 491/566/471 476/560/471
f 469/544/472 483/565/472 484/567/472
f 476/560/473 492/568/473 477/549/473
f 470/545/474 484/567/474 485/569/474
f 463/547/475 146/570/475 478/571/475
f 372/572/476 477/549/476 492/568/476
f 470/545/477 486/573/477 471/550/477
f 464/551/478 478/571/478 479/574/478
f 471/550/479 487/575/479 472/552/479
f 465/553/480 479/574/480 480/576/480
f 473/554/481 487/575/481 488/577/481
f 465/553/482 481/562/482 466/555/482
f 478/571/483 146/578/483 493/579/483
f 372/580/484 492/568/484 507/581/484
f 485/569/485 501/582/485 486/573/485
f 479/574/486 493/579/486 494/583/486
f 486/573/487 502/584/487 487/575/487
f 480/576/488 494/583/488 495/585/488
f 488/577/489 502/584/489 503/586/489
f 480/576/490 496/587/490 481/562/490
f 488/577/491 504/588/491 489/561/491
f 481/562/492 497/589/492 482/563/492
f 490/564/493 504/588/493 505/590/493
f 482/563/494 498/591/494 483/565/494
f 490/564/495 506/592/495 491/566/495
f 484/567/496 498/591/496 499/593/496
f 491/566/497 507/581/497 492/568/497
f 485/569/498 499/593/498 500/594/498
f 496/587/499 512/595/499 497/589/499
f 505/590/500 519/596/500 520/597/500
f 497/589/501 513/598/501 498/591/501
f 505/590/502 521/599/502 506/592/502
f 499/593/503 513/598/503 514/600/503
f 506/592/504 522/601/504 507/581/504
f 500/594/505 514/600/505 515/602/505
f 493/579/506 146/603/506 508/604/506
f 372/605/507 507/581/507 522/601/507
f 500/594/508 516/606/508 501/582/508
f 493/579/509 509/607/509 494/583/509
f 501/582/510 517/608/510 502/584/510
f 494/583/511 510/609/511 495/585/511
f 503/586/512 517/608/512 518/610/512
f 495/585/513 511/611/513 496/587/513
f 503/586/514 519/596/514 504/588/514
f 515/602/515 531/612/515 516/606/515
f 509/607/516 523/613/516 524/614/516
f 516/606/517 532/615/517 517/608/517
f 510/609/518 524/614/518 525/616/518
f 518/610/519 532/615/519 533/617/519
f 510/609/520 526/618/520 511/611/520
f 518/610/521 534/619/521 519/596/521
f 512/595/522 526/618/522 527/620/522
f 520/597/523 534/619/523 535/621/523
f 512/595/524 528/622/524 513/598/524
f 520/597/525 536/623/525 521/599/525
f 514/600/526 528/622/526 529/624/526
f 521/599/527 537/625/527 522/601/527
f 515/602/528 529/624/528 530/626/528
f 508/604/529 146/627/529 523/613/529
f 372/628/530 522/601/530 537/625/530
f 535/621/531 543/72/531 544/74/531
f 528/622/532 66/103/532 541/75/532
f 536/623/533 544/74/533 545/79/533
f 529/624/534 541/75/534 67/80/534
f 537/625/535 545/79/535 546/83/535
f 530/626/536 67/80/536 68/84/536
f 523/613/537 146/629/537 538/86/537
f 372/630/538 537/625/538 546/83/538
f 530/626/539 69/91/539 531/612/539
f 523/613/540 539/92/540 524/614/540
f 531/612/541 542/95/541 532/615/541
f 525/616/542 539/92/542 65/96/542
f 532/615/543 70/99/543 533/617/543
f 526/618/544 65/96/544 540/100/544
f 533/617/545 543/72/545 534/619/545
f 527/620/546 540/100/546 66/103/546
f 2/1/1 4/4/1 3/2/1
f 4/4/2 6/6/2 5/5/2
f 6/6/3 8/8/3 7/7/3
f 8/8/4 10/10/4 9/9/4
f 10/10/5 12/12/5 11/11/5
f 12/12/6 14/14/6 13/13/6
f 14/14/7 16/16/7 15/15/7
f 16/16/8 18/18/8 17/17/8
f 18/18/9 20/20/9 19/19/9
f 20/20/10 22/22/10 21/21/10
f 22/22/11 24/24/11 23/23/11
f 24/24/12 26/26/12 25/25/12
f 26/26/13 28/28/13 27/27/13
f 28/28/14 30/30/14 29/29/14
f 30/30/15 32/32/15 31/31/15
f 32/32/16 34/34/16 33/33/16
f 34/34/17 36/36/17 35/35/17
f 36/36/18 38/38/18 37/37/18
f 38/38/19 40/40/19 39/39/19
f 40/40/20 42/42/20 41/41/20
f 42/42/21 44/44/21 43/43/21
f 44/44/22 46/46/22 45/45/22
f 46/46/23 48/48/23 47/47/23
f 48/48/24 50/50/24 49/49/24
f 50/50/25 52/52/25 51/51/25
f 52/52/26 54/54/26 53/53/26
f 54/54/27 56/56/27 55/55/27
f 56/56/28 58/58/28 57/57/28
f 58/58/29 60/60/29 59/59/29
f 60/60/30 62/65/30 61/61/30
f 6/64/31 4/631/31 2/632/31
f 2/632/31 64/633/31 6/64/31
f 64/633/31 62/634/31 6/64/31
f 62/634/31 60/635/31 58/636/31
f 58/636/31 56/637/31 54/638/31
f 54/638/31 52/639/31 50/640/31
f 50/640/31 48/641/31 54/638/31
f 48/641/31 46/642/31 54/638/31
f 46/642/31 44/643/31 42/644/31
f 42/644/31 40/645/31 38/62/31
f 38/62/31 36/646/31 30/647/31
f 36/646/31 34/648/31 30/647/31
f 34/648/31 32/649/31 30/647/31
f 30/647/31 28/650/31 26/651/31
f 26/651/31 24/652/31 22/63/31
f 22/63/31 20/653/31 14/654/31
f 20/653/31 18/655/31 14/654/31
f 18/655/31 16/656/31 14/654/31
f 14/654/31 12/657/31 10/658/31
f 10/658/31 8/659/31 6/64/31
f 62/634/31 58/636/31 6/64/31
f 58/636/31 54/638/31 6/64/31
f 46/642/31 42/644/31 54/638/31
f 42/644/31 38/62/31 54/638/31
f 30/647/31 26/651/31 38/62/31
f 26/651/31 22/63/31 38/62/31
f 14/654/31 10/658/31 22/63/31
f 10/658/31 6/64/31 22/63/31
f 6/64/31 54/638/31 38/62/31
f 62/65/32 64/67/32 63/66/32
f 64/67/33 2/660/33 1/68/33
f 63/71/34 1/661/34 3/662/34
f 3/662/34 5/663/34 7/664/34
f 7/664/34 9/665/34 11/666/34
f 11/666/34 13/667/34 15/668/34
f 15/668/34 17/669/34 19/670/34
f 19/670/34 21/671/34 23/672/34
f 23/672/34 25/673/34 27/674/34
f 27/674/34 29/675/34 31/69/34
f 31/69/34 33/676/34 35/677/34
f 35/677/34 37/678/34 39/679/34
f 39/679/34 41/680/34 43/681/34
f 43/681/34 45/682/34 47/70/34
f 47/70/34 49/683/34 51/684/34
f 51/684/34 53/685/34 55/686/34
f 55/686/34 57/687/34 59/688/34
f 59/688/34 61/689/34 63/71/34
f 63/71/34 3/662/34 15/668/34
f 3/662/34 7/664/34 15/668/34
f 7/664/34 11/666/34 15/668/34
f 15/668/34 19/670/34 31/69/34
f 19/670/34 23/672/34 31/69/34
f 23/672/34 27/674/34 31/69/34
f 31/69/34 35/677/34 47/70/34
f 35/677/34 39/679/34 47/70/34
f 39/679/34 43/681/34 47/70/34
f 47/70/34 51/684/34 63/71/34
f 51/684/34 55/686/34 63/71/34
f 55/686/34 59/688/34 63/71/34
f 63/71/34 15/668/34 31/69/34
f 543/72/35 82/102/35 83/73/35
f 541/75/36 66/103/36 75/76/36
f 544/74/37 83/73/37 84/78/37
f 67/80/38 541/75/38 76/77/38
f 545/79/547 84/78/547 85/82/547
f 68/84/40 67/80/40 77/81/40
f 68/84/43 78/85/43 79/90/43
f 539/92/44 538/86/44 71/88/44
f 69/91/45 79/90/45 80/94/45
f 65/96/548 539/92/548 72/93/548
f 542/95/47 80/94/47 81/98/47
f 540/100/48 65/96/48 73/97/48
f 70/99/49 81/98/49 82/102/49
f 66/103/50 540/100/50 74/101/50
f 74/101/549 73/97/549 88/104/549
f 81/98/52 96/120/52 97/106/52
f 75/76/550 74/101/550 89/105/550
f 82/102/54 97/106/54 98/108/54
f 76/77/55 75/76/55 90/107/55
f 83/73/56 98/108/56 99/110/56
f 77/81/57 76/77/57 91/109/57
f 84/78/58 99/110/58 100/112/58
f 77/81/59 92/111/59 93/113/59
f 79/90/62 78/85/62 93/113/62
f 71/88/551 86/115/551 87/118/551
f 79/90/64 94/117/64 95/119/64
f 73/97/65 72/93/65 87/118/65
f 80/94/66 95/119/66 96/120/66
f 92/111/67 107/137/67 108/121/67
f 94/117/70 93/113/70 108/121/70
f 86/115/71 101/123/71 102/127/71
f 94/117/72 109/126/72 110/128/72
f 87/118/73 102/127/73 103/129/73
f 96/120/74 95/119/74 110/128/74
f 89/105/75 88/104/75 103/129/75
f 96/120/76 111/130/76 112/132/76
f 90/107/552 89/105/552 104/131/552
f 97/106/78 112/132/78 113/134/78
f 90/107/79 105/133/79 106/135/79
f 99/110/80 98/108/80 113/134/80
f 92/111/81 91/109/81 106/135/81
f 99/110/82 114/136/82 115/125/82
f 112/132/83 111/130/83 126/138/83
f 104/131/84 119/154/84 120/140/84
f 112/132/553 127/139/553 128/141/553
f 105/133/86 120/140/86 121/142/86
f 114/136/87 113/134/87 128/141/87
f 107/137/88 106/135/88 121/142/88
f 115/125/89 114/136/89 129/143/89
f 108/121/90 107/137/90 122/144/90
f 108/121/554 123/146/554 124/150/554
f 101/123/555 116/148/555 117/151/555
f 109/126/95 124/150/95 125/152/95
f 102/127/96 117/151/96 118/153/96
f 111/130/97 110/128/97 125/152/97
f 103/129/98 118/153/98 119/154/98
f 123/146/100 138/169/100 139/157/100
f 116/148/101 131/171/101 132/158/101
f 124/150/102 139/157/102 140/159/102
f 117/151/103 132/158/103 133/160/103
f 126/138/104 125/152/104 140/159/104
f 118/153/105 133/160/105 134/162/105
f 126/138/106 141/161/106 142/163/106
f 119/154/107 134/162/107 135/164/107
f 128/141/108 127/139/108 142/163/108
f 120/140/109 135/164/109 136/166/109
f 128/141/556 143/165/556 144/167/556
f 122/144/111 121/142/111 136/166/111
f 129/143/112 144/167/112 145/156/112
f 123/146/113 122/144/113 137/168/113
f 143/165/115 142/163/115 158/172/115
f 135/164/116 151/188/116 152/174/116
f 143/165/117 159/173/117 160/175/117
f 137/168/118 136/166/118 152/174/118
f 144/167/119 160/175/119 161/177/119
f 138/169/120 137/168/120 153/176/120
f 138/169/123 154/178/123 155/182/123
f 131/171/124 147/180/124 148/183/124
f 139/157/125 155/182/125 156/184/125
f 133/160/126 132/158/126 148/183/126
f 141/161/127 140/159/127 156/184/127
f 133/160/128 149/185/128 150/187/128
f 141/161/129 157/186/129 158/172/129
f 135/164/130 134/162/130 150/187/130
f 147/180/131 162/203/131 163/189/131
f 155/182/132 170/205/132 171/190/132
f 148/183/133 163/189/133 164/191/133
f 157/186/134 156/184/134 171/190/134
f 149/185/135 164/191/135 165/193/135
f 157/186/136 172/192/136 173/194/136
f 150/187/137 165/193/137 166/195/137
f 159/173/138 158/172/138 173/194/138
f 151/188/139 166/195/139 167/197/139
f 159/173/140 174/196/140 175/198/140
f 153/176/141 152/174/141 167/197/141
f 161/177/142 160/175/142 175/198/142
f 154/178/143 153/176/143 168/199/143
f 154/178/146 169/201/146 170/205/146
f 166/195/557 181/221/557 182/206/557
f 174/196/148 189/222/148 190/207/148
f 168/199/149 167/197/149 182/206/149
f 175/198/150 190/207/150 191/209/150
f 169/201/151 168/199/151 183/208/151
f 169/201/154 184/210/154 185/214/154
f 163/189/155 162/203/155 177/212/155
f 170/205/156 185/214/156 186/216/156
f 163/189/157 178/215/157 179/217/157
f 172/192/158 171/190/158 186/216/158
f 164/191/159 179/217/159 180/219/159
f 172/192/160 187/218/160 188/220/160
f 166/195/161 165/193/161 180/219/161
f 174/196/162 173/194/162 188/220/162
f 185/214/163 200/238/163 201/223/163
f 178/215/164 193/239/164 194/224/164
f 187/218/165 186/216/165 201/223/165
f 179/217/166 194/224/166 195/226/166
f 187/218/558 202/225/558 203/227/558
f 181/221/168 180/219/168 195/226/168
f 189/222/169 188/220/169 203/227/169
f 181/221/170 196/228/170 197/230/170
f 189/222/171 204/229/171 205/231/171
f 183/208/172 182/206/172 197/230/172
f 191/209/173 190/207/173 205/231/173
f 184/210/174 183/208/174 198/232/174
f 184/210/177 199/234/177 200/238/177
f 177/212/178 192/236/178 193/239/178
f 205/231/179 204/229/179 219/240/179
f 198/232/180 197/230/180 212/242/180
f 205/231/181 220/241/181 221/244/181
f 199/234/559 198/232/559 213/243/559
f 199/234/185 214/245/185 215/249/185
f 193/239/186 192/236/186 207/247/186
f 200/238/187 215/249/187 216/251/187
f 193/239/188 208/250/188 209/252/188
f 202/225/189 201/223/189 216/251/189
f 195/226/190 194/224/190 209/252/190
f 202/225/191 217/253/191 218/255/191
f 196/228/192 195/226/192 210/254/192
f 204/229/193 203/227/193 218/255/193
f 196/228/560 211/256/560 212/242/560
f 209/252/195 208/250/195 223/257/195
f 217/253/196 216/251/196 231/259/196
f 209/252/197 224/258/197 225/261/197
f 217/253/198 232/260/198 233/262/198
f 210/254/199 225/261/199 226/263/199
f 219/240/200 218/255/200 233/262/200
f 211/256/201 226/263/201 227/265/201
f 219/240/202 234/264/202 235/266/202
f 213/243/203 212/242/203 227/265/203
f 221/244/204 220/241/204 235/266/204
f 214/245/205 213/243/205 228/267/205
f 214/245/208 229/269/208 230/273/208
f 207/247/209 222/271/209 223/257/209
f 215/249/210 230/273/210 231/259/210
f 228/267/211 227/265/211 242/274/211
f 235/266/212 250/290/212 251/276/212
f 229/269/213 228/267/213 243/275/213
f 229/269/216 244/277/216 245/281/216
f 222/271/217 237/279/217 238/282/217
f 230/273/218 245/281/218 246/283/218
f 224/258/219 223/257/219 238/282/219
f 232/260/220 231/259/220 246/283/220
f 224/258/221 239/284/221 240/286/221
f 232/260/222 247/285/222 248/287/222
f 226/263/223 225/261/223 240/286/223
f 234/264/224 233/262/224 248/287/224
f 226/263/225 241/288/225 242/274/225
f 234/264/226 249/289/226 250/290/226
f 247/285/227 246/283/227 261/291/227
f 239/284/228 254/307/228 255/293/228
f 247/285/229 262/292/229 263/294/229
f 241/288/230 240/286/230 255/293/230
f 249/289/231 248/287/231 263/294/231
f 241/288/232 256/295/232 257/297/232
f 250/290/233 249/289/233 264/296/233
f 243/275/234 242/274/234 257/297/234
f 250/290/235 265/298/235 266/300/235
f 244/277/236 243/275/236 258/299/236
f 244/277/561 259/301/561 260/305/561
f 237/279/240 252/303/240 253/306/240
f 245/281/241 260/305/241 261/291/241
f 238/282/242 253/306/242 254/307/242
f 266/300/243 265/298/243 280/308/243
f 259/301/244 258/299/244 273/310/244
f 259/301/247 274/311/247 275/315/247
f 252/303/248 267/313/248 268/316/248
f 260/305/249 275/315/249 276/317/249
f 253/306/250 268/316/250 269/318/250
f 262/292/251 261/291/251 276/317/251
f 254/307/252 269/318/252 270/320/252
f 262/292/253 277/319/253 278/321/253
f 256/295/254 255/293/254 270/320/254
f 264/296/255 263/294/255 278/321/255
f 256/295/256 271/322/256 272/324/256
f 265/298/257 264/296/257 279/323/257
f 258/299/258 257/297/258 272/324/258
f 277/319/259 292/341/259 293/325/259
f 271/322/260 270/320/260 285/326/260
f 279/323/261 278/321/261 293/325/261
f 271/322/262 286/327/262 287/329/262
f 280/308/263 279/323/263 294/328/263
f 273/310/264 272/324/264 287/329/264
f 281/309/265 280/308/265 295/330/265
f 274/311/266 273/310/266 288/331/266
f 274/311/269 289/333/269 290/337/269
f 267/313/562 282/335/562 283/338/562
f 275/315/271 290/337/271 291/339/271
f 268/316/272 283/338/272 284/340/272
f 277/319/273 276/317/273 291/339/273
f 269/318/274 284/340/274 285/326/274
f 289/333/277 304/358/277 305/346/277
f 283/338/278 282/335/278 297/343/278
f 290/337/279 305/346/279 306/348/279
f 284/340/280 283/338/280 298/347/280
f 292/341/281 291/339/281 306/348/281
f 284/340/282 299/349/282 300/351/282
f 292/341/283 307/350/283 308/352/283
f 285/326/284 300/351/284 301/353/284
f 294/328/285 293/325/285 308/352/285
f 286/327/286 301/353/286 302/355/286
f 294/328/287 309/354/287 310/356/287
f 288/331/288 287/329/288 302/355/288
f 295/330/563 310/356/563 311/345/563
f 289/333/290 288/331/290 303/357/290
f 301/353/291 300/351/291 315/359/291
f 309/354/292 308/352/292 323/361/292
f 301/353/293 316/360/293 317/363/293
f 310/356/294 309/354/294 324/362/294
f 303/357/295 302/355/295 317/363/295
f 310/356/296 325/364/296 326/366/296
f 304/358/297 303/357/297 318/365/297
f 304/358/300 319/367/300 320/371/300
f 297/343/564 312/369/564 313/372/564
f 305/346/302 320/371/302 321/373/302
f 298/347/303 313/372/303 314/374/303
f 307/350/304 306/348/304 321/373/304
f 299/349/305 314/374/305 315/359/305
f 307/350/306 322/375/306 323/361/306
f 319/367/307 334/390/307 335/376/307
f 313/372/308 312/369/308 327/377/308
f 320/371/309 335/376/309 336/379/309
f 314/374/310 313/372/310 328/378/310
f 322/375/311 321/373/311 336/379/311
f 314/374/312 329/380/312 330/382/312
f 322/375/565 337/381/565 338/383/565
f 316/360/314 315/359/314 330/382/314
f 324/362/315 323/361/315 338/383/315
f 316/360/316 331/384/316 332/386/316
f 324/362/317 339/385/317 340/387/317
f 318/365/318 317/363/318 332/386/318
f 325/364/319 340/387/319 341/389/319
f 319/367/320 318/365/320 333/388/320
f 339/385/323 338/383/323 353/393/323
f 331/384/324 346/409/324 347/395/324
f 339/385/325 354/394/325 355/396/325
f 333/388/326 332/386/326 347/395/326
f 340/387/566 355/396/566 356/398/566
f 334/390/328 333/388/328 348/397/328
f 334/390/331 349/399/331 350/403/331
f 328/378/332 327/377/332 342/401/332
f 335/376/333 350/403/333 351/405/333
f 329/380/334 328/378/334 343/404/334
f 337/381/335 336/379/335 351/405/335
f 329/380/336 344/406/336 345/408/336
f 337/381/567 352/407/567 353/393/567
f 330/382/338 345/408/338 346/409/338
f 342/401/568 357/424/568 358/410/568
f 350/403/340 365/426/340 366/411/340
f 344/406/341 343/404/341 358/410/341
f 352/407/342 351/405/342 366/411/342
f 344/406/343 359/412/343 360/414/343
f 352/407/344 367/413/344 368/415/344
f 346/409/345 345/408/345 360/414/345
f 354/394/346 353/393/346 368/415/346
f 346/409/347 361/416/347 362/418/347
f 354/394/348 369/417/348 370/419/348
f 348/397/349 347/395/349 362/418/349
f 356/398/350 355/396/350 370/419/350
f 349/399/351 348/397/351 363/420/351
f 349/399/354 364/422/354 365/426/354
f 361/416/355 377/442/355 378/427/355
f 369/417/356 385/443/356 386/428/356
f 363/420/357 362/418/357 378/427/357
f 371/421/358 370/419/358 386/428/358
f 364/422/359 363/420/359 379/429/359
f 364/422/362 380/431/362 381/435/362
f 357/424/363 373/433/363 374/436/363
f 365/426/364 381/435/364 382/437/364
f 358/410/365 374/436/365 375/438/365
f 367/413/366 366/411/366 382/437/366
f 359/412/367 375/438/367 376/440/367
f 367/413/368 383/439/368 384/441/368
f 361/416/369 360/414/369 376/440/369
f 369/417/370 368/415/370 384/441/370
f 381/435/371 396/459/371 397/444/371
f 374/436/372 389/460/372 390/445/372
f 383/439/373 382/437/373 397/444/373
f 375/438/374 390/445/374 391/447/374
f 383/439/375 398/446/375 399/448/375
f 377/442/376 376/440/376 391/447/376
f 385/443/377 384/441/377 399/448/377
f 377/442/378 392/449/378 393/451/378
f 385/443/379 400/450/379 401/452/379
f 379/429/380 378/427/380 393/451/380
f 386/428/381 401/452/381 402/454/381
f 380/431/382 379/429/382 394/453/382
f 380/431/385 395/455/385 396/459/385
f 373/433/386 388/457/386 389/460/386
f 400/450/387 415/477/387 416/461/387
f 394/453/388 393/451/388 408/462/388
f 402/454/389 401/452/389 416/461/389
f 395/455/390 394/453/390 409/463/390
f 395/455/393 410/465/393 411/469/393
f 389/460/394 388/457/394 403/467/394
f 396/459/395 411/469/395 412/471/395
f 390/445/396 389/460/396 404/470/396
f 398/446/397 397/444/397 412/471/397
f 390/445/398 405/472/398 406/474/398
f 398/446/399 413/473/399 414/475/399
f 392/449/400 391/447/400 406/474/400
f 400/450/401 399/448/401 414/475/401
f 392/449/402 407/476/402 408/462/402
f 413/473/403 412/471/403 427/478/403
f 405/472/404 420/494/404 421/480/404
f 413/473/405 428/479/405 429/481/405
f 407/476/406 406/474/406 421/480/406
f 415/477/407 414/475/407 429/481/407
f 407/476/408 422/482/408 423/484/408
f 415/477/409 430/483/409 431/485/409
f 409/463/410 408/462/410 423/484/410
f 416/461/411 431/485/411 432/487/411
f 410/465/412 409/463/412 424/486/412
f 410/465/415 425/488/415 426/492/415
f 404/470/416 403/467/416 418/490/416
f 411/469/417 426/492/417 427/478/417
f 405/472/418 404/470/418 419/493/418
f 431/495/419 446/525/419 447/496/419
f 425/498/420 424/526/420 439/499/420
f 425/498/423 440/500/423 441/505/423
f 418/501/424 433/503/424 434/507/424
f 426/506/425 441/505/425 442/509/425
f 420/511/426 419/508/426 434/507/426
f 428/513/427 427/510/427 442/509/427
f 420/511/428 435/512/428 436/515/428
f 429/517/429 428/513/429 443/514/429
f 421/516/569 436/515/569 437/519/569
f 430/521/431 429/517/431 444/518/431
f 422/520/432 437/519/432 438/523/432
f 430/521/433 445/522/433 446/525/433
f 424/526/434 423/524/434 438/523/434
f 435/512/570 450/542/570 451/527/570
f 443/514/436 458/543/436 459/528/436
f 437/519/437 436/515/437 451/527/437
f 445/522/438 444/518/438 459/528/438
f 437/519/439 452/529/439 453/531/439
f 446/525/440 445/522/440 460/530/440
f 439/499/441 438/523/441 453/531/441
f 447/496/442 446/525/442 461/532/442
f 440/500/443 439/499/443 454/533/443
f 440/500/446 455/535/446 456/539/446
f 433/503/447 448/537/447 449/540/447
f 441/505/448 456/539/448 457/541/448
f 434/507/449 449/540/449 450/542/449
f 443/514/450 442/509/450 457/541/450
f 455/535/451 454/533/451 469/544/451
f 455/535/454 470/545/454 471/550/454
f 448/537/455 463/547/455 464/551/455
f 456/539/456 471/550/456 472/552/456
f 449/540/571 464/551/571 465/553/571
f 458/543/458 457/541/458 472/552/458
f 450/542/459 465/553/459 466/555/459
f 458/543/460 473/554/460 474/556/460
f 452/529/461 451/527/461 466/555/461
f 460/530/462 459/528/462 474/556/462
f 452/529/463 467/557/463 468/559/463
f 461/532/464 460/530/464 475/558/464
f 454/533/465 453/531/465 468/559/465
f 461/532/466 476/560/466 477/549/466
f 473/554/467 488/577/467 489/561/467
f 467/557/468 466/555/468 481/562/468
f 475/558/469 474/556/469 489/561/469
f 467/557/470 482/563/470 483/565/470
f 475/558/471 490/564/471 491/566/471
f 469/544/472 468/559/472 483/565/472
f 476/560/473 491/566/473 492/568/473
f 470/545/474 469/544/474 484/567/474
f 470/545/477 485/569/477 486/573/477
f 464/551/478 463/547/478 478/571/478
f 471/550/479 486/573/479 487/575/479
f 465/553/480 464/551/480 479/574/480
f 473/554/481 472/552/481 487/575/481
f 465/553/572 480/576/572 481/562/572
f 485/569/485 500/594/485 501/582/485
f 479/574/486 478/571/486 493/579/486
f 486/573/487 501/582/487 502/584/487
f 480/576/488 479/574/488 494/583/488
f 488/577/489 487/575/489 502/584/489
f 480/576/490 495/585/490 496/587/490
f 488/577/491 503/586/491 504/588/491
f 481/562/492 496/587/492 497/589/492
f 490/564/493 489/561/493 504/588/493
f 482/563/494 497/589/494 498/591/494
f 490/564/495 505/590/495 506/592/495
f 484/567/496 483/565/496 498/591/496
f 491/566/497 506/592/497 507/581/497
f 485/569/573 484/567/573 499/593/573
f 496/587/499 511/611/499 512/595/499
f 505/590/500 504/588/500 519/596/500
f 497/589/501 512/595/501 513/598/501
f 505/590/502 520/597/502 521/599/502
f 499/593/503 498/591/503 513/598/503
f 506/592/504 521/599/504 522/601/504
f 500/594/505 499/593/505 514/600/505
f 500/594/508 515/602/508 516/606/508
f 493/579/509 508/604/509 509/607/509
f 501/582/510 516/606/510 517/608/510
f 494/583/511 509/607/511 510/609/511
f 503/586/512 502/584/512 517/608/512
f 495/585/513 510/609/513 511/611/513
f 503/586/514 518/610/514 519/596/514
f 515/602/515 530/626/515 531/612/515
f 509/607/516 508/604/516 523/613/516
f 516/606/517 531/612/517 532/615/517
f 510/609/518 509/607/518 524/614/518
f 518/610/519 517/608/519 532/615/519
f 510/609/520 525/616/520 526/618/520
f 518/610/574 533/617/574 534/619/574
f 512/595/522 511/611/522 526/618/522
f 520/597/575 519/596/575 534/619/575
f 512/595/524 527/620/524 528/622/524
f 520/597/525 535/621/525 536/623/525
f 514/600/526 513/598/526 528/622/526
f 521/599/576 536/623/576 537/625/576
f 515/602/528 514/600/528 529/624/528
f 535/621/531 534/619/531 543/72/531
f 528/622/532 527/620/532 66/103/532
f 536/623/533 535/621/533 544/74/533
f 529/624/534 528/622/534 541/75/534
f 537/625/535 536/623/535 545/79/535
f 530/626/536 529/624/536 67/80/536
f 530/626/539 68/84/539 69/91/539
f 523/613/577 538/86/577 539/92/577
f 531/612/541 69/91/541 542/95/541
f 525/616/542 524/614/542 539/92/542
f 532/615/543 542/95/543 70/99/543
f 526/618/544 525/616/544 65/96/544
f 533/617/545 70/99/545 543/72/545
f 527/620/546 526/618/546 540/100/546
