# Blender 4.4.1
# www.blender.org
mtllib PlayerBullet.mtl
o 球
v 0.000000 4.853580 -0.555570
v 0.000000 4.577681 -0.831470
v 0.000000 4.217201 -0.980785
v 0.000000 4.022111 -1.408365
v 0.000000 3.827021 -0.980785
v 0.000000 3.466541 -0.831470
v 0.038060 5.002896 -0.191342
v 0.074658 4.945991 -0.375330
v 0.108386 4.853580 -0.544895
v 0.189050 4.848821 -0.928740
v 0.162212 4.577681 -0.815493
v 0.180240 4.404794 -0.906127
v 0.191342 4.217201 -0.961940
v 0.195090 4.022111 -0.980785
v 0.191342 3.827021 -0.961940
v 0.180240 3.639427 -0.906127
v 0.270409 3.323758 -1.249147
v 0.137950 3.315004 -0.693520
v 0.108386 3.190641 -0.544895
v 0.074658 3.098231 -0.375330
v 0.038060 3.041326 -0.191342
v 0.090473 5.399527 -0.213867
v 0.146447 4.945991 -0.353553
v 0.212608 4.853580 -0.513280
v 0.270598 4.729218 -0.653281
v 0.318190 4.577681 -0.768178
v 0.353553 4.404794 -0.853553
v 0.375330 4.217201 -0.906127
v 0.382683 4.022111 -0.923879
v 0.375330 3.827021 -0.906127
v 0.353553 3.639427 -0.853553
v 0.318190 3.466541 -0.768178
v 0.270598 3.315004 -0.653281
v 0.212608 3.190641 -0.513280
v 0.146447 3.098231 -0.353553
v 0.074658 3.041326 -0.180240
v 0.108386 5.002896 -0.162212
v 0.212608 4.945991 -0.318190
v 0.308658 4.853580 -0.461940
v 0.392847 4.729218 -0.587938
v 0.461940 4.577681 -0.691342
v 0.513280 4.404794 -0.768178
v 0.723051 4.215496 -1.072192
v 0.555570 4.022111 -0.831469
v 0.544895 3.827021 -0.815493
v 0.513280 3.639427 -0.768178
v 0.461940 3.466541 -0.691342
v 0.392847 3.315004 -0.587938
v 0.308658 3.190641 -0.461940
v 0.212608 3.098231 -0.318190
v 0.108386 3.041326 -0.162212
v 0.137950 5.002896 -0.137950
v 0.270598 4.945991 -0.270598
v 0.392847 4.853580 -0.392847
v 0.500000 4.729218 -0.500000
v 0.587938 4.577681 -0.587938
v 0.653281 4.404794 -0.653281
v 0.693520 4.217201 -0.693520
v 0.707107 4.022111 -0.707107
v 0.693520 3.827021 -0.693520
v 0.898894 3.527308 -0.871228
v 0.587938 3.466541 -0.587938
v 0.500000 3.315004 -0.500000
v 0.470424 2.935852 -0.478910
v 0.270598 3.098231 -0.270598
v 0.137950 3.041326 -0.137950
v 0.162212 5.002896 -0.108386
v 0.318190 4.945991 -0.212608
v 0.593303 5.169143 -0.341997
v 0.587938 4.729218 -0.392847
v 0.841400 4.748116 -0.553499
v 0.768178 4.404794 -0.513280
v 0.815493 4.217201 -0.544895
v 0.831470 4.022111 -0.555570
v 0.815493 3.827021 -0.544895
v 0.768178 3.639427 -0.513280
v 0.691342 3.466541 -0.461940
v 0.587938 3.315004 -0.392847
v 0.461940 3.190641 -0.308658
v 0.318190 3.098231 -0.212608
v 0.162212 3.041326 -0.108386
v 0.000000 5.022111 0.000000
v 0.180240 5.002896 -0.074658
v 0.353553 4.945991 -0.146447
v 0.513280 4.853580 -0.212607
v 0.653281 4.729218 -0.270598
v 0.768178 4.577681 -0.318190
v 0.853553 4.404794 -0.353553
v 1.215130 4.217201 -0.469500
v 0.923879 4.022111 -0.382683
v 0.906127 3.827021 -0.375330
v 0.853553 3.639427 -0.353553
v 0.768178 3.466541 -0.318190
v 0.653281 3.315004 -0.270598
v 0.513280 3.190641 -0.212607
v 0.353553 3.098231 -0.146447
v 0.180240 3.041326 -0.074658
v 0.191342 5.002896 -0.038060
v 0.375330 4.945991 -0.074658
v 0.544895 4.853580 -0.108386
v 0.693520 4.729218 -0.137950
v 0.815493 4.577681 -0.162212
v 0.906127 4.404794 -0.180240
v 0.961940 4.217201 -0.191342
v 0.980785 4.022111 -0.195090
v 0.961940 3.827021 -0.191342
v 0.906127 3.639427 -0.180240
v 1.341879 3.401100 -0.266392
v 0.693520 3.315004 -0.137950
v 0.544895 3.190641 -0.108386
v 0.375330 3.098231 -0.074658
v 0.191342 3.041326 -0.038060
v 0.195090 5.002896 0.000000
v 0.382683 4.945991 0.000000
v 0.555570 4.853580 0.000000
v 0.933343 5.031688 -0.000000
v 0.831469 4.577681 0.000000
v 0.923879 4.404794 -0.000000
v 0.980785 4.217201 0.000000
v 1.000000 4.022111 0.000000
v 0.980785 3.827021 0.000000
v 0.923879 3.639427 -0.000000
v 0.831469 3.466541 0.000000
v 0.707107 3.315004 -0.000000
v 0.555570 3.190641 0.000000
v 0.382683 3.098231 0.000000
v 0.195090 3.041326 0.000000
v 0.191342 5.002896 0.038060
v 0.375330 5.311764 0.074658
v 0.544895 4.853580 0.108386
v 0.693520 4.729218 0.137950
v 0.815493 4.577681 0.162212
v 0.906127 4.404794 0.180240
v 1.402923 4.296112 0.270573
v 0.980785 4.022111 0.195090
v 0.961940 3.827021 0.191342
v 0.906127 3.639427 0.180240
v 0.815493 3.466541 0.162212
v 0.693520 3.315004 0.137950
v 0.676328 2.923537 0.148541
v 0.375330 3.098231 0.074658
v 0.272351 2.818501 0.049749
v 0.180240 5.002896 0.074658
v 0.353553 4.945991 0.146447
v 0.513280 4.853580 0.212608
v 0.653281 4.729218 0.270598
v 0.768178 4.577681 0.318190
v 0.853553 4.404794 0.353553
v 0.906127 4.217201 0.375330
v 0.923879 4.022111 0.382683
v 0.906127 3.827021 0.375330
v 1.250442 3.509205 0.548081
v 0.768178 3.466541 0.318190
v 0.653281 3.315004 0.270598
v 0.513280 3.190641 0.212608
v 0.353553 3.098231 0.146447
v 0.180240 3.041326 0.074658
v 0.162212 5.002896 0.108386
v 0.318190 4.945991 0.212608
v 0.461940 4.853580 0.308658
v 0.587938 4.729218 0.392847
v 0.933824 4.880053 0.658157
v 0.768178 4.404794 0.513280
v 0.815493 4.217201 0.544895
v 0.831469 4.022111 0.555570
v 0.815493 3.827021 0.544895
v 0.768178 3.639427 0.513280
v 0.691341 3.466541 0.461940
v 0.587938 3.315004 0.392847
v 0.461940 3.190641 0.308658
v 0.318190 3.098231 0.212608
v 0.162212 3.041326 0.108386
v 0.137950 5.002896 0.137950
v 0.410305 5.203263 0.384783
v 0.392847 4.853580 0.392847
v 0.500000 4.729218 0.500000
v 0.587938 4.577681 0.587938
v 0.653281 4.404794 0.653281
v 0.693520 4.217201 0.693520
v 0.979485 4.009775 1.048615
v 0.693520 3.827021 0.693520
v 0.653281 3.639427 0.653281
v 0.587938 3.466541 0.587938
v 0.500000 3.315004 0.500000
v 0.392847 3.190641 0.392847
v 0.270598 3.098231 0.270598
v 0.137950 3.041326 0.137950
v 0.108386 5.002896 0.162212
v 0.212607 4.945991 0.318190
v 0.308658 4.853580 0.461940
v 0.392847 4.729218 0.587938
v 0.461940 4.577681 0.691342
v 0.513280 4.404794 0.768178
v 0.544895 4.217201 0.815493
v 0.555570 4.022111 0.831469
v 0.544895 3.827021 0.815493
v 0.513280 3.639427 0.768178
v 0.461940 3.466541 0.691342
v 0.474604 3.112947 0.709966
v 0.308658 3.190641 0.461940
v 0.212607 3.098231 0.318190
v 0.108386 3.041326 0.162212
v 0.074658 5.002896 0.180240
v 0.146447 4.945991 0.353553
v 0.212607 4.853580 0.513280
v 0.270598 4.729218 0.653281
v 0.318189 4.577681 0.768178
v 0.353553 4.404794 0.853553
v 0.375330 4.217201 0.906127
v 0.382683 4.022111 0.923879
v 0.527753 3.754554 1.231728
v 0.353553 3.639427 0.853553
v 0.318189 3.466541 0.768178
v 0.270598 3.315004 0.653281
v 0.212607 3.190641 0.513280
v 0.146447 3.098231 0.353553
v 0.074658 3.041326 0.180240
v 0.038060 5.002896 0.191342
v 0.074658 4.945991 0.375330
v 0.108386 5.115027 0.728364
v 0.137950 4.729218 0.693520
v 0.162212 4.577681 0.815493
v 0.206573 4.493112 1.192421
v 0.191342 4.217201 0.961939
v 0.195090 4.022111 0.980785
v 0.191342 3.827021 0.961939
v 0.180240 3.639427 0.906127
v 0.162212 3.466541 0.815493
v 0.137950 3.315004 0.693520
v 0.108386 3.190641 0.544895
v 0.074658 3.098231 0.375330
v 0.038060 3.041326 0.191342
v -0.000000 5.002896 0.195090
v -0.000000 4.945991 0.382683
v -0.000000 4.853580 0.555570
v -0.000000 4.729218 0.707107
v -0.000000 4.577681 0.831469
v 0.000000 4.404794 0.923879
v -0.000000 4.217201 0.980785
v -0.000000 4.022111 0.999999
v -0.000000 3.827021 0.980785
v 0.000000 3.639427 0.923879
v -0.000000 3.466541 0.831469
v -0.013602 3.066889 0.995848
v -0.000000 3.190641 0.555570
v -0.000000 3.098231 0.382683
v -0.000000 3.041326 0.195090
v -0.038060 5.002896 0.191342
v -0.074658 4.945991 0.375330
v -0.108386 4.853580 0.544895
v -0.137950 4.729218 0.693520
v -0.162212 4.577681 0.815493
v -0.180240 4.404794 0.906127
v -0.191342 4.217201 0.961939
v -0.251923 4.022111 1.298576
v -0.191342 3.827021 0.961939
v -0.180240 3.639427 0.906127
v -0.162212 3.466541 0.815493
v -0.137950 3.315004 0.693520
v -0.108386 3.190641 0.544895
v -0.083280 2.906233 0.375330
v -0.038060 3.041326 0.191342
v -0.074658 5.389832 0.238705
v -0.146447 4.945991 0.353553
v -0.212608 4.853580 0.513280
v -0.318958 5.031546 0.859336
v -0.318190 4.577681 0.768177
v -0.353553 4.404794 0.853553
v -0.375330 4.217201 0.906127
v -0.382683 4.022111 0.923879
v -0.375330 3.827021 0.906127
v -0.496046 3.498957 1.170179
v -0.318190 3.466541 0.768177
v -0.270598 3.315004 0.653281
v -0.212608 3.190641 0.513280
v -0.146447 3.098231 0.353553
v -0.074658 3.041326 0.180240
v -0.108386 5.002896 0.162212
v -0.212608 4.945991 0.318190
v -0.308658 4.853580 0.461939
v -0.392847 4.729218 0.587938
v -0.461940 4.577681 0.691341
v -0.513280 4.404794 0.768178
v -0.730182 4.286550 1.081338
v -0.555570 4.022111 0.831469
v -0.544895 3.827021 0.815493
v -0.513280 3.639427 0.768178
v -0.461940 3.466541 0.691341
v -0.392847 3.315004 0.587938
v -0.308658 3.190641 0.461939
v -0.212608 3.098231 0.318190
v -0.108386 3.041326 0.162212
v -0.137950 5.002896 0.137950
v -0.270598 4.945991 0.270598
v -0.392847 4.853580 0.392847
v -0.500000 4.729218 0.500000
v -0.587938 4.577681 0.587937
v -0.653281 4.404794 0.653281
v -0.693520 4.217201 0.693520
v -0.707106 4.022111 0.707106
v -0.693520 3.827021 0.693520
v -0.653281 3.639427 0.653281
v -0.587938 3.466541 0.587937
v -0.722253 2.993876 0.703168
v -0.392847 3.190641 0.392847
v -0.270598 3.098231 0.270598
v -0.137950 3.041326 0.137950
v 0.000000 3.022111 0.000000
v -0.162212 5.002896 0.108386
v -0.318190 4.945991 0.212607
v -0.615349 5.141519 0.386635
v -0.587938 4.729218 0.392847
v -0.691341 4.577681 0.461939
v -0.768177 4.404794 0.513280
v -0.815493 4.217201 0.544895
v -0.831469 4.022111 0.555569
v -0.815493 3.827021 0.544895
v -0.768177 3.639427 0.513280
v -0.691341 3.466541 0.461939
v -0.587938 3.315004 0.392847
v -0.461940 3.190641 0.308658
v -0.318190 3.098231 0.212607
v -0.162212 3.041326 0.108386
v -0.180240 5.002896 0.074658
v -0.353553 4.945991 0.146447
v -0.513280 4.853580 0.212607
v -0.653281 4.729218 0.270598
v -1.038154 4.697487 0.423713
v -0.853553 4.404794 0.353553
v -1.199045 4.286885 0.492687
v -0.923879 4.022111 0.382683
v -1.288311 3.717710 0.487538
v -0.853553 3.639427 0.353553
v -0.768177 3.466541 0.318189
v -0.653281 3.315004 0.270598
v -0.513280 3.190641 0.212607
v -0.353553 3.098231 0.146447
v -0.180240 3.041326 0.074658
v -0.191342 5.002896 0.038060
v -0.375330 4.945991 0.074658
v -0.544895 4.853580 0.108386
v -0.693520 4.729218 0.137950
v -0.815493 4.577681 0.162211
v -0.906127 4.404794 0.180240
v -0.961939 4.217201 0.191341
v -0.980784 4.022111 0.195090
v -0.961939 3.827021 0.191341
v -0.906127 3.639427 0.180240
v -0.815493 3.466541 0.162211
v -0.693520 3.315004 0.137950
v -0.544895 3.190641 0.108386
v -0.375330 3.098231 0.074658
v -0.191342 3.041326 0.038060
v -0.195090 5.002896 -0.000000
v -0.382683 4.945991 -0.000000
v -0.555570 4.853580 -0.000000
v -0.920851 4.909835 -0.000000
v -0.831469 4.577681 -0.000000
v -0.923879 4.404794 -0.000000
v -0.980785 4.217201 -0.000000
v -0.999999 4.022111 -0.000000
v -0.980785 3.827021 -0.000000
v -0.923879 3.639427 -0.000000
v -1.253896 3.336982 -0.000000
v -0.707107 3.315004 -0.000000
v -0.555570 3.190641 -0.000000
v -0.493592 2.754067 -0.000000
v -0.195090 3.041326 -0.000000
v -0.297507 5.414246 -0.041817
v -0.375330 4.945991 -0.074658
v -0.544895 4.853580 -0.108386
v -0.693520 4.729218 -0.137950
v -0.815493 4.577681 -0.162212
v -0.906127 4.404794 -0.180240
v -0.961939 4.217201 -0.191342
v -1.328005 3.995676 -0.225737
v -0.961939 3.827021 -0.191342
v -0.906127 3.639427 -0.180240
v -0.815493 3.466541 -0.162212
v -0.693520 3.315004 -0.137950
v -0.544895 3.190641 -0.108386
v -0.375330 3.098231 -0.074658
v -0.191342 3.041326 -0.038060
v -0.180240 5.002896 -0.074658
v -0.353553 4.945991 -0.146447
v -0.513279 4.853580 -0.212607
v -0.653281 4.729218 -0.270598
v -1.011754 4.712179 -0.423997
v -0.853553 4.404794 -0.353553
v -0.906127 4.217201 -0.375330
v -0.923878 4.022111 -0.382683
v -0.906127 3.827021 -0.375330
v -0.853553 3.639427 -0.353553
v -0.768177 3.466541 -0.318190
v -0.653281 3.315004 -0.270598
v -0.513279 3.190641 -0.212607
v -0.353553 3.098231 -0.146447
v -0.180240 3.041326 -0.074658
v -0.162212 5.002896 -0.108386
v -0.318189 4.945991 -0.212607
v -0.678807 5.289475 -0.272538
v -0.587938 4.729218 -0.392847
v -0.691341 4.577681 -0.461940
v -0.768177 4.404794 -0.513280
v -0.815493 4.217201 -0.544895
v -0.831468 4.022111 -0.555570
v -0.815493 3.827021 -0.544895
v -0.768177 3.639427 -0.513280
v -0.691341 3.466541 -0.461940
v -0.704594 3.101312 -0.508123
v -0.461939 3.190641 -0.308658
v -0.318189 3.098231 -0.212607
v -0.162212 3.041326 -0.108386
v -0.137950 5.002896 -0.137950
v -0.270598 4.945991 -0.270598
v -0.392847 4.853580 -0.392847
v -0.500000 4.729218 -0.500000
v -0.587937 4.577681 -0.587938
v -0.653281 4.404794 -0.653281
v -0.935558 4.269044 -0.962411
v -0.707106 4.022111 -0.707106
v -0.693519 3.827021 -0.693520
v -0.953070 3.387783 -0.967117
v -0.587937 3.466541 -0.587938
v -0.500000 3.315004 -0.500000
v -0.392847 3.190641 -0.392847
v -0.270598 3.098231 -0.270598
v -0.137950 3.041326 -0.137950
v -0.108386 5.002896 -0.162212
v -0.212607 4.945991 -0.318190
v -0.308658 4.853580 -0.461939
v -0.392847 4.729218 -0.587938
v -0.607297 4.786940 -0.933279
v -0.513280 4.404794 -0.768177
v -0.544895 4.217201 -0.815493
v -0.555569 4.022111 -0.831469
v -0.544895 3.827021 -0.815493
v -0.513280 3.639427 -0.768177
v -0.461939 3.466541 -0.691341
v -0.392847 3.315004 -0.587938
v -0.308658 3.190641 -0.461939
v -0.212607 3.098231 -0.318190
v -0.108386 3.041326 -0.162212
v -0.074658 5.002896 -0.180240
v -0.146446 4.945991 -0.353553
v -0.212607 5.163677 -0.637686
v -0.270598 4.729218 -0.653281
v -0.318189 4.577681 -0.768177
v -0.353553 4.404794 -0.853553
v -0.375330 4.217201 -0.906127
v -0.382683 4.022111 -0.923879
v -0.472456 3.728719 -1.147197
v -0.353553 3.639427 -0.853553
v -0.318189 3.466541 -0.768177
v -0.270598 3.315004 -0.653281
v -0.212607 3.190641 -0.513279
v -0.146446 3.098231 -0.353553
v -0.105635 2.890016 -0.204977
v -0.038060 5.002896 -0.191342
v -0.074658 4.945991 -0.375330
v -0.108386 4.853580 -0.544895
v -0.137950 4.729218 -0.693520
v -0.162211 4.577681 -0.815493
v -0.180240 4.404794 -1.141576
v -0.191341 4.217201 -0.961939
v -0.195090 4.022111 -0.980784
v -0.191341 3.827021 -0.961939
v -0.180240 3.639427 -0.906127
v -0.162211 3.466541 -0.815493
v -0.137950 3.315004 -0.693520
v -0.128649 2.948610 -0.691202
v -0.074658 3.098231 -0.375330
v -0.038060 3.041326 -0.191342
v 0.000000 5.002896 -0.195090
v 0.000000 4.945991 -0.382683
v 0.000000 4.729218 -0.707107
v 0.000000 4.404794 -0.923879
v 0.000000 3.639427 -0.923879
v 0.000000 3.315004 -0.707107
v 0.000000 3.190641 -0.555570
v 0.000000 3.098231 -0.382683
v 0.000000 3.041326 -0.195090
vn 0.0464 0.8810 -0.4709
vn -0.5853 0.2819 -0.7602
vn -0.5195 0.8095 -0.2735
vn -0.5599 -0.7754 -0.2919
vn -0.5184 0.0554 -0.8533
vn 0.0624 -0.7715 -0.6332
vn 0.0865 0.4696 -0.8786
vn 0.0464 -0.8810 -0.4709
vn 0.0938 0.2890 -0.9527
vn 0.0286 -0.9565 -0.2902
vn 0.6031 0.6031 -0.5221
vn 0.0097 0.9951 -0.0980
vn 0.0097 -0.9951 -0.0980
vn 0.6031 -0.6031 -0.5221
vn 0.0286 0.9565 -0.2902
vn 0.0938 -0.2890 -0.9527
vn -0.7666 0.2389 -0.5960
vn 0.2779 -0.2890 -0.9161
vn 0.1374 0.8810 -0.4528
vn 0.8404 0.3236 -0.4348
vn 0.5898 0.8064 -0.0427
vn 0.6407 -0.7677 -0.0115
vn 0.8121 0.0421 -0.5820
vn 0.1847 -0.7715 -0.6088
vn 0.2563 0.4696 -0.8448
vn 0.1374 -0.8810 -0.4528
vn 0.2779 0.2890 -0.9161
vn 0.0846 -0.9565 -0.2790
vn 0.2889 0.0976 -0.9524
vn -0.9718 0.1168 -0.2050
vn 0.0286 -0.9951 -0.0942
vn 0.2889 -0.0976 -0.9524
vn 0.4162 0.4696 -0.7786
vn 0.2230 -0.8810 -0.4173
vn -0.1181 0.6432 -0.7565
vn 0.1374 -0.9565 -0.2571
vn -0.1263 -0.4542 -0.8819
vn 0.8325 0.1084 0.5434
vn 0.0464 -0.9951 -0.0869
vn 0.4691 -0.0975 -0.8777
vn 0.9650 0.2316 0.1231
vn 0.4513 -0.2890 -0.8443
vn 0.2230 0.8810 -0.4173
vn 0.4162 -0.4696 -0.7786
vn 0.2999 0.7715 -0.5611
vn 0.3651 -0.6326 -0.6831
vn 0.3651 0.6326 -0.6831
vn 0.2999 -0.7715 -0.5611
vn 0.0943 0.2886 -0.9528
vn 0.3002 0.8810 -0.3658
vn -0.1628 -0.7449 -0.6470
vn 0.4036 0.7715 -0.4918
vn 0.4913 -0.6326 -0.5987
vn 0.4913 0.6326 -0.5987
vn -0.0102 -0.2783 -0.9604
vn 0.5601 0.4696 -0.6825
vn -0.6576 -0.6188 -0.4297
vn 0.7434 0.6472 -0.1686
vn 0.1850 -0.9565 -0.2254
vn 0.8619 -0.4627 -0.2075
vn 0.0625 0.9951 -0.0761
vn 0.0625 -0.9951 -0.0761
vn 0.6314 -0.0975 -0.7693
vn 0.1850 0.9565 -0.2254
vn 0.4343 -0.6371 0.6368
vn 0.7400 0.2890 -0.6073
vn 0.2254 -0.9565 -0.1850
vn 0.7693 0.0975 -0.6314
vn 0.0761 0.9951 -0.0625
vn 0.0761 -0.9951 -0.0625
vn 0.7693 -0.0975 -0.6314
vn 0.2254 0.9565 -0.1850
vn 0.9448 0.3230 -0.0552
vn -0.5539 0.6251 -0.5499
vn 0.6306 -0.7475 0.2088
vn 0.1888 0.2962 -0.9363
vn 0.5987 -0.6326 -0.4913
vn -0.1385 0.7821 -0.6075
vn 0.9553 -0.2956 -0.0021
vn 0.4133 0.0380 -0.9098
vn 0.2314 0.4886 0.8413
vn 0.7786 -0.4696 -0.4162
vn 0.9464 0.1733 0.2725
vn 0.6831 -0.6326 -0.3651
vn 0.4967 0.7792 0.3823
vn 0.5611 -0.7715 -0.2999
vn 0.9995 0.0233 -0.0207
vn 0.4173 -0.8810 -0.2230
vn 0.3358 0.6384 -0.6926
vn 0.2571 -0.9565 -0.1374
vn 0.4042 -0.4415 -0.8011
vn 0.0869 0.9951 -0.0464
vn 0.0869 -0.9951 -0.0464
vn 0.8777 -0.0975 -0.4691
vn 0.2571 0.9565 -0.1374
vn 0.8443 -0.2890 -0.4513
vn 0.6863 0.6603 0.3050
vn 0.2790 -0.9565 -0.0846
vn 0.8038 -0.4891 0.3387
vn 0.0942 0.9951 -0.0286
vn 0.0942 -0.9951 -0.0286
vn 0.9524 -0.0975 -0.2889
vn 0.2790 0.9565 -0.0846
vn 0.9161 -0.2890 -0.2779
vn 0.4528 0.8810 -0.1374
vn 0.3467 0.4002 -0.8483
vn 0.6088 0.7715 -0.1847
vn 0.1015 -0.7818 -0.6152
vn 0.7412 0.6326 -0.2248
vn 0.6088 -0.7715 -0.1847
vn 0.8448 0.4696 -0.2563
vn 0.4528 -0.8810 -0.1374
vn 0.6439 0.4011 0.6515
vn -0.1102 0.6809 -0.7240
vn 0.3285 -0.7817 0.5302
vn 0.7339 0.0515 -0.6773
vn 0.6332 -0.7715 -0.0624
vn 0.8786 0.4696 -0.0865
vn 0.4709 -0.8810 -0.0464
vn 0.9527 0.2890 -0.0938
vn 0.2902 -0.9565 -0.0286
vn 0.9904 0.0975 -0.0975
vn 0.0980 0.9951 -0.0097
vn 0.0980 -0.9951 -0.0097
vn 0.9904 -0.0975 -0.0975
vn 0.2902 0.9565 -0.0286
vn 0.9527 -0.2890 -0.0938
vn 0.4709 0.8810 -0.0464
vn 0.4476 -0.3247 -0.8332
vn 0.6909 -0.5112 -0.5112
vn 0.0980 0.9951 0.0097
vn 0.0208 -0.2110 -0.9773
vn 0.9904 -0.0975 0.0976
vn -0.1030 0.2901 -0.9514
vn 0.9527 -0.2890 0.0938
vn 0.6520 0.3648 -0.6647
vn 0.8786 -0.4696 0.0865
vn -0.1102 0.6809 0.7240
vn 0.7708 -0.6326 0.0759
vn 0.7339 0.0515 0.6773
vn 0.7916 -0.2702 -0.5480
vn 0.8786 0.4696 0.0865
vn 0.0090 -0.6389 -0.7692
vn 0.4640 0.7028 -0.5392
vn 0.7412 -0.6326 0.2248
vn 0.7412 0.6326 0.2248
vn 0.5036 -0.2300 0.8327
vn 0.8448 0.4696 0.2563
vn -0.3289 -0.5989 0.7301
vn 0.2401 0.6997 0.6729
vn 0.1025 -0.3514 0.9306
vn 0.4587 -0.5019 0.7333
vn 0.0942 0.9951 0.0286
vn -0.3486 -0.2452 0.9046
vn 0.9524 -0.0975 0.2889
vn -0.4592 0.2901 0.8396
vn 0.8554 0.3734 -0.3591
vn 0.3480 0.3648 0.8636
vn 0.4798 -0.7483 -0.4581
vn 0.6088 0.7715 0.1847
vn 0.0869 0.9951 0.0464
vn 0.0869 -0.9951 0.0464
vn 0.8777 -0.0975 0.4691
vn 0.2571 0.9565 0.1374
vn 0.2966 0.4145 0.8603
vn 0.4173 0.8810 0.2230
vn -0.0450 -0.7477 0.6626
vn 0.5611 0.7715 0.2999
vn 0.6831 -0.6326 0.3651
vn 0.3831 0.7327 -0.5625
vn 0.5611 -0.7715 0.2999
vn 0.9898 -0.1066 -0.0945
vn 0.4173 -0.8810 0.2230
vn 0.8443 0.2890 0.4513
vn 0.2571 -0.9565 0.1374
vn 0.8777 0.0975 0.4691
vn -0.4459 0.7069 0.5491
vn 0.4918 -0.7715 0.4036
vn 0.2469 -0.1556 0.9565
vn 0.3658 -0.8810 0.3002
vn 0.7400 0.2890 0.6073
vn 0.2254 -0.9565 0.1850
vn 0.8091 0.5873 -0.0215
vn 0.0761 0.9951 0.0625
vn 0.0761 -0.9951 0.0625
vn 0.8008 -0.5973 -0.0440
vn 0.4603 0.4694 -0.7535
vn 0.7400 -0.2890 0.6073
vn 0.9372 0.2005 -0.2854
vn 0.6825 -0.4696 0.5601
vn 0.4918 0.7715 0.4036
vn 0.5987 -0.6326 0.4913
vn -0.1399 -0.6357 0.7591
vn -0.7011 0.5433 0.4619
vn 0.6073 -0.2890 0.7400
vn -0.2436 0.2760 0.9298
vn 0.5601 -0.4696 0.6825
vn 0.4036 0.7715 0.4918
vn 0.9263 -0.1832 0.3294
vn 0.4913 0.6326 0.5987
vn 0.5597 -0.7600 -0.3305
vn 0.5601 0.4696 0.6825
vn 0.3002 -0.8810 0.3658
vn 0.6073 0.2890 0.7400
vn 0.1850 -0.9565 0.2254
vn -0.1147 0.6263 0.7711
vn 0.0625 0.9951 0.0761
vn 0.0625 -0.9951 0.0761
vn -0.5189 -0.7602 0.3909
vn 0.4162 0.4696 0.7786
vn 0.2230 -0.8810 0.4173
vn 0.4513 0.2890 0.8443
vn 0.1374 -0.9565 0.2571
vn 0.4691 0.0975 0.8777
vn 0.0464 0.9951 0.0869
vn 0.0464 -0.9951 0.0869
vn 0.8053 0.4656 0.3672
vn 0.1374 0.9565 0.2571
vn 0.7072 -0.6910 0.1495
vn 0.2230 0.8810 0.4173
vn 0.4162 -0.4696 0.7786
vn 0.2999 0.7715 0.5611
vn -0.0498 -0.1837 0.9817
vn 0.3651 0.6326 0.6831
vn 0.0846 0.9565 0.2790
vn -0.3665 -0.6824 0.6325
vn 0.6930 0.6810 -0.2368
vn 0.2563 -0.4696 0.8448
vn 0.8233 0.2467 0.5112
vn 0.2248 -0.6326 0.7412
vn 0.2248 0.6326 0.7412
vn 0.1847 -0.7715 0.6088
vn 0.6041 0.7359 0.3056
vn 0.1374 -0.8810 0.4528
vn 0.7164 -0.2412 0.6547
vn 0.0846 -0.9565 0.2790
vn 0.2889 0.0975 0.9524
vn 0.0286 0.9951 0.0942
vn 0.0286 -0.9951 0.0942
vn -0.2838 0.4442 0.8498
vn -0.4895 0.7442 0.4545
vn 0.0464 -0.8810 0.4709
vn -0.4589 -0.2983 0.8369
vn 0.0286 -0.9565 0.2902
vn 0.0975 0.0975 0.9904
vn 0.0097 0.9951 0.0980
vn 0.0097 -0.9951 0.0980
vn 0.0975 -0.0975 0.9904
vn 0.0286 0.9565 0.2902
vn 0.0938 -0.2890 0.9527
vn -0.8086 0.5874 -0.0337
vn 0.0865 -0.4696 0.8786
vn -0.6361 0.1368 0.7594
vn 0.7101 0.0054 0.7041
vn 0.0759 0.6326 0.7708
vn 0.6792 -0.7338 -0.0176
vn -0.0938 -0.2890 0.9527
vn -0.0464 0.8810 0.4709
vn -0.0865 -0.4696 0.8786
vn -0.0624 0.7715 0.6332
vn -0.7275 0.0386 0.6850
vn -0.0759 0.6326 0.7708
vn -0.6960 -0.7163 -0.0503
vn -0.0865 0.4696 0.8786
vn 0.5022 -0.5630 0.6563
vn -0.0938 0.2890 0.9527
vn 0.8455 -0.5338 -0.0094
vn 0.4396 0.5670 0.6966
vn -0.0097 0.9951 0.0980
vn -0.0097 -0.9951 0.0980
vn 0.4396 -0.5670 0.6966
vn -0.0286 0.9565 0.2902
vn -0.7419 -0.5340 0.4055
vn -0.2779 0.2890 0.9161
vn -0.7986 -0.4777 -0.3661
vn -0.6686 0.5604 0.4888
vn 0.9772 0.0678 0.2012
vn -0.0286 -0.9951 0.0942
vn -0.6686 -0.5604 0.4888
vn 0.7871 0.1815 0.5896
vn 0.2923 0.3040 0.9067
vn -0.1374 0.8810 0.4528
vn 0.4477 -0.7481 0.4898
vn 0.7500 0.6473 0.1359
vn -0.2248 -0.6326 0.7412
vn 0.3582 0.0336 0.9330
vn -0.1847 -0.7715 0.6088
vn -0.2563 0.4696 0.8448
vn -0.6632 -0.7484 0.0034
vn -0.6250 0.7063 -0.3325
vn -0.3651 -0.6326 0.6831
vn -0.8827 0.1089 0.4572
vn -0.2999 -0.7715 0.5611
vn -0.4162 0.4696 0.7786
vn -0.2230 -0.8810 0.4173
vn 0.2142 0.6760 0.7051
vn -0.1374 -0.9565 0.2571
vn 0.0857 -0.4242 0.9015
vn -0.8279 0.1774 -0.5322
vn -0.0464 -0.9951 0.0869
vn -0.4691 -0.0975 0.8777
vn -0.9547 0.2775 -0.1074
vn -0.8514 0.3213 0.4145
vn -0.2230 0.8810 0.4173
vn -0.1850 -0.9565 0.2254
vn -0.8652 -0.4331 0.2527
vn -0.0625 0.9951 0.0761
vn -0.0625 -0.9951 0.0761
vn -0.6314 -0.0975 0.7693
vn -0.1850 0.9565 0.2254
vn -0.6073 -0.2890 0.7400
vn -0.3002 0.8810 0.3658
vn -0.5601 -0.4696 0.6825
vn -0.4036 0.7715 0.4918
vn 0.0136 0.0175 0.9998
vn -0.4913 0.6326 0.5987
vn 0.5815 -0.6860 0.4373
vn -0.5601 0.4696 0.6825
vn -0.3002 -0.8810 0.3658
vn -0.7311 0.6799 0.0565
vn -0.1434 0.2249 0.9638
vn -0.9982 0.0468 -0.0363
vn -0.5987 0.6326 0.4913
vn -0.4248 -0.6664 -0.6127
vn -0.6825 0.4696 0.5601
vn -0.3658 -0.8810 0.3002
vn -0.7400 0.2890 0.6073
vn -0.2254 -0.9565 0.1850
vn -0.7693 0.0975 0.6314
vn -0.0761 0.9951 0.0625
vn -0.0761 -0.9951 0.0625
vn -0.7693 -0.0975 0.6314
vn -0.2254 0.9565 0.1850
vn -0.7400 -0.2890 0.6073
vn 0.5443 0.6333 0.5502
vn -0.6825 -0.4696 0.5601
vn -0.4376 -0.4185 0.7958
vn -0.0869 0.9951 0.0464
vn -0.0869 -0.9951 0.0464
vn -0.4105 0.4373 0.8002
vn -0.2571 0.9565 0.1374
vn -0.1393 -0.6931 0.7072
vn -0.2737 0.5779 -0.7688
vn -0.7786 -0.4696 0.4162
vn -0.9463 0.1653 -0.2779
vn -0.6831 -0.6326 0.3651
vn -0.0129 0.7851 0.6192
vn -0.5611 -0.7715 0.2999
vn -0.4439 -0.1385 0.8853
vn -0.4173 -0.8810 0.2230
vn -0.2183 0.6748 0.7050
vn -0.2571 -0.9565 0.1374
vn -0.7412 -0.6326 0.2248
vn -0.4376 0.7837 -0.4408
vn -0.6088 -0.7715 0.1847
vn -0.9339 -0.1523 -0.3234
vn -0.4528 -0.8810 0.1374
vn -0.6468 0.6771 -0.3509
vn -0.2790 -0.9565 0.0846
vn -0.8678 -0.4238 -0.2594
vn -0.0942 0.9951 0.0286
vn -0.0942 -0.9951 0.0286
vn -0.8046 0.4883 -0.3378
vn -0.2790 0.9565 0.0846
vn -0.5239 -0.7098 -0.4708
vn -0.4528 0.8810 0.1374
vn -0.8448 -0.4696 0.2563
vn -0.6088 0.7715 0.1847
vn -0.0980 0.9951 0.0097
vn -0.0980 -0.9951 0.0097
vn -0.9904 -0.0975 0.0975
vn -0.2902 0.9565 0.0286
vn -0.9527 -0.2890 0.0938
vn -0.4709 0.8810 0.0464
vn -0.6259 0.2877 0.7249
vn -0.0662 0.7731 0.6308
vn -0.1793 -0.7758 0.6049
vn -0.7490 0.0834 0.6573
vn -0.6332 -0.7715 0.0624
vn -0.8786 0.4696 0.0865
vn -0.4815 -0.2641 0.8357
vn -0.9527 0.2890 0.0938
vn 0.2490 -0.3800 0.8908
vn -0.9904 0.0975 0.0975
vn -0.7490 0.0834 -0.6573
vn -0.6332 -0.7715 -0.0624
vn -0.8786 0.4696 -0.0865
vn -0.4815 -0.2641 -0.8357
vn -0.9527 0.2890 -0.0938
vn 0.2490 -0.3800 -0.8908
vn -0.6705 0.5821 0.4601
vn -0.0097 0.0987 0.9951
vn -0.0980 -0.9951 -0.0097
vn -0.6187 -0.6083 0.4972
vn -0.4197 0.1562 0.8941
vn -0.9527 -0.2890 -0.0938
vn -0.4709 0.8810 -0.0464
vn -0.6259 0.2877 -0.7249
vn -0.0662 0.7731 -0.6308
vn -0.1793 -0.7758 -0.6049
vn -0.4675 -0.5708 -0.6750
vn -0.0657 0.2251 -0.9721
vn -0.9161 -0.2890 -0.2779
vn -0.4528 0.8810 -0.1374
vn -0.8448 -0.4696 -0.2563
vn -0.6088 0.7715 -0.1847
vn -0.7412 -0.6326 -0.2248
vn -0.4379 0.7838 0.4405
vn -0.6088 -0.7715 -0.1847
vn -0.9536 -0.1033 0.2830
vn -0.4528 -0.8810 -0.1374
vn -0.9161 0.2890 -0.2779
vn -0.2790 -0.9565 -0.0846
vn -0.5194 0.5445 -0.6585
vn 0.3606 0.1759 -0.9160
vn -0.0942 -0.9951 -0.0286
vn -0.4027 -0.7707 0.4937
vn -0.4653 -0.1137 -0.8778
vn -0.4173 -0.8810 -0.2231
vn -0.8443 0.2890 -0.4513
vn -0.2571 -0.9565 -0.1374
vn -0.8777 0.0975 -0.4691
vn -0.0869 0.9951 -0.0464
vn -0.0869 -0.9951 -0.0464
vn -0.8777 -0.0975 -0.4691
vn -0.2571 0.9565 -0.1374
vn -0.8443 -0.2890 -0.4513
vn -0.1156 0.2440 0.9629
vn -0.7786 -0.4696 -0.4162
vn -0.9130 -0.0402 0.4059
vn -0.9803 -0.1927 0.0424
vn 0.0143 0.7825 -0.6225
vn -0.9414 0.3348 -0.0415
vn 0.5391 0.6376 -0.5502
vn -0.5443 -0.7389 0.3972
vn -0.1997 0.3132 -0.9285
vn -0.2826 -0.1178 -0.9520
vn -0.5987 0.6326 -0.4913
vn 0.4120 -0.7244 -0.5528
vn -0.6825 0.4696 -0.5601
vn -0.3658 -0.8810 -0.3002
vn -0.7343 0.6752 0.0696
vn -0.2254 -0.9565 -0.1850
vn -0.8896 -0.4542 -0.0481
vn -0.0761 0.9951 -0.0625
vn -0.0761 -0.9951 -0.0625
vn -0.7693 -0.0975 -0.6314
vn -0.2254 0.9565 -0.1850
vn -0.3002 -0.8810 -0.3658
vn 0.1104 0.6858 -0.7194
vn -0.1850 -0.9565 -0.2254
vn -0.0094 -0.4797 -0.8774
vn -0.0625 0.9951 -0.0761
vn -0.0625 -0.9951 -0.0761
vn -0.6314 -0.0975 -0.7693
vn -0.1850 0.9565 -0.2254
vn -0.0262 0.3478 -0.9372
vn -0.3002 0.8810 -0.3658
vn 0.4173 -0.7360 -0.5331
vn -0.4036 0.7715 -0.4918
vn -0.4913 -0.6326 -0.5987
vn -0.5941 0.7649 0.2490
vn -0.4036 -0.7715 -0.4918
vn -0.9499 -0.1022 -0.2954
vn -0.6463 0.6306 0.4297
vn -0.4162 -0.4696 -0.7786
vn -0.8693 0.3172 -0.3791
vn -0.3651 -0.6326 -0.6831
vn 0.4899 0.7566 -0.4331
vn -0.2999 -0.7715 -0.5611
vn 0.1146 -0.1294 -0.9849
vn -0.2230 -0.8810 -0.4173
vn -0.4513 0.2890 -0.8443
vn -0.8991 -0.4350 0.0495
vn -0.4691 0.0975 -0.8777
vn -0.0464 0.9951 -0.0869
vn -0.8289 -0.1661 0.5342
vn -0.7736 0.3496 -0.5285
vn -0.1374 0.9565 -0.2571
vn -0.7040 -0.6706 -0.2338
vn -0.6820 -0.1803 -0.7088
vn 0.5800 -0.5658 -0.5860
vn -0.2889 0.0975 -0.9524
vn -0.0286 0.9951 -0.0942
vn 0.8984 -0.3817 -0.2170
vn 0.1775 0.3532 -0.9185
vn -0.0846 0.9565 -0.2790
vn 0.3378 -0.6725 -0.6585
vn 0.8739 0.4825 -0.0592
vn -0.2563 -0.4696 -0.8448
vn 0.4415 0.1886 -0.8772
vn -0.2248 -0.6326 -0.7412
vn -0.2248 0.6326 -0.7412
vn -0.8143 -0.2619 -0.5180
vn -0.5189 0.6864 -0.5095
vn -0.7021 -0.6640 0.2572
vn -0.0865 -0.4696 -0.8786
vn -0.0624 0.7715 -0.6332
vn -0.0759 -0.6326 -0.7708
vn -0.0759 0.6326 -0.7708
vn 0.5730 -0.2353 -0.7851
vn 0.3560 0.7128 -0.6043
vn 0.7683 -0.6401 -0.0099
vn 0.4516 -0.2894 -0.8439
vn -0.0286 -0.9565 -0.2902
vn -0.6031 0.6031 -0.5221
vn -0.0097 0.9951 -0.0980
vn -0.0097 -0.9951 -0.0980
vn -0.6031 -0.6031 -0.5221
vn -0.0286 0.9565 -0.2902
vn -0.0938 -0.2890 -0.9527
vn -0.0464 0.8810 -0.4709
vt 0.750000 0.812500
vt 0.750000 0.875000
vt 0.718750 0.875000
vt 0.718750 0.812500
vt 0.750000 0.312500
vt 0.750000 0.375000
vt 0.718750 0.375000
vt 0.718750 0.312500
vt 0.750000 0.750000
vt 0.718750 0.750000
vt 0.750000 0.250000
vt 0.718750 0.250000
vt 0.750000 0.687500
vt 0.718750 0.687500
vt 0.750000 0.187500
vt 0.718750 0.187500
vt 0.750000 0.625000
vt 0.718750 0.625000
vt 0.750000 0.125000
vt 0.718750 0.125000
vt 0.750000 0.562500
vt 0.718750 0.562500
vt 0.750000 0.062500
vt 0.718750 0.062500
vt 0.750000 0.500000
vt 0.718750 0.500000
vt 0.750000 0.937500
vt 0.734375 1.000000
vt 0.718750 0.937500
vt 0.734375 0.000000
vt 0.750000 0.437500
vt 0.718750 0.437500
vt 0.687500 0.937500
vt 0.687500 0.875000
vt 0.687500 0.437500
vt 0.687500 0.375000
vt 0.687500 0.812500
vt 0.687500 0.312500
vt 0.687500 0.750000
vt 0.687500 0.250000
vt 0.687500 0.687500
vt 0.687500 0.187500
vt 0.687500 0.625000
vt 0.687500 0.125000
vt 0.687500 0.562500
vt 0.687500 0.062500
vt 0.687500 0.500000
vt 0.703125 1.000000
vt 0.703125 0.000000
vt 0.656250 0.687500
vt 0.656250 0.625000
vt 0.656250 0.187500
vt 0.656250 0.125000
vt 0.656250 0.562500
vt 0.656250 0.062500
vt 0.656250 0.500000
vt 0.671875 1.000000
vt 0.656250 0.937500
vt 0.671875 0.000000
vt 0.656250 0.437500
vt 0.656250 0.875000
vt 0.656250 0.375000
vt 0.656250 0.812500
vt 0.656250 0.312500
vt 0.656250 0.750000
vt 0.656250 0.250000
vt 0.625000 0.437500
vt 0.625000 0.375000
vt 0.625000 0.875000
vt 0.625000 0.812500
vt 0.625000 0.312500
vt 0.625000 0.750000
vt 0.625000 0.250000
vt 0.625000 0.687500
vt 0.625000 0.187500
vt 0.625000 0.625000
vt 0.625000 0.125000
vt 0.625000 0.562500
vt 0.625000 0.062500
vt 0.625000 0.500000
vt 0.640625 1.000000
vt 0.625000 0.937500
vt 0.640625 0.000000
vt 0.593750 0.187500
vt 0.593750 0.125000
vt 0.593750 0.625000
vt 0.593750 0.562500
vt 0.593750 0.062500
vt 0.593750 0.500000
vt 0.609375 1.000000
vt 0.593750 0.937500
vt 0.609375 0.000000
vt 0.593750 0.437500
vt 0.593750 0.875000
vt 0.593750 0.375000
vt 0.593750 0.812500
vt 0.593750 0.312500
vt 0.593750 0.750000
vt 0.593750 0.250000
vt 0.593750 0.687500
vt 0.562500 0.875000
vt 0.562500 0.812500
vt 0.562500 0.375000
vt 0.562500 0.312500
vt 0.562500 0.750000
vt 0.562500 0.250000
vt 0.562500 0.687500
vt 0.562500 0.187500
vt 0.562500 0.625000
vt 0.562500 0.125000
vt 0.562500 0.562500
vt 0.562500 0.062500
vt 0.562500 0.500000
vt 0.578125 1.000000
vt 0.562500 0.937500
vt 0.578125 0.000000
vt 0.562500 0.437500
vt 0.531250 0.625000
vt 0.531250 0.562500
vt 0.531250 0.125000
vt 0.531250 0.062500
vt 0.531250 0.500000
vt 0.546875 1.000000
vt 0.531250 0.937500
vt 0.546875 0.000000
vt 0.531250 0.437500
vt 0.531250 0.875000
vt 0.531250 0.375000
vt 0.531250 0.812500
vt 0.531250 0.312500
vt 0.531250 0.750000
vt 0.531250 0.250000
vt 0.531250 0.687500
vt 0.531250 0.187500
vt 0.500000 0.375000
vt 0.500000 0.312500
vt 0.500000 0.812500
vt 0.500000 0.750000
vt 0.500000 0.250000
vt 0.500000 0.687500
vt 0.500000 0.187500
vt 0.500000 0.625000
vt 0.500000 0.125000
vt 0.500000 0.562500
vt 0.500000 0.062500
vt 0.500000 0.500000
vt 0.515625 1.000000
vt 0.500000 0.937500
vt 0.515625 0.000000
vt 0.500000 0.437500
vt 0.500000 0.875000
vt 0.468750 0.125000
vt 0.468750 0.062500
vt 0.468750 0.562500
vt 0.468750 0.500000
vt 0.484375 1.000000
vt 0.468750 0.937500
vt 0.484375 0.000000
vt 0.468750 0.437500
vt 0.468750 0.875000
vt 0.468750 0.375000
vt 0.468750 0.812500
vt 0.468750 0.312500
vt 0.468750 0.750000
vt 0.468750 0.250000
vt 0.468750 0.687500
vt 0.468750 0.187500
vt 0.468750 0.625000
vt 0.437500 0.312500
vt 0.437500 0.250000
vt 0.437500 0.750000
vt 0.437500 0.687500
vt 0.437500 0.187500
vt 0.437500 0.625000
vt 0.437500 0.125000
vt 0.437500 0.562500
vt 0.437500 0.062500
vt 0.437500 0.500000
vt 0.453125 1.000000
vt 0.437500 0.937500
vt 0.453125 0.000000
vt 0.437500 0.437500
vt 0.437500 0.875000
vt 0.437500 0.375000
vt 0.437500 0.812500
vt 0.421875 1.000000
vt 0.406250 0.937500
vt 0.421875 0.000000
vt 0.406250 0.062500
vt 0.406250 0.500000
vt 0.406250 0.437500
vt 0.406250 0.875000
vt 0.406250 0.375000
vt 0.406250 0.812500
vt 0.406250 0.312500
vt 0.406250 0.750000
vt 0.406250 0.250000
vt 0.406250 0.687500
vt 0.406250 0.187500
vt 0.406250 0.625000
vt 0.406250 0.125000
vt 0.406250 0.562500
vt 0.375000 0.750000
vt 0.375000 0.687500
vt 0.375000 0.250000
vt 0.375000 0.187500
vt 0.375000 0.625000
vt 0.375000 0.125000
vt 0.375000 0.562500
vt 0.375000 0.062500
vt 0.375000 0.500000
vt 0.390625 1.000000
vt 0.375000 0.937500
vt 0.390625 0.000000
vt 0.375000 0.437500
vt 0.375000 0.875000
vt 0.375000 0.375000
vt 0.375000 0.812500
vt 0.375000 0.312500
vt 0.343750 0.500000
vt 0.343750 0.437500
vt 0.343750 0.937500
vt 0.343750 0.875000
vt 0.343750 0.375000
vt 0.343750 0.812500
vt 0.343750 0.312500
vt 0.343750 0.750000
vt 0.343750 0.250000
vt 0.343750 0.687500
vt 0.343750 0.187500
vt 0.343750 0.625000
vt 0.343750 0.125000
vt 0.343750 0.562500
vt 0.343750 0.062500
vt 0.359375 1.000000
vt 0.359375 0.000000
vt 0.312500 0.250000
vt 0.312500 0.187500
vt 0.312500 0.687500
vt 0.312500 0.625000
vt 0.312500 0.125000
vt 0.312500 0.562500
vt 0.312500 0.062500
vt 0.312500 0.500000
vt 0.328125 1.000000
vt 0.312500 0.937500
vt 0.328125 0.000000
vt 0.312500 0.437500
vt 0.312500 0.875000
vt 0.312500 0.375000
vt 0.312500 0.812500
vt 0.312500 0.312500
vt 0.312500 0.750000
vt 0.281250 0.937500
vt 0.281250 0.875000
vt 0.281250 0.437500
vt 0.281250 0.375000
vt 0.281250 0.812500
vt 0.281250 0.312500
vt 0.281250 0.750000
vt 0.281250 0.250000
vt 0.281250 0.687500
vt 0.281250 0.187500
vt 0.281250 0.625000
vt 0.281250 0.125000
vt 0.281250 0.562500
vt 0.281250 0.062500
vt 0.281250 0.500000
vt 0.296875 1.000000
vt 0.296875 0.000000
vt 0.250000 0.687500
vt 0.250000 0.625000
vt 0.250000 0.187500
vt 0.250000 0.125000
vt 0.250000 0.562500
vt 0.250000 0.062500
vt 0.250000 0.500000
vt 0.265625 1.000000
vt 0.250000 0.937500
vt 0.265625 0.000000
vt 0.250000 0.437500
vt 0.250000 0.875000
vt 0.250000 0.375000
vt 0.250000 0.812500
vt 0.250000 0.312500
vt 0.250000 0.750000
vt 0.250000 0.250000
vt 0.218750 0.437500
vt 0.218750 0.375000
vt 0.218750 0.875000
vt 0.218750 0.812500
vt 0.218750 0.312500
vt 0.218750 0.750000
vt 0.218750 0.250000
vt 0.218750 0.687500
vt 0.218750 0.187500
vt 0.218750 0.625000
vt 0.218750 0.125000
vt 0.218750 0.562500
vt 0.218750 0.062500
vt 0.218750 0.500000
vt 0.234375 1.000000
vt 0.218750 0.937500
vt 0.234375 0.000000
vt 0.187500 0.187500
vt 0.187500 0.125000
vt 0.187500 0.625000
vt 0.187500 0.562500
vt 0.187500 0.062500
vt 0.187500 0.500000
vt 0.203125 1.000000
vt 0.187500 0.937500
vt 0.203125 0.000000
vt 0.187500 0.437500
vt 0.187500 0.875000
vt 0.187500 0.375000
vt 0.187500 0.812500
vt 0.187500 0.312500
vt 0.187500 0.750000
vt 0.187500 0.250000
vt 0.187500 0.687500
vt 0.156250 0.375000
vt 0.156250 0.312500
vt 0.156250 0.812500
vt 0.156250 0.750000
vt 0.156250 0.250000
vt 0.156250 0.687500
vt 0.156250 0.187500
vt 0.156250 0.625000
vt 0.156250 0.125000
vt 0.156250 0.562500
vt 0.156250 0.062500
vt 0.156250 0.500000
vt 0.171875 1.000000
vt 0.156250 0.937500
vt 0.171875 0.000000
vt 0.156250 0.437500
vt 0.156250 0.875000
vt 0.125000 0.125000
vt 0.125000 0.062500
vt 0.125000 0.562500
vt 0.125000 0.500000
vt 0.140625 1.000000
vt 0.125000 0.937500
vt 0.140625 0.000000
vt 0.125000 0.437500
vt 0.125000 0.875000
vt 0.125000 0.375000
vt 0.125000 0.812500
vt 0.125000 0.312500
vt 0.125000 0.750000
vt 0.125000 0.250000
vt 0.125000 0.687500
vt 0.125000 0.187500
vt 0.125000 0.625000
vt 0.093750 0.812500
vt 0.093750 0.750000
vt 0.093750 0.312500
vt 0.093750 0.250000
vt 0.093750 0.687500
vt 0.093750 0.187500
vt 0.093750 0.625000
vt 0.093750 0.125000
vt 0.093750 0.562500
vt 0.093750 0.062500
vt 0.093750 0.500000
vt 0.109375 1.000000
vt 0.093750 0.937500
vt 0.109375 0.000000
vt 0.093750 0.437500
vt 0.093750 0.875000
vt 0.093750 0.375000
vt 0.062500 0.562500
vt 0.062500 0.500000
vt 0.078125 1.000000
vt 0.062500 0.937500
vt 0.078125 0.000000
vt 0.062500 0.062500
vt 0.062500 0.437500
vt 0.062500 0.875000
vt 0.062500 0.375000
vt 0.062500 0.812500
vt 0.062500 0.312500
vt 0.062500 0.750000
vt 0.062500 0.250000
vt 0.062500 0.687500
vt 0.062500 0.187500
vt 0.062500 0.625000
vt 0.062500 0.125000
vt 0.031250 0.312500
vt 0.031250 0.250000
vt 0.031250 0.750000
vt 0.031250 0.687500
vt 0.031250 0.187500
vt 0.031250 0.625000
vt 0.031250 0.125000
vt 0.031250 0.562500
vt 0.031250 0.062500
vt 0.031250 0.500000
vt 0.046875 1.000000
vt 0.031250 0.937500
vt 0.046875 0.000000
vt 0.031250 0.437500
vt 0.031250 0.875000
vt 0.031250 0.375000
vt 0.031250 0.812500
vt 0.015625 1.000000
vt 0.000000 0.937500
vt 0.015625 0.000000
vt 0.000000 0.062500
vt 0.000000 0.500000
vt 0.000000 0.437500
vt 0.000000 0.875000
vt 0.000000 0.375000
vt 0.000000 0.812500
vt 0.000000 0.312500
vt 0.000000 0.750000
vt 0.000000 0.250000
vt 0.000000 0.687500
vt 0.000000 0.187500
vt 0.000000 0.625000
vt 0.000000 0.125000
vt 0.000000 0.562500
vt 1.000000 0.687500
vt 1.000000 0.750000
vt 0.968750 0.750000
vt 0.968750 0.687500
vt 1.000000 0.187500
vt 1.000000 0.250000
vt 0.968750 0.250000
vt 0.968750 0.187500
vt 1.000000 0.625000
vt 0.968750 0.625000
vt 1.000000 0.125000
vt 0.968750 0.125000
vt 1.000000 0.562500
vt 0.968750 0.562500
vt 1.000000 0.062500
vt 0.968750 0.062500
vt 1.000000 0.500000
vt 0.968750 0.500000
vt 1.000000 0.937500
vt 0.984375 1.000000
vt 0.968750 0.937500
vt 0.984375 0.000000
vt 1.000000 0.437500
vt 0.968750 0.437500
vt 1.000000 0.875000
vt 0.968750 0.875000
vt 1.000000 0.375000
vt 0.968750 0.375000
vt 1.000000 0.812500
vt 0.968750 0.812500
vt 1.000000 0.312500
vt 0.968750 0.312500
vt 0.937500 0.500000
vt 0.937500 0.437500
vt 0.937500 0.937500
vt 0.937500 0.875000
vt 0.937500 0.375000
vt 0.937500 0.812500
vt 0.937500 0.312500
vt 0.937500 0.750000
vt 0.937500 0.250000
vt 0.937500 0.687500
vt 0.937500 0.187500
vt 0.937500 0.625000
vt 0.937500 0.125000
vt 0.937500 0.562500
vt 0.937500 0.062500
vt 0.953125 1.000000
vt 0.953125 0.000000
vt 0.906250 0.250000
vt 0.906250 0.187500
vt 0.906250 0.687500
vt 0.906250 0.625000
vt 0.906250 0.125000
vt 0.906250 0.562500
vt 0.906250 0.062500
vt 0.906250 0.500000
vt 0.921875 1.000000
vt 0.906250 0.937500
vt 0.921875 0.000000
vt 0.906250 0.437500
vt 0.906250 0.875000
vt 0.906250 0.375000
vt 0.906250 0.812500
vt 0.906250 0.312500
vt 0.906250 0.750000
vt 0.875000 0.437500
vt 0.875000 0.375000
vt 0.875000 0.875000
vt 0.875000 0.812500
vt 0.875000 0.312500
vt 0.875000 0.750000
vt 0.875000 0.250000
vt 0.875000 0.687500
vt 0.875000 0.187500
vt 0.875000 0.625000
vt 0.875000 0.125000
vt 0.875000 0.562500
vt 0.875000 0.062500
vt 0.875000 0.500000
vt 0.890625 1.000000
vt 0.875000 0.937500
vt 0.890625 0.000000
vt 0.843750 0.187500
vt 0.843750 0.125000
vt 0.843750 0.625000
vt 0.843750 0.562500
vt 0.843750 0.062500
vt 0.843750 0.500000
vt 0.859375 1.000000
vt 0.843750 0.937500
vt 0.859375 0.000000
vt 0.843750 0.437500
vt 0.843750 0.875000
vt 0.843750 0.375000
vt 0.843750 0.812500
vt 0.843750 0.312500
vt 0.843750 0.750000
vt 0.843750 0.250000
vt 0.843750 0.687500
vt 0.812500 0.875000
vt 0.812500 0.812500
vt 0.812500 0.375000
vt 0.812500 0.312500
vt 0.812500 0.750000
vt 0.812500 0.250000
vt 0.812500 0.687500
vt 0.812500 0.187500
vt 0.812500 0.625000
vt 0.812500 0.125000
vt 0.812500 0.562500
vt 0.812500 0.062500
vt 0.812500 0.500000
vt 0.828125 1.000000
vt 0.812500 0.937500
vt 0.828125 0.000000
vt 0.812500 0.437500
vt 0.781250 0.625000
vt 0.781250 0.562500
vt 0.781250 0.125000
vt 0.781250 0.062500
vt 0.781250 0.500000
vt 0.796875 1.000000
vt 0.781250 0.937500
vt 0.796875 0.000000
vt 0.781250 0.437500
vt 0.781250 0.875000
vt 0.781250 0.375000
vt 0.781250 0.812500
vt 0.781250 0.312500
vt 0.781250 0.750000
vt 0.781250 0.250000
vt 0.781250 0.687500
vt 0.781250 0.187500
vt 0.765625 1.000000
vt 0.765625 0.000000
s 0
usemtl マテリアル
f 1/1/1 475/2/1 8/3/1 9/4/1
f 6/5/2 478/6/2 16/7/2 17/8/2
f 476/9/3 1/1/3 9/4/3 10/10/3
f 479/11/4 6/5/4 17/8/4 18/12/4
f 2/13/5 476/9/5 10/10/5 11/14/5
f 480/15/6 479/11/6 18/12/6 19/16/6
f 477/17/7 2/13/7 11/14/7 12/18/7
f 481/19/8 480/15/8 19/16/8 20/20/8
f 3/21/9 477/17/9 12/18/9 13/22/9
f 482/23/10 481/19/10 20/20/10 21/24/10
f 4/25/11 3/21/11 13/22/11 14/26/11
f 474/27/12 82/28/12 7/29/12
f 308/30/13 482/23/13 21/24/13
f 5/31/14 4/25/14 14/26/14 15/32/14
f 475/2/15 474/27/15 7/29/15 8/3/15
f 478/6/16 5/31/16 15/32/16 16/7/16
f 8/3/17 7/29/17 22/33/17 23/34/17
f 16/7/18 15/32/18 30/35/18 31/36/18
f 9/4/19 8/3/19 23/34/19 24/37/19
f 17/8/20 16/7/20 31/36/20 32/38/20
f 10/10/21 9/4/21 24/37/21 25/39/21
f 18/12/22 17/8/22 32/38/22 33/40/22
f 11/14/23 10/10/23 25/39/23 26/41/23
f 19/16/24 18/12/24 33/40/24 34/42/24
f 12/18/25 11/14/25 26/41/25 27/43/25
f 20/20/26 19/16/26 34/42/26 35/44/26
f 13/22/27 12/18/27 27/43/27 28/45/27
f 21/24/28 20/20/28 35/44/28 36/46/28
f 14/26/29 13/22/29 28/45/29 29/47/29
f 7/29/30 82/48/30 22/33/30
f 308/49/31 21/24/31 36/46/31
f 15/32/32 14/26/32 29/47/32 30/35/32
f 27/43/33 26/41/33 41/50/33 42/51/33
f 35/44/34 34/42/34 49/52/34 50/53/34
f 28/45/35 27/43/35 42/51/35 43/54/35
f 36/46/36 35/44/36 50/53/36 51/55/36
f 29/47/37 28/45/37 43/54/37 44/56/37
f 22/33/38 82/57/38 37/58/38
f 308/59/39 36/46/39 51/55/39
f 30/35/40 29/47/40 44/56/40 45/60/40
f 23/34/41 22/33/41 37/58/41 38/61/41
f 31/36/42 30/35/42 45/60/42 46/62/42
f 24/37/43 23/34/43 38/61/43 39/63/43
f 32/38/44 31/36/44 46/62/44 47/64/44
f 25/39/45 24/37/45 39/63/45 40/65/45
f 33/40/46 32/38/46 47/64/46 48/66/46
f 26/41/47 25/39/47 40/65/47 41/50/47
f 34/42/48 33/40/48 48/66/48 49/52/48
f 46/62/49 45/60/49 60/67/49 61/68/49
f 39/63/50 38/61/50 53/69/50 54/70/50
f 47/64/51 46/62/51 61/68/51 62/71/51
f 40/65/52 39/63/52 54/70/52 55/72/52
f 48/66/53 47/64/53 62/71/53 63/73/53
f 41/50/54 40/65/54 55/72/54 56/74/54
f 49/52/55 48/66/55 63/73/55 64/75/55
f 42/51/56 41/50/56 56/74/56 57/76/56
f 50/53/57 49/52/57 64/75/57 65/77/57
f 43/54/58 42/51/58 57/76/58 58/78/58
f 51/55/59 50/53/59 65/77/59 66/79/59
f 44/56/60 43/54/60 58/78/60 59/80/60
f 37/58/61 82/81/61 52/82/61
f 308/83/62 51/55/62 66/79/62
f 45/60/63 44/56/63 59/80/63 60/67/63
f 38/61/64 37/58/64 52/82/64 53/69/64
f 65/77/65 64/75/65 79/84/65 80/85/65
f 58/78/66 57/76/66 72/86/66 73/87/66
f 66/79/67 65/77/67 80/85/67 81/88/67
f 59/80/68 58/78/68 73/87/68 74/89/68
f 52/82/69 82/90/69 67/91/69
f 308/92/70 66/79/70 81/88/70
f 60/67/71 59/80/71 74/89/71 75/93/71
f 53/69/72 52/82/72 67/91/72 68/94/72
f 61/68/73 60/67/73 75/93/73 76/95/73
f 54/70/74 53/69/74 68/94/74 69/96/74
f 62/71/75 61/68/75 76/95/75 77/97/75
f 55/72/76 54/70/76 69/96/76 70/98/76
f 63/73/77 62/71/77 77/97/77 78/99/77
f 56/74/78 55/72/78 70/98/78 71/100/78
f 64/75/79 63/73/79 78/99/79 79/84/79
f 57/76/80 56/74/80 71/100/80 72/86/80
f 69/96/81 68/94/81 84/101/81 85/102/81
f 77/97/82 76/95/82 92/103/82 93/104/82
f 70/98/83 69/96/83 85/102/83 86/105/83
f 78/99/84 77/97/84 93/104/84 94/106/84
f 71/100/85 70/98/85 86/105/85 87/107/85
f 79/84/86 78/99/86 94/106/86 95/108/86
f 72/86/87 71/100/87 87/107/87 88/109/87
f 80/85/88 79/84/88 95/108/88 96/110/88
f 73/87/89 72/86/89 88/109/89 89/111/89
f 81/88/90 80/85/90 96/110/90 97/112/90
f 74/89/91 73/87/91 89/111/91 90/113/91
f 67/91/92 82/114/92 83/115/92
f 308/116/93 81/88/93 97/112/93
f 75/93/94 74/89/94 90/113/94 91/117/94
f 68/94/95 67/91/95 83/115/95 84/101/95
f 76/95/96 75/93/96 91/117/96 92/103/96
f 89/111/97 88/109/97 103/118/97 104/119/97
f 97/112/98 96/110/98 111/120/98 112/121/98
f 90/113/99 89/111/99 104/119/99 105/122/99
f 83/115/100 82/123/100 98/124/100
f 308/125/101 97/112/101 112/121/101
f 91/117/102 90/113/102 105/122/102 106/126/102
f 84/101/103 83/115/103 98/124/103 99/127/103
f 92/103/104 91/117/104 106/126/104 107/128/104
f 85/102/105 84/101/105 99/127/105 100/129/105
f 93/104/106 92/103/106 107/128/106 108/130/106
f 86/105/107 85/102/107 100/129/107 101/131/107
f 94/106/108 93/104/108 108/130/108 109/132/108
f 87/107/109 86/105/109 101/131/109 102/133/109
f 95/108/110 94/106/110 109/132/110 110/134/110
f 88/109/111 87/107/111 102/133/111 103/118/111
f 96/110/112 95/108/112 110/134/112 111/120/112
f 108/130/113 107/128/113 122/135/113 123/136/113
f 101/131/114 100/129/114 115/137/114 116/138/114
f 109/132/115 108/130/115 123/136/115 124/139/115
f 102/133/116 101/131/116 116/138/116 117/140/116
f 110/134/117 109/132/117 124/139/117 125/141/117
f 103/118/118 102/133/118 117/140/118 118/142/118
f 111/120/119 110/134/119 125/141/119 126/143/119
f 104/119/120 103/118/120 118/142/120 119/144/120
f 112/121/121 111/120/121 126/143/121 127/145/121
f 105/122/122 104/119/122 119/144/122 120/146/122
f 98/124/123 82/147/123 113/148/123
f 308/149/124 112/121/124 127/145/124
f 106/126/125 105/122/125 120/146/125 121/150/125
f 99/127/126 98/124/126 113/148/126 114/151/126
f 107/128/127 106/126/127 121/150/127 122/135/127
f 100/129/128 99/127/128 114/151/128 115/137/128
f 127/145/129 126/143/129 141/152/129 142/153/129
f 120/146/130 119/144/130 134/154/130 135/155/130
f 113/148/131 82/156/131 128/157/131
f 308/158/132 127/145/132 142/153/132
f 121/150/133 120/146/133 135/155/133 136/159/133
f 114/151/134 113/148/134 128/157/134 129/160/134
f 122/135/135 121/150/135 136/159/135 137/161/135
f 115/137/136 114/151/136 129/160/136 130/162/136
f 123/136/137 122/135/137 137/161/137 138/163/137
f 116/138/138 115/137/138 130/162/138 131/164/138
f 124/139/139 123/136/139 138/163/139 139/165/139
f 117/140/140 116/138/140 131/164/140 132/166/140
f 125/141/141 124/139/141 139/165/141 140/167/141
f 118/142/142 117/140/142 132/166/142 133/168/142
f 126/143/143 125/141/143 140/167/143 141/152/143
f 119/144/144 118/142/144 133/168/144 134/154/144
f 139/165/145 138/163/145 153/169/145 154/170/145
f 132/166/146 131/164/146 146/171/146 147/172/146
f 140/167/147 139/165/147 154/170/147 155/173/147
f 133/168/148 132/166/148 147/172/148 148/174/148
f 141/152/149 140/167/149 155/173/149 156/175/149
f 134/154/150 133/168/150 148/174/150 149/176/150
f 142/153/151 141/152/151 156/175/151 157/177/151
f 135/155/152 134/154/152 149/176/152 150/178/152
f 128/157/153 82/179/153 143/180/153
f 308/181/154 142/153/154 157/177/154
f 136/159/155 135/155/155 150/178/155 151/182/155
f 129/160/156 128/157/156 143/180/156 144/183/156
f 137/161/157 136/159/157 151/182/157 152/184/157
f 130/162/158 129/160/158 144/183/158 145/185/158
f 138/163/159 137/161/159 152/184/159 153/169/159
f 131/164/160 130/162/160 145/185/160 146/171/160
f 143/180/161 82/186/161 158/187/161
f 308/188/162 157/177/162 172/189/162
f 151/182/163 150/178/163 165/190/163 166/191/163
f 144/183/164 143/180/164 158/187/164 159/192/164
f 152/184/165 151/182/165 166/191/165 167/193/165
f 145/185/166 144/183/166 159/192/166 160/194/166
f 153/169/167 152/184/167 167/193/167 168/195/167
f 146/171/168 145/185/168 160/194/168 161/196/168
f 154/170/169 153/169/169 168/195/169 169/197/169
f 147/172/170 146/171/170 161/196/170 162/198/170
f 155/173/171 154/170/171 169/197/171 170/199/171
f 148/174/172 147/172/172 162/198/172 163/200/172
f 156/175/173 155/173/173 170/199/173 171/201/173
f 149/176/174 148/174/174 163/200/174 164/202/174
f 157/177/175 156/175/175 171/201/175 172/189/175
f 150/178/176 149/176/176 164/202/176 165/190/176
f 162/198/177 161/196/177 176/203/177 177/204/177
f 170/199/178 169/197/178 184/205/178 185/206/178
f 163/200/179 162/198/179 177/204/179 178/207/179
f 171/201/180 170/199/180 185/206/180 186/208/180
f 164/202/181 163/200/181 178/207/181 179/209/181
f 172/189/182 171/201/182 186/208/182 187/210/182
f 165/190/183 164/202/183 179/209/183 180/211/183
f 158/187/184 82/212/184 173/213/184
f 308/214/185 172/189/185 187/210/185
f 166/191/186 165/190/186 180/211/186 181/215/186
f 159/192/187 158/187/187 173/213/187 174/216/187
f 167/193/188 166/191/188 181/215/188 182/217/188
f 160/194/189 159/192/189 174/216/189 175/218/189
f 168/195/190 167/193/190 182/217/190 183/219/190
f 161/196/191 160/194/191 175/218/191 176/203/191
f 169/197/192 168/195/192 183/219/192 184/205/192
f 181/215/193 180/211/193 195/220/193 196/221/193
f 174/216/194 173/213/194 188/222/194 189/223/194
f 182/217/195 181/215/195 196/221/195 197/224/195
f 175/218/196 174/216/196 189/223/196 190/225/196
f 183/219/197 182/217/197 197/224/197 198/226/197
f 176/203/198 175/218/198 190/225/198 191/227/198
f 184/205/199 183/219/199 198/226/199 199/228/199
f 177/204/200 176/203/200 191/227/200 192/229/200
f 185/206/201 184/205/201 199/228/201 200/230/201
f 178/207/202 177/204/202 192/229/202 193/231/202
f 186/208/203 185/206/203 200/230/203 201/232/203
f 179/209/204 178/207/204 193/231/204 194/233/204
f 187/210/205 186/208/205 201/232/205 202/234/205
f 180/211/206 179/209/206 194/233/206 195/220/206
f 173/213/207 82/235/207 188/222/207
f 308/236/208 187/210/208 202/234/208
f 200/230/209 199/228/209 214/237/209 215/238/209
f 193/231/210 192/229/210 207/239/210 208/240/210
f 201/232/211 200/230/211 215/238/211 216/241/211
f 194/233/212 193/231/212 208/240/212 209/242/212
f 202/234/213 201/232/213 216/241/213 217/243/213
f 195/220/214 194/233/214 209/242/214 210/244/214
f 188/222/215 82/245/215 203/246/215
f 308/247/216 202/234/216 217/243/216
f 196/221/217 195/220/217 210/244/217 211/248/217
f 189/223/218 188/222/218 203/246/218 204/249/218
f 197/224/219 196/221/219 211/248/219 212/250/219
f 190/225/220 189/223/220 204/249/220 205/251/220
f 198/226/221 197/224/221 212/250/221 213/252/221
f 191/227/222 190/225/222 205/251/222 206/253/222
f 199/228/223 198/226/223 213/252/223 214/237/223
f 192/229/224 191/227/224 206/253/224 207/239/224
f 204/249/225 203/246/225 218/254/225 219/255/225
f 212/250/226 211/248/226 226/256/226 227/257/226
f 205/251/227 204/249/227 219/255/227 220/258/227
f 213/252/228 212/250/228 227/257/228 228/259/228
f 206/253/229 205/251/229 220/258/229 221/260/229
f 214/237/230 213/252/230 228/259/230 229/261/230
f 207/239/231 206/253/231 221/260/231 222/262/231
f 215/238/232 214/237/232 229/261/232 230/263/232
f 208/240/233 207/239/233 222/262/233 223/264/233
f 216/241/234 215/238/234 230/263/234 231/265/234
f 209/242/235 208/240/235 223/264/235 224/266/235
f 217/243/236 216/241/236 231/265/236 232/267/236
f 210/244/237 209/242/237 224/266/237 225/268/237
f 203/246/238 82/269/238 218/254/238
f 308/270/239 217/243/239 232/267/239
f 211/248/240 210/244/240 225/268/240 226/256/240
f 223/264/241 222/262/241 237/271/241 238/272/241
f 231/265/242 230/263/242 245/273/242 246/274/242
f 224/266/243 223/264/243 238/272/243 239/275/243
f 232/267/244 231/265/244 246/274/244 247/276/244
f 225/268/245 224/266/245 239/275/245 240/277/245
f 218/254/246 82/278/246 233/279/246
f 308/280/247 232/267/247 247/276/247
f 226/256/248 225/268/248 240/277/248 241/281/248
f 219/255/249 218/254/249 233/279/249 234/282/249
f 227/257/250 226/256/250 241/281/250 242/283/250
f 220/258/251 219/255/251 234/282/251 235/284/251
f 228/259/252 227/257/252 242/283/252 243/285/252
f 221/260/253 220/258/253 235/284/253 236/286/253
f 229/261/254 228/259/254 243/285/254 244/287/254
f 222/262/255 221/260/255 236/286/255 237/271/255
f 230/263/256 229/261/256 244/287/256 245/273/256
f 242/283/257 241/281/257 256/288/257 257/289/257
f 235/284/258 234/282/258 249/290/258 250/291/258
f 243/285/259 242/283/259 257/289/259 258/292/259
f 236/286/260 235/284/260 250/291/260 251/293/260
f 244/287/261 243/285/261 258/292/261 259/294/261
f 237/271/262 236/286/262 251/293/262 252/295/262
f 245/273/263 244/287/263 259/294/263 260/296/263
f 238/272/264 237/271/264 252/295/264 253/297/264
f 246/274/265 245/273/265 260/296/265 261/298/265
f 239/275/266 238/272/266 253/297/266 254/299/266
f 247/276/267 246/274/267 261/298/267 262/300/267
f 240/277/268 239/275/268 254/299/268 255/301/268
f 233/279/269 82/302/269 248/303/269
f 308/304/270 247/276/270 262/300/270
f 241/281/271 240/277/271 255/301/271 256/288/271
f 234/282/272 233/279/272 248/303/272 249/290/272
f 261/298/273 260/296/273 275/305/273 276/306/273
f 254/299/274 253/297/274 268/307/274 269/308/274
f 262/300/275 261/298/275 276/306/275 277/309/275
f 255/301/276 254/299/276 269/308/276 270/310/276
f 248/303/277 82/311/277 263/312/277
f 308/313/278 262/300/278 277/309/278
f 256/288/279 255/301/279 270/310/279 271/314/279
f 249/290/280 248/303/280 263/312/280 264/315/280
f 257/289/281 256/288/281 271/314/281 272/316/281
f 250/291/282 249/290/282 264/315/282 265/317/282
f 258/292/283 257/289/283 272/316/283 273/318/283
f 251/293/284 250/291/284 265/317/284 266/319/284
f 259/294/285 258/292/285 273/318/285 274/320/285
f 252/295/286 251/293/286 266/319/286 267/321/286
f 260/296/287 259/294/287 274/320/287 275/305/287
f 253/297/288 252/295/288 267/321/288 268/307/288
f 273/318/289 272/316/289 287/322/289 288/323/289
f 266/319/290 265/317/290 280/324/290 281/325/290
f 274/320/291 273/318/291 288/323/291 289/326/291
f 267/321/292 266/319/292 281/325/292 282/327/292
f 275/305/293 274/320/293 289/326/293 290/328/293
f 268/307/294 267/321/294 282/327/294 283/329/294
f 276/306/295 275/305/295 290/328/295 291/330/295
f 269/308/296 268/307/296 283/329/296 284/331/296
f 277/309/297 276/306/297 291/330/297 292/332/297
f 270/310/298 269/308/298 284/331/298 285/333/298
f 263/312/299 82/334/299 278/335/299
f 308/336/300 277/309/300 292/332/300
f 271/314/301 270/310/301 285/333/301 286/337/301
f 264/315/302 263/312/302 278/335/302 279/338/302
f 272/316/303 271/314/303 286/337/303 287/322/303
f 265/317/304 264/315/304 279/338/304 280/324/304
f 292/332/305 291/330/305 306/339/305 307/340/305
f 285/333/306 284/331/306 299/341/306 300/342/306
f 278/335/307 82/343/307 293/344/307
f 308/345/308 292/332/308 307/340/308
f 286/337/309 285/333/309 300/342/309 301/346/309
f 279/338/310 278/335/310 293/344/310 294/347/310
f 287/322/311 286/337/311 301/346/311 302/348/311
f 280/324/312 279/338/312 294/347/312 295/349/312
f 288/323/313 287/322/313 302/348/313 303/350/313
f 281/325/314 280/324/314 295/349/314 296/351/314
f 289/326/315 288/323/315 303/350/315 304/352/315
f 282/327/316 281/325/316 296/351/316 297/353/316
f 290/328/317 289/326/317 304/352/317 305/354/317
f 283/329/318 282/327/318 297/353/318 298/355/318
f 291/330/319 290/328/319 305/354/319 306/339/319
f 284/331/320 283/329/320 298/355/320 299/341/320
f 296/351/321 295/349/321 311/356/321 312/357/321
f 304/352/322 303/350/322 319/358/322 320/359/322
f 297/353/323 296/351/323 312/357/323 313/360/323
f 305/354/324 304/352/324 320/359/324 321/361/324
f 298/355/325 297/353/325 313/360/325 314/362/325
f 306/339/326 305/354/326 321/361/326 322/363/326
f 299/341/327 298/355/327 314/362/327 315/364/327
f 307/340/328 306/339/328 322/363/328 323/365/328
f 300/342/329 299/341/329 315/364/329 316/366/329
f 293/344/330 82/367/330 309/368/330
f 308/369/331 307/340/331 323/365/331
f 301/346/332 300/342/332 316/366/332 317/370/332
f 294/347/333 293/344/333 309/368/333 310/371/333
f 302/348/334 301/346/334 317/370/334 318/372/334
f 295/349/335 294/347/335 310/371/335 311/356/335
f 303/350/336 302/348/336 318/372/336 319/358/336
f 316/366/337 315/364/337 330/373/337 331/374/337
f 309/368/338 82/375/338 324/376/338
f 308/377/339 323/365/339 338/378/339
f 317/370/340 316/366/340 331/374/340 332/379/340
f 310/371/341 309/368/341 324/376/341 325/380/341
f 318/372/342 317/370/342 332/379/342 333/381/342
f 311/356/343 310/371/343 325/380/343 326/382/343
f 319/358/344 318/372/344 333/381/344 334/383/344
f 312/357/345 311/356/345 326/382/345 327/384/345
f 320/359/346 319/358/346 334/383/346 335/385/346
f 313/360/347 312/357/347 327/384/347 328/386/347
f 321/361/348 320/359/348 335/385/348 336/387/348
f 314/362/349 313/360/349 328/386/349 329/388/349
f 322/363/350 321/361/350 336/387/350 337/389/350
f 315/364/351 314/362/351 329/388/351 330/373/351
f 323/365/352 322/363/352 337/389/352 338/378/352
f 335/385/353 334/383/353 349/390/353 350/391/353
f 328/386/354 327/384/354 342/392/354 343/393/354
f 336/387/355 335/385/355 350/391/355 351/394/355
f 329/388/356 328/386/356 343/393/356 344/395/356
f 337/389/357 336/387/357 351/394/357 352/396/357
f 330/373/358 329/388/358 344/395/358 345/397/358
f 338/378/359 337/389/359 352/396/359 353/398/359
f 331/374/360 330/373/360 345/397/360 346/399/360
f 324/376/361 82/400/361 339/401/361
f 308/402/362 338/378/362 353/398/362
f 332/379/363 331/374/363 346/399/363 347/403/363
f 325/380/364 324/376/364 339/401/364 340/404/364
f 333/381/365 332/379/365 347/403/365 348/405/365
f 326/382/366 325/380/366 340/404/366 341/406/366
f 334/383/367 333/381/367 348/405/367 349/390/367
f 327/384/368 326/382/368 341/406/368 342/392/368
f 339/401/369 82/407/369 354/408/369
f 308/409/370 353/398/370 368/410/370
f 347/403/371 346/399/371 361/411/371 362/412/371
f 340/404/372 339/401/372 354/408/372 355/413/372
f 348/405/373 347/403/373 362/412/373 363/414/373
f 341/406/374 340/404/374 355/413/374 356/415/374
f 349/390/375 348/405/375 363/414/375 364/416/375
f 342/392/376 341/406/376 356/415/376 357/417/376
f 350/391/377 349/390/377 364/416/377 365/418/377
f 343/393/378 342/392/378 357/417/378 358/419/378
f 351/394/379 350/391/379 365/418/379 366/420/379
f 344/395/380 343/393/380 358/419/380 359/421/380
f 352/396/381 351/394/381 366/420/381 367/422/381
f 345/397/382 344/395/382 359/421/382 360/423/382
f 353/398/383 352/396/383 367/422/383 368/410/383
f 346/399/384 345/397/384 360/423/384 361/411/384
f 358/424/385 357/425/385 372/426/385 373/427/385
f 366/428/386 365/429/386 380/430/386 381/431/386
f 359/432/387 358/424/387 373/427/387 374/433/387
f 367/434/388 366/428/388 381/431/388 382/435/388
f 360/436/389 359/432/389 374/433/389 375/437/389
f 368/438/390 367/434/390 382/435/390 383/439/390
f 361/440/391 360/436/391 375/437/391 376/441/391
f 354/442/392 82/443/392 369/444/392
f 308/445/393 368/438/393 383/439/393
f 362/446/394 361/440/394 376/441/394 377/447/394
f 355/448/395 354/442/395 369/444/395 370/449/395
f 363/450/396 362/446/396 377/447/396 378/451/396
f 356/452/397 355/448/397 370/449/397 371/453/397
f 364/454/398 363/450/398 378/451/398 379/455/398
f 357/425/399 356/452/399 371/453/399 372/426/399
f 365/429/400 364/454/400 379/455/400 380/430/400
f 377/447/401 376/441/401 391/456/401 392/457/401
f 370/449/402 369/444/402 384/458/402 385/459/402
f 378/451/403 377/447/403 392/457/403 393/460/403
f 371/453/404 370/449/404 385/459/404 386/461/404
f 379/455/405 378/451/405 393/460/405 394/462/405
f 372/426/406 371/453/406 386/461/406 387/463/406
f 380/430/407 379/455/407 394/462/407 395/464/407
f 373/427/408 372/426/408 387/463/408 388/465/408
f 381/431/409 380/430/409 395/464/409 396/466/409
f 374/433/410 373/427/410 388/465/410 389/467/410
f 382/435/411 381/431/411 396/466/411 397/468/411
f 375/437/412 374/433/412 389/467/412 390/469/412
f 383/439/413 382/435/413 397/468/413 398/470/413
f 376/441/414 375/437/414 390/469/414 391/456/414
f 369/444/415 82/471/415 384/458/415
f 308/472/416 383/439/416 398/470/416
f 396/466/417 395/464/417 410/473/417 411/474/417
f 389/467/418 388/465/418 403/475/418 404/476/418
f 397/468/419 396/466/419 411/474/419 412/477/419
f 390/469/420 389/467/420 404/476/420 405/478/420
f 398/470/421 397/468/421 412/477/421 413/479/421
f 391/456/422 390/469/422 405/478/422 406/480/422
f 384/458/423 82/481/423 399/482/423
f 308/483/424 398/470/424 413/479/424
f 392/457/425 391/456/425 406/480/425 407/484/425
f 385/459/426 384/458/426 399/482/426 400/485/426
f 393/460/427 392/457/427 407/484/427 408/486/427
f 386/461/428 385/459/428 400/485/428 401/487/428
f 394/462/429 393/460/429 408/486/429 409/488/429
f 387/463/430 386/461/430 401/487/430 402/489/430
f 395/464/431 394/462/431 409/488/431 410/473/431
f 388/465/432 387/463/432 402/489/432 403/475/432
f 408/486/433 407/484/433 422/490/433 423/491/433
f 401/487/434 400/485/434 415/492/434 416/493/434
f 409/488/435 408/486/435 423/491/435 424/494/435
f 402/489/436 401/487/436 416/493/436 417/495/436
f 410/473/437 409/488/437 424/494/437 425/496/437
f 403/475/438 402/489/438 417/495/438 418/497/438
f 411/474/439 410/473/439 425/496/439 426/498/439
f 404/476/440 403/475/440 418/497/440 419/499/440
f 412/477/441 411/474/441 426/498/441 427/500/441
f 405/478/442 404/476/442 419/499/442 420/501/442
f 413/479/443 412/477/443 427/500/443 428/502/443
f 406/480/444 405/478/444 420/501/444 421/503/444
f 399/482/445 82/504/445 414/505/445
f 308/506/446 413/479/446 428/502/446
f 407/484/447 406/480/447 421/503/447 422/490/447
f 400/485/448 399/482/448 414/505/448 415/492/448
f 427/500/449 426/498/449 441/507/449 442/508/449
f 420/501/450 419/499/450 434/509/450 435/510/450
f 428/502/451 427/500/451 442/508/451 443/511/451
f 421/503/452 420/501/452 435/510/452 436/512/452
f 414/505/453 82/513/453 429/514/453
f 308/515/454 428/502/454 443/511/454
f 422/490/455 421/503/455 436/512/455 437/516/455
f 415/492/456 414/505/456 429/514/456 430/517/456
f 423/491/457 422/490/457 437/516/457 438/518/457
f 416/493/458 415/492/458 430/517/458 431/519/458
f 424/494/459 423/491/459 438/518/459 439/520/459
f 417/495/460 416/493/460 431/519/460 432/521/460
f 425/496/461 424/494/461 439/520/461 440/522/461
f 418/497/462 417/495/462 432/521/462 433/523/462
f 426/498/463 425/496/463 440/522/463 441/507/463
f 419/499/464 418/497/464 433/523/464 434/509/464
f 431/519/465 430/517/465 445/524/465 446/525/465
f 439/520/466 438/518/466 453/526/466 454/527/466
f 432/521/467 431/519/467 446/525/467 447/528/467
f 440/522/468 439/520/468 454/527/468 455/529/468
f 433/523/469 432/521/469 447/528/469 448/530/469
f 441/507/470 440/522/470 455/529/470 456/531/470
f 434/509/471 433/523/471 448/530/471 449/532/471
f 442/508/472 441/507/472 456/531/472 457/533/472
f 435/510/473 434/509/473 449/532/473 450/534/473
f 443/511/474 442/508/474 457/533/474 458/535/474
f 436/512/475 435/510/475 450/534/475 451/536/475
f 429/514/476 82/537/476 444/538/476
f 308/539/477 443/511/477 458/535/477
f 437/516/478 436/512/478 451/536/478 452/540/478
f 430/517/479 429/514/479 444/538/479 445/524/479
f 438/518/480 437/516/480 452/540/480 453/526/480
f 450/534/481 449/532/481 464/541/481 465/542/481
f 458/535/482 457/533/482 472/543/482 473/544/482
f 451/536/483 450/534/483 465/542/483 466/545/483
f 444/538/484 82/546/484 459/547/484
f 308/548/485 458/535/485 473/544/485
f 452/540/486 451/536/486 466/545/486 467/549/486
f 445/524/487 444/538/487 459/547/487 460/550/487
f 453/526/488 452/540/488 467/549/488 468/551/488
f 446/525/489 445/524/489 460/550/489 461/552/489
f 454/527/490 453/526/490 468/551/490 469/553/490
f 447/528/491 446/525/491 461/552/491 462/554/491
f 455/529/492 454/527/492 469/553/492 470/555/492
f 448/530/493 447/528/493 462/554/493 463/556/493
f 456/531/494 455/529/494 470/555/494 471/557/494
f 449/532/495 448/530/495 463/556/495 464/541/495
f 457/533/496 456/531/496 471/557/496 472/543/496
f 469/553/497 468/551/497 478/6/497 6/5/497
f 462/554/498 461/552/498 1/1/498 476/9/498
f 470/555/499 469/553/499 6/5/499 479/11/499
f 463/556/500 462/554/500 476/9/500 2/13/500
f 471/557/501 470/555/501 479/11/501 480/15/501
f 464/541/502 463/556/502 2/13/502 477/17/502
f 472/543/503 471/557/503 480/15/503 481/19/503
f 465/542/504 464/541/504 477/17/504 3/21/504
f 473/544/505 472/543/505 481/19/505 482/23/505
f 466/545/506 465/542/506 3/21/506 4/25/506
f 459/547/507 82/558/507 474/27/507
f 308/559/508 473/544/508 482/23/508
f 467/549/509 466/545/509 4/25/509 5/31/509
f 460/550/510 459/547/510 474/27/510 475/2/510
f 468/551/511 467/549/511 5/31/511 478/6/511
f 461/552/512 460/550/512 475/2/512 1/1/512
