# Blender 4.4.1
# www.blender.org
mtllib TitleSkydome.mtl
o 球
v 0.000000 227.340118 -151.903824
v 0.000000 151.903824 -227.340118
v 0.000000 53.341526 -268.165955
v 0.000000 0.000000 -273.419647
v 0.000000 -53.341526 -268.165955
v 0.000000 -151.903824 -227.340118
v 10.406416 268.165955 -52.316586
v 20.412922 252.606812 -102.622681
v 29.634966 227.340118 -148.985031
v 37.718155 193.336884 -189.621964
v 44.351856 151.903824 -222.971832
v 49.281143 104.633179 -247.753036
v 52.316586 53.341526 -263.013214
v 53.341526 0.000000 -268.165955
v 52.316586 -53.341526 -263.013214
v 49.281143 -104.633179 -247.753036
v 44.351856 -151.903824 -222.971832
v 37.718155 -193.336884 -189.621964
v 29.634966 -227.340118 -148.985031
v 20.412922 -252.606812 -102.622681
v 10.406416 -268.165955 -52.316586
v 20.412916 268.165955 -49.281143
v 40.041382 252.606812 -96.668449
v 58.131077 227.340118 -140.340820
v 73.986824 193.336884 -178.619980
v 86.999290 151.903824 -210.034851
v 96.668434 104.633179 -233.378250
v 102.622673 53.341526 -247.753036
v 104.633171 0.000000 -252.606796
v 102.622673 -53.341526 -247.753036
v 96.668434 -104.633179 -233.378250
v 86.999290 -151.903824 -210.034851
v 73.986824 -193.336884 -178.619980
v 58.131077 -227.340118 -140.340820
v 40.041382 -252.606812 -96.668449
v 20.412916 -268.165955 -49.281143
v 29.634962 268.165955 -44.351852
v 58.131077 252.606812 -86.999306
v 84.393234 227.340118 -126.303391
v 107.412216 193.336884 -160.753738
v 126.303391 151.903824 -189.026367
v 140.340820 104.633179 -210.034866
v 148.985031 53.341526 -222.971832
v 151.903824 0.000000 -227.340088
v 148.985031 -53.341526 -222.971832
v 140.340820 -104.633179 -210.034866
v 126.303391 -151.903824 -189.026367
v 107.412216 -193.336884 -160.753738
v 84.393234 -227.340118 -126.303391
v 58.131077 -252.606812 -86.999306
v 29.634962 -268.165955 -44.351852
v 37.718151 268.165955 -37.718147
v 73.986824 252.606812 -73.986816
v 107.412209 227.340118 -107.412193
v 136.709824 193.336884 -136.709824
v 160.753723 151.903824 -160.753708
v 178.619965 104.633179 -178.619980
v 189.621964 53.341526 -189.621948
v 193.336884 0.000000 -193.336838
v 189.621964 -53.341526 -189.621948
v 178.619965 -104.633179 -178.619980
v 160.753723 -151.903824 -160.753708
v 136.709824 -193.336884 -136.709824
v 107.412209 -227.340118 -107.412193
v 73.986824 -252.606812 -73.986816
v 37.718151 -268.165955 -37.718147
v 44.351852 268.165955 -29.634958
v 86.999306 252.606812 -58.131069
v 126.303398 227.340118 -84.393219
v 160.753738 193.336884 -107.412216
v 189.026382 151.903824 -126.303375
v 210.034851 104.633179 -140.340836
v 222.971832 53.341526 -148.985001
v 227.340103 0.000000 -151.903748
v 222.971832 -53.341526 -148.985001
v 210.034851 -104.633179 -140.340836
v 189.026382 -151.903824 -126.303375
v 160.753738 -193.336884 -107.412216
v 126.303398 -227.340118 -84.393219
v 86.999306 -252.606812 -58.131069
v 44.351852 -268.165955 -29.634958
v 0.000000 273.419647 0.000000
v 49.281136 268.165955 -20.412912
v 96.668434 252.606812 -40.041374
v 140.340820 227.340118 -58.131058
v 178.619980 193.336884 -73.986824
v 210.034851 151.903824 -86.999260
v 233.378235 104.633179 -96.668449
v 247.753021 53.341526 -102.622635
v 252.606781 0.000000 -104.633110
v 247.753021 -53.341526 -102.622635
v 233.378235 -104.633179 -96.668449
v 210.034851 -151.903824 -86.999260
v 178.619980 -193.336884 -73.986824
v 140.340820 -227.340118 -58.131058
v 96.668434 -252.606812 -40.041374
v 49.281136 -268.165955 -20.412912
v 52.316570 268.165955 -10.406410
v 102.622665 252.606812 -20.412912
v 148.985016 227.340118 -29.634949
v 189.621964 193.336884 -37.718159
v 222.971802 151.903824 -44.351830
v 247.753021 104.633179 -49.281155
v 263.013184 53.341526 -52.316555
v 268.165894 0.000000 -53.341473
v 263.013184 -53.341526 -52.316555
v 247.753021 -104.633179 -49.281155
v 222.971802 -151.903824 -44.351830
v 189.621964 -193.336884 -37.718159
v 148.985016 -227.340118 -29.634949
v 102.622665 -252.606812 -20.412912
v 52.316570 -268.165955 -10.406410
v 53.341511 268.165955 0.000003
v 104.633156 252.606812 0.000006
v 151.903793 227.340118 0.000014
v 193.336868 193.336884 -0.000004
v 227.340073 151.903824 0.000024
v 252.606796 104.633179 -0.000012
v 268.165924 53.341526 0.000024
v 273.419556 0.000000 0.000045
v 268.165924 -53.341526 0.000024
v 252.606796 -104.633179 -0.000012
v 227.340073 -151.903824 0.000024
v 193.336868 -193.336884 -0.000004
v 151.903793 -227.340118 0.000014
v 104.633156 -252.606812 0.000006
v 53.341511 -268.165955 0.000003
v 52.316566 268.165955 10.406416
v 102.622665 252.606812 20.412924
v 148.985001 227.340118 29.634972
v 189.621948 193.336884 37.718147
v 222.971786 151.903824 44.351875
v 247.753021 104.633179 49.281132
v 263.013184 53.341526 52.316601
v 268.165863 0.000000 53.341557
v 263.013184 -53.341526 52.316601
v 247.753021 -104.633179 49.281132
v 222.971786 -151.903824 44.351875
v 189.621948 -193.336884 37.718147
v 148.985001 -227.340118 29.634972
v 102.622665 -252.606812 20.412924
v 52.316566 -268.165955 10.406416
v 49.281128 268.165955 20.412914
v 96.668434 252.606812 40.041382
v 140.340775 227.340118 58.131077
v 178.619965 193.336884 73.986809
v 210.034821 151.903824 86.999306
v 233.378235 104.633179 96.668419
v 247.752991 53.341526 102.622681
v 252.606689 0.000000 104.633179
v 247.752991 -53.341526 102.622681
v 233.378235 -104.633179 96.668419
v 210.034821 -151.903824 86.999306
v 178.619965 -193.336884 73.986809
v 140.340775 -227.340118 58.131077
v 96.668434 -252.606812 40.041382
v 49.281128 -268.165955 20.412914
v 44.351837 268.165955 29.634954
v 86.999283 252.606812 58.131073
v 126.303352 227.340118 84.393227
v 160.753723 193.336884 107.412201
v 189.026337 151.903824 126.303391
v 210.034851 104.633179 140.340790
v 222.971786 53.341526 148.985016
v 227.339996 0.000000 151.903809
v 222.971786 -53.341526 148.985016
v 210.034851 -104.633179 140.340790
v 189.026337 -151.903824 126.303391
v 160.753723 -193.336884 107.412201
v 126.303352 -227.340118 84.393227
v 86.999283 -252.606812 58.131073
v 44.351837 -268.165955 29.634954
v 37.718136 268.165955 37.718140
v 73.986801 252.606812 73.986816
v 107.412163 227.340118 107.412201
v 136.709808 193.336884 136.709808
v 160.753677 151.903824 160.753708
v 178.619965 104.633179 178.619949
v 189.621918 53.341526 189.621948
v 193.336731 0.000000 193.336853
v 189.621918 -53.341526 189.621948
v 178.619965 -104.633179 178.619949
v 160.753677 -151.903824 160.753708
v 136.709808 -193.336884 136.709808
v 107.412163 -227.340118 107.412201
v 73.986801 -252.606812 73.986816
v 37.718136 -268.165955 37.718140
v 29.634949 268.165955 44.351837
v 58.131054 252.606812 86.999290
v 84.393188 227.340118 126.303383
v 107.412201 193.336884 160.753723
v 126.303345 151.903824 189.026352
v 140.340820 104.633179 210.034836
v 148.984970 53.341526 222.971802
v 151.903671 0.000000 227.340057
v 148.984970 -53.341526 222.971802
v 140.340820 -104.633179 210.034836
v 126.303345 -151.903824 189.026352
v 107.412201 -193.336884 160.753723
v 84.393188 -227.340118 126.303383
v 58.131054 -252.606812 86.999290
v 29.634949 -268.165955 44.351837
v 20.412905 268.165955 49.281116
v 40.041359 252.606812 96.668427
v 58.131027 227.340118 140.340775
v 73.986809 193.336884 178.619965
v 86.999245 151.903824 210.034821
v 96.668434 104.633179 233.378204
v 102.622604 53.341526 247.752991
v 104.633034 0.000000 252.606705
v 102.622604 -53.341526 247.752991
v 96.668434 -104.633179 233.378204
v 86.999245 -151.903824 210.034821
v 73.986809 -193.336884 178.619965
v 58.131027 -227.340118 140.340775
v 40.041359 -252.606812 96.668427
v 20.412905 -268.165955 49.281116
v 10.406407 268.165955 52.316551
v 20.412899 252.606812 102.622643
v 29.634926 227.340118 148.984970
v 37.718147 193.336884 189.621948
v 44.351818 151.903824 222.971771
v 49.281143 104.633179 247.752991
v 52.316532 53.341526 263.013153
v 53.341412 0.000000 268.165833
v 52.316532 -53.341526 263.013153
v 49.281143 -104.633179 247.752991
v 44.351818 -151.903824 222.971771
v 37.718147 -193.336884 189.621948
v 29.634926 -227.340118 148.984970
v 20.412899 -252.606812 102.622643
v 10.406407 -268.165955 52.316551
v -0.000002 268.165955 53.341492
v -0.000014 252.606812 104.633141
v -0.000026 227.340118 151.903732
v -0.000004 193.336884 193.336853
v -0.000029 151.903824 227.340042
v 0.000008 104.633179 252.606750
v -0.000037 53.341526 268.165863
v -0.000090 0.000000 273.419464
v -0.000037 -53.341526 268.165863
v 0.000008 -104.633179 252.606750
v -0.000029 -151.903824 227.340042
v -0.000004 -193.336884 193.336853
v -0.000026 -227.340118 151.903732
v -0.000014 -252.606812 104.633141
v -0.000002 -268.165955 53.341492
v -10.406410 268.165955 52.316547
v -20.412928 252.606812 102.622643
v -29.634977 227.340118 148.984955
v -37.718151 193.336884 189.621933
v -44.351871 151.903824 222.971756
v -49.281120 104.633179 247.752960
v -52.316605 53.341526 263.013123
v -53.341579 0.000000 268.165771
v -52.316605 -53.341526 263.013123
v -49.281120 -104.633179 247.752960
v -44.351871 -151.903824 222.971756
v -37.718151 -193.336884 189.621933
v -29.634977 -227.340118 148.984955
v -20.412928 -252.606812 102.622643
v -10.406410 -268.165955 52.316547
v -20.412905 268.165955 49.281109
v -40.041382 252.606812 96.668419
v -58.131069 227.340118 140.340729
v -73.986809 193.336884 178.619949
v -86.999290 151.903824 210.034790
v -96.668404 104.633179 233.378189
v -102.622673 53.341526 247.752930
v -104.633186 0.000000 252.606598
v -102.622673 -53.341526 247.752930
v -96.668404 -104.633179 233.378189
v -86.999290 -151.903824 210.034790
v -73.986809 -193.336884 178.619949
v -58.131069 -227.340118 140.340729
v -40.041382 -252.606812 96.668419
v -20.412905 -268.165955 49.281109
v -29.634945 268.165955 44.351826
v -58.131069 252.606812 86.999268
v -84.393211 227.340118 126.303307
v -107.412201 193.336884 160.753708
v -126.303375 151.903824 189.026306
v -140.340759 104.633179 210.034821
v -148.985016 53.341526 222.971741
v -151.903793 0.000000 227.339890
v -148.985016 -53.341526 222.971741
v -140.340759 -104.633179 210.034821
v -126.303375 -151.903824 189.026306
v -107.412201 -193.336884 160.753708
v -84.393211 -227.340118 126.303307
v -58.131069 -252.606812 86.999268
v -29.634945 -268.165955 44.351826
v -37.718128 268.165955 37.718124
v -73.986809 252.606812 73.986794
v -107.412170 227.340118 107.412125
v -136.709793 193.336884 136.709793
v -160.753693 151.903824 160.753647
v -178.619919 104.633179 178.619934
v -189.621933 53.341526 189.621872
v -193.336807 0.000000 193.336655
v -189.621933 -53.341526 189.621872
v -178.619919 -104.633179 178.619934
v -160.753693 -151.903824 160.753647
v -136.709793 -193.336884 136.709793
v -107.412170 -227.340118 107.412125
v -73.986809 -252.606812 73.986794
v -37.718128 -268.165955 37.718124
v 0.000000 -273.419647 0.000000
v -44.351826 268.165955 29.634937
v -86.999275 252.606812 58.131042
v -126.303337 227.340118 84.393143
v -160.753708 193.336884 107.412186
v -189.026337 151.903824 126.303314
v -210.034805 104.633179 140.340775
v -222.971786 53.341526 148.984909
v -227.339996 0.000000 151.903595
v -222.971786 -53.341526 148.984909
v -210.034805 -104.633179 140.340775
v -189.026337 -151.903824 126.303314
v -160.753708 -193.336884 107.412186
v -126.303337 -227.340118 84.393143
v -86.999275 -252.606812 58.131042
v -44.351826 -268.165955 29.634937
v -49.281105 268.165955 20.412897
v -96.668411 252.606812 40.041355
v -140.340729 227.340118 58.130997
v -178.619949 193.336884 73.986801
v -210.034790 151.903824 86.999214
v -233.378174 104.633179 96.668411
v -247.752960 53.341526 102.622566
v -252.606628 0.000000 104.632965
v -247.752960 -53.341526 102.622566
v -233.378174 -104.633179 96.668411
v -210.034790 -151.903824 86.999214
v -178.619949 -193.336884 73.986801
v -140.340729 -227.340118 58.130997
v -96.668411 -252.606812 40.041355
v -49.281105 -268.165955 20.412897
v -52.316540 268.165955 10.406402
v -102.622627 252.606812 20.412897
v -148.984909 227.340118 29.634903
v -189.621933 193.336884 37.718140
v -222.971741 151.903824 44.351791
v -247.752945 104.633179 49.281128
v -263.013123 53.341526 52.316494
v -268.165741 0.000000 53.341358
v -263.013123 -53.341526 52.316494
v -247.752945 -104.633179 49.281128
v -222.971741 -151.903824 44.351791
v -189.621933 -193.336884 37.718140
v -148.984909 -227.340118 29.634903
v -102.622627 -252.606812 20.412897
v -52.316540 -268.165955 10.406402
v -53.341480 268.165955 -0.000005
v -104.633118 252.606812 -0.000014
v -151.903687 227.340118 -0.000041
v -193.336838 193.336884 -0.000008
v -227.340012 151.903824 -0.000045
v -252.606705 104.633179 -0.000004
v -268.165833 53.341526 -0.000073
v -273.419373 0.000000 -0.000122
v -268.165833 -53.341526 -0.000073
v -252.606705 -104.633179 -0.000004
v -227.340012 -151.903824 -0.000045
v -193.336838 -193.336884 -0.000008
v -151.903687 -227.340118 -0.000041
v -104.633118 -252.606812 -0.000014
v -53.341480 -268.165955 -0.000005
v -52.316536 268.165955 -10.406411
v -102.622620 252.606812 -20.412924
v -148.984894 227.340118 -29.634981
v -189.621918 193.336884 -37.718155
v -222.971710 151.903824 -44.351883
v -247.752930 104.633179 -49.281132
v -263.013092 53.341526 -52.316631
v -268.165680 0.000000 -53.341599
v -263.013092 -53.341526 -52.316631
v -247.752930 -104.633179 -49.281132
v -222.971710 -151.903824 -44.351883
v -189.621918 -193.336884 -37.718155
v -148.984894 -227.340118 -29.634981
v -102.622620 -252.606812 -20.412924
v -52.316536 -268.165955 -10.406411
v -49.281097 268.165955 -20.412905
v -96.668396 252.606812 -40.041374
v -140.340683 227.340118 -58.131065
v -178.619934 193.336884 -73.986809
v -210.034744 151.903824 -86.999290
v -233.378159 104.633179 -96.668404
v -247.752884 53.341526 -102.622688
v -252.606522 0.000000 -104.633186
v -247.752884 -53.341526 -102.622688
v -233.378159 -104.633179 -96.668404
v -210.034744 -151.903824 -86.999290
v -178.619934 -193.336884 -73.986809
v -140.340683 -227.340118 -58.131065
v -96.668396 -252.606812 -40.041374
v -49.281097 -268.165955 -20.412905
v -44.351814 268.165955 -29.634941
v -86.999245 252.606812 -58.131058
v -126.303261 227.340118 -84.393204
v -160.753693 193.336884 -107.412193
v -189.026260 151.903824 -126.303375
v -210.034790 104.633179 -140.340759
v -222.971695 53.341526 -148.985016
v -227.339813 0.000000 -151.903778
v -222.971695 -53.341526 -148.985016
v -210.034790 -104.633179 -140.340759
v -189.026260 -151.903824 -126.303375
v -160.753693 -193.336884 -107.412193
v -126.303261 -227.340118 -84.393204
v -86.999245 -252.606812 -58.131058
v -44.351814 -268.165955 -29.634941
v -37.718117 268.165955 -37.718124
v -73.986778 252.606812 -73.986794
v -107.412071 227.340118 -107.412155
v -136.709778 193.336884 -136.709793
v -160.753586 151.903824 -160.753677
v -178.619904 104.633179 -178.619904
v -189.621811 53.341526 -189.621918
v -193.336594 0.000000 -193.336777
v -189.621811 -53.341526 -189.621918
v -178.619904 -104.633179 -178.619904
v -160.753586 -151.903824 -160.753677
v -136.709778 -193.336884 -136.709793
v -107.412071 -227.340118 -107.412155
v -73.986778 -252.606812 -73.986794
v -37.718117 -268.165955 -37.718124
v -29.634930 268.165955 -44.351818
v -58.131031 252.606812 -86.999260
v -84.393105 227.340118 -126.303314
v -107.412170 193.336884 -160.753708
v -126.303276 151.903824 -189.026306
v -140.340744 104.633179 -210.034790
v -148.984879 53.341526 -222.971756
v -151.903549 0.000000 -227.339951
v -148.984879 -53.341526 -222.971756
v -140.340744 -104.633179 -210.034790
v -126.303276 -151.903824 -189.026306
v -107.412170 -193.336884 -160.753708
v -84.393105 -227.340118 -126.303314
v -58.131031 -252.606812 -86.999260
v -29.634930 -268.165955 -44.351818
v -20.412893 268.165955 -49.281094
v -40.041344 252.606812 -96.668404
v -58.130959 227.340118 -140.340698
v -73.986786 193.336884 -178.619949
v -86.999176 151.903824 -210.034760
v -96.668388 104.633179 -233.378159
v -102.622536 53.341526 -247.752914
v -104.632935 0.000000 -252.606567
v -102.622536 -53.341526 -247.752914
v -96.668388 -104.633179 -233.378159
v -86.999176 -151.903824 -210.034760
v -73.986786 -193.336884 -178.619949
v -58.130959 -227.340118 -140.340698
v -40.041344 -252.606812 -96.668404
v -20.412893 -268.165955 -49.281094
v -10.406400 268.165955 -52.316528
v -20.412889 252.606812 -102.622620
v -29.634872 227.340118 -148.984863
v -37.718124 193.336884 -189.621933
v -44.351765 151.903824 -222.971695
v -49.281105 104.633179 -247.752914
v -52.316479 53.341526 -263.013092
v -53.341335 0.000000 -268.165649
v -52.316479 -53.341526 -263.013092
v -49.281105 -104.633179 -247.752914
v -44.351765 -151.903824 -222.971695
v -37.718124 -193.336884 -189.621933
v -29.634872 -227.340118 -148.984863
v -20.412889 -252.606812 -102.622620
v -10.406400 -268.165955 -52.316528
v 0.000004 268.165955 -53.341465
v 0.000018 252.606812 -104.633110
v 0.000024 193.336884 -193.336838
v 0.000016 104.633179 -252.606674
v 0.000016 -104.633179 -252.606674
v 0.000024 -193.336884 -193.336838
v 0.000059 -227.340118 -151.903625
v 0.000018 -252.606812 -104.633110
v 0.000004 -268.165955 -53.341465
vn -0.0097 0.9951 0.0980
vn -0.0975 0.0975 0.9904
vn -0.0286 -0.9565 0.2902
vn -0.0938 0.2890 0.9527
vn -0.0464 -0.8810 0.4709
vn -0.0865 0.4696 0.8786
vn -0.0624 -0.7715 0.6332
vn -0.0759 0.6326 0.7708
vn -0.0759 -0.6326 0.7708
vn -0.0624 0.7715 0.6332
vn -0.0865 -0.4696 0.8786
vn -0.0464 0.8810 0.4709
vn -0.0938 -0.2890 0.9527
vn -0.0286 0.9565 0.2902
vn -0.0975 -0.0975 0.9904
vn -0.0097 -0.9951 0.0980
vn -0.0846 0.9565 0.2790
vn -0.2889 -0.0976 0.9524
vn -0.0286 -0.9951 0.0942
vn -0.0286 0.9951 0.0942
vn -0.2889 0.0976 0.9524
vn -0.0846 -0.9565 0.2790
vn -0.2779 0.2890 0.9161
vn -0.1374 -0.8810 0.4528
vn -0.2563 0.4696 0.8448
vn -0.1847 -0.7715 0.6088
vn -0.2248 0.6326 0.7412
vn -0.2248 -0.6326 0.7412
vn -0.1847 0.7715 0.6088
vn -0.2563 -0.4696 0.8448
vn -0.1374 0.8810 0.4528
vn -0.2779 -0.2890 0.9161
vn -0.2999 -0.7715 0.5611
vn -0.3651 0.6326 0.6831
vn -0.3651 -0.6326 0.6831
vn -0.2999 0.7715 0.5611
vn -0.4162 -0.4696 0.7786
vn -0.2230 0.8810 0.4173
vn -0.4513 -0.2890 0.8443
vn -0.1374 0.9565 0.2571
vn -0.4691 -0.0975 0.8777
vn -0.0464 -0.9951 0.0869
vn -0.0464 0.9951 0.0869
vn -0.4691 0.0975 0.8777
vn -0.1374 -0.9565 0.2571
vn -0.4513 0.2890 0.8443
vn -0.2230 -0.8810 0.4173
vn -0.4162 0.4696 0.7786
vn -0.6314 -0.0975 0.7693
vn -0.0625 -0.9951 0.0761
vn -0.0625 0.9951 0.0761
vn -0.6314 0.0975 0.7693
vn -0.1850 -0.9565 0.2254
vn -0.6073 0.2890 0.7400
vn -0.3002 -0.8810 0.3658
vn -0.5601 0.4696 0.6825
vn -0.4036 -0.7715 0.4918
vn -0.4913 0.6326 0.5987
vn -0.4913 -0.6326 0.5987
vn -0.4036 0.7715 0.4918
vn -0.5601 -0.4696 0.6825
vn -0.3002 0.8810 0.3658
vn -0.6073 -0.2890 0.7400
vn -0.1850 0.9565 0.2254
vn -0.5987 0.6326 0.4913
vn -0.5987 -0.6326 0.4913
vn -0.4918 0.7715 0.4036
vn -0.6825 -0.4696 0.5601
vn -0.3658 0.8810 0.3002
vn -0.7400 -0.2890 0.6073
vn -0.2254 0.9565 0.1850
vn -0.7693 -0.0975 0.6314
vn -0.0761 -0.9951 0.0625
vn -0.0761 0.9951 0.0625
vn -0.7693 0.0975 0.6314
vn -0.2254 -0.9565 0.1850
vn -0.7400 0.2890 0.6073
vn -0.3658 -0.8810 0.3002
vn -0.6825 0.4696 0.5601
vn -0.4918 -0.7715 0.4036
vn -0.0869 0.9951 0.0464
vn -0.8777 0.0975 0.4691
vn -0.2571 -0.9565 0.1374
vn -0.8443 0.2890 0.4513
vn -0.4173 -0.8810 0.2230
vn -0.7786 0.4696 0.4162
vn -0.5611 -0.7715 0.2999
vn -0.6831 0.6326 0.3651
vn -0.6831 -0.6326 0.3651
vn -0.5611 0.7715 0.2999
vn -0.7786 -0.4696 0.4162
vn -0.4173 0.8810 0.2230
vn -0.8443 -0.2890 0.4513
vn -0.2571 0.9565 0.1374
vn -0.8777 -0.0975 0.4691
vn -0.0869 -0.9951 0.0464
vn -0.6088 0.7715 0.1847
vn -0.8448 -0.4696 0.2563
vn -0.4528 0.8810 0.1374
vn -0.9161 -0.2890 0.2779
vn -0.2790 0.9565 0.0846
vn -0.9524 -0.0975 0.2889
vn -0.0942 -0.9951 0.0286
vn -0.0942 0.9951 0.0286
vn -0.9524 0.0975 0.2889
vn -0.2790 -0.9565 0.0846
vn -0.9161 0.2890 0.2779
vn -0.4528 -0.8810 0.1374
vn -0.8448 0.4696 0.2563
vn -0.6088 -0.7715 0.1847
vn -0.7412 0.6326 0.2248
vn -0.7412 -0.6326 0.2248
vn -0.2902 -0.9565 0.0286
vn -0.9527 0.2890 0.0938
vn -0.4709 -0.8810 0.0464
vn -0.8786 0.4696 0.0865
vn -0.6332 -0.7715 0.0624
vn -0.7708 0.6326 0.0759
vn -0.7708 -0.6326 0.0759
vn -0.6332 0.7715 0.0624
vn -0.8786 -0.4696 0.0865
vn -0.4709 0.8810 0.0464
vn -0.9527 -0.2890 0.0938
vn -0.2902 0.9565 0.0286
vn -0.9904 -0.0975 0.0975
vn -0.0980 -0.9951 0.0097
vn -0.0980 0.9951 0.0097
vn -0.9904 0.0975 0.0975
vn -0.8786 -0.4696 -0.0865
vn -0.4709 0.8810 -0.0464
vn -0.9527 -0.2890 -0.0938
vn -0.2902 0.9565 -0.0286
vn -0.9904 -0.0975 -0.0976
vn -0.0980 -0.9951 -0.0097
vn -0.0980 0.9951 -0.0097
vn -0.9904 0.0975 -0.0976
vn -0.2902 -0.9565 -0.0286
vn -0.9527 0.2890 -0.0938
vn -0.4709 -0.8810 -0.0464
vn -0.8786 0.4696 -0.0865
vn -0.6332 -0.7715 -0.0624
vn -0.7708 0.6326 -0.0759
vn -0.7708 -0.6326 -0.0759
vn -0.6332 0.7715 -0.0624
vn -0.9161 0.2890 -0.2779
vn -0.4528 -0.8810 -0.1374
vn -0.8448 0.4696 -0.2563
vn -0.6088 -0.7715 -0.1847
vn -0.7412 0.6326 -0.2248
vn -0.7412 -0.6326 -0.2248
vn -0.6088 0.7715 -0.1847
vn -0.8448 -0.4696 -0.2563
vn -0.4528 0.8810 -0.1374
vn -0.9161 -0.2890 -0.2779
vn -0.2790 0.9565 -0.0846
vn -0.9524 -0.0975 -0.2889
vn -0.0942 -0.9951 -0.0286
vn -0.0942 0.9951 -0.0286
vn -0.9524 0.0975 -0.2889
vn -0.2790 -0.9565 -0.0846
vn -0.4173 0.8810 -0.2230
vn -0.8443 -0.2890 -0.4513
vn -0.2571 0.9565 -0.1374
vn -0.8777 -0.0975 -0.4691
vn -0.0869 -0.9951 -0.0464
vn -0.0869 0.9951 -0.0464
vn -0.8777 0.0975 -0.4691
vn -0.2571 -0.9565 -0.1374
vn -0.8443 0.2890 -0.4513
vn -0.4173 -0.8810 -0.2230
vn -0.7786 0.4696 -0.4162
vn -0.5611 -0.7715 -0.2999
vn -0.6831 0.6326 -0.3651
vn -0.6831 -0.6326 -0.3651
vn -0.5611 0.7715 -0.2999
vn -0.7786 -0.4696 -0.4162
vn -0.3658 -0.8810 -0.3002
vn -0.6825 0.4696 -0.5601
vn -0.4918 -0.7715 -0.4036
vn -0.5987 0.6326 -0.4913
vn -0.5987 -0.6326 -0.4913
vn -0.4918 0.7715 -0.4036
vn -0.6825 -0.4696 -0.5601
vn -0.3658 0.8810 -0.3002
vn -0.7400 -0.2890 -0.6073
vn -0.2254 0.9565 -0.1850
vn -0.7693 -0.0975 -0.6314
vn -0.0761 -0.9951 -0.0625
vn -0.0761 0.9951 -0.0625
vn -0.7693 0.0975 -0.6314
vn -0.2254 -0.9565 -0.1850
vn -0.7400 0.2890 -0.6073
vn -0.6073 -0.2890 -0.7400
vn -0.1850 0.9565 -0.2254
vn -0.6314 -0.0975 -0.7693
vn -0.0625 -0.9951 -0.0761
vn -0.0625 0.9951 -0.0761
vn -0.6314 0.0975 -0.7693
vn -0.1850 -0.9565 -0.2254
vn -0.6073 0.2890 -0.7400
vn -0.3002 -0.8810 -0.3658
vn -0.5601 0.4696 -0.6825
vn -0.4036 -0.7715 -0.4918
vn -0.4913 0.6326 -0.5987
vn -0.4913 -0.6326 -0.5987
vn -0.4036 0.7715 -0.4918
vn -0.5601 -0.4696 -0.6825
vn -0.3002 0.8810 -0.3658
vn -0.4162 0.4696 -0.7786
vn -0.2999 -0.7715 -0.5611
vn -0.3651 0.6326 -0.6831
vn -0.3651 -0.6326 -0.6831
vn -0.2999 0.7715 -0.5611
vn -0.4162 -0.4696 -0.7786
vn -0.2230 0.8810 -0.4173
vn -0.4513 -0.2890 -0.8443
vn -0.1374 0.9565 -0.2571
vn -0.4691 -0.0975 -0.8777
vn -0.0464 -0.9951 -0.0869
vn -0.0464 0.9951 -0.0869
vn -0.4691 0.0975 -0.8777
vn -0.1374 -0.9565 -0.2571
vn -0.4513 0.2890 -0.8443
vn -0.2230 -0.8810 -0.4173
vn -0.0846 0.9565 -0.2790
vn -0.2889 -0.0975 -0.9524
vn -0.0286 -0.9951 -0.0942
vn -0.0286 0.9951 -0.0942
vn -0.2889 0.0975 -0.9524
vn -0.0846 -0.9565 -0.2790
vn -0.2779 0.2890 -0.9161
vn -0.1374 -0.8810 -0.4528
vn -0.2563 0.4696 -0.8448
vn -0.1847 -0.7715 -0.6088
vn -0.2248 0.6326 -0.7412
vn -0.2248 -0.6326 -0.7412
vn -0.1847 0.7715 -0.6088
vn -0.2563 -0.4696 -0.8448
vn -0.1374 0.8810 -0.4528
vn -0.2779 -0.2890 -0.9161
vn -0.0759 0.6326 -0.7708
vn -0.0759 -0.6326 -0.7708
vn -0.0624 0.7715 -0.6332
vn -0.0865 -0.4696 -0.8786
vn -0.0464 0.8810 -0.4709
vn -0.0938 -0.2890 -0.9527
vn -0.0286 0.9565 -0.2902
vn -0.0975 -0.0975 -0.9904
vn -0.0097 -0.9951 -0.0980
vn -0.0097 0.9951 -0.0980
vn -0.0975 0.0975 -0.9904
vn -0.0286 -0.9565 -0.2902
vn -0.0938 0.2890 -0.9527
vn -0.0464 -0.8810 -0.4709
vn -0.0865 0.4696 -0.8786
vn -0.0624 -0.7715 -0.6332
vn 0.0097 -0.9951 -0.0980
vn 0.0097 0.9951 -0.0980
vn 0.0976 0.0975 -0.9904
vn 0.0286 -0.9565 -0.2902
vn 0.0938 0.2890 -0.9527
vn 0.0464 -0.8810 -0.4709
vn 0.0865 0.4696 -0.8786
vn 0.0624 -0.7715 -0.6332
vn 0.0759 0.6326 -0.7708
vn 0.0759 -0.6326 -0.7708
vn 0.0624 0.7715 -0.6332
vn 0.0865 -0.4696 -0.8786
vn 0.0464 0.8810 -0.4709
vn 0.0938 -0.2890 -0.9527
vn 0.0286 0.9565 -0.2902
vn 0.0976 -0.0975 -0.9904
vn 0.2248 -0.6326 -0.7412
vn 0.1847 0.7715 -0.6088
vn 0.2563 -0.4696 -0.8448
vn 0.1374 0.8810 -0.4528
vn 0.2779 -0.2890 -0.9161
vn 0.0846 0.9565 -0.2790
vn 0.2889 -0.0975 -0.9524
vn 0.0286 -0.9951 -0.0942
vn 0.0286 0.9951 -0.0942
vn 0.2889 0.0975 -0.9524
vn 0.0846 -0.9565 -0.2790
vn 0.2779 0.2890 -0.9161
vn 0.1374 -0.8810 -0.4528
vn 0.2563 0.4696 -0.8448
vn 0.1847 -0.7715 -0.6088
vn 0.2248 0.6326 -0.7412
vn 0.4691 0.0975 -0.8777
vn 0.1374 -0.9565 -0.2571
vn 0.4513 0.2890 -0.8443
vn 0.2231 -0.8810 -0.4173
vn 0.4162 0.4696 -0.7786
vn 0.2999 -0.7715 -0.5611
vn 0.3651 0.6326 -0.6831
vn 0.3651 -0.6326 -0.6831
vn 0.2999 0.7715 -0.5611
vn 0.4162 -0.4696 -0.7786
vn 0.2230 0.8810 -0.4173
vn 0.4513 -0.2890 -0.8443
vn 0.1374 0.9565 -0.2571
vn 0.4691 -0.0975 -0.8777
vn 0.0464 -0.9951 -0.0869
vn 0.0464 0.9951 -0.0869
vn 0.4036 0.7715 -0.4918
vn 0.5601 -0.4696 -0.6825
vn 0.3002 0.8810 -0.3658
vn 0.6073 -0.2890 -0.7400
vn 0.1850 0.9565 -0.2254
vn 0.6314 -0.0975 -0.7693
vn 0.0625 -0.9951 -0.0761
vn 0.0625 0.9951 -0.0761
vn 0.6314 0.0975 -0.7693
vn 0.1850 -0.9565 -0.2254
vn 0.6073 0.2890 -0.7400
vn 0.3002 -0.8810 -0.3658
vn 0.5601 0.4696 -0.6825
vn 0.4036 -0.7715 -0.4918
vn 0.4913 0.6326 -0.5987
vn 0.4913 -0.6326 -0.5987
vn 0.2254 -0.9565 -0.1850
vn 0.7400 0.2890 -0.6073
vn 0.3658 -0.8810 -0.3002
vn 0.6825 0.4696 -0.5601
vn 0.4918 -0.7715 -0.4036
vn 0.5987 0.6326 -0.4913
vn 0.5987 -0.6326 -0.4913
vn 0.4918 0.7715 -0.4036
vn 0.6825 -0.4696 -0.5601
vn 0.3658 0.8810 -0.3002
vn 0.7400 -0.2890 -0.6073
vn 0.2254 0.9565 -0.1850
vn 0.7693 -0.0975 -0.6314
vn 0.0761 -0.9951 -0.0625
vn 0.0761 0.9951 -0.0625
vn 0.7693 0.0975 -0.6314
vn 0.7786 -0.4696 -0.4162
vn 0.4173 0.8810 -0.2230
vn 0.8443 -0.2890 -0.4513
vn 0.2571 0.9565 -0.1374
vn 0.8777 -0.0975 -0.4691
vn 0.0869 -0.9951 -0.0464
vn 0.0869 0.9951 -0.0464
vn 0.8777 0.0975 -0.4691
vn 0.2571 -0.9565 -0.1374
vn 0.8443 0.2890 -0.4513
vn 0.4173 -0.8810 -0.2230
vn 0.7786 0.4696 -0.4162
vn 0.5611 -0.7715 -0.2999
vn 0.6831 0.6326 -0.3651
vn 0.6831 -0.6326 -0.3651
vn 0.5611 0.7715 -0.2999
vn 0.9161 0.2890 -0.2779
vn 0.4528 -0.8810 -0.1374
vn 0.8448 0.4696 -0.2563
vn 0.6088 -0.7715 -0.1847
vn 0.7412 0.6326 -0.2248
vn 0.7412 -0.6326 -0.2248
vn 0.6088 0.7715 -0.1847
vn 0.8448 -0.4696 -0.2563
vn 0.4528 0.8810 -0.1374
vn 0.9161 -0.2890 -0.2779
vn 0.2790 0.9565 -0.0846
vn 0.9524 -0.0975 -0.2889
vn 0.0942 -0.9951 -0.0286
vn 0.0942 0.9951 -0.0286
vn 0.9524 0.0975 -0.2889
vn 0.2790 -0.9565 -0.0846
vn 0.4709 0.8810 -0.0464
vn 0.9527 -0.2890 -0.0938
vn 0.2902 0.9565 -0.0286
vn 0.9904 -0.0975 -0.0975
vn 0.0980 -0.9951 -0.0097
vn 0.0980 0.9951 -0.0097
vn 0.9904 0.0975 -0.0975
vn 0.2902 -0.9565 -0.0286
vn 0.9527 0.2890 -0.0938
vn 0.4709 -0.8810 -0.0464
vn 0.8786 0.4696 -0.0865
vn 0.6332 -0.7715 -0.0624
vn 0.7708 0.6326 -0.0759
vn 0.7708 -0.6326 -0.0759
vn 0.6332 0.7715 -0.0624
vn 0.8786 -0.4696 -0.0865
vn 0.8786 0.4696 0.0865
vn 0.6332 -0.7715 0.0624
vn 0.7708 0.6326 0.0759
vn 0.7708 -0.6326 0.0759
vn 0.6332 0.7715 0.0624
vn 0.8786 -0.4696 0.0865
vn 0.4709 0.8810 0.0464
vn 0.9527 -0.2890 0.0938
vn 0.2902 0.9565 0.0286
vn 0.9904 -0.0975 0.0976
vn 0.0980 -0.9951 0.0097
vn 0.0980 0.9951 0.0097
vn 0.9904 0.0975 0.0976
vn 0.2902 -0.9565 0.0286
vn 0.9527 0.2890 0.0938
vn 0.4709 -0.8810 0.0464
vn 0.2790 0.9565 0.0846
vn 0.9524 -0.0975 0.2889
vn 0.0942 -0.9951 0.0286
vn 0.0942 0.9951 0.0286
vn 0.9524 0.0975 0.2889
vn 0.2790 -0.9565 0.0846
vn 0.9161 0.2890 0.2779
vn 0.4528 -0.8810 0.1374
vn 0.8448 0.4696 0.2563
vn 0.6088 -0.7715 0.1847
vn 0.7412 0.6326 0.2248
vn 0.7412 -0.6326 0.2248
vn 0.6088 0.7715 0.1847
vn 0.8448 -0.4696 0.2563
vn 0.4528 0.8810 0.1374
vn 0.9161 -0.2890 0.2779
vn 0.5611 -0.7715 0.2999
vn 0.6831 0.6326 0.3651
vn 0.6831 -0.6326 0.3651
vn 0.5611 0.7715 0.2999
vn 0.7786 -0.4696 0.4162
vn 0.4173 0.8810 0.2231
vn 0.8443 -0.2890 0.4513
vn 0.2571 0.9565 0.1374
vn 0.8777 -0.0975 0.4691
vn 0.0869 -0.9951 0.0464
vn 0.0869 0.9951 0.0464
vn 0.8777 0.0975 0.4691
vn 0.2571 -0.9565 0.1374
vn 0.8443 0.2890 0.4513
vn 0.4173 -0.8810 0.2231
vn 0.7786 0.4696 0.4162
vn 0.7693 -0.0975 0.6314
vn 0.0761 -0.9951 0.0625
vn 0.0761 0.9951 0.0625
vn 0.7693 0.0975 0.6314
vn 0.2254 -0.9565 0.1850
vn 0.7400 0.2890 0.6073
vn 0.3658 -0.8810 0.3002
vn 0.6825 0.4696 0.5601
vn 0.4918 -0.7715 0.4036
vn 0.5987 0.6326 0.4913
vn 0.5987 -0.6326 0.4913
vn 0.4918 0.7715 0.4036
vn 0.6825 -0.4696 0.5601
vn 0.3658 0.8810 0.3002
vn 0.7400 -0.2890 0.6073
vn 0.2254 0.9565 0.1850
vn 0.4913 0.6326 0.5987
vn 0.4913 -0.6326 0.5987
vn 0.4036 0.7715 0.4918
vn 0.5601 -0.4696 0.6825
vn 0.3002 0.8810 0.3658
vn 0.6073 -0.2890 0.7400
vn 0.1850 0.9565 0.2254
vn 0.6314 -0.0975 0.7693
vn 0.0625 -0.9951 0.0761
vn 0.0625 0.9951 0.0761
vn 0.6314 0.0975 0.7693
vn 0.1850 -0.9565 0.2254
vn 0.6073 0.2890 0.7400
vn 0.3002 -0.8810 0.3658
vn 0.5601 0.4696 0.6825
vn 0.4036 -0.7715 0.4918
vn 0.0464 -0.9951 0.0869
vn 0.0464 0.9951 0.0869
vn 0.4691 0.0975 0.8777
vn 0.1374 -0.9565 0.2571
vn 0.4513 0.2890 0.8443
vn 0.2230 -0.8810 0.4173
vn 0.4162 0.4696 0.7786
vn 0.2999 -0.7715 0.5611
vn 0.3651 0.6326 0.6831
vn 0.3651 -0.6326 0.6831
vn 0.2999 0.7715 0.5611
vn 0.4162 -0.4696 0.7786
vn 0.2230 0.8810 0.4173
vn 0.4513 -0.2890 0.8443
vn 0.1374 0.9565 0.2571
vn 0.4691 -0.0975 0.8777
vn 0.2248 -0.6326 0.7412
vn 0.1847 0.7715 0.6088
vn 0.2563 -0.4696 0.8448
vn 0.1374 0.8810 0.4528
vn 0.2779 -0.2890 0.9161
vn 0.0846 0.9565 0.2790
vn 0.2889 -0.0975 0.9524
vn 0.0286 -0.9951 0.0942
vn 0.0286 0.9951 0.0942
vn 0.2889 0.0975 0.9524
vn 0.0846 -0.9565 0.2790
vn 0.2779 0.2890 0.9161
vn 0.1374 -0.8810 0.4528
vn 0.2563 0.4696 0.8448
vn 0.1847 -0.7715 0.6088
vn 0.2248 0.6326 0.7412
vn 0.0976 0.0975 0.9904
vn 0.0286 -0.9565 0.2902
vn 0.0938 0.2890 0.9527
vn 0.0464 -0.8810 0.4709
vn 0.0865 0.4696 0.8786
vn 0.0624 -0.7715 0.6332
vn 0.0759 0.6326 0.7708
vn 0.0759 -0.6326 0.7708
vn 0.0624 0.7715 0.6332
vn 0.0865 -0.4696 0.8786
vn 0.0464 0.8810 0.4709
vn 0.0938 -0.2890 0.9527
vn 0.0286 0.9565 0.2902
vn 0.0976 -0.0975 0.9904
vn 0.0097 -0.9951 0.0980
vn 0.0097 0.9951 0.0980
vt 0.734375 0.000000
vt 0.718750 0.062500
vt 0.750000 0.062500
vt 0.750000 0.437500
vt 0.718750 0.437500
vt 0.718750 0.500000
vt 0.750000 0.500000
vt 0.750000 0.875000
vt 0.718750 0.875000
vt 0.718750 0.937500
vt 0.750000 0.937500
vt 0.750000 0.375000
vt 0.718750 0.375000
vt 0.750000 0.812500
vt 0.718750 0.812500
vt 0.750000 0.312500
vt 0.718750 0.312500
vt 0.750000 0.750000
vt 0.718750 0.750000
vt 0.750000 0.250000
vt 0.718750 0.250000
vt 0.750000 0.687500
vt 0.718750 0.687500
vt 0.750000 0.187500
vt 0.718750 0.187500
vt 0.750000 0.625000
vt 0.718750 0.625000
vt 0.750000 0.125000
vt 0.718750 0.125000
vt 0.750000 0.562500
vt 0.718750 0.562500
vt 0.734375 1.000000
vt 0.687500 0.062500
vt 0.687500 0.125000
vt 0.687500 0.500000
vt 0.687500 0.562500
vt 0.687500 0.937500
vt 0.703125 1.000000
vt 0.703125 0.000000
vt 0.687500 0.437500
vt 0.687500 0.875000
vt 0.687500 0.375000
vt 0.687500 0.812500
vt 0.687500 0.312500
vt 0.687500 0.750000
vt 0.687500 0.250000
vt 0.687500 0.687500
vt 0.687500 0.187500
vt 0.687500 0.625000
vt 0.656250 0.750000
vt 0.656250 0.812500
vt 0.656250 0.250000
vt 0.656250 0.312500
vt 0.656250 0.687500
vt 0.656250 0.187500
vt 0.656250 0.625000
vt 0.656250 0.125000
vt 0.656250 0.562500
vt 0.656250 0.062500
vt 0.656250 0.500000
vt 0.656250 0.937500
vt 0.671875 1.000000
vt 0.671875 0.000000
vt 0.656250 0.437500
vt 0.656250 0.875000
vt 0.656250 0.375000
vt 0.625000 0.500000
vt 0.625000 0.562500
vt 0.625000 0.937500
vt 0.640625 1.000000
vt 0.640625 0.000000
vt 0.625000 0.062500
vt 0.625000 0.437500
vt 0.625000 0.875000
vt 0.625000 0.375000
vt 0.625000 0.812500
vt 0.625000 0.312500
vt 0.625000 0.750000
vt 0.625000 0.250000
vt 0.625000 0.687500
vt 0.625000 0.187500
vt 0.625000 0.625000
vt 0.625000 0.125000
vt 0.593750 0.250000
vt 0.593750 0.312500
vt 0.593750 0.687500
vt 0.593750 0.750000
vt 0.593750 0.187500
vt 0.593750 0.625000
vt 0.593750 0.125000
vt 0.593750 0.562500
vt 0.593750 0.062500
vt 0.593750 0.500000
vt 0.593750 0.937500
vt 0.609375 1.000000
vt 0.609375 0.000000
vt 0.593750 0.437500
vt 0.593750 0.875000
vt 0.593750 0.375000
vt 0.593750 0.812500
vt 0.578125 0.000000
vt 0.562500 0.062500
vt 0.562500 0.437500
vt 0.562500 0.500000
vt 0.562500 0.875000
vt 0.562500 0.937500
vt 0.562500 0.375000
vt 0.562500 0.812500
vt 0.562500 0.312500
vt 0.562500 0.750000
vt 0.562500 0.250000
vt 0.562500 0.687500
vt 0.562500 0.187500
vt 0.562500 0.625000
vt 0.562500 0.125000
vt 0.562500 0.562500
vt 0.578125 1.000000
vt 0.531250 0.187500
vt 0.531250 0.250000
vt 0.531250 0.625000
vt 0.531250 0.687500
vt 0.531250 0.125000
vt 0.531250 0.562500
vt 0.531250 0.062500
vt 0.531250 0.500000
vt 0.531250 0.937500
vt 0.546875 1.000000
vt 0.546875 0.000000
vt 0.531250 0.437500
vt 0.531250 0.875000
vt 0.531250 0.375000
vt 0.531250 0.812500
vt 0.531250 0.312500
vt 0.531250 0.750000
vt 0.500000 0.875000
vt 0.500000 0.937500
vt 0.500000 0.375000
vt 0.500000 0.437500
vt 0.500000 0.812500
vt 0.500000 0.312500
vt 0.500000 0.750000
vt 0.500000 0.250000
vt 0.500000 0.687500
vt 0.500000 0.187500
vt 0.500000 0.625000
vt 0.500000 0.125000
vt 0.500000 0.562500
vt 0.500000 0.062500
vt 0.500000 0.500000
vt 0.515625 1.000000
vt 0.515625 0.000000
vt 0.468750 0.625000
vt 0.468750 0.687500
vt 0.468750 0.125000
vt 0.468750 0.187500
vt 0.468750 0.562500
vt 0.468750 0.062500
vt 0.468750 0.500000
vt 0.468750 0.937500
vt 0.484375 1.000000
vt 0.484375 0.000000
vt 0.468750 0.437500
vt 0.468750 0.875000
vt 0.468750 0.375000
vt 0.468750 0.812500
vt 0.468750 0.312500
vt 0.468750 0.750000
vt 0.468750 0.250000
vt 0.437500 0.375000
vt 0.437500 0.437500
vt 0.437500 0.812500
vt 0.437500 0.875000
vt 0.437500 0.312500
vt 0.437500 0.750000
vt 0.437500 0.250000
vt 0.437500 0.687500
vt 0.437500 0.187500
vt 0.437500 0.625000
vt 0.437500 0.125000
vt 0.437500 0.562500
vt 0.437500 0.062500
vt 0.437500 0.500000
vt 0.437500 0.937500
vt 0.453125 1.000000
vt 0.453125 0.000000
vt 0.406250 0.125000
vt 0.406250 0.187500
vt 0.406250 0.562500
vt 0.406250 0.625000
vt 0.406250 0.062500
vt 0.406250 0.500000
vt 0.406250 0.937500
vt 0.421875 1.000000
vt 0.421875 0.000000
vt 0.406250 0.437500
vt 0.406250 0.875000
vt 0.406250 0.375000
vt 0.406250 0.812500
vt 0.406250 0.312500
vt 0.406250 0.750000
vt 0.406250 0.250000
vt 0.406250 0.687500
vt 0.375000 0.812500
vt 0.375000 0.875000
vt 0.375000 0.312500
vt 0.375000 0.375000
vt 0.375000 0.750000
vt 0.375000 0.250000
vt 0.375000 0.687500
vt 0.375000 0.187500
vt 0.375000 0.625000
vt 0.375000 0.125000
vt 0.375000 0.562500
vt 0.375000 0.062500
vt 0.375000 0.500000
vt 0.375000 0.937500
vt 0.390625 1.000000
vt 0.390625 0.000000
vt 0.375000 0.437500
vt 0.343750 0.562500
vt 0.343750 0.625000
vt 0.343750 0.062500
vt 0.343750 0.125000
vt 0.343750 0.500000
vt 0.343750 0.937500
vt 0.359375 1.000000
vt 0.359375 0.000000
vt 0.343750 0.437500
vt 0.343750 0.875000
vt 0.343750 0.375000
vt 0.343750 0.812500
vt 0.343750 0.312500
vt 0.343750 0.750000
vt 0.343750 0.250000
vt 0.343750 0.687500
vt 0.343750 0.187500
vt 0.312500 0.312500
vt 0.312500 0.375000
vt 0.312500 0.750000
vt 0.312500 0.812500
vt 0.312500 0.250000
vt 0.312500 0.687500
vt 0.312500 0.187500
vt 0.312500 0.625000
vt 0.312500 0.125000
vt 0.312500 0.562500
vt 0.312500 0.062500
vt 0.312500 0.500000
vt 0.312500 0.937500
vt 0.328125 1.000000
vt 0.328125 0.000000
vt 0.312500 0.437500
vt 0.312500 0.875000
vt 0.281250 0.062500
vt 0.281250 0.125000
vt 0.281250 0.500000
vt 0.281250 0.562500
vt 0.281250 0.937500
vt 0.296875 1.000000
vt 0.296875 0.000000
vt 0.281250 0.437500
vt 0.281250 0.875000
vt 0.281250 0.375000
vt 0.281250 0.812500
vt 0.281250 0.312500
vt 0.281250 0.750000
vt 0.281250 0.250000
vt 0.281250 0.687500
vt 0.281250 0.187500
vt 0.281250 0.625000
vt 0.250000 0.250000
vt 0.250000 0.312500
vt 0.250000 0.687500
vt 0.250000 0.750000
vt 0.250000 0.187500
vt 0.250000 0.625000
vt 0.250000 0.125000
vt 0.250000 0.562500
vt 0.250000 0.062500
vt 0.250000 0.500000
vt 0.250000 0.937500
vt 0.265625 1.000000
vt 0.265625 0.000000
vt 0.250000 0.437500
vt 0.250000 0.875000
vt 0.250000 0.375000
vt 0.250000 0.812500
vt 0.218750 0.937500
vt 0.234375 1.000000
vt 0.234375 0.000000
vt 0.218750 0.062500
vt 0.218750 0.437500
vt 0.218750 0.500000
vt 0.218750 0.875000
vt 0.218750 0.375000
vt 0.218750 0.812500
vt 0.218750 0.312500
vt 0.218750 0.750000
vt 0.218750 0.250000
vt 0.218750 0.687500
vt 0.218750 0.187500
vt 0.218750 0.625000
vt 0.218750 0.125000
vt 0.218750 0.562500
vt 0.187500 0.687500
vt 0.187500 0.750000
vt 0.187500 0.187500
vt 0.187500 0.250000
vt 0.187500 0.625000
vt 0.187500 0.125000
vt 0.187500 0.562500
vt 0.187500 0.062500
vt 0.187500 0.500000
vt 0.187500 0.937500
vt 0.203125 1.000000
vt 0.203125 0.000000
vt 0.187500 0.437500
vt 0.187500 0.875000
vt 0.187500 0.375000
vt 0.187500 0.812500
vt 0.187500 0.312500
vt 0.156250 0.437500
vt 0.156250 0.500000
vt 0.156250 0.875000
vt 0.156250 0.937500
vt 0.156250 0.375000
vt 0.156250 0.812500
vt 0.156250 0.312500
vt 0.156250 0.750000
vt 0.156250 0.250000
vt 0.156250 0.687500
vt 0.156250 0.187500
vt 0.156250 0.625000
vt 0.156250 0.125000
vt 0.156250 0.562500
vt 0.156250 0.062500
vt 0.171875 1.000000
vt 0.171875 0.000000
vt 0.125000 0.187500
vt 0.125000 0.250000
vt 0.125000 0.625000
vt 0.125000 0.687500
vt 0.125000 0.125000
vt 0.125000 0.562500
vt 0.125000 0.062500
vt 0.125000 0.500000
vt 0.125000 0.937500
vt 0.140625 1.000000
vt 0.140625 0.000000
vt 0.125000 0.437500
vt 0.125000 0.875000
vt 0.125000 0.375000
vt 0.125000 0.812500
vt 0.125000 0.312500
vt 0.125000 0.750000
vt 0.093750 0.875000
vt 0.093750 0.937500
vt 0.093750 0.375000
vt 0.093750 0.437500
vt 0.093750 0.812500
vt 0.093750 0.312500
vt 0.093750 0.750000
vt 0.093750 0.250000
vt 0.093750 0.687500
vt 0.093750 0.187500
vt 0.093750 0.625000
vt 0.093750 0.125000
vt 0.093750 0.562500
vt 0.093750 0.062500
vt 0.093750 0.500000
vt 0.109375 1.000000
vt 0.109375 0.000000
vt 0.062500 0.625000
vt 0.062500 0.687500
vt 0.062500 0.125000
vt 0.062500 0.187500
vt 0.062500 0.562500
vt 0.062500 0.062500
vt 0.062500 0.500000
vt 0.062500 0.937500
vt 0.078125 1.000000
vt 0.078125 0.000000
vt 0.062500 0.437500
vt 0.062500 0.875000
vt 0.062500 0.375000
vt 0.062500 0.812500
vt 0.062500 0.312500
vt 0.062500 0.750000
vt 0.062500 0.250000
vt 0.031250 0.375000
vt 0.031250 0.437500
vt 0.031250 0.812500
vt 0.031250 0.875000
vt 0.031250 0.312500
vt 0.031250 0.750000
vt 0.031250 0.250000
vt 0.031250 0.687500
vt 0.031250 0.187500
vt 0.031250 0.625000
vt 0.031250 0.125000
vt 0.031250 0.562500
vt 0.031250 0.062500
vt 0.031250 0.500000
vt 0.031250 0.937500
vt 0.046875 1.000000
vt 0.046875 0.000000
vt 0.000000 0.125000
vt 0.000000 0.187500
vt 0.000000 0.562500
vt 0.000000 0.625000
vt 0.000000 0.062500
vt 0.000000 0.500000
vt 0.000000 0.937500
vt 0.015625 1.000000
vt 0.015625 0.000000
vt 0.000000 0.437500
vt 0.000000 0.875000
vt 0.000000 0.375000
vt 0.000000 0.812500
vt 0.000000 0.312500
vt 0.000000 0.750000
vt 0.000000 0.250000
vt 0.000000 0.687500
vt 1.000000 0.312500
vt 0.968750 0.312500
vt 0.968750 0.375000
vt 1.000000 0.375000
vt 1.000000 0.750000
vt 0.968750 0.750000
vt 0.968750 0.812500
vt 1.000000 0.812500
vt 1.000000 0.250000
vt 0.968750 0.250000
vt 1.000000 0.687500
vt 0.968750 0.687500
vt 1.000000 0.187500
vt 0.968750 0.187500
vt 1.000000 0.625000
vt 0.968750 0.625000
vt 1.000000 0.125000
vt 0.968750 0.125000
vt 1.000000 0.562500
vt 0.968750 0.562500
vt 1.000000 0.062500
vt 0.968750 0.062500
vt 1.000000 0.500000
vt 0.968750 0.500000
vt 1.000000 0.937500
vt 0.968750 0.937500
vt 0.984375 1.000000
vt 0.984375 0.000000
vt 1.000000 0.437500
vt 0.968750 0.437500
vt 1.000000 0.875000
vt 0.968750 0.875000
vt 0.937500 0.062500
vt 0.937500 0.125000
vt 0.937500 0.500000
vt 0.937500 0.562500
vt 0.937500 0.937500
vt 0.953125 1.000000
vt 0.953125 0.000000
vt 0.937500 0.437500
vt 0.937500 0.875000
vt 0.937500 0.375000
vt 0.937500 0.812500
vt 0.937500 0.312500
vt 0.937500 0.750000
vt 0.937500 0.250000
vt 0.937500 0.687500
vt 0.937500 0.187500
vt 0.937500 0.625000
vt 0.906250 0.750000
vt 0.906250 0.812500
vt 0.906250 0.250000
vt 0.906250 0.312500
vt 0.906250 0.687500
vt 0.906250 0.187500
vt 0.906250 0.625000
vt 0.906250 0.125000
vt 0.906250 0.562500
vt 0.906250 0.062500
vt 0.906250 0.500000
vt 0.906250 0.937500
vt 0.921875 1.000000
vt 0.921875 0.000000
vt 0.906250 0.437500
vt 0.906250 0.875000
vt 0.906250 0.375000
vt 0.875000 0.500000
vt 0.875000 0.562500
vt 0.875000 0.937500
vt 0.890625 1.000000
vt 0.890625 0.000000
vt 0.875000 0.062500
vt 0.875000 0.437500
vt 0.875000 0.875000
vt 0.875000 0.375000
vt 0.875000 0.812500
vt 0.875000 0.312500
vt 0.875000 0.750000
vt 0.875000 0.250000
vt 0.875000 0.687500
vt 0.875000 0.187500
vt 0.875000 0.625000
vt 0.875000 0.125000
vt 0.843750 0.250000
vt 0.843750 0.312500
vt 0.843750 0.687500
vt 0.843750 0.750000
vt 0.843750 0.187500
vt 0.843750 0.625000
vt 0.843750 0.125000
vt 0.843750 0.562500
vt 0.843750 0.062500
vt 0.843750 0.500000
vt 0.843750 0.937500
vt 0.859375 1.000000
vt 0.859375 0.000000
vt 0.843750 0.437500
vt 0.843750 0.875000
vt 0.843750 0.375000
vt 0.843750 0.812500
vt 0.812500 0.937500
vt 0.828125 1.000000
vt 0.828125 0.000000
vt 0.812500 0.062500
vt 0.812500 0.437500
vt 0.812500 0.500000
vt 0.812500 0.875000
vt 0.812500 0.375000
vt 0.812500 0.812500
vt 0.812500 0.312500
vt 0.812500 0.750000
vt 0.812500 0.250000
vt 0.812500 0.687500
vt 0.812500 0.187500
vt 0.812500 0.625000
vt 0.812500 0.125000
vt 0.812500 0.562500
vt 0.781250 0.687500
vt 0.781250 0.750000
vt 0.781250 0.187500
vt 0.781250 0.250000
vt 0.781250 0.625000
vt 0.781250 0.125000
vt 0.781250 0.562500
vt 0.781250 0.062500
vt 0.781250 0.500000
vt 0.781250 0.937500
vt 0.796875 1.000000
vt 0.796875 0.000000
vt 0.781250 0.437500
vt 0.781250 0.875000
vt 0.781250 0.375000
vt 0.781250 0.812500
vt 0.781250 0.312500
vt 0.765625 1.000000
vt 0.765625 0.000000
s 0
usemtl マテリアル
f 308/1/1 21/2/1 482/3/1
f 5/4/2 15/5/2 14/6/2 4/7/2
f 475/8/3 8/9/3 7/10/3 474/11/3
f 478/12/4 16/13/4 15/5/4 5/4/4
f 1/14/5 9/15/5 8/9/5 475/8/5
f 6/16/6 17/17/6 16/13/6 478/12/6
f 476/18/7 10/19/7 9/15/7 1/14/7
f 479/20/8 18/21/8 17/17/8 6/16/8
f 2/22/9 11/23/9 10/19/9 476/18/9
f 480/24/10 19/25/10 18/21/10 479/20/10
f 477/26/11 12/27/11 11/23/11 2/22/11
f 481/28/12 20/29/12 19/25/12 480/24/12
f 3/30/13 13/31/13 12/27/13 477/26/13
f 482/3/14 21/2/14 20/29/14 481/28/14
f 4/7/15 14/6/15 13/31/15 3/30/15
f 474/11/16 7/10/16 82/32/16
f 21/2/17 36/33/17 35/34/17 20/29/17
f 14/6/18 29/35/18 28/36/18 13/31/18
f 7/10/19 22/37/19 82/38/19
f 308/39/20 36/33/20 21/2/20
f 15/5/21 30/40/21 29/35/21 14/6/21
f 8/9/22 23/41/22 22/37/22 7/10/22
f 16/13/23 31/42/23 30/40/23 15/5/23
f 9/15/24 24/43/24 23/41/24 8/9/24
f 17/17/25 32/44/25 31/42/25 16/13/25
f 10/19/26 25/45/26 24/43/26 9/15/26
f 18/21/27 33/46/27 32/44/27 17/17/27
f 11/23/28 26/47/28 25/45/28 10/19/28
f 19/25/29 34/48/29 33/46/29 18/21/29
f 12/27/30 27/49/30 26/47/30 11/23/30
f 20/29/31 35/34/31 34/48/31 19/25/31
f 13/31/32 28/36/32 27/49/32 12/27/32
f 25/45/33 40/50/33 39/51/33 24/43/33
f 33/46/34 48/52/34 47/53/34 32/44/34
f 26/47/35 41/54/35 40/50/35 25/45/35
f 34/48/36 49/55/36 48/52/36 33/46/36
f 27/49/37 42/56/37 41/54/37 26/47/37
f 35/34/38 50/57/38 49/55/38 34/48/38
f 28/36/39 43/58/39 42/56/39 27/49/39
f 36/33/40 51/59/40 50/57/40 35/34/40
f 29/35/41 44/60/41 43/58/41 28/36/41
f 22/37/42 37/61/42 82/62/42
f 308/63/43 51/59/43 36/33/43
f 30/40/44 45/64/44 44/60/44 29/35/44
f 23/41/45 38/65/45 37/61/45 22/37/45
f 31/42/46 46/66/46 45/64/46 30/40/46
f 24/43/47 39/51/47 38/65/47 23/41/47
f 32/44/48 47/53/48 46/66/48 31/42/48
f 44/60/49 59/67/49 58/68/49 43/58/49
f 37/61/50 52/69/50 82/70/50
f 308/71/51 66/72/51 51/59/51
f 45/64/52 60/73/52 59/67/52 44/60/52
f 38/65/53 53/74/53 52/69/53 37/61/53
f 46/66/54 61/75/54 60/73/54 45/64/54
f 39/51/55 54/76/55 53/74/55 38/65/55
f 47/53/56 62/77/56 61/75/56 46/66/56
f 40/50/57 55/78/57 54/76/57 39/51/57
f 48/52/58 63/79/58 62/77/58 47/53/58
f 41/54/59 56/80/59 55/78/59 40/50/59
f 49/55/60 64/81/60 63/79/60 48/52/60
f 42/56/61 57/82/61 56/80/61 41/54/61
f 50/57/62 65/83/62 64/81/62 49/55/62
f 43/58/63 58/68/63 57/82/63 42/56/63
f 51/59/64 66/72/64 65/83/64 50/57/64
f 63/79/65 78/84/65 77/85/65 62/77/65
f 56/80/66 71/86/66 70/87/66 55/78/66
f 64/81/67 79/88/67 78/84/67 63/79/67
f 57/82/68 72/89/68 71/86/68 56/80/68
f 65/83/69 80/90/69 79/88/69 64/81/69
f 58/68/70 73/91/70 72/89/70 57/82/70
f 66/72/71 81/92/71 80/90/71 65/83/71
f 59/67/72 74/93/72 73/91/72 58/68/72
f 52/69/73 67/94/73 82/95/73
f 308/96/74 81/92/74 66/72/74
f 60/73/75 75/97/75 74/93/75 59/67/75
f 53/74/76 68/98/76 67/94/76 52/69/76
f 61/75/77 76/99/77 75/97/77 60/73/77
f 54/76/78 69/100/78 68/98/78 53/74/78
f 62/77/79 77/85/79 76/99/79 61/75/79
f 55/78/80 70/87/80 69/100/80 54/76/80
f 308/101/81 97/102/81 81/92/81
f 75/97/82 91/103/82 90/104/82 74/93/82
f 68/98/83 84/105/83 83/106/83 67/94/83
f 76/99/84 92/107/84 91/103/84 75/97/84
f 69/100/85 85/108/85 84/105/85 68/98/85
f 77/85/86 93/109/86 92/107/86 76/99/86
f 70/87/87 86/110/87 85/108/87 69/100/87
f 78/84/88 94/111/88 93/109/88 77/85/88
f 71/86/89 87/112/89 86/110/89 70/87/89
f 79/88/90 95/113/90 94/111/90 78/84/90
f 72/89/91 88/114/91 87/112/91 71/86/91
f 80/90/92 96/115/92 95/113/92 79/88/92
f 73/91/93 89/116/93 88/114/93 72/89/93
f 81/92/94 97/102/94 96/115/94 80/90/94
f 74/93/95 90/104/95 89/116/95 73/91/95
f 67/94/96 83/106/96 82/117/96
f 95/113/97 110/118/97 109/119/97 94/111/97
f 88/114/98 103/120/98 102/121/98 87/112/98
f 96/115/99 111/122/99 110/118/99 95/113/99
f 89/116/100 104/123/100 103/120/100 88/114/100
f 97/102/101 112/124/101 111/122/101 96/115/101
f 90/104/102 105/125/102 104/123/102 89/116/102
f 83/106/103 98/126/103 82/127/103
f 308/128/104 112/124/104 97/102/104
f 91/103/105 106/129/105 105/125/105 90/104/105
f 84/105/106 99/130/106 98/126/106 83/106/106
f 92/107/107 107/131/107 106/129/107 91/103/107
f 85/108/108 100/132/108 99/130/108 84/105/108
f 93/109/109 108/133/109 107/131/109 92/107/109
f 86/110/110 101/134/110 100/132/110 85/108/110
f 94/111/111 109/119/111 108/133/111 93/109/111
f 87/112/112 102/121/112 101/134/112 86/110/112
f 99/130/113 114/135/113 113/136/113 98/126/113
f 107/131/114 122/137/114 121/138/114 106/129/114
f 100/132/115 115/139/115 114/135/115 99/130/115
f 108/133/116 123/140/116 122/137/116 107/131/116
f 101/134/117 116/141/117 115/139/117 100/132/117
f 109/119/118 124/142/118 123/140/118 108/133/118
f 102/121/119 117/143/119 116/141/119 101/134/119
f 110/118/120 125/144/120 124/142/120 109/119/120
f 103/120/121 118/145/121 117/143/121 102/121/121
f 111/122/122 126/146/122 125/144/122 110/118/122
f 104/123/123 119/147/123 118/145/123 103/120/123
f 112/124/124 127/148/124 126/146/124 111/122/124
f 105/125/125 120/149/125 119/147/125 104/123/125
f 98/126/126 113/136/126 82/150/126
f 308/151/127 127/148/127 112/124/127
f 106/129/128 121/138/128 120/149/128 105/125/128
f 118/145/129 133/152/129 132/153/129 117/143/129
f 126/146/130 141/154/130 140/155/130 125/144/130
f 119/147/131 134/156/131 133/152/131 118/145/131
f 127/148/132 142/157/132 141/154/132 126/146/132
f 120/149/133 135/158/133 134/156/133 119/147/133
f 113/136/134 128/159/134 82/160/134
f 308/161/135 142/157/135 127/148/135
f 121/138/136 136/162/136 135/158/136 120/149/136
f 114/135/137 129/163/137 128/159/137 113/136/137
f 122/137/138 137/164/138 136/162/138 121/138/138
f 115/139/139 130/165/139 129/163/139 114/135/139
f 123/140/140 138/166/140 137/164/140 122/137/140
f 116/141/141 131/167/141 130/165/141 115/139/141
f 124/142/142 139/168/142 138/166/142 123/140/142
f 117/143/143 132/153/143 131/167/143 116/141/143
f 125/144/144 140/155/144 139/168/144 124/142/144
f 137/164/145 152/169/145 151/170/145 136/162/145
f 130/165/146 145/171/146 144/172/146 129/163/146
f 138/166/147 153/173/147 152/169/147 137/164/147
f 131/167/148 146/174/148 145/171/148 130/165/148
f 139/168/149 154/175/149 153/173/149 138/166/149
f 132/153/150 147/176/150 146/174/150 131/167/150
f 140/155/151 155/177/151 154/175/151 139/168/151
f 133/152/152 148/178/152 147/176/152 132/153/152
f 141/154/153 156/179/153 155/177/153 140/155/153
f 134/156/154 149/180/154 148/178/154 133/152/154
f 142/157/155 157/181/155 156/179/155 141/154/155
f 135/158/156 150/182/156 149/180/156 134/156/156
f 128/159/157 143/183/157 82/184/157
f 308/185/158 157/181/158 142/157/158
f 136/162/159 151/170/159 150/182/159 135/158/159
f 129/163/160 144/172/160 143/183/160 128/159/160
f 156/179/161 171/186/161 170/187/161 155/177/161
f 149/180/162 164/188/162 163/189/162 148/178/162
f 157/181/163 172/190/163 171/186/163 156/179/163
f 150/182/164 165/191/164 164/188/164 149/180/164
f 143/183/165 158/192/165 82/193/165
f 308/194/166 172/190/166 157/181/166
f 151/170/167 166/195/167 165/191/167 150/182/167
f 144/172/168 159/196/168 158/192/168 143/183/168
f 152/169/169 167/197/169 166/195/169 151/170/169
f 145/171/170 160/198/170 159/196/170 144/172/170
f 153/173/171 168/199/171 167/197/171 152/169/171
f 146/174/172 161/200/172 160/198/172 145/171/172
f 154/175/173 169/201/173 168/199/173 153/173/173
f 147/176/174 162/202/174 161/200/174 146/174/174
f 155/177/175 170/187/175 169/201/175 154/175/175
f 148/178/176 163/189/176 162/202/176 147/176/176
f 160/198/177 175/203/177 174/204/177 159/196/177
f 168/199/178 183/205/178 182/206/178 167/197/178
f 161/200/179 176/207/179 175/203/179 160/198/179
f 169/201/180 184/208/180 183/205/180 168/199/180
f 162/202/181 177/209/181 176/207/181 161/200/181
f 170/187/182 185/210/182 184/208/182 169/201/182
f 163/189/183 178/211/183 177/209/183 162/202/183
f 171/186/184 186/212/184 185/210/184 170/187/184
f 164/188/185 179/213/185 178/211/185 163/189/185
f 172/190/186 187/214/186 186/212/186 171/186/186
f 165/191/187 180/215/187 179/213/187 164/188/187
f 158/192/188 173/216/188 82/217/188
f 308/218/189 187/214/189 172/190/189
f 166/195/190 181/219/190 180/215/190 165/191/190
f 159/196/191 174/204/191 173/216/191 158/192/191
f 167/197/192 182/206/192 181/219/192 166/195/192
f 179/213/193 194/220/193 193/221/193 178/211/193
f 187/214/194 202/222/194 201/223/194 186/212/194
f 180/215/195 195/224/195 194/220/195 179/213/195
f 173/216/196 188/225/196 82/226/196
f 308/227/197 202/222/197 187/214/197
f 181/219/198 196/228/198 195/224/198 180/215/198
f 174/204/199 189/229/199 188/225/199 173/216/199
f 182/206/200 197/230/200 196/228/200 181/219/200
f 175/203/201 190/231/201 189/229/201 174/204/201
f 183/205/202 198/232/202 197/230/202 182/206/202
f 176/207/203 191/233/203 190/231/203 175/203/203
f 184/208/204 199/234/204 198/232/204 183/205/204
f 177/209/205 192/235/205 191/233/205 176/207/205
f 185/210/206 200/236/206 199/234/206 184/208/206
f 178/211/207 193/221/207 192/235/207 177/209/207
f 186/212/208 201/223/208 200/236/208 185/210/208
f 198/232/209 213/237/209 212/238/209 197/230/209
f 191/233/210 206/239/210 205/240/210 190/231/210
f 199/234/211 214/241/211 213/237/211 198/232/211
f 192/235/212 207/242/212 206/239/212 191/233/212
f 200/236/213 215/243/213 214/241/213 199/234/213
f 193/221/214 208/244/214 207/242/214 192/235/214
f 201/223/215 216/245/215 215/243/215 200/236/215
f 194/220/216 209/246/216 208/244/216 193/221/216
f 202/222/217 217/247/217 216/245/217 201/223/217
f 195/224/218 210/248/218 209/246/218 194/220/218
f 188/225/219 203/249/219 82/250/219
f 308/251/220 217/247/220 202/222/220
f 196/228/221 211/252/221 210/248/221 195/224/221
f 189/229/222 204/253/222 203/249/222 188/225/222
f 197/230/223 212/238/223 211/252/223 196/228/223
f 190/231/224 205/240/224 204/253/224 189/229/224
f 217/247/225 232/254/225 231/255/225 216/245/225
f 210/248/226 225/256/226 224/257/226 209/246/226
f 203/249/227 218/258/227 82/259/227
f 308/260/228 232/254/228 217/247/228
f 211/252/229 226/261/229 225/256/229 210/248/229
f 204/253/230 219/262/230 218/258/230 203/249/230
f 212/238/231 227/263/231 226/261/231 211/252/231
f 205/240/232 220/264/232 219/262/232 204/253/232
f 213/237/233 228/265/233 227/263/233 212/238/233
f 206/239/234 221/266/234 220/264/234 205/240/234
f 214/241/235 229/267/235 228/265/235 213/237/235
f 207/242/236 222/268/236 221/266/236 206/239/236
f 215/243/237 230/269/237 229/267/237 214/241/237
f 208/244/238 223/270/238 222/268/238 207/242/238
f 216/245/239 231/255/239 230/269/239 215/243/239
f 209/246/240 224/257/240 223/270/240 208/244/240
f 229/267/241 244/271/241 243/272/241 228/265/241
f 222/268/242 237/273/242 236/274/242 221/266/242
f 230/269/243 245/275/243 244/271/243 229/267/243
f 223/270/244 238/276/244 237/273/244 222/268/244
f 231/255/245 246/277/245 245/275/245 230/269/245
f 224/257/246 239/278/246 238/276/246 223/270/246
f 232/254/247 247/279/247 246/277/247 231/255/247
f 225/256/248 240/280/248 239/278/248 224/257/248
f 218/258/249 233/281/249 82/282/249
f 308/283/250 247/279/250 232/254/250
f 226/261/251 241/284/251 240/280/251 225/256/251
f 219/262/252 234/285/252 233/281/252 218/258/252
f 227/263/253 242/286/253 241/284/253 226/261/253
f 220/264/254 235/287/254 234/285/254 219/262/254
f 228/265/255 243/272/255 242/286/255 227/263/255
f 221/266/256 236/274/256 235/287/256 220/264/256
f 233/281/257 248/288/257 82/289/257
f 308/290/258 262/291/258 247/279/258
f 241/284/259 256/292/259 255/293/259 240/280/259
f 234/285/260 249/294/260 248/288/260 233/281/260
f 242/286/261 257/295/261 256/292/261 241/284/261
f 235/287/262 250/296/262 249/294/262 234/285/262
f 243/272/263 258/297/263 257/295/263 242/286/263
f 236/274/264 251/298/264 250/296/264 235/287/264
f 244/271/265 259/299/265 258/297/265 243/272/265
f 237/273/266 252/300/266 251/298/266 236/274/266
f 245/275/267 260/301/267 259/299/267 244/271/267
f 238/276/268 253/302/268 252/300/268 237/273/268
f 246/277/269 261/303/269 260/301/269 245/275/269
f 239/278/270 254/304/270 253/302/270 238/276/270
f 247/279/271 262/291/271 261/303/271 246/277/271
f 240/280/272 255/293/272 254/304/272 239/278/272
f 252/300/273 267/305/273 266/306/273 251/298/273
f 260/301/274 275/307/274 274/308/274 259/299/274
f 253/302/275 268/309/275 267/305/275 252/300/275
f 261/303/276 276/310/276 275/307/276 260/301/276
f 254/304/277 269/311/277 268/309/277 253/302/277
f 262/291/278 277/312/278 276/310/278 261/303/278
f 255/293/279 270/313/279 269/311/279 254/304/279
f 248/288/280 263/314/280 82/315/280
f 308/316/281 277/312/281 262/291/281
f 256/292/282 271/317/282 270/313/282 255/293/282
f 249/294/283 264/318/283 263/314/283 248/288/283
f 257/295/284 272/319/284 271/317/284 256/292/284
f 250/296/285 265/320/285 264/318/285 249/294/285
f 258/297/286 273/321/286 272/319/286 257/295/286
f 251/298/287 266/306/287 265/320/287 250/296/287
f 259/299/288 274/308/288 273/321/288 258/297/288
f 271/317/289 286/322/289 285/323/289 270/313/289
f 264/318/290 279/324/290 278/325/290 263/314/290
f 272/319/291 287/326/291 286/322/291 271/317/291
f 265/320/292 280/327/292 279/324/292 264/318/292
f 273/321/293 288/328/293 287/326/293 272/319/293
f 266/306/294 281/329/294 280/327/294 265/320/294
f 274/308/295 289/330/295 288/328/295 273/321/295
f 267/305/296 282/331/296 281/329/296 266/306/296
f 275/307/297 290/332/297 289/330/297 274/308/297
f 268/309/298 283/333/298 282/331/298 267/305/298
f 276/310/299 291/334/299 290/332/299 275/307/299
f 269/311/300 284/335/300 283/333/300 268/309/300
f 277/312/301 292/336/301 291/334/301 276/310/301
f 270/313/302 285/323/302 284/335/302 269/311/302
f 263/314/303 278/325/303 82/337/303
f 308/338/304 292/336/304 277/312/304
f 290/332/305 305/339/305 304/340/305 289/330/305
f 283/333/306 298/341/306 297/342/306 282/331/306
f 291/334/307 306/343/307 305/339/307 290/332/307
f 284/335/308 299/344/308 298/341/308 283/333/308
f 292/336/309 307/345/309 306/343/309 291/334/309
f 285/323/310 300/346/310 299/344/310 284/335/310
f 278/325/311 293/347/311 82/348/311
f 308/349/312 307/345/312 292/336/312
f 286/322/313 301/350/313 300/346/313 285/323/313
f 279/324/314 294/351/314 293/347/314 278/325/314
f 287/326/315 302/352/315 301/350/315 286/322/315
f 280/327/316 295/353/316 294/351/316 279/324/316
f 288/328/317 303/354/317 302/352/317 287/326/317
f 281/329/318 296/355/318 295/353/318 280/327/318
f 289/330/319 304/340/319 303/354/319 288/328/319
f 282/331/320 297/342/320 296/355/320 281/329/320
f 294/351/321 310/356/321 309/357/321 293/347/321
f 302/352/322 318/358/322 317/359/322 301/350/322
f 295/353/323 311/360/323 310/356/323 294/351/323
f 303/354/324 319/361/324 318/358/324 302/352/324
f 296/355/325 312/362/325 311/360/325 295/353/325
f 304/340/326 320/363/326 319/361/326 303/354/326
f 297/342/327 313/364/327 312/362/327 296/355/327
f 305/339/328 321/365/328 320/363/328 304/340/328
f 298/341/329 314/366/329 313/364/329 297/342/329
f 306/343/330 322/367/330 321/365/330 305/339/330
f 299/344/331 315/368/331 314/366/331 298/341/331
f 307/345/332 323/369/332 322/367/332 306/343/332
f 300/346/333 316/370/333 315/368/333 299/344/333
f 293/347/334 309/357/334 82/371/334
f 308/372/335 323/369/335 307/345/335
f 301/350/336 317/359/336 316/370/336 300/346/336
f 314/366/337 329/373/337 328/374/337 313/364/337
f 322/367/338 337/375/338 336/376/338 321/365/338
f 315/368/339 330/377/339 329/373/339 314/366/339
f 323/369/340 338/378/340 337/375/340 322/367/340
f 316/370/341 331/379/341 330/377/341 315/368/341
f 309/357/342 324/380/342 82/381/342
f 308/382/343 338/378/343 323/369/343
f 317/359/344 332/383/344 331/379/344 316/370/344
f 310/356/345 325/384/345 324/380/345 309/357/345
f 318/358/346 333/385/346 332/383/346 317/359/346
f 311/360/347 326/386/347 325/384/347 310/356/347
f 319/361/348 334/387/348 333/385/348 318/358/348
f 312/362/349 327/388/349 326/386/349 311/360/349
f 320/363/350 335/389/350 334/387/350 319/361/350
f 313/364/351 328/374/351 327/388/351 312/362/351
f 321/365/352 336/376/352 335/389/352 320/363/352
f 333/385/353 348/390/353 347/391/353 332/383/353
f 326/386/354 341/392/354 340/393/354 325/384/354
f 334/387/355 349/394/355 348/390/355 333/385/355
f 327/388/356 342/395/356 341/392/356 326/386/356
f 335/389/357 350/396/357 349/394/357 334/387/357
f 328/374/358 343/397/358 342/395/358 327/388/358
f 336/376/359 351/398/359 350/396/359 335/389/359
f 329/373/360 344/399/360 343/397/360 328/374/360
f 337/375/361 352/400/361 351/398/361 336/376/361
f 330/377/362 345/401/362 344/399/362 329/373/362
f 338/378/363 353/402/363 352/400/363 337/375/363
f 331/379/364 346/403/364 345/401/364 330/377/364
f 324/380/365 339/404/365 82/405/365
f 308/406/366 353/402/366 338/378/366
f 332/383/367 347/391/367 346/403/367 331/379/367
f 325/384/368 340/393/368 339/404/368 324/380/368
f 352/400/369 367/407/369 366/408/369 351/398/369
f 345/401/370 360/409/370 359/410/370 344/399/370
f 353/402/371 368/411/371 367/407/371 352/400/371
f 346/403/372 361/412/372 360/409/372 345/401/372
f 339/404/373 354/413/373 82/414/373
f 308/415/374 368/411/374 353/402/374
f 347/391/375 362/416/375 361/412/375 346/403/375
f 340/393/376 355/417/376 354/413/376 339/404/376
f 348/390/377 363/418/377 362/416/377 347/391/377
f 341/392/378 356/419/378 355/417/378 340/393/378
f 349/394/379 364/420/379 363/418/379 348/390/379
f 342/395/380 357/421/380 356/419/380 341/392/380
f 350/396/381 365/422/381 364/420/381 349/394/381
f 343/397/382 358/423/382 357/421/382 342/395/382
f 351/398/383 366/408/383 365/422/383 350/396/383
f 344/399/384 359/410/384 358/423/384 343/397/384
f 364/424/385 379/425/385 378/426/385 363/427/385
f 357/428/386 372/429/386 371/430/386 356/431/386
f 365/432/387 380/433/387 379/425/387 364/424/387
f 358/434/388 373/435/388 372/429/388 357/428/388
f 366/436/389 381/437/389 380/433/389 365/432/389
f 359/438/390 374/439/390 373/435/390 358/434/390
f 367/440/391 382/441/391 381/437/391 366/436/391
f 360/442/392 375/443/392 374/439/392 359/438/392
f 368/444/393 383/445/393 382/441/393 367/440/393
f 361/446/394 376/447/394 375/443/394 360/442/394
f 354/448/395 369/449/395 82/450/395
f 308/451/396 383/445/396 368/444/396
f 362/452/397 377/453/397 376/447/397 361/446/397
f 355/454/398 370/455/398 369/449/398 354/448/398
f 363/427/399 378/426/399 377/453/399 362/452/399
f 356/431/400 371/430/400 370/455/400 355/454/400
f 383/445/401 398/456/401 397/457/401 382/441/401
f 376/447/402 391/458/402 390/459/402 375/443/402
f 369/449/403 384/460/403 82/461/403
f 308/462/404 398/456/404 383/445/404
f 377/453/405 392/463/405 391/458/405 376/447/405
f 370/455/406 385/464/406 384/460/406 369/449/406
f 378/426/407 393/465/407 392/463/407 377/453/407
f 371/430/408 386/466/408 385/464/408 370/455/408
f 379/425/409 394/467/409 393/465/409 378/426/409
f 372/429/410 387/468/410 386/466/410 371/430/410
f 380/433/411 395/469/411 394/467/411 379/425/411
f 373/435/412 388/470/412 387/468/412 372/429/412
f 381/437/413 396/471/413 395/469/413 380/433/413
f 374/439/414 389/472/414 388/470/414 373/435/414
f 382/441/415 397/457/415 396/471/415 381/437/415
f 375/443/416 390/459/416 389/472/416 374/439/416
f 387/468/417 402/473/417 401/474/417 386/466/417
f 395/469/418 410/475/418 409/476/418 394/467/418
f 388/470/419 403/477/419 402/473/419 387/468/419
f 396/471/420 411/478/420 410/475/420 395/469/420
f 389/472/421 404/479/421 403/477/421 388/470/421
f 397/457/422 412/480/422 411/478/422 396/471/422
f 390/459/423 405/481/423 404/479/423 389/472/423
f 398/456/424 413/482/424 412/480/424 397/457/424
f 391/458/425 406/483/425 405/481/425 390/459/425
f 384/460/426 399/484/426 82/485/426
f 308/486/427 413/482/427 398/456/427
f 392/463/428 407/487/428 406/483/428 391/458/428
f 385/464/429 400/488/429 399/484/429 384/460/429
f 393/465/430 408/489/430 407/487/430 392/463/430
f 386/466/431 401/474/431 400/488/431 385/464/431
f 394/467/432 409/476/432 408/489/432 393/465/432
f 406/483/433 421/490/433 420/491/433 405/481/433
f 399/484/434 414/492/434 82/493/434
f 308/494/435 428/495/435 413/482/435
f 407/487/436 422/496/436 421/490/436 406/483/436
f 400/488/437 415/497/437 414/492/437 399/484/437
f 408/489/438 423/498/438 422/496/438 407/487/438
f 401/474/439 416/499/439 415/497/439 400/488/439
f 409/476/440 424/500/440 423/498/440 408/489/440
f 402/473/441 417/501/441 416/499/441 401/474/441
f 410/475/442 425/502/442 424/500/442 409/476/442
f 403/477/443 418/503/443 417/501/443 402/473/443
f 411/478/444 426/504/444 425/502/444 410/475/444
f 404/479/445 419/505/445 418/503/445 403/477/445
f 412/480/446 427/506/446 426/504/446 411/478/446
f 405/481/447 420/491/447 419/505/447 404/479/447
f 413/482/448 428/495/448 427/506/448 412/480/448
f 425/502/449 440/507/449 439/508/449 424/500/449
f 418/503/450 433/509/450 432/510/450 417/501/450
f 426/504/451 441/511/451 440/507/451 425/502/451
f 419/505/452 434/512/452 433/509/452 418/503/452
f 427/506/453 442/513/453 441/511/453 426/504/453
f 420/491/454 435/514/454 434/512/454 419/505/454
f 428/495/455 443/515/455 442/513/455 427/506/455
f 421/490/456 436/516/456 435/514/456 420/491/456
f 414/492/457 429/517/457 82/518/457
f 308/519/458 443/515/458 428/495/458
f 422/496/459 437/520/459 436/516/459 421/490/459
f 415/497/460 430/521/460 429/517/460 414/492/460
f 423/498/461 438/522/461 437/520/461 422/496/461
f 416/499/462 431/523/462 430/521/462 415/497/462
f 424/500/463 439/508/463 438/522/463 423/498/463
f 417/501/464 432/510/464 431/523/464 416/499/464
f 429/517/465 444/524/465 82/525/465
f 308/526/466 458/527/466 443/515/466
f 437/520/467 452/528/467 451/529/467 436/516/467
f 430/521/468 445/530/468 444/524/468 429/517/468
f 438/522/469 453/531/469 452/528/469 437/520/469
f 431/523/470 446/532/470 445/530/470 430/521/470
f 439/508/471 454/533/471 453/531/471 438/522/471
f 432/510/472 447/534/472 446/532/472 431/523/472
f 440/507/473 455/535/473 454/533/473 439/508/473
f 433/509/474 448/536/474 447/534/474 432/510/474
f 441/511/475 456/537/475 455/535/475 440/507/475
f 434/512/476 449/538/476 448/536/476 433/509/476
f 442/513/477 457/539/477 456/537/477 441/511/477
f 435/514/478 450/540/478 449/538/478 434/512/478
f 443/515/479 458/527/479 457/539/479 442/513/479
f 436/516/480 451/529/480 450/540/480 435/514/480
f 448/536/481 463/541/481 462/542/481 447/534/481
f 456/537/482 471/543/482 470/544/482 455/535/482
f 449/538/483 464/545/483 463/541/483 448/536/483
f 457/539/484 472/546/484 471/543/484 456/537/484
f 450/540/485 465/547/485 464/545/485 449/538/485
f 458/527/486 473/548/486 472/546/486 457/539/486
f 451/529/487 466/549/487 465/547/487 450/540/487
f 444/524/488 459/550/488 82/551/488
f 308/552/489 473/548/489 458/527/489
f 452/528/490 467/553/490 466/549/490 451/529/490
f 445/530/491 460/554/491 459/550/491 444/524/491
f 453/531/492 468/555/492 467/553/492 452/528/492
f 446/532/493 461/556/493 460/554/493 445/530/493
f 454/533/494 469/557/494 468/555/494 453/531/494
f 447/534/495 462/542/495 461/556/495 446/532/495
f 455/535/496 470/544/496 469/557/496 454/533/496
f 467/553/497 5/4/497 4/7/497 466/549/497
f 460/554/498 475/8/498 474/11/498 459/550/498
f 468/555/499 478/12/499 5/4/499 467/553/499
f 461/556/500 1/14/500 475/8/500 460/554/500
f 469/557/501 6/16/501 478/12/501 468/555/501
f 462/542/502 476/18/502 1/14/502 461/556/502
f 470/544/503 479/20/503 6/16/503 469/557/503
f 463/541/504 2/22/504 476/18/504 462/542/504
f 471/543/505 480/24/505 479/20/505 470/544/505
f 464/545/506 477/26/506 2/22/506 463/541/506
f 472/546/507 481/28/507 480/24/507 471/543/507
f 465/547/508 3/30/508 477/26/508 464/545/508
f 473/548/509 482/3/509 481/28/509 472/546/509
f 466/549/510 4/7/510 3/30/510 465/547/510
f 459/550/511 474/11/511 82/558/511
f 308/559/512 482/3/512 473/548/512
