# Blender 4.4.1
# www.blender.org
mtllib PlayerBeam.mtl
o 円柱
v -1.000000 0.000000 2.000000
v -1.000000 -0.000000 0.000000
v -0.980785 -0.195090 2.000000
v -0.980785 -0.195090 0.000000
v -0.923879 -0.382683 2.000000
v -0.923880 -0.382683 0.000000
v -0.831470 -0.555570 2.000000
v -0.831470 -0.555570 0.000000
v -0.707107 -0.707107 2.000000
v -0.707107 -0.707107 0.000000
v -0.555570 -0.831470 2.000000
v -0.555570 -0.831470 0.000000
v -0.382683 -0.923880 2.000000
v -0.382683 -0.923880 0.000000
v -0.195090 -0.980785 2.000000
v -0.195090 -0.980785 0.000000
v 0.000000 -1.000000 2.000000
v 0.000000 -1.000000 0.000000
v 0.195090 -0.980785 2.000000
v 0.195090 -0.980785 0.000000
v 0.382684 -0.923880 2.000000
v 0.382683 -0.923880 0.000000
v 0.555570 -0.831470 2.000000
v 0.555570 -0.831470 0.000000
v 0.707107 -0.707107 2.000000
v 0.707107 -0.707107 0.000000
v 0.831470 -0.555570 2.000000
v 0.831470 -0.555570 -0.000000
v 0.923880 -0.382683 2.000000
v 0.923880 -0.382683 -0.000000
v 0.980785 -0.195090 2.000000
v 0.980785 -0.195090 -0.000000
v 1.000000 0.000000 2.000000
v 1.000000 -0.000000 -0.000000
v 0.980785 0.195090 2.000000
v 0.980785 0.195090 -0.000000
v 0.923880 0.382684 2.000000
v 0.923880 0.382683 -0.000000
v 0.831470 0.555570 2.000000
v 0.831470 0.555570 -0.000000
v 0.707107 0.707107 2.000000
v 0.707107 0.707107 -0.000000
v 0.555570 0.831470 2.000000
v 0.555570 0.831470 -0.000000
v 0.382684 0.923880 2.000000
v 0.382683 0.923879 -0.000000
v 0.195090 0.980785 2.000000
v 0.195090 0.980785 -0.000000
v 0.000000 1.000000 2.000000
v -0.000000 1.000000 -0.000000
v -0.195090 0.980785 2.000000
v -0.195090 0.980785 -0.000000
v -0.382683 0.923880 2.000000
v -0.382683 0.923879 -0.000000
v -0.555570 0.831470 2.000000
v -0.555570 0.831470 -0.000000
v -0.707107 0.707107 2.000000
v -0.707107 0.707107 0.000000
v -0.831470 0.555570 2.000000
v -0.831470 0.555570 0.000000
v -0.923879 0.382684 2.000000
v -0.923880 0.382683 0.000000
v -0.980785 0.195090 2.000000
v -0.980785 0.195090 0.000000
vn -0.9952 -0.0980 -0.0000
vn -0.9569 -0.2903 -0.0000
vn -0.8819 -0.4714 -0.0000
vn -0.7730 -0.6344 -0.0000
vn -0.6344 -0.7730 -0.0000
vn -0.4714 -0.8819 -0.0000
vn -0.2903 -0.9569 -0.0000
vn -0.0980 -0.9952 -0.0000
vn 0.0980 -0.9952 -0.0000
vn 0.2903 -0.9569 -0.0000
vn 0.4714 -0.8819 -0.0000
vn 0.6344 -0.7730 -0.0000
vn 0.7730 -0.6344 -0.0000
vn 0.8819 -0.4714 -0.0000
vn 0.9569 -0.2903 -0.0000
vn 0.9952 -0.0980 -0.0000
vn 0.9952 0.0980 -0.0000
vn 0.9569 0.2903 -0.0000
vn 0.8819 0.4714 -0.0000
vn 0.7730 0.6344 -0.0000
vn 0.6344 0.7730 -0.0000
vn 0.4714 0.8819 -0.0000
vn 0.2903 0.9569 -0.0000
vn 0.0980 0.9952 -0.0000
vn -0.0980 0.9952 -0.0000
vn -0.2903 0.9569 -0.0000
vn -0.4714 0.8819 -0.0000
vn -0.6344 0.7730 -0.0000
vn -0.7730 0.6344 -0.0000
vn -0.8819 0.4714 -0.0000
vn -0.0000 -0.0000 -1.0000
vn -0.9569 0.2903 -0.0000
vn -0.9952 0.0980 -0.0000
vn -0.0000 -0.0000 1.0000
vt 0.500000 0.000150
vt 0.000150 0.031391
vt 0.000150 0.000150
vt 0.500000 0.031391
vt 0.000150 0.062631
vt 0.500000 0.062631
vt 0.000150 0.093872
vt 0.500000 0.093872
vt 0.000150 0.125113
vt 0.500000 0.125113
vt 0.000150 0.156353
vt 0.500000 0.156353
vt 0.000150 0.187594
vt 0.500000 0.187594
vt 0.000150 0.218834
vt 0.500000 0.218834
vt 0.000150 0.250075
vt 0.500000 0.250075
vt 0.000150 0.281316
vt 0.500000 0.281316
vt 0.000150 0.312556
vt 0.500000 0.312556
vt 0.000150 0.343797
vt 0.500000 0.343797
vt 0.000150 0.375038
vt 0.500000 0.375037
vt 0.000150 0.406278
vt 0.500000 0.406278
vt 0.000150 0.437519
vt 0.500000 0.437519
vt 0.000150 0.468759
vt 0.500000 0.468759
vt 0.000150 0.500000
vt 0.500000 0.500000
vt 0.000150 0.531241
vt 0.500000 0.531241
vt 0.000150 0.562481
vt 0.500000 0.562481
vt 0.000150 0.593722
vt 0.500000 0.593722
vt 0.000150 0.624962
vt 0.500000 0.624962
vt 0.000150 0.656203
vt 0.500000 0.656203
vt 0.000150 0.687444
vt 0.500000 0.687444
vt 0.000150 0.718684
vt 0.500000 0.718684
vt 0.000150 0.749925
vt 0.500000 0.749925
vt 0.000150 0.781166
vt 0.500000 0.781165
vt 0.000150 0.812406
vt 0.500000 0.812406
vt 0.000150 0.843647
vt 0.500000 0.843647
vt 0.000150 0.874887
vt 0.500000 0.874887
vt 0.000150 0.906128
vt 0.500000 0.906128
vt 0.000150 0.937369
vt 0.544640 0.325367
vt 0.572304 0.044490
vt 0.853182 0.072154
vt 0.500000 0.937369
vt 0.000150 0.968609
vt 0.500000 0.968609
vt 0.000150 0.999850
vt 0.500300 0.615844
vt 0.718472 0.794892
vt 0.897521 0.576720
vt 0.874917 0.104683
vt 0.889889 0.140828
vt 0.897521 0.179199
vt 0.897521 0.218322
vt 0.889889 0.256693
vt 0.874917 0.292838
vt 0.853182 0.325367
vt 0.825518 0.353031
vt 0.792988 0.374767
vt 0.756843 0.389739
vt 0.718472 0.397371
vt 0.679349 0.397371
vt 0.640978 0.389739
vt 0.604833 0.374767
vt 0.572304 0.353031
vt 0.522904 0.292838
vt 0.500300 0.179199
vt 0.507933 0.256693
vt 0.500300 0.218322
vt 0.507933 0.140828
vt 0.522904 0.104683
vt 0.544640 0.072154
vt 0.604833 0.022754
vt 0.718472 0.000150
vt 0.640978 0.007783
vt 0.679349 0.000150
vt 0.756843 0.007783
vt 0.792988 0.022754
vt 0.825518 0.044490
vt 0.500000 0.999850
vt 0.889889 0.538349
vt 0.874917 0.502205
vt 0.853182 0.469675
vt 0.825518 0.442011
vt 0.792988 0.420276
vt 0.756843 0.405304
vt 0.718472 0.397672
vt 0.679349 0.397671
vt 0.640978 0.405304
vt 0.604833 0.420276
vt 0.572304 0.442011
vt 0.544640 0.469675
vt 0.522904 0.502205
vt 0.507933 0.538350
vt 0.500300 0.576721
vt 0.507933 0.654215
vt 0.522904 0.690359
vt 0.544640 0.722889
vt 0.572304 0.750553
vt 0.604833 0.772288
vt 0.640978 0.787260
vt 0.679349 0.794892
vt 0.756843 0.787260
vt 0.792988 0.772288
vt 0.825518 0.750553
vt 0.853182 0.722889
vt 0.874917 0.690359
vt 0.889889 0.654215
vt 0.897521 0.615843
s 0
usemtl マテリアル
f 2/1/1 3/2/1 1/3/1
f 4/4/2 5/5/2 3/2/2
f 6/6/3 7/7/3 5/5/3
f 8/8/4 9/9/4 7/7/4
f 10/10/5 11/11/5 9/9/5
f 12/12/6 13/13/6 11/11/6
f 14/14/7 15/15/7 13/13/7
f 16/16/8 17/17/8 15/15/8
f 18/18/9 19/19/9 17/17/9
f 20/20/10 21/21/10 19/19/10
f 22/22/11 23/23/11 21/21/11
f 24/24/12 25/25/12 23/23/12
f 26/26/13 27/27/13 25/25/13
f 28/28/14 29/29/14 27/27/14
f 30/30/15 31/31/15 29/29/15
f 32/32/16 33/33/16 31/31/16
f 34/34/17 35/35/17 33/33/17
f 36/36/18 37/37/18 35/35/18
f 38/38/19 39/39/19 37/37/19
f 40/40/20 41/41/20 39/39/20
f 42/42/21 43/43/21 41/41/21
f 44/44/22 45/45/22 43/43/22
f 46/46/23 47/47/23 45/45/23
f 48/48/24 49/49/24 47/47/24
f 50/50/25 51/51/25 49/49/25
f 52/52/26 53/53/26 51/51/26
f 54/54/27 55/55/27 53/53/27
f 56/56/28 57/57/28 55/55/28
f 58/58/29 59/59/29 57/57/29
f 60/60/30 61/61/30 59/59/30
f 38/62/31 22/63/31 6/64/31
f 62/65/32 63/66/32 61/61/32
f 64/67/33 1/68/33 63/66/33
f 31/69/34 47/70/34 63/71/34
f 2/1/1 4/4/1 3/2/1
f 4/4/2 6/6/2 5/5/2
f 6/6/3 8/8/3 7/7/3
f 8/8/4 10/10/4 9/9/4
f 10/10/5 12/12/5 11/11/5
f 12/12/6 14/14/6 13/13/6
f 14/14/7 16/16/7 15/15/7
f 16/16/8 18/18/8 17/17/8
f 18/18/9 20/20/9 19/19/9
f 20/20/10 22/22/10 21/21/10
f 22/22/11 24/24/11 23/23/11
f 24/24/12 26/26/12 25/25/12
f 26/26/13 28/28/13 27/27/13
f 28/28/14 30/30/14 29/29/14
f 30/30/15 32/32/15 31/31/15
f 32/32/16 34/34/16 33/33/16
f 34/34/17 36/36/17 35/35/17
f 36/36/18 38/38/18 37/37/18
f 38/38/19 40/40/19 39/39/19
f 40/40/20 42/42/20 41/41/20
f 42/42/21 44/44/21 43/43/21
f 44/44/22 46/46/22 45/45/22
f 46/46/23 48/48/23 47/47/23
f 48/48/24 50/50/24 49/49/24
f 50/50/25 52/52/25 51/51/25
f 52/52/26 54/54/26 53/53/26
f 54/54/27 56/56/27 55/55/27
f 56/56/28 58/58/28 57/57/28
f 58/58/29 60/60/29 59/59/29
f 60/60/30 62/65/30 61/61/30
f 6/64/31 4/72/31 2/73/31
f 2/73/31 64/74/31 6/64/31
f 64/74/31 62/75/31 6/64/31
f 62/75/31 60/76/31 58/77/31
f 58/77/31 56/78/31 54/79/31
f 54/79/31 52/80/31 50/81/31
f 50/81/31 48/82/31 54/79/31
f 48/82/31 46/83/31 54/79/31
f 46/83/31 44/84/31 42/85/31
f 42/85/31 40/86/31 38/62/31
f 38/62/31 36/87/31 30/88/31
f 36/87/31 34/89/31 30/88/31
f 34/89/31 32/90/31 30/88/31
f 30/88/31 28/91/31 26/92/31
f 26/92/31 24/93/31 22/63/31
f 22/63/31 20/94/31 14/95/31
f 20/94/31 18/96/31 14/95/31
f 18/96/31 16/97/31 14/95/31
f 14/95/31 12/98/31 10/99/31
f 10/99/31 8/100/31 6/64/31
f 62/75/31 58/77/31 6/64/31
f 58/77/31 54/79/31 6/64/31
f 46/83/31 42/85/31 54/79/31
f 42/85/31 38/62/31 54/79/31
f 30/88/31 26/92/31 38/62/31
f 26/92/31 22/63/31 38/62/31
f 14/95/31 10/99/31 22/63/31
f 10/99/31 6/64/31 22/63/31
f 6/64/31 54/79/31 38/62/31
f 62/65/32 64/67/32 63/66/32
f 64/67/33 2/101/33 1/68/33
f 63/71/34 1/102/34 3/103/34
f 3/103/34 5/104/34 7/105/34
f 7/105/34 9/106/34 11/107/34
f 11/107/34 13/108/34 15/109/34
f 15/109/34 17/110/34 19/111/34
f 19/111/34 21/112/34 23/113/34
f 23/113/34 25/114/34 27/115/34
f 27/115/34 29/116/34 31/69/34
f 31/69/34 33/117/34 35/118/34
f 35/118/34 37/119/34 39/120/34
f 39/120/34 41/121/34 43/122/34
f 43/122/34 45/123/34 47/70/34
f 47/70/34 49/124/34 51/125/34
f 51/125/34 53/126/34 55/127/34
f 55/127/34 57/128/34 59/129/34
f 59/129/34 61/130/34 63/71/34
f 63/71/34 3/103/34 15/109/34
f 3/103/34 7/105/34 15/109/34
f 7/105/34 11/107/34 15/109/34
f 15/109/34 19/111/34 31/69/34
f 19/111/34 23/113/34 31/69/34
f 23/113/34 27/115/34 31/69/34
f 31/69/34 35/118/34 47/70/34
f 35/118/34 39/120/34 47/70/34
f 39/120/34 43/122/34 47/70/34
f 47/70/34 51/125/34 63/71/34
f 51/125/34 55/127/34 63/71/34
f 55/127/34 59/129/34 63/71/34
f 63/71/34 15/109/34 31/69/34
